<?xml version="1.0" encoding="UTF-8"?>
<!DOCTYPE svg PUBLIC "-//W3C//DTD SVG 1.1//EN" "http://www.w3.org/Graphics/SVG/1.1/DTD/svg11.dtd">
<!-- Creator: CorelDRAW X8 -->
<svg xmlns="http://www.w3.org/2000/svg" xml:space="preserve" width="127mm" height="24.4022mm" version="1.1" style="shape-rendering:geometricPrecision; text-rendering:geometricPrecision; image-rendering:optimizeQuality; fill-rule:evenodd; clip-rule:evenodd"
viewBox="0 0 12700 2440"
 xmlns:xlink="http://www.w3.org/1999/xlink">
 <defs>
  <style type="text/css">
   <![CDATA[
    .fil0 {fill:#2B2A29;fill-rule:nonzero}
   ]]>
  </style>
 </defs>
 <g id="Layer_x0020_1">
  <metadata id="CorelCorpID_0Corel-Layer"/>
  <path class="fil0" d="M1258 1023c-143,-152 -368,-203 -572,-203 -324,0 -648,159 -648,520 0,589 804,379 804,627 0,82 -108,111 -216,111 -143,0 -248,-60 -337,-168l-289 321c153,155 391,209 607,209 330,0 712,-114 712,-508 0,-589 -804,-395 -804,-623 0,-92 95,-127 174,-127 115,0 207,44 277,130l292 -289zm1665 3c-149,-152 -368,-206 -549,-206 -477,0 -858,318 -858,810 0,492 381,810 858,810 181,0 400,-54 549,-206l-314 -331c-54,64 -131,118 -235,118 -239,0 -382,-159 -382,-391 0,-232 143,-391 382,-391 98,0 187,51 235,118l314 -331zm1141 1376l438 0 0 -785c0,-514 -149,-797 -705,-797 -251,0 -505,82 -680,248l254 260c102,-114 232,-184 388,-184 165,0 305,108 305,276 -397,0 -1045,10 -1045,544 0,311 260,476 549,476 194,0 385,-67 490,-232l6 0 0 194zm0 -677l0 102c0,191 -175,289 -362,289 -105,0 -226,-54 -226,-168 0,-210 324,-223 470,-223l118 0zm743 677l477 0 0 -2402 -477 0 0 2402zm1948 -511c-79,108 -184,187 -340,187 -184,0 -321,-118 -359,-299l1106 0 0 -149c0,-492 -280,-810 -725,-810 -476,0 -858,318 -858,810 0,492 382,810 858,810 248,0 499,-111 652,-305l-334 -244zm-699 -436c13,-149 127,-292 337,-292 171,0 295,133 292,292l-629 0zm1395 947l477 0 0 -645c0,-308 44,-518 406,-518 70,0 137,13 204,32l0 -435c-45,-13 -105,-16 -159,-16 -210,0 -343,98 -445,286l-6 0 0 -248 -477 0 0 1544zm2364 -511c-79,108 -184,187 -340,187 -184,0 -321,-118 -359,-299l1106 0 0 -149c0,-492 -280,-810 -725,-810 -476,0 -858,318 -858,810 0,492 382,810 858,810 248,0 499,-111 652,-305l-334 -244zm-699 -436c13,-149 127,-292 337,-292 171,0 295,133 292,292l-629 0zm2364 947l438 0 0 -785c0,-514 -149,-797 -705,-797 -251,0 -505,82 -680,248l254 260c102,-114 232,-184 388,-184 165,0 305,108 305,276 -397,0 -1045,10 -1045,544 0,311 260,476 549,476 194,0 385,-67 490,-232l6 0 0 194zm0 -677l0 102c0,191 -175,289 -362,289 -105,0 -226,-54 -226,-168 0,-210 324,-223 470,-223l118 0zm743 677l477 0 0 -2402 -477 0 0 2402z"/>
 </g>
</svg>
