<?xml version="1.0" encoding="utf-8"?>
<!-- Generator: Adobe Illustrator 23.0.0, SVG Export Plug-In . SVG Version: 6.00 Build 0)  -->
<svg version="1.1" id="Layer_1" xmlns="http://www.w3.org/2000/svg" xmlns:xlink="http://www.w3.org/1999/xlink" x="0px" y="0px"
	 viewBox="0 0 550 550" style="enable-background:new 0 0 550 550;" xml:space="preserve">
<style type="text/css">
	.st0{fill:#B2D3EA;}
	.st1{fill:#173D7A;}
	.st2{fill:#396CAA;}
	.st3{fill:#274F89;}
	.st4{fill:#D4ECFF;}
	.st5{fill:#FFFFFF;}
	.st6{fill:#5793CE;}
	.st7{fill:#012C4F;}
	.st8{fill:#FFC2B0;}
	.st9{fill:#295C8E;}
	.st10{fill:#EA9C92;}
	.st11{fill:#98D2F9;}
	.st12{fill:#7AC3F4;}
	.st13{fill:#033D77;}
	.st14{fill:#97D0F7;}
	.st15{fill:#4B89D4;}
</style>
<g>
	<g>
		<g>
			<path class="st0" d="M173.03,228.96l-29.83-18.05c-2.52-1.51-2.2-4.15,0.71-5.9l28.43-17.23c2.91-1.75,7.3-1.94,9.82-0.42
				l29.83,18.05c2.52,1.51,2.2,4.15-0.71,5.9l-28.43,17.23C179.95,230.29,175.55,230.47,173.03,228.96z"/>
			<g>
				<path class="st1" d="M223.45,171.09L223.45,171.09v-7.9l-40.33-0.02l0.28-0.01c-3.2-1.92-8.79-1.68-12.48,0.54l1.19-0.52
					l-40.37-0.02v8.43c-0.09,1.3,0.61,2.56,2.14,3.48l37.91,22.94c3.2,1.92,8.79,1.68,12.48-0.54l36.13-21.9
					C222.54,174.29,223.57,172.63,223.45,171.09z"/>
				<path class="st2" d="M177.61,161.87c-2.34,0.06-4.77,0.67-6.69,1.83l1.19-0.52l-40.37-0.02v8.43c-0.09,1.3,0.61,2.56,2.14,3.48
					l37.91,22.94c1.54,0.92,3.63,1.34,5.79,1.29L177.61,161.87z"/>
				<path class="st0" d="M136.31,163.16l-4.57,0v8.43c-0.09,1.3,0.61,2.56,2.14,3.48l2.43,1.46V163.16z"/>
				<path class="st3" d="M172.6,198.42c2.76,1.23,6.75,1.16,9.98-0.12v-11.04h-9.98V198.42z"/>
				<path class="st4" d="M171.8,189.64l-37.91-22.94c-3.2-1.92-2.8-5.28,0.9-7.5l36.13-21.9c3.69-2.22,9.28-2.46,12.48-0.54
					l37.91,22.94c3.2,1.92,2.8,5.28-0.9,7.5l-36.13,21.9C180.58,191.32,175,191.57,171.8,189.64z"/>
				<g>
					<path class="st5" d="M179.15,158.85L168,152.1c-1.49-0.89-1.49-2.35,0-3.24c1.49-0.89,3.91-0.89,5.39,0l11.15,6.74
						c1.49,0.89,1.49,2.35,0,3.24C183.05,159.74,180.63,159.74,179.15,158.85z"/>
				</g>
				<g>
					<path class="st5" d="M195.35,168.7l-6.77-4.15c-1.49-0.89-1.49-2.35,0-3.24s3.91-0.89,5.39,0l6.77,4.15
						c1.49,0.89,1.49,2.35,0,3.24C199.26,169.6,196.84,169.6,195.35,168.7z"/>
				</g>
				<g>
					<path class="st5" d="M163.52,162.99l-6.77-4.15c-1.49-0.89-1.49-2.35,0-3.24c1.49-0.89,3.91-0.89,5.39,0l6.77,4.15
						c1.49,0.89,1.49,2.35,0,3.24C167.42,163.88,165.01,163.88,163.52,162.99z"/>
				</g>
			</g>
		</g>
	</g>
	<path class="st0" d="M479.94,402.81L268.37,275.75c-5.99-3.59-16.44-3.14-23.35,1.01l-144.07,86.49
		c-6.91,4.15-7.66,10.43-1.68,14.02l72.74,43.68c-5.77,0.53-11.33,2.11-15.78,4.78c-11.08,6.66-11.08,17.45,0,24.1
		c11.08,6.66,29.05,6.66,40.13,0c4.45-2.67,7.08-6.01,7.96-9.47l17.19,10.32c-3.58,0.85-6.93,2.13-9.82,3.87
		c-11.31,6.79-11.31,17.8,0,24.59c11.31,6.79,29.64,6.79,40.94,0c2.89-1.74,5.03-3.75,6.45-5.9l51.77,31.09
		c5.99,3.59,16.44,3.14,23.35-1.01l144.07-86.49C485.18,412.68,485.93,406.4,479.94,402.81z"/>
	<g>
		<path class="st1" d="M537.33,141.48L316.98,9.15c-2.56-1.54-5.16-1.77-7.47-0.95l0.01-0.02l-0.4,0.16
			c-0.03,0.01-0.07,0.02-0.1,0.04l-7.96,3.17l7.15,3.64c-0.03,0.14-0.07,0.26-0.1,0.4l-35.89,169.93c-1.8,8.5,1.8,18.43,8.03,22.18
			L495.3,336.84l-0.77,9.48l8.7-3.51c2.92-1.42,5.26-4.64,6.23-9.22l35.89-169.93C547.16,155.15,543.56,145.22,537.33,141.48z"/>
		<path class="st2" d="M537.33,141.48L316.98,9.15c-2.56-1.54-5.16-1.77-7.47-0.95l0.01-0.02l-0.4,0.16
			c-0.03,0.01-0.07,0.02-0.1,0.04l-7.96,3.17l7.15,3.64c-0.03,0.14-0.07,0.26-0.1,0.4l-23.65,112l107.81,87.37l152.02-64.34
			C542.83,146.67,540.4,143.32,537.33,141.48z"/>
		<path class="st3" d="M529.02,167.6l16.77-7.43c0.31-6.76-2.38-13.74-6.8-17.47l-26.55,11.62L529.02,167.6z"/>
		<path class="st4" d="M486.88,345.41L266.54,213.09c-6.23-3.74-9.83-13.67-8.03-22.18l35.89-169.93c1.8-8.5,8.31-12.36,14.54-8.62
			l220.35,132.33c6.23,3.74,9.83,13.67,8.03,22.18l-35.89,169.93C499.63,345.3,493.12,349.16,486.88,345.41z"/>
		<path class="st5" d="M482.11,332.77L274.88,208.38c-5.7-3.43-9-12.51-7.35-20.29l32.84-155.5c1.64-7.78,7.6-11.31,13.3-7.89
			L520.9,149.09c5.7,3.43,9,12.51,7.35,20.29l-32.84,155.5C493.77,332.67,487.81,336.2,482.11,332.77z"/>
		<path class="st5" d="M482.11,332.77L274.88,208.38c-5.7-3.43-9-12.51-7.35-20.29l32.84-155.5c1.64-7.78,7.6-11.31,13.3-7.89
			L520.9,149.09c5.7,3.43,9,12.51,7.35,20.29l-32.84,155.5C493.77,332.67,487.81,336.2,482.11,332.77z"/>
		<path class="st1" d="M489.92,351.18l-30.12-4.14L265.38,230.28c-6.23-3.74-17.12-3.27-24.32,1.05l-137.77,82.71l-18.21-2.5v10.75
			l0.02,0c-0.12,2.48,1.24,4.87,4.18,6.64l220.35,132.33c6.23,3.74,17.12,3.27,24.32-1.05l150.04-90.07
			c4.05-2.43,6.07-5.56,5.95-8.51l0,0V351.18z"/>
		<path class="st2" d="M343.84,277.4l-13.81-8.3H178.16l-74.87,44.93l-18.21-2.5v10.75l0.02,0c-0.12,2.48,1.24,4.87,4.18,6.64
			l220.35,132.33c3.29,1.98,7.89,2.77,12.55,2.45L343.84,277.4z"/>
		<path class="st6" d="M93.16,312.64l-8.08-1.11v10.75l0.02,0c-0.12,2.48,1.24,4.87,4.18,6.64l3.88,2.33V312.64z"/>
		<path class="st3" d="M311.84,462.32c5.91,2.33,14.36,1.82,20.66-1.33v-23.98h-20.66V462.32z"/>
		<path class="st4" d="M309.62,450.51L89.27,318.19c-6.23-3.74-5.45-10.28,1.75-14.6l150.04-90.07c7.2-4.32,18.09-4.79,24.32-1.05
			l220.35,132.33c6.23,3.74,5.45,10.28-1.75,14.6l-150.04,90.07C326.74,453.79,315.85,454.26,309.62,450.51z"/>
		<g>
			<path class="st1" d="M182.99,274.38l-9.97-5.99c-0.8-0.48-0.7-1.32,0.22-1.88l11.77-7.07c0.92-0.56,2.32-0.62,3.12-0.13
				l9.97,5.99c0.8,0.48,0.7,1.32-0.22,1.88l-11.77,7.07C185.19,274.8,183.79,274.86,182.99,274.38z"/>
			<path class="st1" d="M198.39,283.63l-9.97-5.99c-0.8-0.48-0.7-1.32,0.22-1.88l11.77-7.07c0.92-0.56,2.32-0.62,3.12-0.13
				l9.97,5.99c0.8,0.48,0.7,1.32-0.22,1.88l-11.77,7.07C200.58,284.05,199.19,284.11,198.39,283.63z"/>
			<path class="st1" d="M213.78,292.87l-9.97-5.99c-0.8-0.48-0.7-1.32,0.22-1.88l11.77-7.07c0.92-0.56,2.32-0.62,3.12-0.13
				l9.97,5.99c0.8,0.48,0.7,1.32-0.22,1.88l-11.77,7.07C215.98,293.29,214.58,293.35,213.78,292.87z"/>
			<path class="st1" d="M235.08,285.24l-9.97-5.99c-0.8-0.48-0.7-1.32,0.22-1.88l9.88-5.93c0.92-0.56,2.32-0.62,3.12-0.13l9.97,5.99
				c0.8,0.48,0.7,1.32-0.22,1.88l-9.88,5.93C237.27,285.66,235.88,285.72,235.08,285.24z"/>
			<path class="st1" d="M250.47,294.48l-9.97-5.99c-0.8-0.48-0.7-1.32,0.22-1.88l9.88-5.93c0.92-0.56,2.32-0.62,3.12-0.13l9.97,5.99
				c0.8,0.48,0.7,1.32-0.22,1.88l-9.88,5.93C252.67,294.9,251.27,294.96,250.47,294.48z"/>
			<path class="st1" d="M265.87,303.73l-9.97-5.99c-0.8-0.48-0.7-1.32,0.22-1.88l9.88-5.93c0.92-0.56,2.32-0.62,3.12-0.13l9.97,5.99
				c0.8,0.48,0.7,1.32-0.22,1.88l-9.88,5.93C268.07,304.15,266.67,304.21,265.87,303.73z"/>
			<path class="st1" d="M281.26,312.97l-9.97-5.99c-0.8-0.48-0.7-1.32,0.22-1.88l9.88-5.93c0.92-0.55,2.32-0.62,3.12-0.13l9.97,5.99
				c0.8,0.48,0.7,1.32-0.22,1.88l-9.88,5.93C283.46,313.39,282.06,313.45,281.26,312.97z"/>
			<path class="st1" d="M296.66,322.22l-9.97-5.99c-0.8-0.48-0.7-1.32,0.22-1.88l9.88-5.93c0.92-0.55,2.32-0.62,3.12-0.13l9.97,5.99
				c0.8,0.48,0.7,1.32-0.22,1.88l-9.88,5.93C298.86,322.64,297.46,322.7,296.66,322.22z"/>
			<path class="st1" d="M312.06,331.47l-9.97-5.99c-0.8-0.48-0.7-1.32,0.22-1.88l9.88-5.93c0.92-0.56,2.32-0.62,3.12-0.13l9.97,5.99
				c0.8,0.48,0.7,1.32-0.22,1.88l-9.88,5.93C314.26,331.89,312.86,331.95,312.06,331.47z"/>
			<path class="st1" d="M327.45,340.71l-9.97-5.99c-0.8-0.48-0.7-1.32,0.22-1.88l9.88-5.93c0.92-0.56,2.32-0.62,3.12-0.13l9.97,5.99
				c0.8,0.48,0.7,1.32-0.22,1.88l-9.88,5.93C329.65,341.13,328.25,341.19,327.45,340.71z"/>
			<path class="st1" d="M342.85,349.96l-9.97-5.99c-0.8-0.48-0.7-1.32,0.22-1.88l9.88-5.93c0.92-0.56,2.32-0.62,3.12-0.13l9.97,5.99
				c0.8,0.48,0.7,1.32-0.22,1.88l-9.88,5.93C345.05,350.38,343.65,350.44,342.85,349.96z"/>
			<path class="st1" d="M358.25,359.2l-9.97-5.99c-0.8-0.48-0.7-1.32,0.22-1.88l9.88-5.93c0.92-0.56,2.32-0.62,3.12-0.13l9.97,5.99
				c0.8,0.48,0.7,1.32-0.22,1.88l-9.88,5.93C360.44,359.62,359.05,359.68,358.25,359.2z"/>
			<path class="st1" d="M373.64,368.45l-9.97-5.99c-0.8-0.48-0.7-1.32,0.22-1.88l9.88-5.93c0.92-0.56,2.32-0.62,3.12-0.13l9.97,5.99
				c0.8,0.48,0.7,1.32-0.22,1.88l-9.88,5.93C375.84,368.87,374.44,368.93,373.64,368.45z"/>
			<path class="st2" d="M257.76,280.86l-9.97-5.99c-0.8-0.48-0.7-1.32,0.22-1.88l9.88-5.93c0.92-0.56,2.32-0.62,3.12-0.13l9.97,5.99
				c0.8,0.48,0.7,1.32-0.22,1.88l-9.88,5.93C259.96,281.28,258.56,281.34,257.76,280.86z"/>
			<path class="st2" d="M242.13,271.47l-9.97-5.99c-0.8-0.48-0.7-1.32,0.22-1.88l9.88-5.93c0.92-0.56,2.32-0.62,3.12-0.13l9.97,5.99
				c0.8,0.48,0.7,1.32-0.22,1.88l-9.88,5.93C244.33,271.89,242.94,271.95,242.13,271.47z"/>
			<path class="st1" d="M226.48,262.07l-21.47-12.89c-0.8-0.48-0.7-1.32,0.22-1.88l9.88-5.93c0.92-0.56,2.32-0.62,3.12-0.13
				l21.47,12.89c0.8,0.48,0.7,1.32-0.22,1.88l-9.88,5.93C228.68,262.49,227.28,262.56,226.48,262.07z"/>
			<path class="st1" d="M237.42,250.64L220,240.18c-0.8-0.48-0.7-1.32,0.22-1.88l9.88-5.93c0.92-0.56,2.32-0.62,3.12-0.13
				l17.43,10.46c0.8,0.48,0.7,1.32-0.22,1.88l-9.88,5.93C239.62,251.06,238.22,251.12,237.42,250.64z"/>
			<path class="st2" d="M273.16,290.1l-9.97-5.99c-0.8-0.48-0.7-1.32,0.22-1.88l9.88-5.93c0.92-0.56,2.32-0.62,3.12-0.13l9.97,5.99
				c0.8,0.48,0.7,1.32-0.22,1.88l-9.88,5.93C275.36,290.52,273.96,290.58,273.16,290.1z"/>
			<path class="st1" d="M288.55,299.35l-9.97-5.99c-0.8-0.48-0.7-1.32,0.22-1.88l9.88-5.93c0.92-0.56,2.32-0.62,3.12-0.13l9.97,5.99
				c0.8,0.48,0.7,1.32-0.22,1.88l-9.88,5.93C290.75,299.77,289.35,299.83,288.55,299.35z"/>
			<path class="st1" d="M303.95,308.6l-9.97-5.99c-0.8-0.48-0.7-1.32,0.22-1.88l9.88-5.93c0.92-0.56,2.32-0.62,3.12-0.13l9.97,5.99
				c0.8,0.48,0.7,1.32-0.22,1.88l-9.88,5.93C306.15,309.02,304.75,309.08,303.95,308.6z"/>
			<path class="st1" d="M319.35,317.84l-9.97-5.99c-0.8-0.48-0.7-1.32,0.22-1.88l9.88-5.93c0.92-0.56,2.32-0.62,3.12-0.13l9.97,5.99
				c0.8,0.48,0.7,1.32-0.22,1.88l-9.88,5.93C321.54,318.26,320.15,318.32,319.35,317.84z"/>
			<path class="st1" d="M334.74,327.09l-9.97-5.99c-0.8-0.48-0.7-1.32,0.22-1.88l9.88-5.93c0.92-0.56,2.32-0.62,3.12-0.13l9.97,5.99
				c0.8,0.48,0.7,1.32-0.22,1.88l-9.88,5.93C336.94,327.51,335.54,327.57,334.74,327.09z"/>
			<path class="st1" d="M350.14,336.33l-9.97-5.99c-0.8-0.48-0.7-1.32,0.22-1.88l9.88-5.93c0.92-0.56,2.32-0.62,3.12-0.13l9.97,5.99
				c0.8,0.48,0.7,1.32-0.22,1.88l-9.88,5.93C352.34,336.75,350.94,336.81,350.14,336.33z"/>
			<path class="st1" d="M365.53,345.58l-9.97-5.99c-0.8-0.48-0.7-1.32,0.22-1.88l9.88-5.93c0.92-0.55,2.32-0.62,3.12-0.13l9.97,5.99
				c0.8,0.48,0.7,1.32-0.22,1.88l-9.88,5.93C367.73,346,366.34,346.06,365.53,345.58z"/>
			<path class="st1" d="M380.93,354.83l-9.97-5.99c-0.8-0.48-0.7-1.32,0.22-1.88l9.88-5.93c0.92-0.56,2.32-0.62,3.12-0.13l9.97,5.99
				c0.8,0.48,0.7,1.32-0.22,1.88l-9.88,5.93C383.13,355.25,381.73,355.31,380.93,354.83z"/>
			<path class="st1" d="M396.33,364.07l-9.97-5.99c-0.8-0.48-0.7-1.32,0.22-1.88l9.88-5.93c0.92-0.56,2.32-0.62,3.12-0.13l9.97,5.99
				c0.8,0.48,0.7,1.32-0.22,1.88l-9.88,5.93C398.53,364.49,397.13,364.55,396.33,364.07z"/>
			<path class="st1" d="M423.7,380.51l-21.75-13.06c-0.8-0.48-0.7-1.32,0.22-1.88l9.88-5.93c0.92-0.56,2.32-0.62,3.12-0.13
				l21.75,13.06c0.8,0.48,0.7,1.32-0.22,1.88l-9.88,5.93C425.9,380.93,424.5,380.99,423.7,380.51z"/>
			<path class="st1" d="M453.67,362.51l-18.36-11.03c-0.8-0.48-0.7-1.32,0.22-1.88l9.88-5.93c0.92-0.56,2.32-0.62,3.12-0.13
				l18.36,11.03c0.8,0.48,0.7,1.32-0.22,1.88l-9.88,5.93C455.87,362.93,454.47,362.99,453.67,362.51z"/>
			<path class="st1" d="M300.12,288.29l-9.97-5.99c-0.8-0.48-0.7-1.32,0.22-1.88l9.88-5.93c0.92-0.56,2.32-0.62,3.12-0.13l9.97,5.99
				c0.8,0.48,0.7,1.32-0.22,1.88l-9.88,5.93C302.32,288.72,300.92,288.78,300.12,288.29z"/>
			<path class="st1" d="M284.34,278.82l-9.97-5.99c-0.8-0.48-0.7-1.32,0.22-1.88l9.88-5.93c0.92-0.56,2.32-0.62,3.12-0.13l9.97,5.99
				c0.8,0.48,0.7,1.32-0.22,1.88l-9.88,5.93C286.54,279.24,285.14,279.3,284.34,278.82z"/>
			<path class="st2" d="M268.56,269.34l-9.97-5.99c-0.8-0.48-0.7-1.32,0.22-1.88l9.88-5.93c0.92-0.56,2.32-0.62,3.12-0.13l9.97,5.99
				c0.8,0.48,0.7,1.32-0.22,1.88l-9.88,5.93C270.76,269.76,269.36,269.82,268.56,269.34z"/>
			<path class="st1" d="M252.78,259.87l-9.97-5.99c-0.8-0.48-0.7-1.32,0.22-1.88l9.88-5.93c0.92-0.56,2.32-0.62,3.12-0.13l9.97,5.99
				c0.8,0.48,0.7,1.32-0.22,1.88l-9.88,5.93C254.98,260.29,253.58,260.35,252.78,259.87z"/>
			<path class="st1" d="M315.52,297.54l-9.97-5.99c-0.8-0.48-0.7-1.32,0.22-1.88l9.88-5.93c0.92-0.56,2.32-0.62,3.12-0.13l9.97,5.99
				c0.8,0.48,0.7,1.32-0.22,1.88l-9.88,5.93C317.71,297.96,316.32,298.02,315.52,297.54z"/>
			<path class="st1" d="M330.91,306.79l-9.97-5.99c-0.8-0.48-0.7-1.32,0.22-1.88l9.88-5.93c0.92-0.56,2.32-0.62,3.12-0.13l9.97,5.99
				c0.8,0.48,0.7,1.32-0.22,1.88l-9.88,5.93C333.11,307.21,331.71,307.27,330.91,306.79z"/>
			<path class="st1" d="M346.31,316.03l-9.97-5.99c-0.8-0.48-0.7-1.32,0.22-1.88l9.88-5.93c0.92-0.56,2.32-0.62,3.12-0.13l9.97,5.99
				c0.8,0.48,0.7,1.32-0.22,1.88l-9.88,5.93C348.51,316.45,347.11,316.51,346.31,316.03z"/>
			<path class="st1" d="M361.7,325.28l-9.97-5.99c-0.8-0.48-0.7-1.32,0.22-1.88l9.88-5.93c0.92-0.56,2.32-0.62,3.12-0.13l9.97,5.99
				c0.8,0.48,0.7,1.32-0.22,1.88l-9.88,5.93C363.9,325.7,362.5,325.76,361.7,325.28z"/>
			<path class="st1" d="M377.1,334.52l-9.97-5.99c-0.8-0.48-0.7-1.32,0.22-1.88l9.88-5.93c0.92-0.56,2.32-0.62,3.12-0.13l9.97,5.99
				c0.8,0.48,0.7,1.32-0.22,1.88l-9.88,5.93C379.3,334.95,377.9,335.01,377.1,334.52z"/>
			<path class="st1" d="M392.5,343.77l-9.97-5.99c-0.8-0.48-0.7-1.32,0.22-1.88l9.88-5.93c0.92-0.56,2.32-0.62,3.12-0.13l9.97,5.99
				c0.8,0.48,0.7,1.32-0.22,1.88l-9.88,5.93C394.7,344.19,393.3,344.25,392.5,343.77z"/>
			<path class="st1" d="M407.89,353.02l-9.97-5.99c-0.8-0.48-0.7-1.32,0.22-1.88l9.88-5.93c0.92-0.56,2.32-0.62,3.12-0.13l9.97,5.99
				c0.8,0.48,0.7,1.32-0.22,1.88l-9.88,5.93C410.09,353.44,408.69,353.5,407.89,353.02z"/>
			<path class="st1" d="M423.29,362.26l-9.97-5.99c-0.8-0.48-0.7-1.32,0.22-1.88l9.88-5.93c0.92-0.56,2.32-0.62,3.12-0.13l9.97,5.99
				c0.8,0.48,0.7,1.32-0.22,1.88l-9.88,5.93C425.49,362.68,424.09,362.74,423.29,362.26z"/>
			<path class="st1" d="M438.69,371.51l-9.97-5.99c-0.8-0.48-0.7-1.32,0.22-1.88l9.88-5.93c0.92-0.55,2.32-0.62,3.12-0.13l9.97,5.99
				c0.8,0.48,0.7,1.32-0.22,1.88l-9.88,5.93C440.88,371.93,439.49,371.99,438.69,371.51z"/>
			<path class="st1" d="M292.01,265.43l-9.97-5.99c-0.8-0.48-0.7-1.32,0.22-1.88l9.88-5.93c0.92-0.56,2.32-0.62,3.12-0.13l9.97,5.99
				c0.8,0.48,0.7,1.32-0.22,1.88l-9.88,5.93C294.21,265.85,292.81,265.91,292.01,265.43z"/>
			<path class="st1" d="M276.69,256.23l-9.97-5.99c-0.8-0.48-0.7-1.32,0.22-1.88l9.88-5.93c0.92-0.56,2.32-0.62,3.12-0.13l9.97,5.99
				c0.8,0.48,0.7,1.32-0.22,1.88l-9.88,5.93C278.89,256.65,277.49,256.71,276.69,256.23z"/>
			<path class="st1" d="M261.37,247.03l-9.97-5.99c-0.8-0.48-0.7-1.32,0.22-1.88l9.88-5.93c0.92-0.56,2.32-0.62,3.12-0.13l9.97,5.99
				c0.8,0.48,0.7,1.32-0.22,1.88l-9.88,5.93C263.57,247.45,262.17,247.51,261.37,247.03z"/>
			<path class="st1" d="M246.05,237.83l-9.97-5.99c-0.8-0.48-0.7-1.32,0.22-1.88l9.88-5.93c0.92-0.56,2.32-0.62,3.12-0.13l9.97,5.99
				c0.8,0.48,0.7,1.32-0.22,1.88l-9.88,5.93C248.25,238.25,246.85,238.31,246.05,237.83z"/>
			<path class="st1" d="M261.81,228.36l-9.97-5.99c-0.8-0.48-0.7-1.32,0.22-1.88l3.27-1.96c0.92-0.56,2.32-0.62,3.12-0.13l9.97,5.99
				c0.8,0.48,0.7,1.32-0.22,1.88l-3.27,1.96C264.01,228.79,262.61,228.85,261.81,228.36z"/>
			<path class="st1" d="M281.8,240.37l-9.97-5.99c-0.8-0.48-0.7-1.32,0.22-1.88l3.27-1.96c0.92-0.56,2.32-0.62,3.12-0.13l9.97,5.99
				c0.8,0.48,0.7,1.32-0.22,1.88l-3.27,1.96C284,240.79,282.6,240.85,281.8,240.37z"/>
			<path class="st1" d="M297.05,249.53l-9.97-5.99c-0.8-0.48-0.7-1.32,0.22-1.88l3.27-1.96c0.92-0.56,2.32-0.62,3.12-0.13l9.97,5.99
				c0.8,0.48,0.7,1.32-0.22,1.88l-3.27,1.96C299.25,249.95,297.85,250.01,297.05,249.53z"/>
			<path class="st1" d="M312.31,258.69l-9.97-5.99c-0.8-0.48-0.7-1.32,0.22-1.88l3.27-1.96c0.92-0.56,2.32-0.62,3.12-0.13l9.97,5.99
				c0.8,0.48,0.7,1.32-0.22,1.88l-3.27,1.96C314.51,259.11,313.11,259.17,312.31,258.69z"/>
			<path class="st1" d="M327.57,267.86l-9.97-5.99c-0.8-0.48-0.7-1.32,0.22-1.88l3.27-1.96c0.92-0.56,2.32-0.62,3.12-0.13l9.97,5.99
				c0.8,0.48,0.7,1.32-0.22,1.88l-3.27,1.96C329.76,268.28,328.37,268.34,327.57,267.86z"/>
			<path class="st1" d="M412.74,319l-9.97-5.99c-0.8-0.48-0.7-1.32,0.22-1.88l3.27-1.96c0.92-0.56,2.32-0.62,3.12-0.13l9.97,5.99
				c0.8,0.48,0.7,1.32-0.22,1.88l-3.27,1.96C414.94,319.42,413.54,319.48,412.74,319z"/>
			<path class="st1" d="M427.99,328.17l-9.97-5.99c-0.8-0.48-0.7-1.32,0.22-1.88l3.27-1.96c0.92-0.56,2.32-0.62,3.12-0.13l9.97,5.99
				c0.8,0.48,0.7,1.32-0.22,1.88l-3.27,1.96C430.19,328.59,428.79,328.65,427.99,328.17z"/>
			<path class="st1" d="M443.25,337.33l-9.97-5.99c-0.8-0.48-0.7-1.32,0.22-1.88l3.27-1.96c0.92-0.56,2.32-0.62,3.12-0.13l9.97,5.99
				c0.8,0.48,0.7,1.32-0.22,1.88l-3.27,1.96C445.45,337.75,444.05,337.81,443.25,337.33z"/>
			<path class="st1" d="M458.5,346.49l-9.97-5.99c-0.8-0.48-0.7-1.32,0.22-1.88l3.27-1.96c0.92-0.56,2.32-0.62,3.12-0.13l9.97,5.99
				c0.8,0.48,0.7,1.32-0.22,1.88l-3.27,1.96C460.7,346.91,459.31,346.97,458.5,346.49z"/>
			<path class="st1" d="M307.41,274.67l-9.97-5.99c-0.8-0.48-0.7-1.32,0.22-1.88l9.88-5.93c0.92-0.56,2.32-0.62,3.12-0.13l9.97,5.99
				c0.8,0.48,0.7,1.32-0.22,1.88l-9.88,5.93C309.61,275.09,308.21,275.15,307.41,274.67z"/>
			<path class="st1" d="M322.8,283.92l-9.97-5.99c-0.8-0.48-0.7-1.32,0.22-1.88l9.88-5.93c0.92-0.55,2.32-0.62,3.12-0.13l9.97,5.99
				c0.8,0.48,0.7,1.32-0.22,1.88l-9.88,5.93C325,284.34,323.61,284.4,322.8,283.92z"/>
			<path class="st1" d="M338.2,293.16l-9.97-5.99c-0.8-0.48-0.7-1.32,0.22-1.88l9.88-5.93c0.92-0.56,2.32-0.62,3.12-0.13l9.97,5.99
				c0.8,0.48,0.7,1.32-0.22,1.88l-9.88,5.93C340.4,293.58,339,293.64,338.2,293.16z"/>
			<path class="st1" d="M353.6,302.41l-9.97-5.99c-0.8-0.48-0.7-1.32,0.22-1.88l9.88-5.93c0.92-0.56,2.32-0.62,3.12-0.13l9.97,5.99
				c0.8,0.48,0.7,1.32-0.22,1.88l-9.88,5.93C355.8,302.83,354.4,302.89,353.6,302.41z"/>
			<path class="st1" d="M368.99,311.66l-9.97-5.99c-0.8-0.48-0.7-1.32,0.22-1.88l9.88-5.93c0.92-0.56,2.32-0.62,3.12-0.13l9.97,5.99
				c0.8,0.48,0.7,1.32-0.22,1.88l-9.88,5.93C371.19,312.08,369.79,312.14,368.99,311.66z"/>
			<path class="st1" d="M384.39,320.9l-9.97-5.99c-0.8-0.48-0.7-1.32,0.22-1.88l9.88-5.93c0.92-0.55,2.32-0.62,3.12-0.13l9.97,5.99
				c0.8,0.48,0.7,1.32-0.22,1.88l-9.88,5.93C386.59,321.32,385.19,321.38,384.39,320.9z"/>
			<path class="st1" d="M399.79,330.15l-9.97-5.99c-0.8-0.48-0.7-1.32,0.22-1.88l9.88-5.93c0.92-0.55,2.32-0.62,3.12-0.13l9.97,5.99
				c0.8,0.48,0.7,1.32-0.22,1.88l-9.88,5.93C401.98,330.57,400.59,330.63,399.79,330.15z"/>
			<path class="st1" d="M415.18,339.39l-9.97-5.99c-0.8-0.48-0.7-1.32,0.22-1.88l9.88-5.93c0.92-0.56,2.32-0.62,3.12-0.13l9.97,5.99
				c0.8,0.48,0.7,1.32-0.22,1.88l-9.88,5.93C417.38,339.81,415.98,339.87,415.18,339.39z"/>
			<path class="st1" d="M430.58,348.64l-9.97-5.99c-0.8-0.48-0.7-1.32,0.22-1.88l9.88-5.93c0.92-0.56,2.32-0.62,3.12-0.13l9.97,5.99
				c0.8,0.48,0.7,1.32-0.22,1.88l-9.88,5.93C432.78,349.06,431.38,349.12,430.58,348.64z"/>
			<path class="st1" d="M219.39,275.81l-29.36-17.63c-0.8-0.48-0.7-1.32,0.22-1.88l9.88-5.93c0.92-0.56,2.32-0.62,3.12-0.13
				l29.36,17.63c0.8,0.48,0.7,1.32-0.22,1.88l-9.88,5.93C221.58,276.23,220.19,276.29,219.39,275.81z"/>
			<path class="st1" d="M408.53,389.4l-29.36-17.63c-0.8-0.48-0.7-1.32,0.22-1.88l9.88-5.93c0.92-0.56,2.32-0.62,3.12-0.13
				l29.36,17.63c0.8,0.48,0.7,1.32-0.22,1.88l-9.88,5.93C410.73,389.82,409.33,389.88,408.53,389.4z"/>
			<path class="st1" d="M346.96,372.85l-9.97-5.99c-0.8-0.48-0.7-1.32,0.22-1.88l11.77-7.07c0.92-0.56,2.32-0.62,3.12-0.13
				l9.97,5.99c0.8,0.48,0.7,1.32-0.22,1.88l-11.77,7.07C349.16,373.27,347.76,373.33,346.96,372.85z"/>
			<path class="st1" d="M235.15,305.71l-15.94-9.58c-0.8-0.48-0.7-1.32,0.22-1.88l11.77-7.07c0.92-0.56,2.32-0.62,3.12-0.13
				l15.94,9.58c0.8,0.48,0.7,1.32-0.22,1.88l-11.77,7.07C237.35,306.13,235.95,306.19,235.15,305.71z"/>
			<path class="st1" d="M332.13,363.94l-15.94-9.58c-0.8-0.48-0.7-1.32,0.22-1.88l11.77-7.07c0.92-0.56,2.32-0.62,3.12-0.13
				l15.94,9.58c0.8,0.48,0.7,1.32-0.22,1.88l-11.77,7.07C334.32,364.36,332.93,364.42,332.13,363.94z"/>
			<path class="st1" d="M257.37,319.04l-15.94-9.58c-0.8-0.48-0.7-1.32,0.22-1.88l11.77-7.07c0.92-0.56,2.32-0.62,3.12-0.13
				l15.94,9.58c0.8,0.48,0.7,1.32-0.22,1.88l-11.77,7.07C259.56,319.47,258.17,319.53,257.37,319.04z"/>
			<path class="st1" d="M256.64,300.46l69.32,41.63c0.86,0.52,0.86,1.35,0,1.87l-12,7.21c-0.86,0.52-2.25,0.52-3.11,0l-69.32-41.63
				L256.64,300.46z"/>
			<path class="st1" d="M389.99,389.61l11.11,6.67c0.66,0.39,0.57,1.08-0.18,1.54l-4.81,2.89c-0.76,0.46-1.9,0.5-2.56,0.11
				l-11.11-6.67c-0.66-0.39-0.57-1.08,0.18-1.54l4.81-2.89C388.19,389.27,389.33,389.22,389.99,389.61z"/>
			<path class="st1" d="M374.47,380.29l11.11,6.67c0.66,0.39,0.57,1.08-0.18,1.54l-4.81,2.89c-0.76,0.45-1.9,0.5-2.56,0.11
				l-11.11-6.67c-0.66-0.39-0.57-1.08,0.18-1.54l4.81-2.89C372.66,379.95,373.81,379.9,374.47,380.29z"/>
			<path class="st1" d="M359.07,371.05l11.11,6.67c0.66,0.39,0.57,1.08-0.18,1.54l-4.81,2.89c-0.76,0.45-1.9,0.5-2.56,0.11
				l-11.11-6.67c-0.66-0.39-0.57-1.08,0.18-1.54l4.81-2.89C357.27,370.7,358.41,370.65,359.07,371.05z"/>
			<path class="st1" d="M382.97,375.19l11.11,6.67c0.66,0.39,0.57,1.08-0.18,1.54l-4.81,2.89c-0.76,0.45-1.9,0.5-2.56,0.11
				l-11.11-6.67c-0.66-0.39-0.57-1.08,0.18-1.54l4.81-2.89C381.17,374.84,382.31,374.79,382.97,375.19z"/>
		</g>
	</g>
	<g>
		<path class="st7" d="M161.32,227.52c0,0,0.74,15.87,1.9,26.54c1.16,10.67,25.86-8.19,25.86-8.19v-12.15L161.32,227.52z"/>
		<g>
			<path class="st1" d="M174.48,425.01c0.37,0.96,6.77,9.07,13.17,11.09c2.78,0.88,4.65,1,5.88,0.84c1.23-0.15,1.99-1.47,1.58-2.69
				c-1.1-3.22-4.26-9.94-12.28-14.08C171.97,414.59,174.48,425.01,174.48,425.01z"/>
			<path class="st1" d="M172.34,428.13c0,0,2.41,5.88,3.15,10.81c0.45,3-1.13,6.9-2.43,9.48c-0.81,1.6-2.86,1.96-4.15,0.75
				c-2.09-1.97-4.75-5.4-5.19-10.33c-0.74-8.3,0-9.74,0-9.74L172.34,428.13z"/>
			<path class="st4" d="M156.93,327.85c0,0-0.83,10.47,0,22.04c0.83,11.58,3.82,65.72,4.38,78.74c0,0-0.28,3.94,7.06,3.08
				c7.34-0.87,6.75-5.25,6.75-5.25s10.31-0.14,10.63-6.46c0.32-6.32,10.56-75.46,10.56-100.32L156.93,327.85z"/>
			<g>
				<path class="st8" d="M200.12,273.73l5.05,8.14l17.36,21.81c0,0-0.6,2.02-2.76,2.55c-1.69,0.41-16.29-14.07-22.59-20.43
					c-1.68-1.69-1.95-4.38-0.67-6.4L200.12,273.73z"/>
				<path class="st9" d="M190.26,240.34c0,0,8.02-0.22,10.81,11.84c2.79,12.06,4.98,27.16,2.55,28.41
					c-7.29,3.77-11.9-0.64-11.9-0.64L190.26,240.34z"/>
				<path class="st2" d="M192.67,240.85c-1.37-0.59-2.9-0.67-4.33-0.25c-6.83,2.04-32.53,9.89-36.76,13.65
					c-4.89,4.35,7.34,28.79,7.16,36.81c-0.18,8.01-1.04,17.46-1.73,26.17c-0.68,8.71-1.6,13.49,5.25,17.19
					c6.85,3.7,18.55,3.88,27.3-3.06c8.76-6.94,7.17-11.69,6.8-16.73c-0.36-5.04-3.35-26.83-3.09-33.01c0,0,3.09-2.36,5.37-6.42
					c2.29-4.05-1.75-11.51-3.43-16.35c-1.68-4.85,0.95-10.39,0.43-14.34C195.38,242.49,194.13,241.49,192.67,240.85z"/>
				<path class="st5" d="M184.45,249.19c0.54,4.4-3.34,8.55-8.67,9.26c-5.33,0.71-10.09-2.28-10.64-6.69
					c-0.54-4.4,3.34-8.55,8.67-9.26C179.15,241.79,183.91,244.78,184.45,249.19z"/>
				<path class="st8" d="M181.7,249.55c0.39,3.15-2.39,6.11-6.2,6.62c-3.81,0.51-7.21-1.63-7.6-4.78c-0.39-3.15,2.39-6.11,6.2-6.62
					C177.91,244.27,181.31,246.41,181.7,249.55z"/>
				<path class="st8" d="M177.91,239.22c0,0-4.64-3.97-5.55-1.96c-0.91,2.01-1.66,10.63-1.66,10.63l9.21,2.57l-1.4-8.74
					C178.51,241.73,180.36,240.11,177.91,239.22z"/>
				<path class="st8" d="M192.31,229.77c-0.45,7.89-6.96,13.9-14.54,13.44c-7.58-0.47-13.37-7.24-12.92-15.12
					c0.45-7.89,6.96-13.9,14.54-13.44C186.97,215.11,192.75,221.88,192.31,229.77z"/>
				<path class="st10" d="M171.72,239.76c-0.08,0.45-0.16,0.93-0.23,1.43c0.93,4.98,8.09,7.16,8.09,7.16l-1.06-6.61
					c0,0,0.87-0.77,0.62-1.53C176.3,239.27,172.74,238.45,171.72,239.76z"/>
				<path class="st8" d="M192.31,229.77c-0.45,7.89-6.96,13.9-14.54,13.44c-7.58-0.47-13.37-7.24-12.92-15.12
					c0.45-7.89,6.96-13.9,14.54-13.44C186.97,215.11,192.75,221.88,192.31,229.77z"/>
				<polygon class="st8" points="144.69,289.48 146.23,327.77 151.61,328.34 155.11,293.88 				"/>
				<path class="st9" d="M162.37,286.28c-1.78-8.17-5.3-26.24-5.3-26.24l-1.5,17.96c1.73,5.33,3.22,10.22,3.16,13.05
					c-0.1,4.7-0.45,9.9-0.85,15.16l0,0.02C157.88,306.24,164.15,294.46,162.37,286.28z"/>
				<path class="st2" d="M152.6,253.47c0,0-4.3,1.71-6.74,15.46c-2.44,13.75-4.26,27.52,0.08,29.29c4.34,1.77,7.97,3.11,9.24-0.57
					c1.28-3.68,2.07-21.39,2.23-27.76C157.58,263.51,157.81,254.73,152.6,253.47z"/>
				<path class="st8" d="M221.24,302.08c0,0,2.33,0.89,4.01,2.8c1.38,1.57,2.14,2.89,2.74,3.83c1.34,2.08,2.47,6.57,1.65,7.13
					c-0.82,0.56-5.49-7.53-6.24-5.65c-0.75,1.88,0.01,3.62-0.96,3.65c-0.97,0.03-4.32-8.13-6.97-10.66
					C212.83,300.66,221.24,302.08,221.24,302.08z"/>
			</g>
			<path class="st11" d="M175.12,426.46c0,0,1.28-0.02,2.94-0.32l0,0l2.02-84.16L175.12,426.46z"/>
		</g>
		<g>
			<path class="st2" d="M167.33,381l-2.86-3.89l-30.11-18.13c-0.97-0.58-1.75-2.14-1.74-3.48l0.03-25.64l-1.73-2.35l1.63-0.98l0,0
				c0.31-0.21,0.73-0.2,1.18,0.07l34.12,20.55c0.97,0.58,1.75,2.14,1.74,3.48l-0.03,27.92c0,0.75-0.25,1.28-0.64,1.49l0,0
				L167.33,381z"/>
			<path class="st12" d="M146.51,366.3l-2.14-1.29l-11.74-21.21l0.01-13.93l-1.73-2.35l1.63-0.98l0,0c0.31-0.21,0.73-0.2,1.18,0.07
				l34.12,20.55c0.51,0.31,0.97,0.89,1.29,1.56L146.51,366.3z"/>
			<path class="st6" d="M131.68,328.56l-0.77-1.04l1.63-0.98l0,0c0.31-0.21,0.73-0.2,1.18,0.07l0.6,0.36L131.68,328.56z"/>
			<path class="st3" d="M168.15,347.38c0.76,0.65,1.35,1.86,1.43,2.99l-3.33,2l-1.6-2.89L168.15,347.38z"/>
			<path class="st6" d="M166.21,348.13l-34.12-20.55c-0.97-0.58-1.75,0.03-1.75,1.37l-0.03,27.92c0,1.34,0.78,2.9,1.74,3.48
				l34.12,20.55c0.97,0.58,1.75-0.03,1.75-1.37l0.03-27.92C167.96,350.27,167.18,348.71,166.21,348.13z"/>
		</g>
		<path class="st8" d="M146.27,327.45c0,0-1.42,8.94-1.21,11.8c0.21,2.86,1.69,7.58,2.8,7.48c1.12-0.1,0.04-11.51,2-10.37
			c1.96,1.14,2.17,3.09,3.06,2.4c0.89-0.69-1.55-10.44-0.9-14.67C152.68,319.85,146.27,327.45,146.27,327.45z"/>
		<path class="st10" d="M183.86,230.18c6.9,2.55,8.24,0.99,8.31,0.91c0.06-0.43,0.11-0.87,0.14-1.32c0.09-1.58-0.08-3.12-0.46-4.57
			l-17.9-2.51C173.95,222.69,176.77,227.56,183.86,230.18z"/>
		<path class="st13" d="M192.8,215.52c-1.63-1.45-7.49-8.62-18-6.93c-6.57,1.06-12.11,5.72-13.33,16.35
			c-0.83,7.16,1.7,14.22,6.36,19.44c0.25-0.12,0.51-0.23,0.75-0.39c2.63-1.8,2.92-2.79,2.92-2.8l0.58-5.43
			c-0.02-0.77-0.57-1.46-1.31-1.5c-0.57-0.04-1.27-0.32-1.93-1.22c-1.51-2.05-0.81-5.26,2.21-5.38c1.58-0.06,2.19-0.95,2.41-1.78
			c0.19-0.73,0.93-1.13,1.61-0.87c3.44,1.29,11.9,4.08,17.35,2.47C199.37,225.43,194.43,216.97,192.8,215.52z"/>
		<path class="st5" d="M184.96,236.64l4.21-1.2c0,0-2.01,3.29-4.94,4.12c-2.93,0.84-3.39-1.74-3.39-1.74L184.96,236.64z"/>
		<polygon class="st9" points="153.43,338.48 149.84,336.34 151.19,338.63 153,339.32 		"/>
	</g>
	<g>
		<g>
			<path class="st1" d="M249.87,456.15c0,0-4.52-2.37-7.3,1.16c-2.78,3.53-6.75,11.87-6.87,17.51c-0.12,5.63,4.29,5.25,6.91,3.92
				c2.62-1.33,10.28-12.89,10.74-15.15s-0.55-5.32-1.28-5.92C251.33,457.06,249.87,456.15,249.87,456.15z"/>
			<path class="st4" d="M250.86,455.02l0.21,4.87c0.04,1.04-0.46,2.02-1.32,2.54c-0.79,0.47-1.94,0.82-3.49,0.56
				c-3.41-0.57-3.71-1.58-3.95-6.45S250.86,455.02,250.86,455.02z"/>
			<g>
				<path class="st1" d="M233.32,446.78c0,0-4.52-2.37-7.3,1.16c-2.78,3.53-6.75,11.87-6.87,17.51c-0.12,5.63,4.29,5.25,6.91,3.92
					c2.62-1.33,10.28-12.89,10.74-15.15c0.46-2.26-0.55-5.32-1.28-5.92C234.78,447.69,233.32,446.78,233.32,446.78z"/>
				<path class="st4" d="M234.3,445.65l0.21,4.87c0.04,1.04-0.46,2.02-1.32,2.54c-0.79,0.47-1.94,0.82-3.49,0.56
					c-3.41-0.57-3.71-1.58-3.95-6.45C225.5,442.29,234.3,445.65,234.3,445.65z"/>
				<path class="st14" d="M274.66,356.17c-1.34-22.65-23.59,3.33-23.59,3.33l-15.23,15.52l-13.71,15.67
					c-2.68,3.06-3.92,7.19-3.41,11.29l5.55,43.93c0.27,2.17,2.06,3.77,4.16,3.75c0.59,0,1.28-0.06,2.05-0.19
					c4.95-0.8,4.58-5.69,4.58-5.69l-1.01-41.09l28.79-18.06C262.85,384.65,275.99,378.83,274.66,356.17z"/>
			</g>
			<path class="st14" d="M291.21,364.81c-1.34-22.65-23.59,3.33-23.59,3.33l-15.23,15.52l-13.71,15.67
				c-2.68,3.06-3.92,7.19-3.41,11.29l5.55,43.93c0.27,2.17,2.06,3.77,4.16,3.75c0.59,0,1.28-0.06,2.05-0.19
				c4.95-0.8,4.58-5.7,4.58-5.7l-1.01-41.09l28.79-18.05C279.41,393.28,292.55,387.46,291.21,364.81z"/>
			<path class="st2" d="M278.05,292.09c16.87,7.27,16.53,17.64,16.53,17.64s-3.3,38.02-2.18,63.41
				c0.47,10.61-54.22,11.42-46.06-16.89c9.62-33.39,6.01-60.42,10.51-64.5C261.35,287.68,273.69,290.21,278.05,292.09z"/>
			<path class="st8" d="M283.47,301.28c-0.88,3.56-5.37,5.44-10.02,4.19c-4.65-1.25-7.71-5.14-6.83-8.71
				c0.88-3.56,5.37-5.44,10.02-4.19C281.3,293.82,284.36,297.72,283.47,301.28z"/>
			<path class="st5" d="M276.3,306.7c-0.99,0-2.01-0.13-3.05-0.41c-5.07-1.36-8.4-5.72-7.41-9.73c0.49-1.99,1.94-3.57,4.08-4.47
				c2.05-0.86,4.51-0.97,6.93-0.33c5.07,1.36,8.4,5.72,7.41,9.73l0,0C283.46,304.68,280.17,306.7,276.3,306.7z M273.77,293.03
				c-1.15,0-2.26,0.21-3.24,0.62c-1.65,0.69-2.76,1.87-3.12,3.33c-0.77,3.11,2.03,6.56,6.25,7.69c4.21,1.13,8.27-0.48,9.04-3.59
				c0.77-3.11-2.03-6.55-6.25-7.68C275.55,293.15,274.64,293.03,273.77,293.03z"/>
			<path class="st8" d="M271.29,291.3c0,0,0.15,0.7-0.15,6.26c-0.09,1.75,5.79,3.38,7.31,1.8c1.52-1.58,0.91-3.23,1.28-9.18
				C280.09,284.24,271.29,291.3,271.29,291.3z"/>
			<path class="st10" d="M279.73,290.18c0,0-1.45,5.51-8.59,7.63l0.11-5.01L279.73,290.18z"/>
			<path class="st8" d="M284.25,276.17c1.79,7.22-2.38,14.59-9.32,16.45c-6.94,1.87-14.02-2.47-15.82-9.69
				c-1.79-7.22,2.38-14.59,9.32-16.45C275.38,264.61,282.46,268.95,284.25,276.17z"/>
			<path class="st10" d="M274.67,280.05c0,0-7.15,3.18-12.1,3.22c-4.95,0.04-3.86-4.27-3.86-4.27l14.69-2.21L274.67,280.05z"/>
			<path class="st13" d="M261.09,280.89c0,0,6.23-2.75,11.69-1.6c1.28,0.27,2.47,0.98,3.3,2.04c0.27,0.35,0.61,0.66,1,0.75
				c0.97,0.23,2.55-3.95,4.44-4.05c1.88-0.1,3.14,1.29,1.6,3.86c-1.54,2.57-1.02,5.45-0.31,5.86c0.71,0.41,8.24-5.59,1.6-19.28
				c-6.65-13.69-23.53-6.32-26.15-3.54c0,0-2.77,2.51-5.02,0.28C253.23,265.2,250.71,284.85,261.09,280.89z"/>
			<path class="st8" d="M285.11,337.51v10.27c0,1.18-0.48,2.3-1.31,3.09l-20.29,19.24l2.31,3.67l26.68-19.06
				c1.25-0.94,2.06-2.4,2.22-3.99l1.93-19.06L285.11,337.51z"/>
			<path class="st2" d="M293.15,304.6c0,0,6.16,9.63,8.45,34.97c0,0-10.51,3.54-16.48,1.53C279.15,339.09,293.15,304.6,293.15,304.6
				z"/>
			<path class="st9" d="M283.99,316.77c0,0-2.41,13.41-2.55,19.72c-0.04,1.73,0.98,3.3,2.55,3.89l0,0V316.77z"/>
		</g>
		<g>
			<path class="st1" d="M278.73,383.47l-4.48-0.62l-28.95-17.38c-0.93-0.56-2.55-0.49-3.62,0.16l-20.51,12.31l-2.71-0.37v2.81l0,0
				c-0.02,0.37,0.18,0.73,0.62,0.99l32.81,19.7c0.93,0.56,2.55,0.49,3.62-0.16l22.34-13.41c0.6-0.36,0.9-0.83,0.89-1.27l0,0V383.47z
				"/>
			<path class="st2" d="M256.98,372.49l-2.06-1.24h-22.61l-11.15,6.69l-2.71-0.37v2.81l0,0c-0.02,0.37,0.18,0.73,0.62,0.99
				l32.81,19.7c0.49,0.29,1.17,0.41,1.87,0.36L256.98,372.49z"/>
			<path class="st6" d="M219.65,377.74l-1.2-0.17v2.81l0,0c-0.02,0.37,0.18,0.73,0.62,0.99l0.58,0.35V377.74z"/>
			<path class="st3" d="M252.21,401.23c0.88,0.35,2.14,0.27,3.08-0.2v-4.78h-3.08V401.23z"/>
			<path class="st5" d="M251.88,398.26l-32.81-19.7c-0.93-0.56-0.81-1.53,0.26-2.17l22.34-13.41c1.07-0.64,2.69-0.71,3.62-0.16
				l32.81,19.7c0.93,0.56,0.81,1.53-0.26,2.17l-22.34,13.41C254.43,398.75,252.81,398.82,251.88,398.26z"/>
			<path class="st4" d="M251.33,395.28l-27.28-16.38c-0.77-0.46-0.67-1.27,0.22-1.81l11.97-7c0.89-0.54,2.24-0.59,3.01-0.13
				l27.28,16.38c0.77,0.46,0.67,1.27-0.22,1.81l-11.97,7C253.45,395.68,252.1,395.74,251.33,395.28z"/>
		</g>
		<path class="st8" d="M242.94,362.33l-0.34,2.35c-0.29,2.01-0.24,4.05,0.15,6.04l0.4,2.07c0.23,1.17,1.12,2.08,2.25,2.29l0,0
			c0.88,0.17,1.72-0.48,1.81-1.4l0.54-5.03c0,0,1.24,1.69,1.84,1.69c0.6,0-0.67-5.04-2.02-7.89
			C246.22,359.59,242.94,362.33,242.94,362.33z"/>
		<path class="st8" d="M254.06,324.91l-3.52,7.25c-0.83,1.71-1.32,3.58-1.44,5.5l-1.53,24.79l-4.63-0.11l-2.1-27.84
			c-0.06-0.86-0.02-1.72,0.12-2.57l2.4-14.12L254.06,324.91z"/>
		<g>
			<path class="st1" d="M250.77,400.16l-2.75-3.73L219.09,379c-0.93-0.56-1.68-2.05-1.68-3.34l0.02-24.63l-1.66-2.26l1.56-0.94l0,0
				c0.3-0.2,0.7-0.2,1.13,0.07l32.78,19.74c0.93,0.56,1.68,2.05,1.68,3.34l-0.03,26.83c0,0.72-0.24,1.23-0.61,1.43l0,0
				L250.77,400.16z"/>
			<path class="st2" d="M230.77,386.03l-2.06-1.24l-11.28-20.38l0.01-13.39l-1.66-2.26l1.56-0.94l0,0c0.3-0.2,0.7-0.2,1.13,0.07
				l32.78,19.74c0.49,0.3,0.93,0.85,1.24,1.5L230.77,386.03z"/>
			<path class="st6" d="M216.52,349.77l-0.74-1l1.56-0.94l0,0c0.3-0.2,0.7-0.2,1.13,0.07l0.58,0.35L216.52,349.77z"/>
			<path class="st3" d="M251.56,367.86c0.73,0.62,1.29,1.79,1.37,2.87l-3.2,1.92l-1.53-2.77L251.56,367.86z"/>
			<path class="st5" d="M249.7,368.58l-32.78-19.74c-0.93-0.56-1.68,0.03-1.68,1.32l-0.03,26.83c0,1.29,0.75,2.78,1.68,3.34
				l32.78,19.74c0.93,0.56,1.68-0.03,1.68-1.32l0.03-26.83C251.38,370.63,250.63,369.14,249.7,368.58z"/>
		</g>
		<path class="st8" d="M265.82,373.78l-0.53,1.13c-0.6,1.3-1.56,2.4-2.74,3.16l-3.26,2.09c-1.01,0.65-2.3,0.7-3.32,0.08
			c-0.04-0.02-0.07-0.05-0.11-0.07c-1.03-0.67-1.13-2.22-0.28-3.13l3.4-3.64c0,0-1.91,1.52-2.45,0.91
			c-0.39-0.45,1.85-2.64,3.58-2.72c1.73-0.07,3.39-1.48,3.39-1.48L265.82,373.78z"/>
		<path class="st2" d="M257.19,291.7c0,0-12.47,14.12-17.51,27.07c0,0,4.27,7.99,14.71,11.13
			C264.83,333.04,257.19,291.7,257.19,291.7z"/>
		<path class="st9" d="M252.04,329.06l2.02-20.32l-4.76,19.03C250.15,328.24,251.07,328.67,252.04,329.06z"/>
		<path class="st5" d="M266.53,288.85l-3.35-0.96c0,0,1.6,2.62,3.94,3.29c2.34,0.67,2.7-1.39,2.7-1.39L266.53,288.85z"/>
	</g>
	<g>
		<g>
			<path class="st0" d="M46.33,472.83L16.1,454.53c-2.55-1.53-2.23-4.21,0.71-5.98l28.81-17.46c2.95-1.77,7.4-1.96,9.95-0.43
				l30.23,18.29c2.55,1.53,2.23,4.21-0.71,5.98L56.28,472.4C53.34,474.17,48.88,474.36,46.33,472.83z"/>
			<path class="st1" d="M96.81,414.68L96.81,414.68v-7.9l-40.33-0.02l0.28-0.01c-3.2-1.92-8.79-1.68-12.48,0.54l1.19-0.52
				L5.1,406.74v8.43c-0.09,1.3,0.61,2.56,2.14,3.48l37.91,22.94c3.2,1.92,8.79,1.68,12.48-0.54l36.13-21.9
				C95.9,417.88,96.93,416.22,96.81,414.68z"/>
			<path class="st2" d="M50.96,405.46c-2.34,0.06-4.77,0.67-6.69,1.83l1.19-0.52L5.1,406.74v8.43c-0.09,1.3,0.61,2.56,2.14,3.48
				l37.91,22.94c1.54,0.92,3.63,1.34,5.79,1.29L50.96,405.46z"/>
			<path class="st0" d="M9.67,406.74l-4.57,0v8.43c-0.09,1.3,0.61,2.56,2.14,3.48l2.43,1.46V406.74z"/>
			<path class="st3" d="M45.96,442c2.76,1.23,6.75,1.16,9.98-0.12v-11.04h-9.98V442z"/>
			<path class="st4" d="M45.15,433.23L7.24,410.29c-3.2-1.92-2.8-5.28,0.9-7.5l36.13-21.9c3.69-2.22,9.28-2.46,12.48-0.54
				l37.91,22.94c3.2,1.92,2.8,5.28-0.9,7.5l-36.13,21.9C53.94,434.91,48.35,435.15,45.15,433.23z"/>
		</g>
		<g>
			<path class="st5" d="M52.5,402.44l-11.15-6.74c-1.49-0.89-1.49-2.35,0-3.24c1.49-0.89,3.91-0.89,5.39,0l11.15,6.74
				c1.49,0.89,1.49,2.35,0,3.24C56.41,403.33,53.99,403.33,52.5,402.44z"/>
		</g>
		<g>
			<path class="st5" d="M68.71,412.29l-6.77-4.15c-1.49-0.89-1.49-2.35,0-3.24c1.49-0.89,3.91-0.89,5.39,0l6.77,4.15
				c1.49,0.89,1.49,2.35,0,3.24C72.61,413.18,70.2,413.18,68.71,412.29z"/>
		</g>
		<g>
			<path class="st5" d="M36.88,406.58l-6.77-4.15c-1.49-0.89-1.49-2.35,0-3.24c1.49-0.89,3.91-0.89,5.39,0l6.77,4.15
				c1.49,0.89,1.49,2.35,0,3.24C40.78,407.47,38.36,407.47,36.88,406.58z"/>
		</g>
	</g>
	<g>
		<path class="st4" d="M362.75,99.59l-13.38-8.04c-1.24-0.75-1.97-2.59-1.63-4.12l0,0c0.34-1.53,1.62-2.17,2.86-1.42l13.38,8.04
			c1.24,0.75,1.97,2.59,1.63,4.12l0,0C365.27,99.7,363.99,100.34,362.75,99.59z"/>
		<path class="st4" d="M394.63,118.74l-19.74-11.85c-1.24-0.75-1.97-2.59-1.63-4.12l0,0c0.34-1.53,1.62-2.17,2.86-1.42l19.74,11.85
			c1.24,0.75,1.97,2.59,1.63,4.12l0,0C397.16,118.85,395.87,119.49,394.63,118.74z"/>
		<path class="st4" d="M339.42,164.58l-13.38-8.04c-1.24-0.75-1.97-2.59-1.63-4.12l0,0c0.34-1.53,1.62-2.17,2.86-1.42l13.38,8.04
			c1.24,0.75,1.97,2.59,1.63,4.12l0,0C341.94,164.69,340.66,165.32,339.42,164.58z"/>
		<path class="st4" d="M367.84,181.64l-19.74-11.85c-1.24-0.75-1.97-2.59-1.63-4.12l0,0c0.34-1.53,1.62-2.17,2.86-1.42l19.74,11.85
			c1.24,0.75,1.97,2.59,1.63,4.12l0,0C370.36,181.75,369.08,182.39,367.84,181.64z"/>
		<path class="st4" d="M323.27,89.05l-8.36-5.02c-1.24-0.75-1.97-2.59-1.63-4.12l0,0c0.34-1.53,1.62-2.17,2.86-1.42l8.36,5.02
			c1.24,0.75,1.97,2.59,1.63,4.12l0,0C325.79,89.16,324.51,89.79,323.27,89.05z"/>
		<path class="st4" d="M349.04,117.69l-25.55-15.34c-1.24-0.75-1.97-2.59-1.63-4.12l0,0c0.34-1.53,1.62-2.17,2.86-1.42l25.55,15.34
			c1.24,0.75,1.97,2.59,1.63,4.12l0,0C351.56,117.8,350.28,118.43,349.04,117.69z"/>
		<path class="st4" d="M326.69,130.6l-8.36-5.02c-1.24-0.75-1.97-2.59-1.63-4.12l0,0c0.34-1.53,1.62-2.17,2.86-1.42l8.36,5.02
			c1.24,0.75,1.97,2.59,1.63,4.12l0,0C329.22,130.71,327.94,131.35,326.69,130.6z"/>
		<path class="st4" d="M372.14,210.56l-22.33-13.41c-1.24-0.75-1.97-2.59-1.63-4.12l0,0c0.34-1.53,1.62-2.17,2.86-1.42l22.33,13.41
			c1.24,0.75,1.97,2.59,1.63,4.12l0,0C374.66,210.67,373.38,211.31,372.14,210.56z"/>
		<path class="st4" d="M318.54,152.04l-5.37-3.22c-1.24-0.75-1.97-2.59-1.63-4.12l0,0c0.34-1.53,1.62-2.17,2.86-1.42l5.37,3.22
			c1.24,0.75,1.97,2.59,1.63,4.12l0,0C321.07,152.15,319.79,152.79,318.54,152.04z"/>
		<path class="st4" d="M314.69,176.06l-6.67-4c-1.24-0.75-1.97-2.59-1.63-4.12l0,0c0.34-1.53,1.62-2.17,2.86-1.42l6.67,4
			c1.24,0.75,1.97,2.59,1.63,4.12l0,0C317.21,176.16,315.93,176.8,314.69,176.06z"/>
		<path class="st4" d="M340.61,191.63l-17.57-10.55c-1.24-0.75-1.97-2.59-1.63-4.12l0,0c0.34-1.53,1.62-2.17,2.86-1.42l17.57,10.55
			c1.24,0.75,1.97,2.59,1.63,4.12l0,0C343.14,191.74,341.86,192.37,340.61,191.63z"/>
		<path class="st4" d="M318.08,191.26l-12.63-7.59c-1.24-0.75-1.97-2.59-1.63-4.12l0,0c0.34-1.53,1.62-2.17,2.86-1.42l12.63,7.59
			c1.24,0.75,1.97,2.59,1.63,4.12l0,0C320.6,191.37,319.32,192,318.08,191.26z"/>
		<path class="st4" d="M391.3,222.12l-8.11-4.87c-1.24-0.75-1.97-2.59-1.63-4.12l0,0c0.34-1.53,1.62-2.17,2.86-1.42l8.11,4.87
			c1.24,0.75,1.97,2.59,1.63,4.12l0,0C393.83,222.23,392.54,222.87,391.3,222.12z"/>
		<path class="st4" d="M357.8,149.28l-22.33-13.41c-1.24-0.75-1.97-2.59-1.63-4.12l0,0c0.34-1.53,1.62-2.17,2.86-1.42l22.33,13.41
			c1.24,0.75,1.97,2.59,1.63,4.12l0,0C360.32,149.39,359.04,150.03,357.8,149.28z"/>
		<path class="st4" d="M359.83,137.34l-38.92-23.37c-1.24-0.75-1.97-2.59-1.63-4.12l0,0c0.34-1.53,1.62-2.17,2.86-1.42l38.92,23.37
			c1.24,0.75,1.97,2.59,1.63,4.12l0,0C362.36,137.45,361.07,138.08,359.83,137.34z"/>
		<path class="st4" d="M338.09,150.61l-22.33-13.41c-1.24-0.75-1.97-2.59-1.63-4.12l0,0c0.34-1.53,1.62-2.17,2.86-1.42l22.33,13.41
			c1.24,0.75,1.97,2.59,1.63,4.12l0,0C340.61,150.72,339.33,151.36,338.09,150.61z"/>
		<path class="st4" d="M374.73,159.45l-8.11-4.87c-1.24-0.75-1.97-2.59-1.63-4.12l0,0c0.34-1.53,1.62-2.17,2.86-1.42l8.11,4.87
			c1.24,0.75,1.97,2.59,1.63,4.12l0,0C377.26,159.56,375.98,160.2,374.73,159.45z"/>
		<path class="st4" d="M454.83,154.89l-48.05-28.86c-1.24-0.75-1.97-2.59-1.63-4.12l0,0c0.34-1.53,1.62-2.17,2.86-1.42l48.05,28.86
			c1.24,0.75,1.97,2.59,1.63,4.12l0,0C457.35,155,456.07,155.63,454.83,154.89z"/>
		<path class="st4" d="M337.44,176.56l-26.84-16.12c-1.24-0.75-1.97-2.59-1.63-4.12l0,0c0.34-1.53,1.62-2.17,2.86-1.42l26.84,16.12
			c1.24,0.75,1.97,2.59,1.63,4.12l0,0C339.97,176.67,338.69,177.3,337.44,176.56z"/>
		<path class="st4" d="M337.22,84.26l-19.74-11.85c-1.24-0.75-1.97-2.59-1.63-4.12l0,0c0.34-1.53,1.62-2.17,2.86-1.42l19.74,11.85
			c1.24,0.75,1.97,2.59,1.63,4.12l0,0C339.74,84.37,338.46,85.01,337.22,84.26z"/>
		<path class="st4" d="M314.56,202.31l-22.86-13.73c-1.24-0.75-1.97-2.59-1.63-4.12v0c0.34-1.53,1.62-2.17,2.86-1.42l22.86,13.73
			c1.24,0.75,1.97,2.59,1.63,4.12l0,0C317.08,202.42,315.8,203.06,314.56,202.31z"/>
	</g>
	<g>
		<path class="st4" d="M468,291.36l-13.38-8.04c-1.24-0.75-1.97-2.59-1.63-4.12l0,0c0.34-1.53,1.62-2.17,2.86-1.42l13.38,8.04
			c1.24,0.75,1.97,2.59,1.63,4.12l0,0C470.53,291.47,469.25,292.1,468,291.36z"/>
		<path class="st4" d="M477.62,244.47l-25.55-15.34c-1.24-0.75-1.97-2.59-1.63-4.12l0,0c0.34-1.53,1.62-2.17,2.86-1.42l25.55,15.34
			c1.24,0.75,1.97,2.59,1.63,4.12l0,0C480.14,244.58,478.86,245.22,477.62,244.47z"/>
		<path class="st4" d="M455.28,257.39l-8.36-5.02c-1.24-0.75-1.97-2.59-1.63-4.12l0,0c0.34-1.53,1.62-2.17,2.86-1.42l8.36,5.02
			c1.24,0.75,1.97,2.59,1.63,4.12l0,0C457.8,257.49,456.52,258.13,455.28,257.39z"/>
		<path class="st4" d="M447.13,278.82l-5.37-3.22c-1.24-0.75-1.97-2.59-1.63-4.12l0,0c0.34-1.53,1.62-2.17,2.86-1.42l5.37,3.22
			c1.24,0.75,1.97,2.59,1.63,4.12l0,0C449.65,278.93,448.37,279.57,447.13,278.82z"/>
		<path class="st4" d="M486.38,276.06l-22.33-13.41c-1.24-0.75-1.97-2.59-1.63-4.12l0,0c0.34-1.53,1.62-2.17,2.86-1.42l22.33,13.41
			c1.24,0.75,1.97,2.59,1.63,4.12l0,0C488.9,276.17,487.62,276.81,486.38,276.06z"/>
		<path class="st4" d="M488.42,264.12l-38.92-23.37c-1.24-0.75-1.97-2.59-1.63-4.12l0,0c0.34-1.53,1.62-2.17,2.86-1.42l38.92,23.37
			c1.24,0.75,1.97,2.59,1.63,4.12l0,0C490.94,264.23,489.66,264.87,488.42,264.12z"/>
		<path class="st4" d="M466.67,277.39l-22.33-13.41c-1.24-0.75-1.97-2.59-1.63-4.12l0,0c0.34-1.53,1.62-2.17,2.86-1.42l22.33,13.41
			c1.24,0.75,1.97,2.59,1.63,4.12l0,0C469.19,277.5,467.91,278.14,466.67,277.39z"/>
		<path class="st4" d="M466.03,303.34l-26.84-16.12c-1.24-0.75-1.97-2.59-1.63-4.12l0,0c0.34-1.53,1.62-2.17,2.86-1.42l26.84,16.12
			c1.24,0.75,1.97,2.59,1.63,4.12l0,0C468.55,303.45,467.27,304.08,466.03,303.34z"/>
	</g>
	<g>
		<g>
			<path class="st0" d="M413.31,544.45l-31.44-19.03c-2.65-1.59-2.32-4.38,0.74-6.22l29.97-18.16c3.06-1.84,7.7-2.04,10.35-0.45
				l31.44,19.03c2.65,1.59,2.32,4.38-0.74,6.22L423.66,544C420.59,545.84,415.96,546.04,413.31,544.45z"/>
			<path class="st1" d="M463.97,485.45L463.97,485.45v-7.9l-40.33-0.02l0.28-0.01c-3.2-1.92-8.79-1.68-12.48,0.54l1.19-0.52
				l-40.37-0.02v8.43c-0.09,1.3,0.61,2.56,2.14,3.48l37.91,22.94c3.2,1.92,8.79,1.68,12.48-0.54l36.13-21.9
				C463.06,488.65,464.09,487,463.97,485.45z"/>
			<path class="st2" d="M418.13,476.23c-2.34,0.06-4.77,0.67-6.69,1.83l1.19-0.52l-40.37-0.02v8.43c-0.09,1.3,0.61,2.56,2.14,3.48
				l37.91,22.94c1.54,0.92,3.63,1.34,5.79,1.29L418.13,476.23z"/>
			<path class="st15" d="M376.83,477.52l-4.57,0v8.43c-0.09,1.3,0.61,2.56,2.14,3.48l2.43,1.46V477.52z"/>
			<path class="st3" d="M413.12,512.78c2.76,1.23,6.75,1.16,9.98-0.12v-11.04h-9.98V512.78z"/>
			<path class="st4" d="M412.32,504.01l-37.91-22.94c-3.2-1.92-2.8-5.28,0.9-7.5l36.13-21.9c3.69-2.22,9.28-2.46,12.48-0.54
				l37.91,22.94c3.2,1.92,2.8,5.28-0.9,7.5l-36.13,21.9C421.1,505.69,415.52,505.93,412.32,504.01z"/>
		</g>
		<g>
			<path class="st2" d="M419.38,474.41l-11.15-6.74c-1.49-0.89-1.49-2.35,0-3.24c1.49-0.89,3.91-0.89,5.39,0l11.15,6.74
				c1.49,0.89,1.49,2.35,0,3.24S420.87,475.3,419.38,474.41z"/>
		</g>
		<g>
			<path class="st2" d="M435.58,484.26l-6.77-4.15c-1.49-0.89-1.49-2.35,0-3.24c1.49-0.89,3.91-0.89,5.39,0l6.77,4.15
				c1.49,0.89,1.49,2.35,0,3.24C439.49,485.16,437.07,485.16,435.58,484.26z"/>
		</g>
		<g>
			<path class="st2" d="M403.75,478.55l-6.77-4.15c-1.49-0.89-1.49-2.35,0-3.24c1.49-0.89,3.91-0.89,5.39,0l6.77,4.15
				c1.49,0.89,1.49,2.35,0,3.24C407.66,479.45,405.24,479.45,403.75,478.55z"/>
		</g>
	</g>
</g>
<path class="st4" d="M523.29,368.13c0,4.76-3.55,8.62-7.93,8.62c-4.38,0-7.93-3.86-7.93-8.62c0-4.76,3.55-8.62,7.93-8.62
	C519.74,359.51,523.29,363.37,523.29,368.13z"/>
<path class="st6" d="M507.9,513.33c-5.94,0-10.77-5.25-10.77-11.71c0-6.45,4.83-11.71,10.77-11.71c5.94,0,10.77,5.25,10.77,11.71
	C518.68,508.08,513.84,513.33,507.9,513.33z M507.9,493.52c-4.11,0-7.46,3.64-7.46,8.1s3.35,8.11,7.46,8.11s7.46-3.64,7.46-8.11
	S512.02,493.52,507.9,493.52z"/>
<path class="st6" d="M262.04,531.71l-7.31-16.16l14.87-7.95l7.31,16.16L262.04,531.71z M259.16,517.19l4.39,9.7l8.93-4.77l-4.39-9.7
	L259.16,517.19z"/>
<path class="st4" d="M96.83,523.26c-8.38,0-15.19-7.41-15.19-16.51c0-9.1,6.81-16.51,15.19-16.51s15.19,7.41,15.19,16.51
	C112.02,515.85,105.2,523.26,96.83,523.26z M96.83,493.84c-6.55,0-11.88,5.79-11.88,12.91c0,7.12,5.33,12.91,11.88,12.91
	s11.88-5.79,11.88-12.91C108.7,499.63,103.38,493.84,96.83,493.84z"/>
<g>
	<path class="st6" d="M46.55,264.62l1.68-3.1c0,0,1.41,0.84,2.91,0.33c1.21-0.41,2.25-1.6,3.1-3.52c3.01-6.77,8.56-7.29,11.08-6.61
		l-0.79,3.5l0.4-1.75l-0.38,1.75c-0.48-0.12-4.79-1.01-7.31,4.68c-1.28,2.88-3.02,4.7-5.16,5.41
		C49.21,266.24,46.81,264.78,46.55,264.62z"/>
</g>
<g>
	<polygon class="st4" points="232.31,132.64 229.96,130.1 241.1,118 243.44,120.54 	"/>
	<polygon class="st4" points="241.1,132.64 229.96,120.54 232.31,118 243.44,130.1 	"/>
</g>
<path class="st4" d="M77.3,118c0,7.19-5.36,13.02-11.98,13.02c-6.62,0-11.98-5.83-11.98-13.02c0-7.19,5.36-13.02,11.98-13.02
	C71.94,104.98,77.3,110.81,77.3,118z"/>
<polygon class="st6" points="500.64,52.69 479.96,63.74 469.79,41.27 490.47,30.22 "/>
<g>
	<polygon class="st6" points="180.13,35.95 179.41,32.89 187.57,30.62 188.29,33.67 	"/>
	<polygon class="st6" points="175.97,40.36 175.25,37.31 183.41,35.03 184.13,38.09 	"/>
	<polygon class="st6" points="171.8,44.77 171.08,41.72 179.25,39.45 179.97,42.5 	"/>
	<polygon class="st6" points="167.64,49.19 166.92,46.13 175.08,43.86 175.8,46.91 	"/>
</g>
</svg>
