<svg xmlns="http://www.w3.org/2000/svg" xmlns:xlink="http://www.w3.org/1999/xlink" id="Layer_1" x="0" y="0" enable-background="new 0 0 550 550" version="1.1" viewBox="0 0 550 550" xml:space="preserve"><style type="text/css">.st0{opacity:.5}.st0,.st1{fill:#173d7a}.st2{fill:#fff}.st3{fill:#9fdafc}.st4{fill:#396caa}.st5{fill:#d4ecff}.st6{fill:#5793ce}.st7{fill:#3986c6}.st8{fill:#13315e}.st9{fill:#ffc2b0}.st10{fill:#ea9c92}.st11{fill:#699dd1}</style><g><path d="M319.52,356.16c-2.23-0.33-4.34-0.98-6.08-1.98c-5.23-2.98-5.23-7.8,0-10.78c5.23-2.98,13.72-2.98,18.95,0 c1.75,0.99,2.9,2.19,3.48,3.46l36.21-20.6l-77.04-43.83c-6.47-3.68-16.97-3.68-23.44,0l-77.03,43.83l35.48,20.19 c-1.37,0.37-2.66,0.86-3.79,1.51c-5.23,2.98-5.23,7.8,0,10.78c5.23,2.98,13.72,2.98,18.95,0c1.13-0.64,2-1.38,2.65-2.16 l35.48,20.19L319.52,356.16z" class="st0"/><path d="M491.92,402.42l-77.04-43.83l-36.21,20.6c-0.58-1.27-1.73-2.47-3.48-3.46c-5.23-2.98-13.72-2.98-18.95,0 c-5.23,2.98-5.23,7.8,0,10.78c1.75,0.99,3.86,1.65,6.08,1.98l-36.21,20.6l37.27,21.21c0.2-1.79,1.48-3.54,3.88-4.91 c5.23-2.98,13.72-2.98,18.95,0c5.23,2.98,5.23,7.8,0,10.78c-2.4,1.37-5.48,2.1-8.62,2.21l37.27,21.21l77.03-43.83 C498.39,412.07,498.39,406.1,491.92,402.42z" class="st0"/><path d="M209.45,432.9c-1.71-0.97-3.77-1.62-5.95-1.96l36.15-20.57l-35.48-20.19c-0.64,0.78-1.51,1.51-2.65,2.16 c-5.23,2.98-13.72,2.98-18.95,0c-5.23-2.98-5.23-7.8,0-10.78c1.13-0.64,2.42-1.14,3.79-1.51l-35.48-20.19L73.87,403.7 c-6.47,3.68-6.47,9.65,0,13.34l77.04,43.83l36.15-20.57c0.59,1.24,1.73,2.41,3.44,3.38c5.23,2.98,13.72,2.98,18.95,0 C214.68,440.71,214.68,435.88,209.45,432.9z" class="st0"/><path d="M332,466.4c2.97-0.11,5.89-0.8,8.16-2.09c4.95-2.82,4.95-7.38,0-10.2c-4.95-2.82-12.97-2.82-17.92,0 c-2.27,1.29-3.49,2.95-3.67,4.64l-35.25-20.06l-34.19,19.46c2.06,0.32,4.01,0.93,5.62,1.85c4.95,2.82,4.95,7.38,0,10.2 c-4.95,2.82-12.97,2.82-17.92,0c-1.62-0.92-2.7-2.03-3.26-3.2l-34.19,19.46l72.86,41.46c6.12,3.48,16.05,3.48,22.17,0l72.86-41.46 L332,466.4z" class="st0"/><g><g><path d="M366.74,267.65l-69.23-39.4c-7.84-4.46-20.55-4.46-28.39,0l-72.62,41.32l-20.68-8.32v20.09l33.65,19.15 v13.36c-0.14,2.46,1.42,4.95,4.73,6.83c6.34,3.61,16.61,3.61,22.95,0c1.37-0.78,2.43-1.67,3.21-2.62l42.97,24.45l43.85-24.95h0 v-17.85c5.39-0.8,11.36-0.01,15.58,2.4c2.11,1.2,3.51,2.66,4.21,4.19l43.85-24.95v-20.09L366.74,267.65z" class="st1"/><path d="M323.07,299.01l-0.71,0.95l0.4,0.02l-39.45,22.45l-42.97-24.45c-0.78,0.95-1.83,1.83-3.21,2.62 c-6.34,3.61-16.61,3.61-22.95,0c-2.56-1.46-4.07-3.29-4.56-5.18c-0.72,2.79,0.79,5.73,4.56,7.88c6.34,3.61,16.61,3.61,22.95,0 c1.37-0.78,2.43-1.67,3.21-2.62l42.97,24.45l43.85-24.95v-2.69L323.07,299.01z" class="st2"/><path d="M327.16,297.47c-2.7-0.4-5.25-1.19-7.37-2.4c-6.34-3.61-6.34-9.45,0-13.06c6.34-3.61,16.61-3.61,22.95,0 c2.11,1.2,3.51,2.66,4.21,4.19l43.85-24.95l-93.31-53.09c-7.84-4.46-20.55-4.46-28.39,0l-93.3,53.09l42.97,24.45 c-1.66,0.44-3.22,1.04-4.6,1.82c-6.34,3.61-6.34,9.45,0,13.06c6.34,3.61,16.61,3.61,22.95,0c1.37-0.78,2.43-1.67,3.21-2.62 l42.97,24.45L327.16,297.47z" class="st3"/><g><path d="M218.78,285.7l-42.97-24.45v2.69l40.05,22.79C216.79,286.33,217.75,285.98,218.78,285.7z" class="st2"/><path d="M346.95,286.21c-0.7-1.54-2.1-2.99-4.21-4.19c-6.34-3.61-16.61-3.61-22.95,0 c-3.77,2.15-5.28,5.09-4.56,7.88c0.49-1.9,2-3.72,4.56-5.18c6.34-3.61,16.61-3.61,22.95,0c2.11,1.2,3.51,2.66,4.21,4.19 l43.85-24.95v-2.69L346.95,286.21z" class="st2"/></g></g><g><path d="M499.14,348.76l-83.54-47.53l-43.85,24.95c-0.7-1.54-2.1-2.99-4.21-4.19c-2.22-1.26-4.92-2.07-7.76-2.45 c-1.41-1.81-6.14-7.37-6.61-7.51c-0.55-0.16-13.33-3.8-13.33-3.8v20.17c-0.05,2.4,1.53,4.81,4.74,6.64c2.11,1.2,4.67,2,7.37,2.4 L329.9,350l-21.79-7.69v20.09l45.14,25.69c0.24-2.16,1.8-4.29,4.7-5.94c3.43-1.95,8.02-2.84,12.51-2.68l0,18.41l45.15,25.69 l93.3-53.09c4.01-2.28,5.95-5.28,5.86-8.27l0.01,0v-19.7L499.14,348.76z" class="st4"/><path d="M353.26,352.38v35.7c0.24-2.16,1.8-4.28,4.7-5.94c6.34-3.61,16.61-3.61,22.95,0 c1.36,0.77,2.41,1.66,3.19,2.59c3.38-1.04,6.92-1.64,10.54-1.82v-30.54H353.26z" class="st1"/><path d="M415.61,301.23l-0.32,0.18v121.97l0.33,0.19l93.3-53.09c4.01-2.28,5.95-5.28,5.86-8.27l0.01,0v-19.7 l-15.64,6.25L415.61,301.23z" class="st1"/><polygon points="370.47 383.6 370.47 377.79 375.58 380.69" class="st4"/><path d="M514.64,343.66c-0.51,2.46-2.41,4.84-5.72,6.73l-93.3,53.09l-39.35-22.39c-0.04-0.61-0.23-1.84-0.23-1.84 l-5.57-1.46v2.69l45.15,25.69l93.3-53.09C513.44,350.5,515.34,347.01,514.64,343.66z" class="st2"/><path d="M508.91,334.23l-93.31-53.09l-43.85,24.95c-0.7-1.54-2.1-2.99-4.21-4.19c-6.34-3.61-16.61-3.61-22.95,0 c-6.34,3.61-6.34,9.45,0,13.06c2.11,1.2,4.67,2,7.37,2.4l-43.85,24.95L353.26,368c0.24-2.16,1.8-4.29,4.7-5.94 c6.34-3.61,16.61-3.61,22.95,0c6.34,3.61,6.34,9.45,0,13.06c-2.91,1.65-6.64,2.54-10.44,2.68l45.15,25.69l93.3-53.09 C516.75,345.92,516.75,338.69,508.91,334.23z" class="st5"/><g><path d="M344.59,317.65c1.2,0.68,2.54,1.22,3.97,1.64l3.4-1.93c-2.7-0.4-5.25-1.19-7.37-2.4 c-2.56-1.46-4.07-3.29-4.56-5.18C339.31,312.56,340.82,315.5,344.59,317.65z" class="st2"/><path d="M385.47,369.93c0.72-2.79-0.79-5.73-4.56-7.88c-6.34-3.61-16.61-3.61-22.95,0 c-2.91,1.65-4.46,3.78-4.7,5.94l-45.15-25.69V345l45.15,25.69c0.24-2.16,1.8-4.29,4.7-5.94c6.34-3.61,16.61-3.61,22.95,0 C383.47,366.2,384.98,368.03,385.47,369.93z" class="st2"/></g></g><g><path d="M258.09,362.4v-20.09l-21.43,7.9l-21.54-12.26c-0.78,0.95-1.83,1.83-3.21,2.62 c-6.34,3.61-16.61,3.61-22.95,0c-6.19-3.52-6.32-9.18-0.41-12.8l5.01,2.76v-24.93h-15.51l-1.54,10.39l-25.93-14.75l-82.54,46.96 l-16.65-5.89v20.09h0c0,2.92,1.96,5.85,5.88,8.08l93.31,53.09l43.79-24.92c0.72,1.5,2.1,2.92,4.17,4.1 c6.34,3.61,16.61,3.61,22.95,0c3.29-1.87,4.86-4.35,4.73-6.8v-15.42L258.09,362.4z" class="st1"/><path d="M150.59,301.23l-82.54,46.96l-16.65-5.89v20.09h0c0,2.92,1.96,5.85,5.88,8.08l93.31,53.09L150.59,301.23 L150.59,301.23z" class="st4"/><path d="M189.86,305.68l-0.53,1.36l0.13,0.12c-0.17,0.08-0.33,0.16-0.49,0.25c-3.77,2.15-5.28,5.09-4.56,7.88 c0.49-1.9,2-3.72,4.56-5.18c1.37-0.78,2.93-1.38,4.6-1.82v-2.69L189.86,305.68z" class="st2"/><path d="M221.5,369.6c-2.07-1.18-4.56-1.96-7.2-2.37l43.79-24.92l-42.97-24.45c-0.78,0.95-1.83,1.83-3.21,2.62 c-6.34,3.61-16.61,3.61-22.95,0c-6.34-3.61-6.34-9.45,0-13.06c1.37-0.78,2.93-1.38,4.6-1.82l-42.97-24.45l-93.3,53.09 c-7.84,4.46-7.84,11.69,0,16.15l93.31,53.09l43.79-24.92c0.72,1.5,2.1,2.92,4.17,4.1c6.34,3.61,16.61,3.61,22.95,0 C227.84,379.05,227.84,373.2,221.5,369.6z" class="st6"/><g><path d="M221.5,382.66c-6.34,3.61-16.61,3.61-22.95,0c-2.07-1.18-3.45-2.6-4.17-4.1l-43.79,24.92l-93.31-53.09 c-3.32-1.89-5.21-4.27-5.72-6.73c-0.7,3.35,1.2,6.85,5.72,9.42l93.31,53.09l43.79-24.92c0.72,1.5,2.1,2.92,4.17,4.1 c6.34,3.61,16.61,3.61,22.95,0c3.77-2.15,5.28-5.09,4.56-7.88C225.57,379.37,224.07,381.2,221.5,382.66z" class="st2"/><path d="M214.3,367.22c1.16,0.18,2.29,0.45,3.37,0.77l40.42-23v-2.69L214.3,367.22z" class="st2"/></g></g><g><path d="M369.84,431.94l-24.18-13.76c3.8-0.14,7.54-1.02,10.44-2.68c2.65-1.51,4.18-3.41,4.61-5.38l0.14,0.09v-1.2 c0-0.03,0-0.05,0-0.08v-20.14l-20.45,7.83l4.7,3.13c-4.31-0.07-8.66,0.82-11.96,2.69c-2.91,1.65-4.46,3.78-4.7,5.94l-45.15-25.69 l-26.53,15.09l-2.75-9.06l-14.51-1.21v22.33l4.43-1.11c0.98,0.35,1.92,0.76,2.77,1.24c6.34,3.61,6.34,9.45,0,13.06 c-6.34,3.61-16.61,3.61-22.95,0c-2.07-1.18-3.45-2.6-4.17-4.1l-24.24,13.79l-19.55-8.97v20.09l93.31,53.09 c7.84,4.46,20.55,4.46,28.39,0l93.3-53.09v-20.09L369.84,431.94z" class="st1"/><path d="M246.72,389.9c-0.99-0.57-2.1-1.01-3.26-1.4l-0.4-0.76l-3.54-0.21v2.69c2.64,0.41,5.13,1.19,7.2,2.37 c2.56,1.46,4.07,3.29,4.56,5.18C252,394.98,250.5,392.04,246.72,389.9z" class="st2"/><path d="M345.67,398.09c3.8-0.14,7.54-1.02,10.44-2.68c6.34-3.61,6.34-9.45,0-13.06c-6.34-3.61-16.61-3.61-22.95,0 c-2.91,1.65-4.46,3.78-4.7,5.94l-45.15-25.69l-43.79,24.92c2.64,0.41,5.13,1.19,7.2,2.37c6.34,3.61,6.34,9.45,0,13.06 c-6.34,3.61-16.61,3.61-22.95,0c-2.07-1.18-3.45-2.6-4.17-4.1l-43.79,24.92l93.31,53.09c7.84,4.46,20.55,4.46,28.39,0l93.3-53.09 L345.67,398.09z" class="st7"/><g><path d="M360.67,390.23c-0.49,1.9-2,3.72-4.56,5.18c-2.91,1.65-6.64,2.54-10.44,2.68l3.97,2.26 c2.37-0.43,4.59-1.18,6.47-2.24C359.88,395.96,361.39,393.02,360.67,390.23z" class="st2"/><path d="M297.51,476.87c-7.84,4.46-20.55,4.46-28.39,0l-93.31-53.09v2.69l93.31,53.09c7.84,4.46,20.55,4.46,28.39,0 l93.3-53.09v-2.69L297.51,476.87z" class="st2"/></g></g><g><ellipse cx="151.19" cy="347.35" class="st4" rx="43.01" ry="24.47"/><g><path d="M130.61,96.87c0,0,0.94,19.02,2.41,31.81c1.47,12.78,32.71-9.82,32.71-9.82V104.3L130.61,96.87z" class="st8"/><g><path d="M147.25,333.55c0.47,1.16,8.56,10.87,16.66,13.3c3.52,1.06,5.89,1.19,7.44,1.01 c1.56-0.18,2.52-1.76,1.99-3.22c-1.39-3.86-5.39-11.91-15.53-16.87C144.08,321.06,147.25,333.55,147.25,333.55z" class="st1"/><path d="M144.55,337.28c0,0,3.05,7.05,3.99,12.95c0.57,3.6-1.43,8.27-3.08,11.37c-1.02,1.92-3.62,2.35-5.25,0.9 c-2.65-2.37-6.01-6.48-6.57-12.38c-0.94-9.94,0-11.68,0-11.68L144.55,337.28z" class="st1"/><path d="M125.05,217.1c0,0-1.06,12.54,0,26.42c1.06,13.87,4.84,78.76,5.54,94.37c0,0-0.35,4.73,8.93,3.69 c9.28-1.04,8.53-6.29,8.53-6.29s13.04-0.17,13.45-7.75c0.41-7.57,13.35-90.43,13.35-120.22L125.05,217.1z" class="st5"/><g><path d="M179.68,152.25l6.39,9.75l21.95,26.13c0,0-0.75,2.43-3.49,3.06c-2.14,0.5-20.6-16.87-28.57-24.48 c-2.12-2.02-2.47-5.25-0.84-7.67L179.68,152.25z" class="st9"/><path d="M167.22,112.23c0,0,10.15-0.26,13.68,14.19c3.53,14.45,6.29,32.55,3.22,34.05 c-9.22,4.51-15.06-0.77-15.06-0.77L167.22,112.23z" class="st6"/><path d="M170.25,112.85c-1.73-0.71-3.67-0.81-5.48-0.3c-8.64,2.45-41.14,11.85-46.5,16.36 c-6.19,5.21,9.28,34.51,9.06,44.11c-0.22,9.6-1.32,20.93-2.18,31.37c-0.86,10.44-2.03,16.17,6.64,20.6 c8.67,4.44,23.46,4.64,34.53-3.67c11.07-8.32,9.07-14.01,8.6-20.04c-0.46-6.04-4.23-32.15-3.91-39.56c0,0,3.9-2.83,6.79-7.69 c2.89-4.86-2.21-13.79-4.33-19.6c-2.12-5.81,1.2-12.45,0.54-17.18C173.69,114.8,172.11,113.61,170.25,112.85z" class="st6"/><path d="M145.41,132.58l3.69,4.17c0.48,0.54,0.7,1.26,0.59,1.97l-3.23,22.23c-0.09,0.62,0.07,1.26,0.44,1.77 l7.9,10.78c0.35,0.48,1.1,0.37,1.3-0.19l4.84-13.71c0.18-0.52,0.18-1.08,0-1.6l-7.29-20.46c-0.16-0.45-0.18-0.93-0.07-1.39 l1.3-5.34L145.41,132.58z" class="st2"/><path d="M159.86,122.83c0.69,5.28-4.23,10.24-10.97,11.09c-6.74,0.85-12.77-2.74-13.45-8.01 c-0.69-5.28,4.23-10.24,10.97-11.09C153.16,113.97,159.18,117.56,159.86,122.83z" class="st2"/><path d="M156.38,123.27c0.49,3.77-3.02,7.32-7.84,7.93c-4.82,0.61-9.12-1.96-9.61-5.73 c-0.49-3.77,3.02-7.32,7.84-7.93C151.59,116.94,155.89,119.5,156.38,123.27z" class="st9"/><path d="M151.59,110.89c0,0-5.87-4.76-7.02-2.35c-1.15,2.41-2.1,12.74-2.1,12.74l11.65,3.08l-1.77-10.47 C152.35,113.9,154.68,111.95,151.59,110.89z" class="st9"/><ellipse cx="152.43" cy="98.55" class="st9" rx="17.4" ry="17.14"/><path d="M143.76,111.54c-0.1,0.54-0.2,1.12-0.3,1.71c1.17,5.96,10.23,8.58,10.23,8.58l-1.34-7.92 c0,0,1.1-0.92,0.79-1.84C149.56,110.95,145.05,109.97,143.76,111.54z" class="st10"/><ellipse cx="152.43" cy="98.55" class="st9" rx="17.4" ry="17.14"/><polygon points="109.57 171.13 111.52 217 118.33 217.7 122.76 176.4" class="st9"/><path d="M131.94,167.29c-0.37-1.6-3.35-2.91-3.8-4.99c-2.34-10.69-2.9-26.45-2.9-26.45l-1.9,21.53 c2.19,6.38,4.08,12.25,4,15.64c-0.13,5.64-0.57,11.87-1.07,18.16l0,0.02C126.26,191.2,134.19,177.09,131.94,167.29z" class="st4"/><path d="M119.58,127.97c0,0-5.44,2.05-8.52,18.52c-3.08,16.47-5.38,32.98,0.11,35.1 c5.49,2.13,10.08,3.73,11.69-0.68c1.61-4.41,2.61-25.64,2.82-33.27C125.88,140,126.17,129.48,119.58,127.97z" class="st6"/><path d="M206.39,186.22c0,0,2.95,1.07,5.08,3.35c1.75,1.88,2.71,3.47,3.47,4.59c1.7,2.49,3.12,7.88,2.09,8.55 c-1.03,0.67-6.95-9.02-7.9-6.77c-0.95,2.25,0.01,4.34-1.21,4.37c-1.22,0.03-5.47-9.74-8.81-12.77 C195.76,184.52,206.39,186.22,206.39,186.22z" class="st9"/></g><path d="M148.06,335.28c0,0,1.62-0.02,3.72-0.38l0,0l2.55-100.86L148.06,335.28z" class="st4"/></g><g><path d="M138.21,280.8l-3.62-4.66L96.5,254.41c-1.22-0.7-2.21-2.56-2.21-4.17l0.03-30.73l-2.19-2.82l2.06-1.17l0,0 c0.39-0.25,0.92-0.24,1.49,0.08l43.16,24.63c1.22,0.7,2.21,2.56,2.21,4.17l-0.04,33.46c0,0.9-0.32,1.53-0.81,1.78l0,0 L138.21,280.8z" class="st4"/><path d="M111.87,263.18l-2.71-1.54l-14.85-25.42l0.02-16.7l-2.19-2.82l2.06-1.17l0,0 c0.39-0.25,0.92-0.24,1.49,0.08l43.16,24.63c0.65,0.37,1.22,1.06,1.63,1.87L111.87,263.18z" class="st4"/><path d="M93.11,217.95l-0.97-1.25l2.06-1.17l0,0c0.39-0.25,0.92-0.24,1.49,0.08l0.76,0.43L93.11,217.95z" class="st4"/><path d="M139.24,240.51c0.96,0.77,1.7,2.23,1.8,3.58l-4.22,2.4l-2.02-3.46L139.24,240.51z" class="st4"/><path d="M136.8,241.41l-43.16-24.63c-1.22-0.7-2.21,0.04-2.21,1.65l-0.04,33.46c0,1.61,0.99,3.47,2.21,4.17 l43.16,24.63c1.22,0.7,2.21-0.04,2.21-1.65l0.04-33.46C139,243.97,138.02,242.11,136.8,241.41z" class="st5"/><path d="M137.45,241.03L94.29,216.4c-0.72-0.41-1.35-0.31-1.76,0.16c0.33-0.06,0.7,0,1.11,0.23l43.16,24.63 c1.22,0.7,2.21,2.56,2.21,4.17l-0.04,33.46c0,0.66-0.17,1.16-0.46,1.49c0.66-0.13,1.11-0.8,1.11-1.87l0.04-33.46 C139.66,243.59,138.67,241.72,137.45,241.03z" class="st2"/></g><polygon points="127.93 265.41 125.87 264.24 125.87 246.84 127.93 248.01" class="st2"/><polygon points="123.13 262.68 121.07 261.51 121.07 244.11 123.13 245.28" class="st2"/><polygon points="118.33 259.95 116.27 258.78 116.27 241.37 118.33 242.54" class="st2"/><path d="M111.57,216.62c0,0-1.8,10.71-1.53,14.14c0.27,3.43,2.13,9.09,3.55,8.97c1.41-0.12,0.05-13.79,2.53-12.43 c2.48,1.36,2.74,3.7,3.87,2.87c1.12-0.83-1.96-12.51-1.14-17.58C119.68,207.52,111.57,216.62,111.57,216.62z" class="st9"/><path d="M159.11,100.05c8.73,3.05,10.43,1.19,10.51,1.09c0.08-0.52,0.14-1.04,0.18-1.58 c0.11-1.9-0.1-3.74-0.58-5.48l-22.64-3.01C146.58,91.08,150.15,96.91,159.11,100.05z" class="st10"/><path d="M170.43,82.49c-2.06-1.74-9.48-10.33-22.77-8.3c-8.31,1.27-15.31,6.85-16.87,19.6 c-1.05,8.59,2.15,17.04,8.04,23.29c0.32-0.15,0.65-0.28,0.94-0.47c3.33-2.16,3.69-3.35,3.69-3.36l0.74-6.5 c-0.02-0.92-0.72-1.74-1.66-1.8c-0.72-0.04-1.6-0.39-2.44-1.46c-1.91-2.46-1.03-6.3,2.79-6.44c2-0.08,2.77-1.14,3.05-2.14 c0.25-0.87,1.18-1.35,2.04-1.05c4.34,1.55,15.05,4.89,21.94,2.97C178.74,94.36,172.48,84.22,170.43,82.49z" class="st1"/><path d="M160.51,107.8l5.32-1.44c0,0-2.54,3.94-6.25,4.94c-3.71,1-4.29-2.09-4.29-2.09L160.51,107.8z" class="st2"/><polygon points="120.62 229.84 116.09 227.28 117.79 230.02 120.08 230.85" class="st4"/></g><path d="M142.28,103.9c0,0.98-0.81,1.78-1.8,1.78c-1,0-1.8-0.8-1.8-1.78c0-0.98,0.81-1.78,1.8-1.78 C141.47,102.12,142.28,102.92,142.28,103.9z" class="st2"/></g><g><g><ellipse cx="414.97" cy="341.58" class="st11" rx="42.26" ry="24.04"/><g><g><g><path d="M417.45,328.91c-0.47,1.16-8.6,10.91-16.73,13.35c-3.53,1.06-5.91,1.2-7.47,1.02 c-1.56-0.18-2.53-1.77-2-3.23c1.4-3.88,5.41-11.96,15.6-16.94C420.64,316.37,417.45,328.91,417.45,328.91z" class="st1"/><path d="M420.16,332.66c0,0-3.06,7.08-4.01,13c-0.57,3.61,1.44,8.3,3.09,11.41c1.03,1.93,3.63,2.36,5.27,0.9 c2.66-2.38,6.04-6.5,6.6-12.43c0.94-9.99,0-11.73,0-11.73L420.16,332.66z" class="st1"/><path d="M439.75,211.97c0,0,1.06,12.6,0,26.53c-1.06,13.93-4.86,79.09-5.56,94.77c0,0,0.35,4.75-8.97,3.7 c-9.32-1.05-8.57-6.31-8.57-6.31s-13.09-0.17-13.5-7.78c-0.41-7.61-13.41-90.82-13.41-120.73L439.75,211.97z" class="st5"/><path d="M416.64,330.65c0,0-1.62-0.02-3.74-0.38l0,0l-2.56-101.29L416.64,330.65z" class="st4"/><path d="M425.9,119.54c21.15,8.64,20.73,20.96,20.73,20.96s-4.14,45.17-2.73,75.34 c0.59,12.61-67.98,13.57-57.76-20.07c12.06-39.67,7.54-71.78,13.18-76.63C404.97,114.3,420.43,117.3,425.9,119.54z" class="st6"/><path d="M432.71,130.46c-1.11,4.23-6.73,6.46-12.57,4.98c-5.83-1.48-9.67-6.11-8.56-10.34 c1.11-4.23,6.73-6.46,12.57-4.98C429.98,121.6,433.81,126.23,432.71,130.46z" class="st9"/><path d="M423.7,137.21c-1.26,0-2.58-0.16-3.9-0.49c-6.53-1.66-10.8-7.02-9.52-11.94 c0.64-2.46,2.53-4.42,5.3-5.52c2.63-1.04,5.79-1.19,8.88-0.4c3.09,0.79,5.79,2.41,7.58,4.58c1.89,2.28,2.58,4.9,1.94,7.36 l0,0C432.97,134.72,428.7,137.21,423.7,137.21z M420.53,120.97c-1.4,0-2.75,0.24-3.95,0.71c-1.97,0.78-3.29,2.11-3.72,3.74 c-0.92,3.53,2.49,7.45,7.6,8.75c5.11,1.3,10.03-0.51,10.95-4.04l0,0c0.43-1.63-0.08-3.43-1.42-5.05 c-1.44-1.74-3.64-3.05-6.19-3.7C422.71,121.11,421.6,120.97,420.53,120.97z" class="st2"/><path d="M417.42,118.6c0,0,0.18,0.84-0.18,7.44c-0.12,2.08,7.26,4.02,9.17,2.14s1.14-3.83,1.6-10.9 C428.47,110.21,417.42,118.6,417.42,118.6z" class="st9"/><path d="M428.01,117.28c0,0-1.82,6.55-10.77,9.07l0.14-5.96L428.01,117.28z" class="st10"/><path d="M433.68,100.63c2.25,8.58-2.98,17.33-11.69,19.55c-8.7,2.22-17.59-2.94-19.84-11.52 c-2.25-8.58,2.98-17.33,11.69-19.55C422.55,86.89,431.43,92.05,433.68,100.63z" class="st9"/><path d="M421.66,105.23c0,0-8.96,3.78-15.17,3.83c-6.21,0.04-4.84-5.08-4.84-5.08l18.42-2.62L421.66,105.23z" class="st10"/><path d="M404.64,106.23c0,0,7.81-3.27,14.66-1.9c1.61,0.32,3.1,1.17,4.14,2.42c0.34,0.41,0.77,0.78,1.25,0.89 c1.21,0.27,3.2-4.7,5.56-4.81c2.36-0.11,3.94,1.53,2,4.59c-1.94,3.05-1.28,6.47-0.39,6.96c0.89,0.49,10.34-6.64,2-22.91 c-8.33-16.27-29.5-7.51-32.79-4.21c0,0-3.47,2.98-6.29,0.33C394.79,87.59,391.62,110.94,404.64,106.23z" class="st1"/><path d="M388.98,115.84l-11.37-4.83c-1.3-0.55-2.31-1.62-2.77-2.94L363.6,75.99l-5.2,0.89l9.08,39.91 c0.42,1.86,1.63,3.46,3.32,4.4l18.93,10.48L388.98,115.84z" class="st9"/></g><path d="M507.3,121.06l2.61-1.18c2.22-1.01,4.25-2.39,5.99-4.08l1.82-1.77c1.02-1,1.33-2.51,0.77-3.81l0,0 c-0.44-1.02-1.66-1.46-2.66-0.96l-5.45,2.71c0,0,0.85-2.38,0.44-3c-0.41-0.62-4.63,3.97-6.58,7.22 C502.28,119.45,507.3,121.06,507.3,121.06z" class="st9"/><path d="M461.91,133.89l9.73-1.07c2.3-0.25,4.52-0.96,6.54-2.09l26.06-14.54l3.06,4.86l-26.64,20.27 c-0.82,0.63-1.72,1.15-2.68,1.55l-15.89,6.69L461.91,133.89z" class="st9"/><path d="M358.4,76.88l-0.99-1.13c-1.14-1.3-1.88-2.89-2.14-4.6l-0.7-4.68c-0.22-1.46,0.36-2.94,1.56-3.81 c0.04-0.03,0.09-0.06,0.13-0.09c1.26-0.86,3.02-0.24,3.6,1.16l2.34,5.57c0,0-0.74-2.89,0.21-3.21 c0.69-0.23,2.01,3.35,1.23,5.34c-0.78,1.99-0.04,4.55-0.04,4.55L358.4,76.88z" class="st9"/><path d="M411.46,115.69l-4.2-1.14c0,0,2.01,3.11,4.94,3.9c2.93,0.79,3.39-1.65,3.39-1.65L411.46,115.69z" class="st2"/></g></g><path d="M405.16,116.84c0,0-19-3.7-24.8-5.44s-8.22,13.97-7.78,17.95c0.44,3.98,20.19,8.42,22.54,15.25 C397.47,151.42,405.16,116.84,405.16,116.84z" class="st6"/><path d="M434.2,123.73c0,0,13.88,5.87,37.12,8.73c0.94,0.12,1.75,0.73,2.07,1.62c0.9,2.54,2.42,8.07,1.23,13.77 c-0.49,2.35-2.65,4-5.08,3.98c-7.27-0.05-22.93,0.64-25.47,7.34C440.74,167.94,434.2,123.73,434.2,123.73z" class="st6"/><path d="M426.04,136.07l-3.81,4.07c-0.49,0.53-0.73,1.24-0.65,1.96l2.62,22.3c0.07,0.63-0.1,1.25-0.49,1.75 l-8.19,10.56c-0.36,0.47-1.11,0.34-1.29-0.22l-4.46-13.83c-0.17-0.52-0.15-1.09,0.05-1.6l7.85-20.26 c0.17-0.44,0.21-0.93,0.11-1.39l-1.15-5.37L426.04,136.07z" class="st2"/></g><path d="M467.62,147.67c-4.16,0.48-14.35,1.34-22.2,1.99c-4.5,0.37-7.48,4.64-6.34,8.94 c4.18,15.82-1.35,41.26-0.36,49.87c1.2,10.3-5.14,14.29-5.17,14.31c6.26-1.33,10.49-3.77,10.35-6.94 c-0.87-18.53,0.36-42.7,1.44-58.61c4.57-4.91,17.82-5.46,24.29-5.41c2.47,0.02,4.54-1.72,5.03-4.11c0.6-2.97,0.46-5.87,0.07-8.34 C474.72,139.54,474.72,146.86,467.62,147.67z" class="st4"/></g><g><ellipse cx="288.91" cy="426.02" class="st6" rx="50.02" ry="28.46"/><g><path d="M258.26,410.93c-3.48,1.47-5.68,5.3-5.39,9.41c0.14,1.94,0.37,3.75,0.79,4.6 c1.11,2.29,4.74,5.44,10.54,3.18c5.8-2.26,18.68-14.19,19.16-22C284.26,391.63,267.44,407.07,258.26,410.93z" class="st1"/><path d="M292.34,434.92c0,0-1.39,8.36-0.72,9.9s4.71,4.8,10.68,4.1c5.96-0.71,23.12-6.54,26.94-17.68 c5.92-17.28-33.12,1.3-33.12,1.3L292.34,434.92z" class="st1"/><path d="M309.11,301.24l1.33,130.54c-0.14,4.54-3.16,8.38-7.22,9.05c-0.5,0.08-1.04,0.15-1.61,0.2 c-4.11,0.35-6.5-1.38-7.87-3.21c-1.11-1.48-1.69-3.35-1.77-5.27l-1.69-55.73L281.83,327l-11.68,88.18 c-0.19,2.39-1.35,4.59-3.21,5.81c-1.29,0.84-3.03,1.49-5.32,1.42c-3.34-0.1-5.66-1.86-7.08-3.44c-1.12-1.25-1.71-2.96-1.69-4.72 l4.63-53.06l1.72-67.68L309.11,301.24z" class="st5"/><path d="M291.95,184.39l-2.09,11.9c0,0-0.08,4.06,4.52,5.18c4.6,1.12,6.02-1.8,6.02-1.8l2.08-13.4L291.95,184.39z" class="st9"/><ellipse cx="300.64" cy="172.63" class="st9" rx="19.38" ry="17.46" transform="matrix(0.3257 -0.9455 0.9455 0.3257 39.5075 400.6633)"/><path d="M292.5,196.5c-0.32-0.13-19.51-12.3-26.6,0.44c-11.57,20.78-3.11,44.6-7.23,96.33 c-0.69,8.66,11.82,13.93,17.73,17.26c5.26,2.96,11.15,4.78,17.21,4.83c6,0.05,17.49-5.21,17.08-12.93 c-1.92-35.53,1.27-65.49,4.21-94.55C314.9,207.88,311.22,203.97,292.5,196.5z" class="st6"/><path d="M281.83,327l-11.68,88.18c-0.19,2.39-1.35,4.59-3.21,5.81c-0.3,0.2-0.64,0.38-1,0.56 c2.42-1.79,9.5-75.81,10.81-84.04C278.07,329.27,281.83,327,281.83,327z" class="st4"/></g><polygon points="354.72 207.27 370.79 175.84 365.75 172.7 349.1 196.64" class="st9"/><polygon points="248.75 173.9 256.57 138.86 262.79 138.92 260.46 167.98" class="st9"/><path d="M314.9,207.88c0,0,17.97,6.99,33.41-12.21c1.36-1.69,4.15-1.5,4.96,0.32c1.39,3.15,3.13,7.9,1.02,12.36 c-9.33,19.74-41.17,19.05-48.84,30.11C297.78,249.53,314.9,207.88,314.9,207.88z" class="st6"/><path d="M280.33,192.14c0,0-14.84,1.12-16.97-11.53c-1.1-6.52-1.43-10.41-1.49-12.65c-0.04-1.52-1.38-2.67-2.91-2.48 c-3.55,0.43-9.05,1.48-9.8,3.83c-1.11,3.5-3.21,20.69,11.44,47.06C270.2,233.64,280.33,192.14,280.33,192.14z" class="st6"/><path d="M256.54,138.94l0.14-4c0.05-1.41,0.47-2.78,1.21-3.99l4.11-6.65l1.07-1.33c0.99-1.23,2.76-1.53,4.11-0.69 l0.95,0.59c1.21,0.75,1.9,2.08,1.81,3.48l-2.13,5.69l2.69-0.51c0.52-0.1,1.03,0.24,1.12,0.76l0,0c0.08,0.44-0.16,0.87-0.58,1.04 l-4.39,1.75l-3.99,5.56L256.54,138.94z" class="st9"/><path d="M370.91,176.04l1.88-3.54c0.66-1.25,0.99-2.65,0.95-4.06l-0.24-7.79l-0.26-1.68 c-0.24-1.55-1.63-2.67-3.22-2.6l-1.12,0.05c-1.42,0.06-2.7,0.89-3.32,2.15l-1,5.98l-2.08-1.76c-0.4-0.34-1.01-0.29-1.35,0.11l0,0 c-0.29,0.34-0.3,0.84-0.01,1.19l2.94,3.66l0.76,7.62L370.91,176.04z" class="st9"/><path d="M303.18,234.5c-1.56,7.02,7.85,59.96-2.61,79.32c5.23-2.09,10.4-6.18,10.12-11.4 c-1.37-25.41-0.13-47.96,1.76-69.38c8.95-4.47,22.93-7.13,32.81-14.27C334.66,222.63,304.58,228.24,303.18,234.5z" class="st4"/><path d="M285.6,193.14l2.66-2.7c0,0,4.38,4.41,7.9,5.18c0,0,4.24,1.18,6.31,1.29l1.71,4.66 C304.19,201.57,290.24,200.59,285.6,193.14z" class="st2"/><path d="M304.78,178.19c0.74-0.01,1.42-0.34,1.84-0.94c0.73-1.04,0.27-5.82,2.51-6.61 c3.51-1.23,11.83,3.09,12.72-9.38c0.46-6.48-2.74-8.21-2.73-11.76c0,0,0.28,1.78-16.65,0.67c-16.93-1.11-22.43,13.71-22.83,20.76 c-0.4,7.06,3.06,18.66,14.64,20.25c1.92,0.26,9.98-6.12,9.77-6.96c-0.21-0.84-3.25-0.79-2.81-3.23 C301.6,178.98,302.85,178.23,304.78,178.19z" class="st1"/></g></g></g><g><g><path d="M61.9,257.25l-42.75-24.33c-0.85-0.48-1.61-0.5-2.21-0.17c0,0,0-0.03,0-0.03l-4.15,2.36 c0,0,1.84,0.66,2.91,1.05v30.69c0,2.5,1.54,5.4,3.44,6.48l40.86,23.25v3.6l4.19-2.38l-0.02-0.01c0.71-0.43,1.16-1.36,1.16-2.7 v-31.33C65.34,261.23,63.8,258.33,61.9,257.25z" class="st6"/><path d="M57.68,300.02l-42.75-24.33c-1.9-1.08-3.44-3.98-3.44-6.48v-31.33c0-2.5,1.54-3.64,3.44-2.56l42.75,24.33 c1.9,1.08,3.44,3.98,3.44,6.48v31.33C61.12,299.95,59.58,301.1,57.68,300.02z" class="st5"/><path d="M57.68,259.65l-42.75-24.33c-1.08-0.61-2.03-0.49-2.66,0.18c0.46-0.04,0.97,0.07,1.52,0.38l42.75,24.33 c1.9,1.08,3.44,3.98,3.44,6.48v31.33c0,1.08-0.3,1.88-0.78,2.39c1.13-0.09,1.92-1.17,1.92-2.94v-31.33 C61.12,263.63,59.58,260.73,57.68,259.65z" class="st2"/></g><g><path d="M29.3,264.9c0,1.81-1.29,2.55-2.88,1.64c-1.59-0.91-2.88-3.11-2.88-4.92c0-1.81,1.29-2.55,2.88-1.64 C28.01,260.88,29.3,263.08,29.3,264.9z" class="st2"/><path d="M38.04,269.87c0,1.81-1.29,2.55-2.88,1.64c-1.59-0.91-2.88-3.11-2.88-4.92c0-1.81,1.29-2.55,2.88-1.64 C36.75,265.85,38.04,268.05,38.04,269.87z" class="st2"/><path d="M46.78,274.84c0,1.81-1.29,2.55-2.88,1.64c-1.59-0.91-2.88-3.11-2.88-4.92c0-1.81,1.29-2.55,2.88-1.64 C45.49,270.82,46.78,273.03,46.78,274.84z" class="st2"/></g></g><g><g><polygon points="41.01 511.8 12.19 495.4 41.01 479 69.84 495.4" class="st0"/><polygon points="69.84 474.58 41.01 490.98 41.01 458.18 69.84 441.78" class="st1"/><polygon points="41.01 458.18 12.19 441.78 41.01 425.38 69.83 441.78" class="st5"/><polygon points="41.01 490.98 12.19 474.58 12.19 441.78 41.01 458.18" class="st6"/></g><polygon points="30.63 473.26 22.57 468.67 22.57 459.5 30.63 464.09" class="st2"/></g><g><g><polygon points="507.3 529.6 477.29 512.52 507.3 495.45 537.3 512.52" class="st0"/><polygon points="537.3 490.84 507.3 507.92 507.3 473.77 537.3 456.7" class="st1"/><polygon points="507.3 473.77 477.29 456.7 507.3 439.62 537.3 456.7" class="st5"/><polygon points="507.3 507.92 477.29 490.84 477.29 456.7 507.3 473.77" class="st6"/></g><polygon points="496.49 489.47 488.1 484.7 488.1 475.14 496.49 479.92" class="st2"/></g><g><g><path d="M526.75,256.7l-41.8-23.78c-0.83-0.47-1.58-0.49-2.16-0.17c0,0,0-0.03,0-0.03l-4.05,2.31 c0,0,1.8,0.64,2.85,1.03v30c0,2.44,1.51,5.28,3.36,6.33l39.95,22.73v3.52l4.1-2.32l-0.02-0.01c0.69-0.42,1.14-1.33,1.14-2.64 v-30.63C530.11,260.59,528.6,257.75,526.75,256.7z" class="st4"/><path d="M522.62,298.51l-41.8-23.78c-1.86-1.06-3.36-3.89-3.36-6.33v-30.63c0-2.44,1.51-3.56,3.36-2.51l41.8,23.78 c1.86,1.06,3.36,3.89,3.36,6.33v30.63C525.98,298.45,524.48,299.57,522.62,298.51z" class="st5"/><path d="M523.64,258.31l-41.8-23.78c-1.18-0.67-2.21-0.46-2.81,0.4c0.52-0.13,1.13-0.04,1.78,0.33l41.8,23.78 c1.86,1.06,3.36,3.89,3.36,6.33v30.63c0,0.9-0.21,1.61-0.55,2.11c0.95-0.24,1.58-1.26,1.58-2.83v-30.63 C527.01,262.21,525.5,259.37,523.64,258.31z" class="st2"/></g><g><path d="M494.88,264.17c0,1.77-1.26,2.49-2.82,1.6c-1.56-0.89-2.82-3.04-2.82-4.81c0-1.77,1.26-2.49,2.82-1.6 C493.61,260.25,494.88,262.4,494.88,264.17z" class="st2"/><path d="M503.42,269.03c0,1.77-1.26,2.49-2.82,1.6c-1.56-0.89-2.82-3.04-2.82-4.81s1.26-2.49,2.82-1.6 C502.16,265.11,503.42,267.26,503.42,269.03z" class="st2"/><path d="M511.96,273.9c0,1.77-1.26,2.49-2.82,1.6c-1.56-0.89-2.82-3.04-2.82-4.81s1.26-2.49,2.82-1.6 C510.7,269.97,511.96,272.12,511.96,273.9z" class="st2"/></g></g><g><polygon points="55.55 54.56 53.21 52.02 64.34 39.92 66.69 42.46" class="st5"/><polygon points="64.34 54.56 53.21 42.46 55.55 39.92 66.69 52.02" class="st5"/></g><path d="M294.59,65.38c0,4.69-3.5,8.5-7.82,8.5c-4.32,0-7.82-3.8-7.82-8.5c0-4.69,3.5-8.5,7.82-8.5	C291.09,56.88,294.59,60.69,294.59,65.38z" class="st5"/><polygon points="26.42 373.71 19.58 377.36 16.22 369.93 23.06 366.28" class="st6"/><path d="M514.79,206.5c-8.38,0-15.19-7.41-15.19-16.51c0-9.1,6.81-16.51,15.19-16.51c8.38,0,15.19,7.41,15.19,16.51	C529.99,199.09,523.17,206.5,514.79,206.5z M514.79,177.08c-6.55,0-11.88,5.79-11.88,12.91c0,7.12,5.33,12.91,11.88,12.91	c6.55,0,11.88-5.79,11.88-12.91C526.67,182.87,521.34,177.08,514.79,177.08z" class="st5"/><g><polygon points="60.67 159.57 59.95 156.52 68.11 154.24 68.83 157.3" class="st6"/><polygon points="56.51 163.98 55.79 160.93 63.95 158.66 64.67 161.71" class="st6"/><polygon points="52.34 168.4 51.62 165.34 59.78 163.07 60.5 166.12" class="st6"/><polygon points="48.18 172.81 47.46 169.76 55.62 167.48 56.34 170.54" class="st6"/></g><g><polygon points="481.26 35.96 480.54 32.91 488.7 30.64 489.42 33.69" class="st6"/><polygon points="477.1 40.38 476.38 37.32 484.54 35.05 485.26 38.1" class="st6"/><polygon points="472.93 44.79 472.21 41.74 480.37 39.46 481.09 42.52" class="st6"/><polygon points="468.77 49.2 468.05 46.15 476.21 43.88 476.93 46.93" class="st6"/></g><path d="M143.21,518.86c0,2.73-2.03,4.94-4.54,4.94c-2.51,0-4.54-2.21-4.54-4.94s2.03-4.94,4.54-4.94	C141.18,513.93,143.21,516.14,143.21,518.86z" class="st5"/><g><path d="M403.33,517.87l1.68-3.1c0,0,1.41,0.84,2.91,0.33c1.21-0.41,2.25-1.6,3.1-3.52c3.01-6.77,8.56-7.29,11.08-6.61 l-0.79,3.5l0.4-1.75l-0.38,1.75c-0.48-0.12-4.79-1.01-7.31,4.68c-1.28,2.88-3.02,4.7-5.16,5.41 C405.99,519.49,403.59,518.04,403.33,517.87z" class="st6"/></g></svg>