<svg xmlns="http://www.w3.org/2000/svg" xmlns:xlink="http://www.w3.org/1999/xlink" width="84.721" height="153.362" fill-rule="evenodd" clip-rule="evenodd" image-rendering="optimizeQuality" shape-rendering="geometricPrecision" text-rendering="geometricPrecision" version="1.1" viewBox="0 0 2188 3960" xml:space="preserve"><defs><style type="text/css">.str0{stroke:#2b2a29;stroke-width:115.997}.fil2{fill:none}.fil0,.fil1{fill:#2b2a29}.fil0{fill-rule:nonzero}</style></defs><g id="Layer_x0020_1"><metadata id="CorelCorpID_0Corel-Layer"/><g id="_2548054128240"><g><path d="M1898 116l-1608 0 0 -116 1608 0 0 0 0 116zm290 174l-116 0 0 0 -1 -9 0 -9 -1 -8 -2 -9 -2 -8 -2 -9 -3 -8 -3 -7 -4 -8 -3 -8 -5 -7 -4 -7 -5 -7 -5 -6 -6 -7 -6 -6 -6 -6 -6 -5 -7 -5 -6 -5 -8 -5 -7 -4 -7 -4 -8 -3 -8 -3 -8 -3 -8 -3 -8 -1 -9 -2 -9 -1 -8 -1 -9 0 0 -116 14 0 15 2 15 1 14 3 14 3 14 4 13 5 13 5 13 6 13 6 12 7 12 8 11 8 11 8 10 10 10 9 10 10 9 11 9 11 8 11 7 12 7 12 7 12 6 13 5 13 4 14 4 14 4 14 2 14 2 14 1 15 1 15 0 0zm-116 3380l0 -3380 116 0 0 3380 0 0 -116 0zm-174 290l0 -116 0 0 9 0 8 -1 9 -1 9 -2 8 -2 8 -2 8 -3 8 -3 8 -3 7 -4 7 -4 8 -5 6 -5 7 -5 6 -5 6 -6 6 -6 6 -7 5 -6 5 -7 4 -7 5 -7 3 -8 4 -8 3 -7 3 -9 2 -8 2 -8 2 -9 1 -8 0 -9 1 -9 116 0 -1 15 -1 15 -2 14 -2 14 -4 14 -4 14 -4 14 -5 13 -6 13 -7 12 -7 12 -7 12 -8 11 -9 11 -9 11 -10 10 -10 9 -10 10 -11 8 -11 8 -12 8 -12 7 -13 6 -13 6 -13 5 -13 5 -14 4 -14 3 -14 3 -15 1 -15 2 -14 0 0 0zm-1608 -116l1608 0 0 116 -1608 0 0 0 0 -116zm-290 -174l116 0 0 0 0 9 1 9 1 8 2 9 1 8 3 8 3 9 3 7 3 8 4 8 4 7 5 7 5 7 5 6 5 7 6 6 6 6 7 5 6 5 7 5 7 5 7 4 8 4 8 3 7 3 9 3 8 2 8 2 9 2 8 1 9 1 9 0 0 116 -15 0 -15 -2 -14 -1 -14 -3 -14 -3 -14 -4 -14 -5 -13 -5 -13 -6 -12 -6 -12 -7 -12 -8 -11 -8 -11 -8 -11 -10 -10 -9 -9 -10 -10 -11 -8 -11 -8 -11 -8 -12 -7 -12 -6 -12 -6 -13 -5 -13 -5 -14 -4 -14 -3 -14 -3 -14 -1 -14 -2 -15 0 -15 0 0zm116 -3380l0 3380 -116 0 0 -3380 0 0 116 0zm174 -290l0 116 0 0 -9 0 -9 1 -8 1 -9 2 -8 1 -8 3 -9 3 -7 3 -8 3 -8 4 -7 4 -7 5 -7 5 -6 5 -7 5 -6 6 -6 6 -5 7 -5 6 -5 7 -5 7 -4 7 -4 8 -3 8 -3 7 -3 8 -3 9 -1 8 -2 9 -1 8 -1 9 0 9 -116 0 0 -15 2 -15 1 -14 3 -14 3 -14 4 -14 5 -14 5 -13 6 -13 6 -12 7 -12 8 -12 8 -11 8 -11 10 -11 9 -10 10 -9 11 -10 11 -8 11 -8 12 -8 12 -7 12 -6 13 -6 13 -5 14 -5 14 -4 14 -3 14 -3 14 -1 15 -2 15 0 0 0z" class="fil0"/></g><rect width="2072" height="150" x="75" y="353" class="fil1"/><rect width="2072" height="150" x="112" y="3119" class="fil1"/><g><path d="M1094 3377c93,0 169,76 169,169 0,93 -76,169 -169,169 -93,0 -169,-76 -169,-169 0,-93 76,-169 169,-169z" class="fil2 str0"/></g></g></g></svg>