<svg xmlns="http://www.w3.org/2000/svg" xmlns:xlink="http://www.w3.org/1999/xlink" id="Layer_1" x="0" y="0" enable-background="new 0 0 550 550" version="1.1" viewBox="0 0 550 550" xml:space="preserve"><style type="text/css">.st0{fill:#d4ecff}.st1{fill:#173d7a}.st2{fill:#396caa}.st3{fill:#274f89}.st4{fill:#fff}.st5{fill:#5793ce}.st6{opacity:.4;fill:#d4ecff}.st7{fill:#b2d3ea}.st8{fill:#c13d1a}.st9{fill:#ef602e}.st10{fill:#ffc2b0}.st11{fill:#ea9c92}</style><g><g><path d="M298.4,506.8L101.22,383.09c-5.58-3.5-4.88-9.61,1.56-13.65l134.27-84.21c6.44-4.04,16.18-4.48,21.76-0.98 l197.18,123.71c5.58,3.5,4.88,9.61-1.56,13.65l-134.27,84.21C313.72,509.86,303.98,510.3,298.4,506.8z" class="st0"/><g><path d="M463.29,164.62L262.85,38.97c-2.58-1.62-4.95-1.87-6.86-1l0.01-0.03l-0.33,0.17 c-0.03,0.01-0.05,0.03-0.08,0.04l-6.53,3.34l7.08,3.83c0,0.14-0.02,0.28-0.02,0.43l0.06,178.89c0,8.95,5.1,19.4,11.39,23.35 l195.09,122.29l1.11,9.98l7.12-3.69c2.35-1.5,3.83-4.88,3.83-9.71l-0.06-178.89C474.67,179.01,469.58,168.56,463.29,164.62z" class="st1"/><path d="M463.29,164.62L262.85,38.97c-2.58-1.62-4.95-1.87-6.86-1l0.01-0.03l-0.33,0.17 c-0.03,0.01-0.05,0.03-0.08,0.04l-6.53,3.34l7.08,3.83c0,0.14-0.02,0.28-0.02,0.43l0.04,117.9l91.22,78.32l123.85-67.73 C469.19,170.09,466.39,166.56,463.29,164.62z" class="st2"/><path d="M466.64,167.43l-19.64,8.98l14.83,12.42l12.38-5.73C473.13,177.22,470.28,171.3,466.64,167.43z" class="st3"/><path d="M456.76,379.3L256.33,253.66c-6.29-3.94-11.39-14.39-11.39-23.35l-0.06-178.89c0-8.95,5.09-13.02,11.38-9.07 l200.44,125.64c6.29,3.94,11.39,14.39,11.39,23.34l0.06,178.89C468.14,379.18,463.05,383.24,456.76,379.3z" class="st0"/><path d="M450.1,366L262.9,248.71c-5.75-3.61-10.42-13.17-10.42-21.36l-0.06-163.7c0-8.19,4.66-11.91,10.41-8.3 l187.2,117.29c5.75,3.61,10.42,13.17,10.42,21.36l0.06,163.7C460.51,365.89,455.85,369.6,450.1,366z" class="st4"/><path d="M450.1,366L262.9,248.71c-5.75-3.61-10.42-13.17-10.42-21.36l-0.06-163.7c0-8.19,4.66-11.91,10.41-8.3 l187.2,117.29c5.75,3.61,10.42,13.17,10.42,21.36l0.06,163.7C460.51,365.89,455.85,369.6,450.1,366z" class="st4"/></g><path d="M459.76,384.86l-26.95-3.87L258.81,271.84c-5.58-3.5-15.32-3.06-21.76,0.98l-123.29,77.32l-16.3-2.34v10.05 l0.02,0c-0.11,2.32,1.11,4.56,3.74,6.21L298.4,487.76c5.58,3.5,15.32,3.06,21.76-0.98l134.27-84.21c3.62-2.27,5.43-5.2,5.32-7.95 l0,0V384.86z" class="st1"/><path d="M329.03,315.89l-12.36-7.76h-135.9l-67,42.01l-16.3-2.34v10.05l0.02,0c-0.11,2.32,1.11,4.56,3.74,6.21 L298.4,487.76c2.95,1.85,7.06,2.59,11.23,2.29L329.03,315.89z" class="st2"/><path d="M104.69,348.83l-7.23-1.04v10.05l0.02,0c-0.11,2.32,1.11,4.56,3.74,6.21l3.47,2.18V348.83z" class="st5"/><path d="M300.39,488.76c5.29,2.18,12.85,1.7,18.49-1.25V465.1h-18.49V488.76z" class="st3"/><path d="M298.4,477.73L101.22,354.02c-5.58-3.5-4.88-9.61,1.56-13.65l134.27-84.21c6.44-4.04,16.18-4.48,21.76-0.98 l197.18,123.71c5.58,3.5,4.88,9.61-1.56,13.65l-134.27,84.21C313.72,480.79,303.98,481.22,298.4,477.73z" class="st0"/><path d="M454.43,388.87l-134.27,84.21c-6.44,4.04-16.18,4.48-21.76,0.98L101.22,350.35 c-1.83-1.15-2.97-2.58-3.47-4.12c-0.87,2.87,0.24,5.77,3.47,7.79L298.4,477.73c5.58,3.5,15.32,3.06,21.76-0.98l134.27-84.21 c4.33-2.72,6.05-6.37,5.03-9.53C458.83,385.09,457.15,387.17,454.43,388.87z" class="st4"/><g><path d="M185.08,313.06l-8.92-5.6c-0.72-0.45-0.63-1.23,0.2-1.75l10.53-6.61c0.83-0.52,2.08-0.58,2.79-0.13l8.92,5.6 c0.72,0.45,0.63,1.23-0.2,1.75l-10.53,6.61C187.05,313.46,185.8,313.51,185.08,313.06z" class="st1"/><path d="M198.86,321.71l-8.92-5.6c-0.72-0.45-0.63-1.23,0.2-1.75l10.53-6.61c0.83-0.52,2.08-0.58,2.79-0.13l8.92,5.6 c0.72,0.45,0.63,1.23-0.2,1.75l-10.53,6.61C200.83,322.1,199.58,322.16,198.86,321.71z" class="st1"/><path d="M212.64,330.35l-8.92-5.6c-0.72-0.45-0.63-1.23,0.2-1.75l10.53-6.61c0.83-0.52,2.08-0.58,2.79-0.13l8.92,5.6 c0.72,0.45,0.63,1.23-0.2,1.75l-10.53,6.61C214.61,330.74,213.36,330.8,212.64,330.35z" class="st1"/><path d="M231.7,323.21l-8.92-5.6c-0.72-0.45-0.63-1.23,0.2-1.75l8.84-5.55c0.83-0.52,2.08-0.58,2.79-0.13l8.92,5.6 c0.72,0.45,0.63,1.23-0.2,1.75l-8.84,5.55C233.66,323.61,232.41,323.66,231.7,323.21z" class="st1"/><path d="M245.47,331.86l-8.92-5.6c-0.72-0.45-0.63-1.23,0.2-1.75l8.84-5.55c0.83-0.52,2.08-0.58,2.79-0.13l8.92,5.6 c0.72,0.45,0.63,1.23-0.2,1.75l-8.84,5.55C247.44,332.25,246.19,332.31,245.47,331.86z" class="st1"/><path d="M259.25,340.5l-8.92-5.6c-0.72-0.45-0.63-1.23,0.2-1.75l8.84-5.55c0.83-0.52,2.08-0.58,2.79-0.13l8.92,5.6 c0.72,0.45,0.63,1.23-0.2,1.75l-8.84,5.55C261.22,340.89,259.97,340.95,259.25,340.5z" class="st1"/><path d="M273.03,349.14l-8.92-5.6c-0.72-0.45-0.63-1.23,0.2-1.75l8.84-5.55c0.83-0.52,2.08-0.58,2.79-0.13l8.92,5.6 c0.72,0.45,0.63,1.23-0.2,1.75l-8.84,5.55C275,349.54,273.75,349.59,273.03,349.14z" class="st1"/><path d="M286.81,357.79l-8.92-5.6c-0.72-0.45-0.63-1.23,0.2-1.75l8.84-5.55c0.83-0.52,2.08-0.58,2.79-0.13l8.92,5.6 c0.72,0.45,0.63,1.23-0.2,1.75l-8.84,5.55C288.77,358.18,287.52,358.24,286.81,357.79z" class="st1"/><path d="M300.58,366.43l-8.92-5.6c-0.72-0.45-0.63-1.23,0.2-1.75l8.84-5.55c0.83-0.52,2.08-0.58,2.79-0.13l8.92,5.6 c0.72,0.45,0.63,1.23-0.2,1.75l-8.84,5.55C302.55,366.83,301.3,366.88,300.58,366.43z" class="st1"/><path d="M314.36,375.08l-8.92-5.6c-0.72-0.45-0.63-1.23,0.2-1.75l8.84-5.55c0.83-0.52,2.08-0.58,2.79-0.13l8.92,5.6 c0.72,0.45,0.63,1.23-0.2,1.75l-8.84,5.55C316.33,375.47,315.08,375.53,314.36,375.08z" class="st1"/><path d="M328.14,383.72l-8.92-5.6c-0.72-0.45-0.63-1.23,0.2-1.75l8.84-5.55c0.83-0.52,2.08-0.58,2.79-0.13l8.92,5.6 c0.72,0.45,0.63,1.23-0.2,1.75l-8.84,5.55C330.11,384.11,328.86,384.17,328.14,383.72z" class="st1"/><path d="M341.92,392.36l-8.92-5.6c-0.72-0.45-0.63-1.23,0.2-1.75l8.84-5.55c0.83-0.52,2.08-0.58,2.79-0.13l8.92,5.6 c0.72,0.45,0.63,1.23-0.2,1.75l-8.84,5.55C343.89,392.76,342.63,392.81,341.92,392.36z" class="st1"/><path d="M355.7,401.01l-8.92-5.6c-0.72-0.45-0.63-1.23,0.2-1.75l8.84-5.55c0.83-0.52,2.08-0.58,2.79-0.13l8.92,5.6 c0.72,0.45,0.63,1.23-0.2,1.75l-8.84,5.55C357.66,401.4,356.41,401.46,355.7,401.01z" class="st1"/><path d="M252,319.12l-8.92-5.6c-0.72-0.45-0.63-1.23,0.2-1.75l8.84-5.55c0.83-0.52,2.08-0.58,2.79-0.13l8.92,5.6 c0.72,0.45,0.63,1.23-0.2,1.75l-8.84,5.55C253.96,319.51,252.71,319.57,252,319.12z" class="st2"/><path d="M238.01,310.35l-8.92-5.6c-0.72-0.45-0.63-1.23,0.2-1.75l8.84-5.55c0.83-0.52,2.08-0.58,2.79-0.13l8.92,5.6 c0.72,0.45,0.63,1.23-0.2,1.75l-8.84,5.55C239.98,310.74,238.73,310.8,238.01,310.35z" class="st2"/><path d="M224.01,301.56l-19.22-12.05c-0.72-0.45-0.63-1.23,0.2-1.75l8.84-5.55c0.83-0.52,2.08-0.58,2.79-0.13 l19.22,12.05c0.72,0.45,0.63,1.23-0.2,1.75l-8.84,5.55C225.97,301.95,224.72,302.01,224.01,301.56z" class="st1"/><path d="M233.8,290.88l-15.59-9.78c-0.72-0.45-0.63-1.23,0.2-1.75l8.84-5.55c0.83-0.52,2.08-0.58,2.79-0.13 l15.59,9.78c0.72,0.45,0.63,1.23-0.2,1.75l-8.84,5.55C235.76,291.27,234.51,291.32,233.8,290.88z" class="st1"/><path d="M265.77,327.76l-8.92-5.6c-0.72-0.45-0.63-1.23,0.2-1.75l8.84-5.55c0.83-0.52,2.08-0.58,2.79-0.13l8.92,5.6 c0.72,0.45,0.63,1.23-0.2,1.75l-8.84,5.55C267.74,328.16,266.49,328.21,265.77,327.76z" class="st2"/><path d="M279.55,336.41l-8.92-5.6c-0.72-0.45-0.63-1.23,0.2-1.75l8.84-5.55c0.83-0.52,2.08-0.58,2.79-0.13l8.92,5.6 c0.72,0.45,0.63,1.23-0.2,1.75l-8.84,5.55C281.52,336.8,280.27,336.86,279.55,336.41z" class="st1"/><path d="M293.33,345.05l-8.92-5.6c-0.72-0.45-0.63-1.23,0.2-1.75l8.84-5.55c0.83-0.52,2.08-0.58,2.79-0.13l8.92,5.6 c0.72,0.45,0.63,1.23-0.2,1.75l-8.84,5.55C295.3,345.45,294.05,345.5,293.33,345.05z" class="st1"/><path d="M307.11,353.7l-8.92-5.6c-0.72-0.45-0.63-1.23,0.2-1.75l8.84-5.55c0.83-0.52,2.08-0.58,2.79-0.13l8.92,5.6 c0.72,0.45,0.63,1.23-0.2,1.75l-8.84,5.55C309.08,354.09,307.82,354.15,307.11,353.7z" class="st1"/><path d="M320.89,362.34l-8.92-5.6c-0.72-0.45-0.63-1.23,0.2-1.75l8.84-5.55c0.83-0.52,2.08-0.58,2.79-0.13l8.92,5.6 c0.72,0.45,0.63,1.23-0.2,1.75l-8.84,5.55C322.85,362.73,321.6,362.79,320.89,362.34z" class="st1"/><path d="M334.66,370.98l-8.92-5.6c-0.72-0.45-0.63-1.23,0.2-1.75l8.84-5.55c0.83-0.52,2.08-0.58,2.79-0.13l8.92,5.6 c0.72,0.45,0.63,1.23-0.2,1.75l-8.84,5.55C336.63,371.38,335.38,371.43,334.66,370.98z" class="st1"/><path d="M348.44,379.63l-8.92-5.6c-0.72-0.45-0.63-1.23,0.2-1.75l8.84-5.55c0.83-0.52,2.08-0.58,2.79-0.13l8.92,5.6 c0.72,0.45,0.63,1.23-0.2,1.75l-8.84,5.55C350.41,380.02,349.16,380.08,348.44,379.63z" class="st1"/><path d="M362.22,388.27l-8.92-5.6c-0.72-0.45-0.63-1.23,0.2-1.75l8.84-5.55c0.83-0.52,2.08-0.58,2.79-0.13l8.92,5.6 c0.72,0.45,0.63,1.23-0.2,1.75l-8.84,5.55C364.19,388.66,362.94,388.72,362.22,388.27z" class="st1"/><path d="M376,396.92l-8.92-5.6c-0.72-0.45-0.63-1.23,0.2-1.75l8.84-5.55c0.83-0.52,2.08-0.58,2.79-0.13l8.92,5.6 c0.72,0.45,0.63,1.23-0.2,1.75l-8.84,5.55C377.96,397.31,376.71,397.36,376,396.92z" class="st1"/><path d="M400.49,412.28l-19.47-12.21c-0.72-0.45-0.63-1.23,0.2-1.75l8.84-5.55c0.83-0.52,2.08-0.58,2.79-0.13 l19.47,12.21c0.72,0.45,0.63,1.23-0.2,1.75l-8.84,5.55C402.46,412.68,401.21,412.73,400.49,412.28z" class="st1"/><path d="M427.32,395.45l-16.43-10.31c-0.72-0.45-0.63-1.23,0.2-1.75l8.84-5.55c0.83-0.52,2.08-0.58,2.79-0.13 l16.43,10.31c0.72,0.45,0.63,1.23-0.2,1.75l-8.84,5.55C429.28,395.85,428.03,395.9,427.32,395.45z" class="st1"/><path d="M289.9,326.07l-8.92-5.6c-0.72-0.45-0.63-1.23,0.2-1.75l8.84-5.55c0.83-0.52,2.08-0.58,2.79-0.13l8.92,5.6 c0.72,0.45,0.63,1.23-0.2,1.75l-8.84,5.55C291.87,326.47,290.62,326.52,289.9,326.07z" class="st1"/><path d="M275.78,317.21l-8.92-5.6c-0.72-0.45-0.63-1.23,0.2-1.75l8.84-5.55c0.83-0.52,2.08-0.58,2.79-0.13l8.92,5.6 c0.72,0.45,0.63,1.23-0.2,1.75l-8.84,5.55C277.75,317.61,276.5,317.66,275.78,317.21z" class="st1"/><path d="M261.66,308.36l-8.92-5.6c-0.72-0.45-0.63-1.23,0.2-1.75l8.84-5.55c0.83-0.52,2.08-0.58,2.79-0.13l8.92,5.6 c0.72,0.45,0.63,1.23-0.2,1.75l-8.84,5.55C263.63,308.75,262.38,308.81,261.66,308.36z" class="st2"/><path d="M247.54,299.5l-8.92-5.6c-0.72-0.45-0.63-1.23,0.2-1.75l8.84-5.55c0.83-0.52,2.08-0.58,2.79-0.13l8.92,5.6 c0.72,0.45,0.63,1.23-0.2,1.75l-8.84,5.55C249.51,299.89,248.26,299.95,247.54,299.5z" class="st1"/><path d="M303.68,334.72l-8.92-5.6c-0.72-0.45-0.63-1.23,0.2-1.75l8.84-5.55c0.83-0.52,2.08-0.58,2.79-0.13l8.92,5.6 c0.72,0.45,0.63,1.23-0.2,1.75l-8.84,5.55C305.65,335.11,304.4,335.17,303.68,334.72z" class="st1"/><path d="M317.46,343.36l-8.92-5.6c-0.72-0.45-0.63-1.23,0.2-1.75l8.84-5.55c0.83-0.52,2.08-0.58,2.79-0.13l8.92,5.6 c0.72,0.45,0.63,1.23-0.2,1.75l-8.84,5.55C319.43,343.75,318.17,343.81,317.46,343.36z" class="st1"/><path d="M331.24,352.01l-8.92-5.6c-0.72-0.45-0.63-1.23,0.2-1.75l8.84-5.55c0.83-0.52,2.08-0.58,2.79-0.13l8.92,5.6 c0.72,0.45,0.63,1.23-0.2,1.75l-8.84,5.55C333.2,352.4,331.95,352.45,331.24,352.01z" class="st1"/><path d="M345.01,360.65l-8.92-5.6c-0.72-0.45-0.63-1.23,0.2-1.75l8.84-5.55c0.83-0.52,2.08-0.58,2.79-0.13l8.92,5.6 c0.72,0.45,0.63,1.23-0.2,1.75l-8.84,5.55C346.98,361.04,345.73,361.1,345.01,360.65z" class="st1"/><path d="M358.79,369.29l-8.92-5.6c-0.72-0.45-0.63-1.23,0.2-1.75l8.84-5.55c0.83-0.52,2.08-0.58,2.79-0.13l8.92,5.6 c0.72,0.45,0.63,1.23-0.2,1.75l-8.84,5.55C360.76,369.69,359.51,369.74,358.79,369.29z" class="st1"/><path d="M372.57,377.94l-8.92-5.6c-0.72-0.45-0.63-1.23,0.2-1.75l8.84-5.55c0.83-0.52,2.08-0.58,2.79-0.13l8.92,5.6 c0.72,0.45,0.63,1.23-0.2,1.75l-8.84,5.55C374.54,378.33,373.29,378.39,372.57,377.94z" class="st1"/><path d="M386.35,386.58l-8.92-5.6c-0.72-0.45-0.63-1.23,0.2-1.75l8.84-5.55c0.83-0.52,2.08-0.58,2.79-0.13l8.92,5.6 c0.72,0.45,0.63,1.23-0.2,1.75l-8.84,5.55C388.31,386.97,387.06,387.03,386.35,386.58z" class="st1"/><path d="M400.13,395.22l-8.92-5.6c-0.72-0.45-0.63-1.23,0.2-1.75l8.84-5.55c0.83-0.52,2.08-0.58,2.79-0.13l8.92,5.6 c0.72,0.45,0.63,1.23-0.2,1.75l-8.84,5.55C402.09,395.62,400.84,395.67,400.13,395.22z" class="st1"/><path d="M413.9,403.87l-8.92-5.6c-0.72-0.45-0.63-1.23,0.2-1.75l8.84-5.55c0.83-0.52,2.08-0.58,2.79-0.13l8.92,5.6 c0.72,0.45,0.63,1.23-0.2,1.75l-8.84,5.55C415.87,404.26,414.62,404.32,413.9,403.87z" class="st1"/><path d="M282.65,304.69l-8.92-5.6c-0.72-0.45-0.63-1.23,0.2-1.75l8.84-5.55c0.83-0.52,2.08-0.58,2.79-0.13l8.92,5.6 c0.72,0.45,0.63,1.23-0.2,1.75l-8.84,5.55C284.61,305.09,283.36,305.14,282.65,304.69z" class="st1"/><path d="M268.94,296.09l-8.92-5.6c-0.72-0.45-0.63-1.23,0.2-1.75l8.84-5.55c0.83-0.52,2.08-0.58,2.79-0.13l8.92,5.6 c0.72,0.45,0.63,1.23-0.2,1.75l-8.84,5.55C270.91,296.49,269.65,296.54,268.94,296.09z" class="st1"/><path d="M255.23,287.49l-8.92-5.6c-0.72-0.45-0.63-1.23,0.2-1.75l8.84-5.55c0.83-0.52,2.08-0.58,2.79-0.13l8.92,5.6 c0.72,0.45,0.63,1.23-0.2,1.75l-8.84,5.55C257.2,287.89,255.95,287.94,255.23,287.49z" class="st1"/><path d="M241.52,278.89l-8.92-5.6c-0.72-0.45-0.63-1.23,0.2-1.75l8.84-5.55c0.83-0.52,2.08-0.58,2.79-0.13l8.92,5.6 c0.72,0.45,0.63,1.23-0.2,1.75l-8.84,5.55C243.49,279.28,242.24,279.34,241.52,278.89z" class="st1"/><path d="M255.62,270.05l-8.92-5.6c-0.72-0.45-0.63-1.23,0.2-1.75l2.92-1.83c0.83-0.52,2.08-0.58,2.79-0.13l8.92,5.6 c0.72,0.45,0.63,1.23-0.2,1.75l-2.92,1.83C257.58,270.44,256.33,270.5,255.62,270.05z" class="st1"/><path d="M273.51,281.27l-8.92-5.6c-0.72-0.45-0.63-1.23,0.2-1.75l2.92-1.83c0.83-0.52,2.08-0.58,2.79-0.13l8.92,5.6 c0.72,0.45,0.63,1.23-0.2,1.75l-2.92,1.83C275.47,281.66,274.22,281.72,273.51,281.27z" class="st1"/><path d="M287.16,289.84l-8.92-5.6c-0.72-0.45-0.63-1.23,0.2-1.75l2.92-1.83c0.83-0.52,2.08-0.58,2.79-0.13l8.92,5.6 c0.72,0.45,0.63,1.23-0.2,1.75l-2.92,1.83C289.13,290.23,287.88,290.29,287.16,289.84z" class="st1"/><path d="M300.81,298.4l-8.92-5.6c-0.72-0.45-0.63-1.23,0.2-1.75l2.92-1.83c0.83-0.52,2.08-0.58,2.79-0.13l8.92,5.6 c0.72,0.45,0.63,1.23-0.2,1.75l-2.92,1.83C302.78,298.79,301.53,298.85,300.81,298.4z" class="st1"/><path d="M314.46,306.97l-8.92-5.6c-0.72-0.45-0.63-1.23,0.2-1.75l2.92-1.83c0.83-0.52,2.08-0.58,2.79-0.13l8.92,5.6 c0.72,0.45,0.63,1.23-0.2,1.75l-2.92,1.83C316.43,307.36,315.18,307.42,314.46,306.97z" class="st1"/><path d="M390.68,354.78l-8.92-5.6c-0.72-0.45-0.63-1.23,0.2-1.75l2.92-1.83c0.83-0.52,2.08-0.58,2.79-0.13l8.92,5.6 c0.72,0.45,0.63,1.23-0.2,1.75l-2.92,1.83C392.65,355.18,391.4,355.23,390.68,354.78z" class="st1"/><path d="M404.33,363.35l-8.92-5.6c-0.72-0.45-0.63-1.23,0.2-1.75l2.92-1.83c0.83-0.52,2.08-0.58,2.79-0.13l8.92,5.6 c0.72,0.45,0.63,1.23-0.2,1.75l-2.92,1.83C406.3,363.74,405.05,363.8,404.33,363.35z" class="st1"/><path d="M417.99,371.91l-8.92-5.6c-0.72-0.45-0.63-1.23,0.2-1.75l2.92-1.83c0.83-0.52,2.08-0.58,2.79-0.13l8.92,5.6 c0.72,0.45,0.63,1.23-0.2,1.75l-2.92,1.83C419.95,372.31,418.7,372.36,417.99,371.91z" class="st1"/><path d="M431.64,380.48l-8.92-5.6c-0.72-0.45-0.63-1.23,0.2-1.75l2.92-1.83c0.83-0.52,2.08-0.58,2.79-0.13l8.92,5.6 c0.72,0.45,0.63,1.23-0.2,1.75l-2.92,1.83C433.61,380.87,432.36,380.93,431.64,380.48z" class="st1"/><path d="M296.43,313.34l-8.92-5.6c-0.72-0.45-0.63-1.23,0.2-1.75l8.84-5.55c0.83-0.52,2.08-0.58,2.79-0.13l8.92,5.6 c0.72,0.45,0.63,1.23-0.2,1.75l-8.84,5.55C298.39,313.73,297.14,313.79,296.43,313.34z" class="st1"/><path d="M310.2,321.98l-8.92-5.6c-0.72-0.45-0.63-1.23,0.2-1.75l8.84-5.55c0.83-0.52,2.08-0.58,2.79-0.13l8.92,5.6 c0.72,0.45,0.63,1.23-0.2,1.75l-8.84,5.55C312.17,322.37,310.92,322.43,310.2,321.98z" class="st1"/><path d="M323.98,330.63l-8.92-5.6c-0.72-0.45-0.63-1.23,0.2-1.75l8.84-5.55c0.83-0.52,2.08-0.58,2.79-0.13l8.92,5.6 c0.72,0.45,0.63,1.23-0.2,1.75l-8.84,5.55C325.95,331.02,324.7,331.07,323.98,330.63z" class="st1"/><path d="M337.76,339.27l-8.92-5.6c-0.72-0.45-0.63-1.23,0.2-1.75l8.84-5.55c0.83-0.52,2.08-0.58,2.79-0.13l8.92,5.6 c0.72,0.45,0.63,1.23-0.2,1.75l-8.84,5.55C339.73,339.66,338.48,339.72,337.76,339.27z" class="st1"/><path d="M351.54,347.91l-8.92-5.6c-0.72-0.45-0.63-1.23,0.2-1.75l8.84-5.55c0.83-0.52,2.08-0.58,2.79-0.13l8.92,5.6 c0.72,0.45,0.63,1.23-0.2,1.75l-8.84,5.55C353.5,348.31,352.25,348.36,351.54,347.91z" class="st1"/><path d="M365.31,356.56l-8.92-5.6c-0.72-0.45-0.63-1.23,0.2-1.75l8.84-5.55c0.83-0.52,2.08-0.58,2.79-0.13l8.92,5.6 c0.72,0.45,0.63,1.23-0.2,1.75l-8.84,5.55C367.28,356.95,366.03,357.01,365.31,356.56z" class="st1"/><path d="M379.09,365.2l-8.92-5.6c-0.72-0.45-0.63-1.23,0.2-1.75l8.84-5.55c0.83-0.52,2.08-0.58,2.79-0.13l8.92,5.6 c0.72,0.45,0.63,1.23-0.2,1.75l-8.84,5.55C381.06,365.59,379.81,365.65,379.09,365.2z" class="st1"/><path d="M392.87,373.84l-8.92-5.6c-0.72-0.45-0.63-1.23,0.2-1.75l8.84-5.55c0.83-0.52,2.08-0.58,2.79-0.13l8.92,5.6 c0.72,0.45,0.63,1.23-0.2,1.75l-8.84,5.55C394.84,374.24,393.59,374.29,392.87,373.84z" class="st1"/><path d="M406.65,382.49l-8.92-5.6c-0.72-0.45-0.63-1.23,0.2-1.75l8.84-5.55c0.83-0.52,2.08-0.58,2.79-0.13l8.92,5.6 c0.72,0.45,0.63,1.23-0.2,1.75l-8.84,5.55C408.62,382.88,407.36,382.94,406.65,382.49z" class="st1"/><path d="M217.65,314.4l-26.28-16.48c-0.72-0.45-0.63-1.23,0.2-1.75l8.84-5.55c0.83-0.52,2.08-0.58,2.79-0.13 l26.28,16.48c0.72,0.45,0.63,1.23-0.2,1.75l-8.84,5.55C219.62,314.8,218.37,314.85,217.65,314.4z" class="st1"/><path d="M386.92,420.6l-26.28-16.48c-0.72-0.45-0.63-1.23,0.2-1.75l8.84-5.55c0.83-0.52,2.08-0.58,2.79-0.13 l26.28,16.48c0.72,0.45,0.63,1.23-0.2,1.75l-8.84,5.55C388.89,420.99,387.64,421.05,386.92,420.6z" class="st1"/><path d="M331.82,405.12l-8.92-5.6c-0.72-0.45-0.63-1.23,0.2-1.75l10.53-6.61c0.83-0.52,2.08-0.58,2.79-0.13l8.92,5.6 c0.72,0.45,0.63,1.23-0.2,1.75L334.61,405C333.79,405.51,332.54,405.57,331.82,405.12z" class="st1"/><path d="M231.76,342.35l-14.27-8.95c-0.72-0.45-0.63-1.23,0.2-1.75l10.53-6.61c0.83-0.52,2.08-0.58,2.79-0.13 l14.27,8.95c0.72,0.45,0.63,1.23-0.2,1.75l-10.53,6.61C233.73,342.74,232.48,342.8,231.76,342.35z" class="st1"/><path d="M318.54,396.79l-14.27-8.95c-0.72-0.45-0.63-1.23,0.2-1.75l10.53-6.61c0.83-0.52,2.08-0.58,2.79-0.13 l14.27,8.95c0.72,0.45,0.63,1.23-0.2,1.75l-10.53,6.61C320.51,397.19,319.26,397.24,318.54,396.79z" class="st1"/><path d="M251.64,354.82l-14.27-8.95c-0.72-0.45-0.63-1.23,0.2-1.75l10.53-6.61c0.83-0.52,2.08-0.58,2.79-0.13 l14.27,8.95c0.72,0.45,0.63,1.23-0.2,1.75l-10.53,6.61C253.61,355.21,252.36,355.27,251.64,354.82z" class="st1"/><path d="M251,337.44l62.03,38.92c0.77,0.48,0.77,1.27,0,1.75l-10.74,6.74c-0.77,0.48-2.02,0.48-2.79,0l-62.03-38.92 L251,337.44z" class="st1"/><path d="M370.33,420.79l9.94,6.23c0.59,0.37,0.51,1.01-0.16,1.44l-4.31,2.7c-0.68,0.43-1.7,0.47-2.29,0.1l-9.94-6.23 c-0.59-0.37-0.51-1.01,0.16-1.44l4.31-2.7C368.71,420.47,369.74,420.43,370.33,420.79z" class="st1"/><path d="M356.43,412.08l9.94,6.23c0.59,0.37,0.51,1.01-0.16,1.44l-4.31,2.7c-0.68,0.43-1.7,0.47-2.29,0.1l-9.94-6.23 c-0.59-0.37-0.51-1.01,0.16-1.44l4.31-2.7C354.82,411.76,355.85,411.71,356.43,412.08z" class="st1"/><path d="M342.66,403.43l9.94,6.23c0.59,0.37,0.51,1.01-0.16,1.44l-4.31,2.7c-0.68,0.43-1.7,0.47-2.29,0.1l-9.94-6.23 c-0.59-0.37-0.51-1.01,0.16-1.44l4.31-2.7C341.04,403.11,342.07,403.07,342.66,403.43z" class="st1"/><path d="M364.04,407.3l9.94,6.23c0.59,0.37,0.51,1.01-0.16,1.44l-4.31,2.7c-0.68,0.43-1.7,0.47-2.29,0.1l-9.94-6.23 c-0.59-0.37-0.51-1.01,0.16-1.44l4.31-2.7C362.43,406.98,363.46,406.94,364.04,407.3z" class="st1"/></g></g></g><g><path d="M343.73,204.69l-65.41-41.04c-1.61-1.01-2.91-3.71-2.91-6.04v-55.92c0-2.33,1.3-3.4,2.91-2.39l65.41,41.04 c1.61,1.01,2.91,3.71,2.91,6.04v55.92C346.64,204.63,345.34,205.7,343.73,204.69z" class="st6"/><g><path d="M298.1,166.93l-0.46-0.29c-1.7-1.07-3.09-3.94-3.09-6.41v-26.65c0-2.47,1.38-3.61,3.09-2.54l0.46,0.29 c1.7,1.07,3.09,3.94,3.09,6.41v26.65C301.19,166.86,299.81,168,298.1,166.93z" class="st7"/><path d="M311.26,175.18l-0.46-0.29c-1.7-1.07-3.09-3.94-3.09-6.41v-15.6c0-2.47,1.38-3.61,3.09-2.54l0.46,0.29 c1.7,1.07,3.09,3.94,3.09,6.41v15.6C314.34,175.11,312.96,176.25,311.26,175.18z" class="st7"/><path d="M324.41,183.43l-0.46-0.29c-1.7-1.07-3.09-3.94-3.09-6.41v-37.13c0-2.47,1.38-3.61,3.09-2.54l0.46,0.29 c1.7,1.07,3.09,3.94,3.09,6.41v37.13C327.5,183.37,326.12,184.5,324.41,183.43z" class="st2"/></g></g><g><path d="M406.09,189.66l-40.64-25.5c-1.51-0.95-2.73-3.48-2.73-5.66l0,0c0-2.18,1.22-3.19,2.73-2.24l40.64,25.5 c1.51,0.95,2.73,3.48,2.73,5.66l0,0C408.82,189.6,407.6,190.6,406.09,189.66z" class="st7"/><path d="M379.95,188.79l-14.5-9.09c-1.51-0.95-2.73-3.48-2.73-5.66l0,0c0-2.18,1.22-3.19,2.73-2.24l14.5,9.09 c1.51,0.95,2.73,3.48,2.73,5.66v0C382.68,188.73,381.46,189.73,379.95,188.79z" class="st7"/><path d="M404.28,204.05l-14.5-9.09c-1.51-0.95-2.73-3.48-2.73-5.66l0,0c0-2.18,1.22-3.19,2.73-2.24l14.5,9.09 c1.51,0.95,2.73,3.48,2.73,5.66l0,0C407.01,203.99,405.79,204.99,404.28,204.05z" class="st2"/><path d="M434.85,223.29l-20.74-13.07c-1.51-0.95-2.73-3.48-2.73-5.66l0,0c0-2.18,1.22-3.19,2.73-2.24l20.74,13.07 c1.51,0.95,2.73,3.48,2.73,5.66l0,0C437.58,223.23,436.36,224.23,434.85,223.29z" class="st7"/><path d="M416.23,227.08l-50.77-31.85c-1.51-0.95-2.73-3.48-2.73-5.66l0,0c0-2.18,1.22-3.19,2.73-2.24l50.77,31.85 c1.51,0.95,2.73,3.48,2.73,5.66l0,0C418.96,227.02,417.74,228.02,416.23,227.08z" class="st7"/><path d="M437.58,255.82l-72.12-45.07c-1.51-0.95-2.73-3.48-2.73-5.66l0,0c0-2.18,1.22-3.19,2.73-2.24l72.12,45.07 c1.51,0.95,2.73,3.48,2.73,5.66l0,0C440.31,255.76,439.09,256.77,437.58,255.82z" class="st2"/><path d="M443.68,213.17l-26.37-16.47c-1.51-0.95-2.73-3.48-2.73-5.66l0,0c0-2.18,1.22-3.19,2.73-2.24l26.37,16.47 c1.51,0.95,2.73,3.48,2.73,5.66l0,0C446.41,213.11,445.19,214.11,443.68,213.17z" class="st7"/></g><g><polygon points="288.07 214.36 275.24 206.31 275.24 222.41 288.07 230.46" class="st2"/><polygon points="308.34 213.78 295.51 205.73 295.51 235.12 308.34 243.17" class="st0"/><polygon points="328.61 234.89 315.78 226.84 315.78 247.84 328.61 255.89" class="st0"/><polygon points="348.88 241.54 336.05 233.49 336.05 260.55 348.88 268.6" class="st0"/><polygon points="369.14 255.89 356.31 247.84 356.31 273.27 369.14 281.32" class="st2"/><polygon points="389.41 262.2 376.58 254.15 376.58 285.98 389.41 294.03" class="st1"/><polygon points="409.68 271.52 396.85 263.47 396.85 298.7 409.68 306.75" class="st0"/><polygon points="429.95 275.64 417.12 267.6 417.12 311.41 429.95 319.46" class="st2"/></g><g><polygon points="511.75 211.13 511.03 208.08 519.19 205.8 519.91 208.86" class="st5"/><polygon points="507.58 215.54 506.86 212.49 515.02 210.22 515.74 213.27" class="st5"/><polygon points="503.42 219.96 502.7 216.9 510.86 214.63 511.58 217.68" class="st5"/><polygon points="499.26 224.37 498.54 221.32 506.7 219.04 507.42 222.1" class="st5"/></g><polygon points="348.26 393.7 322.4 377.48 296.55 393.7 322.4 409.92" class="st3"/><polygon points="266.76 396.53 240.91 380.31 215.05 396.53 240.91 412.75" class="st3"/><polygon points="212.05 362.47 186.19 346.25 160.34 362.47 186.19 378.69" class="st3"/><g><g><g><polygon points="240.91 396.53 240.91 310.02 266.76 293.8 266.76 380.31" class="st8"/><polygon points="266.76 293.8 240.91 277.58 215.05 293.8 240.91 310.02" class="st9"/><polygon points="240.91 310.02 215.05 293.8 215.05 380.31 240.91 396.53" class="st5"/><polygon points="240.91 396.53 240.91 310.02 266.76 293.8 266.76 380.31" class="st2"/><polygon points="266.76 293.8 240.91 277.58 215.05 293.8 240.91 310.02" class="st0"/></g><g><polygon points="295.78 431.42 295.78 382.76 321.64 366.54 321.64 415.2" class="st1"/><polygon points="295.78 382.76 269.93 366.54 269.93 415.2 295.78 431.42" class="st2"/><polygon points="321.64 366.54 295.78 350.32 269.93 366.54 295.78 382.76" class="st0"/></g><g><polygon points="186.19 362.47 186.19 243.53 212.05 227.31 212.05 346.25" class="st0"/><polygon points="186.19 243.53 160.34 227.31 160.34 346.25 186.19 362.47" class="st2"/><polygon points="212.05 227.31 186.19 211.09 160.34 227.31 186.19 243.53" class="st5"/></g></g></g><g><g><path d="M170.79,294.55c0,0-4.27-2.34-6.89,1.14c-2.62,3.48-6.37,11.71-6.49,17.26c-0.12,5.56,4.05,5.18,6.52,3.87 c2.47-1.32,9.7-12.71,10.14-14.94c0.44-2.23-0.52-5.25-1.21-5.84C172.17,295.45,170.79,294.55,170.79,294.55z" class="st5"/><path d="M171.72,293.43l0.2,4.81c0.04,1.02-0.43,2-1.25,2.5c-0.75,0.46-1.83,0.81-3.29,0.56 c-3.22-0.56-3.5-1.56-3.73-6.36C163.42,290.12,171.72,293.43,171.72,293.43z" class="st0"/><g><path d="M155.17,285.31c0,0-4.27-2.34-6.89,1.14c-2.62,3.48-6.37,11.71-6.49,17.26c-0.12,5.56,4.05,5.18,6.52,3.87 c2.47-1.32,9.7-12.71,10.14-14.94c0.44-2.23-0.52-5.25-1.21-5.84C156.54,286.21,155.17,285.31,155.17,285.31z" class="st5"/><path d="M156.1,284.19l0.2,4.81c0.04,1.02-0.43,2-1.25,2.5c-0.75,0.46-1.83,0.81-3.29,0.56 c-3.22-0.56-3.5-1.56-3.73-6.36C147.79,280.88,156.1,284.19,156.1,284.19z" class="st0"/><path d="M194.19,195.96c-1.26-22.34-22.26,3.29-22.26,3.29l-14.37,15.31L144.61,230c-2.53,3.02-3.7,7.09-3.21,11.14 l5.24,43.32c0.26,2.14,1.94,3.72,3.93,3.7c0.56,0,1.2-0.06,1.94-0.18c4.67-0.79,4.33-5.62,4.33-5.62l-0.96-40.52l27.18-17.8 C183.05,224.04,195.45,218.3,194.19,195.96z" class="st1"/></g><path d="M209.82,204.47c-1.26-22.34-22.26,3.29-22.26,3.29l-14.37,15.31l-12.94,15.45c-2.53,3.02-3.7,7.09-3.21,11.14 l5.24,43.32c0.26,2.14,1.94,3.72,3.93,3.7c0.56,0,1.2-0.06,1.94-0.18c4.67-0.79,4.33-5.62,4.33-5.62l-0.96-40.52l27.18-17.8 C198.67,232.55,211.08,226.81,209.82,204.47z" class="st1"/><path d="M197.39,132.76c15.92,7.17,15.6,17.4,15.6,17.4s-3.12,37.49-2.05,62.53c0.45,10.47-51.18,11.27-43.48-16.66 c9.08-32.93,5.68-59.58,9.92-63.6C181.63,128.41,193.27,130.9,197.39,132.76z" class="st5"/><path d="M202.51,141.83c-0.83,3.51-5.07,5.36-9.46,4.13c-4.39-1.23-7.28-5.07-6.44-8.59 c0.83-3.51,5.07-5.36,9.46-4.13C200.46,134.47,203.35,138.31,202.51,141.83z" class="st10"/><path d="M195.74,147.16c-0.93,0-1.9-0.13-2.88-0.4c-4.79-1.34-7.93-5.64-6.99-9.59c0.94-3.95,5.59-6.07,10.39-4.73 c2.28,0.64,4.26,1.96,5.58,3.71c1.37,1.83,1.88,3.92,1.41,5.88C202.5,145.18,199.4,147.16,195.74,147.16z M193.34,133.69 c-2.96,0-5.43,1.5-6,3.9c-0.73,3.07,1.92,6.46,5.9,7.58c3.97,1.11,7.81-0.47,8.53-3.54c0.34-1.44-0.06-3.01-1.12-4.42 c-1.12-1.49-2.81-2.61-4.78-3.16C195.02,133.8,194.16,133.69,193.34,133.69z" class="st4"/><path d="M191.01,131.98c0,0,0.14,0.69-0.14,6.18c-0.09,1.72,5.47,3.33,6.9,1.77c1.44-1.56,0.86-3.18,1.21-9.05 C199.32,125.02,191.01,131.98,191.01,131.98z" class="st10"/><path d="M198.98,130.88c0,0-1.37,5.44-8.11,7.52l0.1-4.94L198.98,130.88z" class="st11"/><path d="M203.25,117.06c1.69,7.12-2.24,14.39-8.8,16.23c-6.55,1.84-13.24-2.44-14.93-9.56 c-1.69-7.12,2.24-14.39,8.8-16.23C194.87,105.66,201.55,109.94,203.25,117.06z" class="st10"/><path d="M194.2,120.88c0,0-6.75,3.14-11.42,3.18c-4.67,0.04-3.64-4.22-3.64-4.22l13.87-2.18L194.2,120.88z" class="st11"/><path d="M181.39,121.71c0,0,5.88-2.71,11.03-1.58c1.21,0.27,2.34,0.97,3.12,2.01c0.26,0.34,0.58,0.65,0.94,0.74 c0.91,0.22,2.41-3.9,4.19-3.99c1.78-0.09,2.96,1.27,1.51,3.81c-1.46,2.54-0.96,5.37-0.29,5.78c0.67,0.41,7.78-5.51,1.51-19.02 c-6.27-13.5-22.21-6.23-24.69-3.49c0,0-2.61,2.47-4.73,0.27C173.97,106.24,171.59,125.62,181.39,121.71z" class="st1"/><path d="M204.06,177.55v10.13c0,1.16-0.45,2.27-1.24,3.05l-19.15,18.97l2.18,3.62l25.29-19.93 c1.18-0.93,1.94-2.36,2.09-3.94l1.71-17.67L204.06,177.55z" class="st10"/><path d="M211.65,145.09c0,0,5.81,9.5,7.97,34.49c0,0-9.93,3.49-15.56,1.51C198.43,179.11,211.65,145.09,211.65,145.09 z" class="st5"/><path d="M203,157.1c0,0-2.27,13.23-2.4,19.45c-0.04,1.71,0.92,3.25,2.4,3.83l0,0V157.1z" class="st2"/></g><g><path d="M198.03,222.88l-4.23-0.61l-27.33-17.14c-0.88-0.55-2.41-0.48-3.42,0.15l-19.36,12.14l-2.56-0.37v2.77l0,0 c-0.02,0.36,0.17,0.72,0.59,0.97l30.97,19.43c0.88,0.55,2.41,0.48,3.42-0.15l21.09-13.22c0.57-0.36,0.85-0.82,0.84-1.25l0,0 V222.88z" class="st5"/><path d="M177.5,212.05l-1.94-1.22h-21.34l-10.52,6.6l-2.56-0.37v2.77l0,0c-0.02,0.36,0.17,0.72,0.59,0.97l30.97,19.43 c0.46,0.29,1.11,0.41,1.76,0.36L177.5,212.05z" class="st2"/><path d="M142.27,217.22l-1.14-0.16v2.77l0,0c-0.02,0.36,0.17,0.72,0.59,0.97l0.55,0.34V217.22z" class="st5"/><path d="M173,240.39c0.83,0.34,2.02,0.27,2.9-0.2v-4.71H173V240.39z" class="st4"/><path d="M172.69,237.46l-30.97-19.43c-0.88-0.55-0.77-1.51,0.25-2.14l21.09-13.22c1.01-0.63,2.54-0.7,3.42-0.15 l30.97,19.43c0.88,0.55,0.77,1.51-0.25,2.14l-21.09,13.22C175.1,237.94,173.57,238.01,172.69,237.46z" class="st4"/><path d="M172.17,234.52l-25.75-16.15c-0.73-0.46-0.64-1.26,0.2-1.78l11.3-6.9c0.84-0.53,2.11-0.59,2.84-0.13 l25.75,16.15c0.73,0.46,0.64,1.26-0.2,1.78l-11.3,6.9C174.17,234.92,172.9,234.98,172.17,234.52z" class="st0"/></g><path d="M164.25,202.03l-0.32,2.32c-0.27,1.98-0.23,3.99,0.14,5.95l0.38,2.05c0.22,1.15,1.06,2.05,2.12,2.26l0,0 c0.83,0.16,1.62-0.47,1.71-1.38l0.51-4.96c0,0,1.17,1.66,1.73,1.66c0.56,0-0.63-4.97-1.91-7.78 C167.35,199.33,164.25,202.03,164.25,202.03z" class="st10"/><path d="M174.75,165.13l-3.32,7.15c-0.79,1.69-1.25,3.54-1.36,5.42l-1.44,24.44l-4.37-0.11l-1.98-27.45 c-0.06-0.85-0.02-1.7,0.11-2.54l2.27-13.92L174.75,165.13z" class="st10"/><g><path d="M171.64,239.33l-2.6-3.68l-27.31-17.18c-0.88-0.55-1.58-2.03-1.58-3.3l0.02-24.29l-1.57-2.23l1.48-0.93l0,0 c0.28-0.2,0.66-0.19,1.07,0.07l30.95,19.47c0.88,0.55,1.58,2.03,1.58,3.3l-0.03,26.46c0,0.71-0.23,1.21-0.58,1.41l0,0 L171.64,239.33z" class="st1"/><path d="M152.76,225.4l-1.94-1.22l-10.65-20.1l0.01-13.2l-1.57-2.23l1.48-0.93l0,0c0.28-0.2,0.66-0.19,1.07,0.07 l30.95,19.47c0.46,0.29,0.88,0.84,1.17,1.48L152.76,225.4z" class="st2"/><path d="M139.31,189.64l-0.7-0.99l1.48-0.93l0,0c0.28-0.2,0.66-0.19,1.07,0.07l0.55,0.34L139.31,189.64z" class="st5"/><path d="M172.39,207.48c0.69,0.61,1.22,1.77,1.29,2.83l-3.02,1.9l-1.45-2.73L172.39,207.48z" class="st3"/><path d="M170.63,208.19l-30.95-19.47c-0.88-0.55-1.59,0.03-1.59,1.3l-0.03,26.46c0,1.27,0.71,2.74,1.58,3.3 l30.95,19.47c0.88,0.55,1.59-0.03,1.59-1.3l0.03-26.46C172.21,210.21,171.51,208.74,170.63,208.19z" class="st5"/></g><path d="M185.85,213.32l-0.5,1.12c-0.57,1.29-1.47,2.37-2.59,3.12l-3.07,2.06c-0.96,0.64-2.17,0.69-3.14,0.08 c-0.04-0.02-0.07-0.05-0.1-0.07c-0.98-0.66-1.07-2.19-0.26-3.09l3.21-3.59c0,0-1.8,1.5-2.31,0.9c-0.37-0.44,1.75-2.61,3.38-2.68 c1.63-0.07,3.2-1.46,3.2-1.46L185.85,213.32z" class="st10"/><path d="M177.7,132.38c0,0-11.78,13.92-16.53,26.7c0,0,4.03,7.88,13.88,10.98C184.92,173.14,177.7,132.38,177.7,132.38 z" class="st5"/><path d="M172.84,169.22l1.91-20.03l-4.5,18.77C171.05,168.41,171.92,168.83,172.84,169.22z" class="st2"/><path d="M186.52,129.57l-3.16-0.94c0,0,1.51,2.58,3.72,3.24c2.21,0.66,2.55-1.37,2.55-1.37L186.52,129.57z" class="st4"/></g><g><path d="M158.75,483.63c-21.28-13.35-55.79-13.35-77.08,0c-21.28,13.35-21.28,35,0,48.35 c21.28,13.35,55.79,13.35,77.07,0C180.04,518.63,180.04,496.98,158.75,483.63z M137.93,518.92c-9.78,6.14-25.65,6.14-35.43,0 c-9.78-6.14-9.78-16.09,0-22.23c9.78-6.14,25.65-6.14,35.43,0C147.72,502.83,147.72,512.78,137.93,518.92z" class="st0"/><g><g><path d="M73.64,475.72l19.44,0.33c1.44-2.03,3.48-3.94,6.14-5.61c10.69-6.71,27.5-7.23,39.15-1.56l11.55-11.81 l17.79,0.3c-0.88-0.62-1.78-1.24-2.73-1.84c-24.72-15.51-64.8-15.51-89.52,0c-4.55,2.85-8.25,6.03-11.12,9.42L73.64,475.72z" class="st1"/><polygon points="167.71 426.69 167.71 457.37 149.92 457.07 149.92 426.39" class="st5"/><polygon points="138.37 438.2 138.37 468.87 149.92 457.07 149.92 426.39" class="st1"/><path d="M93.08,445.37v30.68l25.57-22.65l19.71,15.47V438.2l-18.15-9.57c0,0-24.99,8.31-26.29,8.67 C92.63,437.65,93.08,445.37,93.08,445.37z" class="st1"/><polygon points="73.64 445.04 73.64 475.72 93.08 476.05 93.08 445.37" class="st1"/><polygon points="64.33 434.27 64.33 464.95 73.64 475.72 73.64 445.04" class="st5"/><path d="M73.64,445.04l19.44,0.33c1.44-2.03,3.48-3.94,6.14-5.61c10.69-6.71,27.5-7.22,39.15-1.56l11.55-11.81 l17.79,0.3c-0.88-0.62-1.78-1.24-2.73-1.84c-24.72-15.51-64.8-15.51-89.52,0c-4.55,2.85-8.25,6.03-11.12,9.42L73.64,445.04z" class="st0"/></g><g><path d="M144.23,441.97v28.2l16.83-4.38c0,0-0.99-16.5-1.35-16.94C159.35,448.41,144.23,441.97,144.23,441.97z" class="st5"/><g><path d="M131.49,470.17v30.68l1.82,2.1l11.86-7.43c0,0-1.84-23.42-2.06-23.89 C142.9,471.16,131.49,470.17,131.49,470.17z" class="st1"/><path d="M154.4,462.25l-10.17,10.4c8.48,7.29,7.47,17.56-3.01,24.14c-2.87,1.8-6.19,3.16-9.72,4.06l10.52,12.17 l-9.32,9.52c11.83-1.48,23.12-5.1,32.29-10.85c21.25-13.33,24.21-33.78,8.93-49.11L154.4,462.25z" class="st2"/><polygon points="132.69 491.87 132.69 522.54 155.76 512.86 183.51 484.1 183.4 451.52 154.05 476.81" class="st2"/><path d="M154.4,431.57l-10.17,10.4c8.48,7.29,7.47,17.56-3.01,24.14c-2.87,1.8-6.19,3.16-9.72,4.06l10.52,12.17 l-9.32,9.52c11.83-1.48,23.12-5.1,32.29-10.85c21.25-13.33,24.21-33.78,8.93-49.11L154.4,431.57z" class="st0"/></g></g><g><path d="M132.61,512.86l-9.27-10.73c-8.6,0.57-17.53-1.21-24.12-5.35c-6.81-4.27-9.62-10.11-8.43-15.67l-22.07-0.37 l-8.49-9.82c-7.42,13.84-2.36,29.74,15.22,40.77c12.92,8.1,30.03,11.96,46.95,11.6L132.61,512.86z" class="st2"/><polygon points="122.41 492.61 122.41 523.29 56.93 483.86 56.93 453.17 66.49 457.37" class="st2"/><polygon points="132.61 482.19 132.61 512.86 122.41 523.29 122.41 492.61" class="st1"/><path d="M132.61,482.19l-9.27-10.73c-8.6,0.57-17.53-1.21-24.12-5.35c-6.81-4.27-9.62-10.11-8.43-15.67l-22.07-0.37 l-8.49-9.82c-7.42,13.84-2.36,29.74,15.22,40.77c12.92,8.1,30.03,11.96,46.95,11.6L132.61,482.19z" class="st5"/></g></g></g><g><path d="M170.86,66.77l1.68-3.1c0,0,1.41,0.84,2.91,0.33c1.21-0.41,2.25-1.6,3.1-3.52c3.01-6.77,8.56-7.29,11.08-6.61 l-0.79,3.5l0.4-1.75l-0.38,1.75c-0.48-0.12-4.79-1.01-7.31,4.68c-1.28,2.88-3.02,4.7-5.16,5.41 C173.52,68.39,171.12,66.94,170.86,66.77z" class="st5"/></g><path d="M118.15,184.94c-8.38,0-15.19-7.41-15.19-16.51c0-9.1,6.81-16.51,15.19-16.51s15.19,7.41,15.19,16.51	C133.34,177.53,126.53,184.94,118.15,184.94z M118.15,155.52c-6.55,0-11.88,5.79-11.88,12.91c0,7.12,5.33,12.91,11.88,12.91	c6.55,0,11.88-5.79,11.88-12.91C130.03,161.31,124.7,155.52,118.15,155.52z" class="st0"/><path d="M29,413.02c-5.94,0-10.77-5.25-10.77-11.71c0-6.45,4.83-11.71,10.77-11.71c5.94,0,10.77,5.25,10.77,11.71	C39.77,407.77,34.94,413.02,29,413.02z M29,393.21c-4.11,0-7.46,3.64-7.46,8.1s3.35,8.11,7.46,8.11s7.46-3.64,7.46-8.11	S33.11,393.21,29,393.21z" class="st5"/><path d="M95.9,281.53l-7.31-16.16l14.87-7.95l7.31,16.16L95.9,281.53z M93.03,267.01l4.39,9.7l8.93-4.77l-4.39-9.7	L93.03,267.01z" class="st5"/><polygon points="465.7 111.88 458.86 115.53 455.5 108.1 462.34 104.45" class="st5"/><g><polygon points="320.71 24.21 318.36 21.66 329.5 9.56 331.84 12.11" class="st0"/><polygon points="329.5 24.21 318.36 12.11 320.71 9.56 331.84 21.66" class="st0"/></g><path d="M443.63,22.94c0,4.69-3.5,8.5-7.82,8.5c-4.32,0-7.82-3.8-7.82-8.5c0-4.69,3.5-8.5,7.82-8.5	C440.13,14.44,443.63,18.24,443.63,22.94z" class="st0"/><path d="M233.15,498.94c0,2.73-2.03,4.94-4.54,4.94c-2.51,0-4.54-2.21-4.54-4.94s2.03-4.94,4.54-4.94	C231.12,494,233.15,496.21,233.15,498.94z" class="st0"/><ellipse cx="407.84" cy="498.36" class="st0" rx="9.32" ry="10.13"/><g><g><path d="M82.62,305.71l-33.28-20.88c-0.66-0.41-1.25-0.43-1.72-0.15c0,0,0-0.02,0-0.02l-3.23,2.03 c0,0,1.43,0.57,2.27,0.9v26.33c0,2.14,1.2,4.63,2.68,5.56l31.81,19.95v3.09l3.26-2.04l-0.02-0.01c0.55-0.37,0.9-1.17,0.9-2.32 v-26.89C85.29,309.12,84.1,306.64,82.62,305.71z" class="st1"/><path d="M79.33,342.41l-33.28-20.88c-1.48-0.93-2.68-3.42-2.68-5.56v-26.89c0-2.14,1.2-3.13,2.68-2.2l33.28,20.88 c1.48,0.93,2.68,3.42,2.68,5.56v26.89C82.01,342.35,80.81,343.34,79.33,342.41z" class="st5"/></g><g><path d="M57.24,312.27c0,1.56-1.01,2.19-2.25,1.41c-1.24-0.78-2.25-2.67-2.25-4.23c0-1.56,1.01-2.19,2.25-1.41 C56.24,308.82,57.24,310.71,57.24,312.27z" class="st4"/><path d="M64.05,316.54c0,1.56-1.01,2.19-2.25,1.41c-1.24-0.78-2.25-2.67-2.25-4.23c0-1.56,1.01-2.19,2.25-1.41 C63.04,313.09,64.05,314.98,64.05,316.54z" class="st4"/><path d="M70.85,320.8c0,1.56-1.01,2.19-2.25,1.41c-1.24-0.78-2.25-2.67-2.25-4.23c0-1.56,1.01-2.19,2.25-1.41 C69.84,317.36,70.85,319.25,70.85,320.8z" class="st4"/></g></g><g><g><path d="M401.75,58.7l-33.28-20.88c-0.66-0.41-1.25-0.43-1.72-0.15c0,0,0-0.02,0-0.02l-3.23,2.03 c0,0,1.43,0.57,2.27,0.9v26.33c0,2.14,1.2,4.63,2.68,5.56l31.81,19.95v3.09l3.26-2.04l-0.02-0.01c0.55-0.37,0.9-1.17,0.9-2.32 V64.26C404.42,62.11,403.23,59.63,401.75,58.7z" class="st5"/><path d="M398.46,95.4l-33.28-20.88c-1.48-0.93-2.68-3.42-2.68-5.56V42.08c0-2.14,1.2-3.13,2.68-2.2l33.28,20.88 c1.48,0.93,2.68,3.42,2.68,5.56V93.2C401.14,95.34,399.94,96.33,398.46,95.4z" class="st0"/></g><g><path d="M376.37,65.26c0,1.56-1.01,2.19-2.25,1.41c-1.24-0.78-2.25-2.67-2.25-4.23c0-1.56,1.01-2.19,2.25-1.41 C375.37,61.81,376.37,63.7,376.37,65.26z" class="st4"/><path d="M383.18,69.53c0,1.56-1.01,2.19-2.25,1.41c-1.24-0.78-2.25-2.67-2.25-4.23c0-1.56,1.01-2.19,2.25-1.41 C382.17,66.08,383.18,67.97,383.18,69.53z" class="st4"/><path d="M389.98,73.79c0,1.56-1.01,2.19-2.25,1.41c-1.24-0.78-2.25-2.67-2.25-4.23s1.01-2.19,2.25-1.41 C388.97,70.35,389.98,72.24,389.98,73.79z" class="st4"/></g></g><polygon points="398.81 510.8 418.34 498.55 437.88 510.8 418.34 523.06" class="st0"/><polygon points="440.27 484.44 459.81 472.18 479.35 484.44 459.81 496.7" class="st0"/><polygon points="481.62 458.7 501.15 446.45 520.69 458.7 501.15 470.96" class="st0"/><g><g><g><polygon points="459.81 484.44 459.81 419.07 440.27 406.82 440.27 472.18" class="st8"/><polygon points="459.81 419.07 479.35 406.82 479.35 472.18 459.81 484.44" class="st1"/><polygon points="459.81 484.44 459.81 419.07 440.27 406.82 440.27 472.18" class="st5"/></g><g><polygon points="418.34 510.8 418.34 474.03 398.81 461.78 398.81 498.55" class="st5"/><polygon points="418.34 474.03 437.88 461.78 437.88 498.55 418.34 510.8" class="st1"/><polygon points="398.81 461.78 418.34 449.52 437.88 461.78 418.34 474.03" class="st0"/></g><g><polygon points="501.15 458.7 501.15 368.82 481.62 356.57 481.62 446.45" class="st5"/><polygon points="501.15 368.82 520.69 356.57 520.69 446.45 501.15 458.7" class="st1"/><polygon points="481.62 356.57 501.15 344.31 520.69 356.57 501.15 368.82" class="st0"/></g></g><polygon points="440.27 406.82 459.81 394.56 479.35 406.82 459.81 419.07" class="st0"/></g></svg>