<svg xmlns="http://www.w3.org/2000/svg" xmlns:xlink="http://www.w3.org/1999/xlink" id="Layer_1" x="0" y="0" enable-background="new 0 0 550 550" version="1.1" viewBox="0 0 550 550" xml:space="preserve"><style type="text/css">.st0{opacity:.5}.st0,.st1{fill:#173d7a}.st2{fill:#396caa}.st3{fill:#274f89}.st4{fill:#d4ecff}.st5{fill:#fff}.st6{fill:#5793ce}.st7{fill:#1d4d93}.st8{fill:url(#SVGID_1_)}.st9{fill:url(#SVGID_2_)}.st10{fill:url(#SVGID_3_)}.st11{opacity:.3;fill:#06033e}.st12{fill:#ffc2b0}.st13{fill:#ea9c92}</style><g><path d="M300.54,485.69L97.89,371.09c-5.73-3.24-5.01-8.9,1.61-12.65l138-78c6.62-3.74,16.63-4.15,22.37-0.91 l202.66,114.59c5.73,3.24,5.01,8.9-1.61,12.65l-138,78C316.29,488.52,306.28,488.93,300.54,485.69z" class="st0"/><path d="M530.14,150.54L312.35,27.4c-2.53-1.43-5.1-1.65-7.38-0.89l0.01-0.02l-0.4,0.15c-0.03,0.01-0.06,0.02-0.1,0.04 l-7.87,2.95l7.06,3.39c-0.03,0.13-0.07,0.25-0.1,0.38L265.1,204.77c-1.78,7.91,1.78,17.15,7.94,20.64l212.55,120.18l-0.76,8.82 l8.6-3.26c2.89-1.32,5.2-4.32,6.16-8.58l38.48-171.39C539.85,163.26,536.3,154.02,530.14,150.54z" class="st1"/><path d="M530.14,150.54L312.35,27.4c-2.53-1.43-5.1-1.65-7.38-0.89l0.01-0.02l-0.4,0.15c-0.03,0.01-0.06,0.02-0.1,0.04 l-7.87,2.95l7.06,3.39c-0.03,0.13-0.07,0.25-0.1,0.38L277.2,150.86l106.56,81.31l153.26-73.12 C535.57,155.38,533.17,152.26,530.14,150.54z" class="st2"/><path d="M521.92,174.85l16.58-6.91c0.3-6.29-2.35-12.78-6.72-16.26l-26.24,10.81L521.92,174.85z" class="st3"/><path d="M477.27,353.58L259.48,230.43c-6.16-3.48-9.72-12.72-7.94-20.64L290.02,38.4c1.78-7.91,8.21-11.51,14.37-8.02 l217.79,123.14c6.16,3.48,9.72,12.72,7.94,20.64l-38.48,171.39C489.86,353.47,483.43,357.06,477.27,353.58z" class="st4"/><path d="M524.27,152.78L306.48,29.63c-2.98-1.69-6.02-1.69-8.58-0.37c2.05-0.44,4.28-0.13,6.48,1.11l217.79,123.14 c6.16,3.48,9.72,12.72,7.94,20.64l-38.48,171.39c-0.92,4.08-3.08,6.98-5.79,8.39c3.68-0.79,6.75-4.05,7.89-9.14l38.48-171.39 C533.98,165.5,530.43,156.26,524.27,152.78z" class="st5"/><path d="M472.55,341.81L267.72,226.05c-5.64-3.19-8.89-11.64-7.27-18.89l35.47-157.96c1.62-7.24,7.51-10.53,13.15-7.34 L513.9,157.63c5.64,3.19,8.89,11.64,7.27,18.89L485.7,334.47C484.07,341.71,478.18,345,472.55,341.81z" class="st5"/><path d="M472.55,341.81L267.72,226.05c-5.64-3.19-8.89-11.64-7.27-18.89l35.47-157.96c1.62-7.24,7.51-10.53,13.15-7.34 L513.9,157.63c5.64,3.19,8.89,11.64,7.27,18.89L485.7,334.47C484.07,341.71,478.18,345,472.55,341.81z" class="st1"/><path d="M474.33,341.1L269.51,225.34c-5.64-3.19-8.89-11.64-7.27-18.88L297.71,48.5c0.82-3.67,2.74-6.3,5.16-7.62 c-3.25,0.82-5.93,3.8-6.95,8.33l-35.47,157.96c-1.62,7.24,1.63,15.7,7.27,18.89l204.82,115.76c2.78,1.57,5.63,1.56,7.99,0.28 C478.59,342.58,476.44,342.29,474.33,341.1z" class="st6"/><path d="M480.27,358.94l-29.77-3.85L258.33,246.43c-6.16-3.48-16.92-3.05-24.04,0.98L98.13,324.37l-18-2.33v10l0.02,0 c-0.12,2.31,1.23,4.54,4.13,6.18l217.79,123.14c6.16,3.48,16.92,3.05,24.04-0.98l148.3-83.82c4-2.26,6-5.18,5.88-7.92h0V358.94z" class="st1"/><path d="M335.88,290.28l-13.65-7.72h-150.1l-74,41.81l-18-2.33v10l0.02,0c-0.12,2.31,1.23,4.54,4.13,6.18 l217.79,123.14c3.26,1.84,7.8,2.58,12.4,2.28L335.88,290.28z" class="st2"/><path d="M88.11,323.08l-7.99-1.03v10l0.02,0c-0.12,2.31,1.23,4.54,4.13,6.18l3.84,2.17V323.08z" class="st6"/><path d="M304.26,462.37c5.84,2.17,14.19,1.7,20.42-1.24v-22.31h-20.42V462.37z" class="st3"/><path d="M302.06,451.38L84.28,328.24c-6.16-3.48-5.39-9.57,1.73-13.59l148.3-83.82c7.11-4.02,17.88-4.46,24.04-0.98 l217.79,123.14c6.16,3.48,5.39,9.57-1.73,13.59l-148.3,83.82C318.98,454.43,308.22,454.86,302.06,451.38z" class="st4"/><path d="M474.39,362.93l-148.3,83.82c-7.11,4.02-17.88,4.46-24.04,0.98L84.28,324.58c-2.02-1.14-3.28-2.57-3.83-4.1 c-0.96,2.85,0.26,5.74,3.83,7.76l217.79,123.14c6.16,3.48,16.92,3.05,24.04-0.98l148.3-83.82c4.78-2.7,6.68-6.34,5.56-9.49 C479.25,359.17,477.39,361.23,474.39,362.93z" class="st5"/><g><path d="M176.9,287.47l-9.85-5.57c-0.79-0.45-0.69-1.23,0.22-1.75l11.63-6.58c0.91-0.52,2.3-0.57,3.09-0.13l9.85,5.57 c0.79,0.45,0.69,1.23-0.22,1.75l-11.63,6.58C179.08,287.86,177.7,287.92,176.9,287.47z" class="st6"/><path d="M192.12,296.07l-9.85-5.57c-0.79-0.45-0.69-1.23,0.22-1.75l11.63-6.58c0.91-0.52,2.3-0.57,3.09-0.13 l9.85,5.57c0.79,0.45,0.69,1.23-0.22,1.75l-11.63,6.58C194.29,296.47,192.91,296.52,192.12,296.07z" class="st6"/><path d="M207.34,304.68l-9.85-5.57c-0.79-0.45-0.69-1.23,0.22-1.75l11.63-6.58c0.91-0.52,2.3-0.57,3.09-0.13 l9.85,5.57c0.79,0.45,0.69,1.23-0.22,1.75l-11.63,6.58C209.51,305.07,208.13,305.13,207.34,304.68z" class="st6"/><path d="M228.39,297.57l-9.85-5.57c-0.79-0.45-0.69-1.23,0.22-1.75l9.76-5.52c0.91-0.52,2.3-0.57,3.09-0.13l9.85,5.57 c0.79,0.45,0.69,1.23-0.22,1.75l-9.76,5.52C230.56,297.96,229.18,298.02,228.39,297.57z" class="st6"/><path d="M243.6,306.18l-9.85-5.57c-0.79-0.45-0.69-1.23,0.22-1.75l9.76-5.52c0.91-0.52,2.3-0.57,3.09-0.13l9.85,5.57 c0.79,0.45,0.69,1.23-0.22,1.75l-9.76,5.52C245.78,306.57,244.39,306.62,243.6,306.18z" class="st6"/><path d="M258.82,314.78l-9.85-5.57c-0.79-0.45-0.69-1.23,0.22-1.75l9.76-5.52c0.91-0.52,2.3-0.57,3.09-0.13l9.85,5.57 c0.79,0.45,0.69,1.23-0.22,1.75l-9.76,5.52C260.99,315.17,259.61,315.23,258.82,314.78z" class="st6"/><path d="M274.04,323.39l-9.85-5.57c-0.79-0.45-0.69-1.23,0.22-1.75l9.76-5.52c0.91-0.52,2.3-0.57,3.09-0.13l9.85,5.57 c0.79,0.45,0.69,1.23-0.22,1.75l-9.76,5.52C276.21,323.78,274.83,323.83,274.04,323.39z" class="st6"/><path d="M289.25,331.99l-9.85-5.57c-0.79-0.45-0.69-1.23,0.22-1.75l9.76-5.52c0.91-0.52,2.3-0.57,3.09-0.13l9.85,5.57 c0.79,0.45,0.69,1.23-0.22,1.75l-9.76,5.52C291.43,332.38,290.05,332.44,289.25,331.99z" class="st6"/><path d="M304.47,340.59l-9.85-5.57c-0.79-0.45-0.69-1.23,0.22-1.75l9.76-5.52c0.91-0.52,2.3-0.57,3.09-0.13l9.85,5.57 c0.79,0.45,0.69,1.23-0.22,1.75l-9.76,5.52C306.65,340.99,305.26,341.04,304.47,340.59z" class="st6"/><path d="M319.69,349.2l-9.85-5.57c-0.79-0.45-0.69-1.23,0.22-1.75l9.76-5.52c0.91-0.52,2.3-0.57,3.09-0.13l9.85,5.57 c0.79,0.45,0.69,1.23-0.22,1.75l-9.76,5.52C321.86,349.59,320.48,349.65,319.69,349.2z" class="st6"/><path d="M334.91,357.8l-9.85-5.57c-0.79-0.45-0.69-1.23,0.22-1.75l9.76-5.52c0.91-0.52,2.3-0.57,3.09-0.13l9.85,5.57 c0.79,0.45,0.69,1.23-0.22,1.75l-9.76,5.52C337.08,358.2,335.7,358.25,334.91,357.8z" class="st6"/><path d="M350.12,366.41l-9.85-5.57c-0.79-0.45-0.69-1.23,0.22-1.75l9.76-5.52c0.91-0.52,2.3-0.57,3.09-0.13l9.85,5.57 c0.79,0.45,0.69,1.23-0.22,1.75l-9.76,5.52C352.3,366.8,350.92,366.86,350.12,366.41z" class="st6"/><path d="M365.34,375.01l-9.85-5.57c-0.79-0.45-0.69-1.23,0.22-1.75l9.76-5.52c0.91-0.52,2.3-0.57,3.09-0.13l9.85,5.57 c0.79,0.45,0.69,1.23-0.22,1.75l-9.76,5.52C367.52,375.4,366.13,375.46,365.34,375.01z" class="st6"/><path d="M250.81,293.5l-9.85-5.57c-0.79-0.45-0.69-1.23,0.22-1.75l9.76-5.52c0.91-0.52,2.3-0.57,3.09-0.13l9.85,5.57 c0.79,0.45,0.69,1.23-0.22,1.75l-9.76,5.52C252.98,293.89,251.6,293.95,250.81,293.5z" class="st6"/><path d="M235.36,284.77l-9.85-5.57c-0.79-0.45-0.69-1.23,0.22-1.75l9.76-5.52c0.91-0.52,2.3-0.57,3.09-0.13l9.85,5.57 c0.79,0.45,0.69,1.23-0.22,1.75l-9.76,5.52C237.54,285.16,236.15,285.21,235.36,284.77z" class="st6"/><path d="M219.89,276.02l-21.22-12c-0.79-0.45-0.69-1.23,0.22-1.75l9.76-5.52c0.91-0.52,2.3-0.57,3.09-0.13l21.22,12 c0.79,0.45,0.69,1.23-0.22,1.75l-9.76,5.52C222.07,276.41,220.68,276.47,219.89,276.02z" class="st6"/><path d="M230.71,265.38l-17.22-9.74c-0.79-0.45-0.69-1.23,0.22-1.75l9.76-5.52c0.91-0.52,2.3-0.57,3.09-0.13 l17.22,9.74c0.79,0.45,0.69,1.23-0.22,1.75l-9.76,5.52C232.88,265.77,231.5,265.83,230.71,265.38z" class="st6"/><path d="M266.02,302.1l-9.85-5.57c-0.79-0.45-0.69-1.23,0.22-1.75l9.76-5.52c0.91-0.52,2.3-0.57,3.09-0.13l9.85,5.57 c0.79,0.45,0.69,1.23-0.22,1.75l-9.76,5.52C268.2,302.49,266.82,302.55,266.02,302.1z" class="st6"/><path d="M281.24,310.71l-9.85-5.57c-0.79-0.45-0.69-1.23,0.22-1.75l9.76-5.52c0.91-0.52,2.3-0.57,3.09-0.13l9.85,5.57 c0.79,0.45,0.69,1.23-0.22,1.75l-9.76,5.52C283.42,311.1,282.03,311.16,281.24,310.71z" class="st6"/><path d="M296.46,319.31l-9.85-5.57c-0.79-0.45-0.69-1.23,0.22-1.75l9.76-5.52c0.91-0.52,2.3-0.57,3.09-0.13l9.85,5.57 c0.79,0.45,0.69,1.23-0.22,1.75l-9.76,5.52C298.63,319.7,297.25,319.76,296.46,319.31z" class="st6"/><path d="M311.68,327.92l-9.85-5.57c-0.79-0.45-0.69-1.23,0.22-1.75l9.76-5.52c0.91-0.52,2.3-0.57,3.09-0.13l9.85,5.57 c0.79,0.45,0.69,1.23-0.22,1.75l-9.76,5.52C313.85,328.31,312.47,328.36,311.68,327.92z" class="st6"/><path d="M326.89,336.52l-9.85-5.57c-0.79-0.45-0.69-1.23,0.22-1.75l9.76-5.52c0.91-0.52,2.3-0.57,3.09-0.13l9.85,5.57 c0.79,0.45,0.69,1.23-0.22,1.75l-9.76,5.52C329.07,336.91,327.69,336.97,326.89,336.52z" class="st6"/><path d="M342.11,345.13l-9.85-5.57c-0.79-0.45-0.69-1.23,0.22-1.75l9.76-5.52c0.91-0.52,2.3-0.57,3.09-0.13l9.85,5.57 c0.79,0.45,0.69,1.23-0.22,1.75L345.2,345C344.28,345.52,342.9,345.57,342.11,345.13z" class="st6"/><path d="M357.33,353.73l-9.85-5.57c-0.79-0.45-0.69-1.23,0.22-1.75l9.76-5.52c0.91-0.52,2.3-0.57,3.09-0.13l9.85,5.57 c0.79,0.45,0.69,1.23-0.22,1.75l-9.76,5.52C359.5,354.12,358.12,354.18,357.33,353.73z" class="st6"/><path d="M372.55,362.33l-9.85-5.57c-0.79-0.45-0.69-1.23,0.22-1.75l9.76-5.52c0.91-0.52,2.3-0.57,3.09-0.13l9.85,5.57 c0.79,0.45,0.69,1.23-0.22,1.75l-9.76,5.52C374.72,362.73,373.34,362.78,372.55,362.33z" class="st6"/><path d="M387.76,370.94l-9.85-5.57c-0.79-0.45-0.69-1.23,0.22-1.75l9.76-5.52c0.91-0.52,2.3-0.57,3.09-0.13l9.85,5.57 c0.79,0.45,0.69,1.23-0.22,1.75l-9.76,5.52C389.94,371.33,388.56,371.39,387.76,370.94z" class="st6"/><path d="M414.82,386.24l-21.5-12.16c-0.79-0.45-0.69-1.23,0.22-1.75l9.76-5.52c0.91-0.52,2.3-0.57,3.09-0.13 l21.5,12.16c0.79,0.45,0.69,1.23-0.22,1.75l-9.76,5.52C416.99,386.63,415.61,386.68,414.82,386.24z" class="st6"/><path d="M444.44,369.48l-18.15-10.26c-0.79-0.45-0.69-1.23,0.22-1.75l9.76-5.52c0.91-0.52,2.3-0.57,3.09-0.13 l18.15,10.26c0.79,0.45,0.69,1.23-0.22,1.75l-9.76,5.52C446.62,369.88,445.23,369.93,444.44,369.48z" class="st6"/><path d="M292.67,300.42l-9.85-5.57c-0.79-0.45-0.69-1.23,0.22-1.75l9.76-5.52c0.91-0.52,2.3-0.57,3.09-0.13l9.85,5.57 c0.79,0.45,0.69,1.23-0.22,1.75l-9.76,5.52C294.85,300.81,293.46,300.87,292.67,300.42z" class="st6"/><path d="M277.08,291.6l-9.85-5.57c-0.79-0.45-0.69-1.23,0.22-1.75l9.76-5.52c0.91-0.52,2.3-0.57,3.09-0.13l9.85,5.57 c0.79,0.45,0.69,1.23-0.22,1.75l-9.76,5.52C279.25,291.99,277.87,292.05,277.08,291.6z" class="st6"/><path d="M261.48,282.78l-9.85-5.57c-0.79-0.45-0.69-1.23,0.22-1.75l9.76-5.52c0.91-0.52,2.3-0.57,3.09-0.13l9.85,5.57 c0.79,0.45,0.69,1.23-0.22,1.75l-9.76,5.52C263.65,283.17,262.27,283.23,261.48,282.78z" class="st6"/><path d="M245.89,273.96l-9.85-5.57c-0.79-0.45-0.69-1.23,0.22-1.75l9.76-5.52c0.91-0.52,2.3-0.57,3.09-0.13l9.85,5.57 c0.79,0.45,0.69,1.23-0.22,1.75l-9.76,5.52C248.06,274.36,246.68,274.41,245.89,273.96z" class="st6"/><path d="M307.89,309.02l-9.85-5.57c-0.79-0.45-0.69-1.23,0.22-1.75l9.76-5.52c0.91-0.52,2.3-0.57,3.09-0.13l9.85,5.57 c0.79,0.45,0.69,1.23-0.22,1.75l-9.76,5.52C310.06,309.42,308.68,309.47,307.89,309.02z" class="st6"/><path d="M323.11,317.63l-9.85-5.57c-0.79-0.45-0.69-1.23,0.22-1.75l9.76-5.52c0.91-0.52,2.3-0.57,3.09-0.13l9.85,5.57 c0.79,0.45,0.69,1.23-0.22,1.75l-9.76,5.52C325.28,318.02,323.9,318.08,323.11,317.63z" class="st6"/><path d="M338.33,326.23l-9.85-5.57c-0.79-0.45-0.69-1.23,0.22-1.75l9.76-5.52c0.91-0.52,2.3-0.57,3.09-0.13l9.85,5.57 c0.79,0.45,0.69,1.23-0.22,1.75l-9.76,5.52C340.5,326.62,339.12,326.68,338.33,326.23z" class="st6"/><path d="M353.54,334.84l-9.85-5.57c-0.79-0.45-0.69-1.23,0.22-1.75l9.76-5.52c0.91-0.52,2.3-0.57,3.09-0.13l9.85,5.57 c0.79,0.45,0.69,1.23-0.22,1.75l-9.76,5.52C355.72,335.23,354.33,335.29,353.54,334.84z" class="st6"/><path d="M368.76,343.44l-9.85-5.57c-0.79-0.45-0.69-1.23,0.22-1.75l9.76-5.52c0.91-0.52,2.3-0.57,3.09-0.13l9.85,5.57 c0.79,0.45,0.69,1.23-0.22,1.75l-9.76,5.52C370.93,343.83,369.55,343.89,368.76,343.44z" class="st6"/><path d="M383.98,352.05l-9.85-5.57c-0.79-0.45-0.69-1.23,0.22-1.75l9.76-5.52c0.91-0.52,2.3-0.57,3.09-0.13l9.85,5.57 c0.79,0.45,0.69,1.23-0.22,1.75l-9.76,5.52C386.15,352.44,384.77,352.49,383.98,352.05z" class="st6"/><path d="M399.2,360.65l-9.85-5.57c-0.79-0.45-0.69-1.23,0.22-1.75l9.76-5.52c0.91-0.52,2.3-0.57,3.09-0.13l9.85,5.57 c0.79,0.45,0.69,1.23-0.22,1.75l-9.76,5.52C401.37,361.04,399.99,361.1,399.2,360.65z" class="st6"/><path d="M414.41,369.26l-9.85-5.57c-0.79-0.45-0.69-1.23,0.22-1.75l9.76-5.52c0.91-0.52,2.3-0.57,3.09-0.13l9.85,5.57 c0.79,0.45,0.69,1.23-0.22,1.75l-9.76,5.52C416.59,369.65,415.2,369.7,414.41,369.26z" class="st6"/><path d="M429.63,377.86l-9.85-5.57c-0.79-0.45-0.69-1.23,0.22-1.75l9.76-5.52c0.91-0.52,2.3-0.57,3.09-0.13l9.85,5.57 c0.79,0.45,0.69,1.23-0.22,1.75l-9.76,5.52C431.8,378.25,430.42,378.31,429.63,377.86z" class="st6"/><path d="M284.66,279.14l-9.85-5.57c-0.79-0.45-0.69-1.23,0.22-1.75l9.76-5.52c0.91-0.52,2.3-0.57,3.09-0.13l9.85,5.57 c0.79,0.45,0.69,1.23-0.22,1.75l-9.76,5.52C286.83,279.53,285.45,279.58,284.66,279.14z" class="st6"/><path d="M269.52,270.58l-9.85-5.57c-0.79-0.45-0.69-1.23,0.22-1.75l9.76-5.52c0.91-0.52,2.3-0.57,3.09-0.13l9.85,5.57 c0.79,0.45,0.69,1.23-0.22,1.75l-9.76,5.52C271.69,270.97,270.31,271.02,269.52,270.58z" class="st6"/><path d="M254.38,262.01l-9.85-5.57c-0.79-0.45-0.69-1.23,0.22-1.75l9.76-5.52c0.91-0.52,2.3-0.57,3.09-0.13l9.85,5.57 c0.79,0.45,0.69,1.23-0.22,1.75l-9.76,5.52C256.55,262.4,255.17,262.46,254.38,262.01z" class="st6"/><path d="M239.24,253.45l-9.85-5.57c-0.79-0.45-0.69-1.23,0.22-1.75l9.76-5.52c0.91-0.52,2.3-0.57,3.09-0.13l9.85,5.57 c0.79,0.45,0.69,1.23-0.22,1.75l-9.76,5.52C241.41,253.84,240.03,253.9,239.24,253.45z" class="st6"/><path d="M254.81,244.65l-9.85-5.57c-0.79-0.45-0.69-1.23,0.22-1.75l3.23-1.83c0.91-0.52,2.3-0.57,3.09-0.13l9.85,5.57 c0.79,0.45,0.69,1.23-0.22,1.75l-3.23,1.82C256.98,245.04,255.6,245.1,254.81,244.65z" class="st6"/><path d="M274.57,255.82l-9.85-5.57c-0.79-0.45-0.69-1.23,0.22-1.75l3.23-1.82c0.91-0.52,2.3-0.57,3.09-0.13l9.85,5.57 c0.79,0.45,0.69,1.23-0.22,1.75l-3.23,1.83C276.74,256.21,275.36,256.27,274.57,255.82z" class="st6"/><path d="M289.64,264.35l-9.85-5.57c-0.79-0.45-0.69-1.23,0.22-1.75l3.23-1.82c0.91-0.52,2.3-0.57,3.09-0.13l9.85,5.57 c0.79,0.45,0.69,1.23-0.22,1.75l-3.23,1.83C291.82,264.74,290.44,264.79,289.64,264.35z" class="st6"/><path d="M304.72,272.87l-9.85-5.57c-0.79-0.45-0.69-1.23,0.22-1.75l3.23-1.83c0.91-0.52,2.3-0.57,3.09-0.13l9.85,5.57 c0.79,0.45,0.69,1.23-0.22,1.75l-3.23,1.82C306.9,273.26,305.51,273.32,304.72,272.87z" class="st6"/><path d="M319.8,281.4l-9.85-5.57c-0.79-0.45-0.69-1.23,0.22-1.75l3.23-1.82c0.91-0.52,2.3-0.57,3.09-0.13l9.85,5.57 c0.79,0.45,0.69,1.23-0.22,1.75l-3.23,1.83C321.97,281.79,320.59,281.85,319.8,281.4z" class="st6"/><path d="M403.98,329l-9.85-5.57c-0.79-0.45-0.69-1.23,0.22-1.75l3.23-1.82c0.91-0.52,2.3-0.57,3.09-0.13l9.85,5.57 c0.79,0.45,0.69,1.23-0.22,1.75l-3.23,1.83C406.16,329.39,404.77,329.45,403.98,329z" class="st6"/><path d="M419.06,337.52l-9.85-5.57c-0.79-0.45-0.69-1.23,0.22-1.75l3.23-1.82c0.91-0.52,2.3-0.57,3.09-0.13l9.85,5.57 c0.79,0.45,0.69,1.23-0.22,1.75l-3.23,1.83C421.23,337.92,419.85,337.97,419.06,337.52z" class="st6"/><path d="M434.14,346.05l-9.85-5.57c-0.79-0.45-0.69-1.23,0.22-1.75l3.23-1.83c0.91-0.52,2.3-0.57,3.09-0.13l9.85,5.57 c0.79,0.45,0.69,1.23-0.22,1.75l-3.23,1.82C436.31,346.44,434.93,346.5,434.14,346.05z" class="st6"/><path d="M449.22,354.58l-9.85-5.57c-0.79-0.45-0.69-1.23,0.22-1.75l3.23-1.82c0.91-0.52,2.3-0.57,3.09-0.13l9.85,5.57 c0.79,0.45,0.69,1.23-0.22,1.75l-3.23,1.83C451.39,354.97,450.01,355.02,449.22,354.58z" class="st6"/><path d="M299.88,287.74l-9.85-5.57c-0.79-0.45-0.69-1.23,0.22-1.75l9.76-5.52c0.91-0.52,2.3-0.57,3.09-0.13l9.85,5.57 c0.79,0.45,0.69,1.23-0.22,1.75l-9.76,5.52C302.05,288.13,300.67,288.19,299.88,287.74z" class="st6"/><path d="M315.1,296.35l-9.85-5.57c-0.79-0.45-0.69-1.23,0.22-1.75l9.76-5.52c0.91-0.52,2.3-0.57,3.09-0.13l9.85,5.57 c0.79,0.45,0.69,1.23-0.22,1.75l-9.76,5.52C317.27,296.74,315.89,296.79,315.1,296.35z" class="st6"/><path d="M330.31,304.95l-9.85-5.57c-0.79-0.45-0.69-1.23,0.22-1.75l9.76-5.52c0.91-0.52,2.3-0.57,3.09-0.13l9.85,5.57 c0.79,0.45,0.69,1.23-0.22,1.75l-9.76,5.52C332.49,305.34,331.1,305.4,330.31,304.95z" class="st6"/><path d="M345.53,313.55l-9.85-5.57c-0.79-0.45-0.69-1.23,0.22-1.75l9.76-5.52c0.91-0.52,2.3-0.57,3.09-0.13l9.85,5.57 c0.79,0.45,0.69,1.23-0.22,1.75l-9.76,5.52C347.7,313.95,346.32,314,345.53,313.55z" class="st6"/><path d="M360.75,322.16l-9.85-5.57c-0.79-0.45-0.69-1.23,0.22-1.75l9.76-5.52c0.91-0.52,2.3-0.57,3.09-0.13l9.85,5.57 c0.79,0.45,0.69,1.23-0.22,1.75l-9.76,5.52C362.92,322.55,361.54,322.61,360.75,322.16z" class="st6"/><path d="M375.97,330.76l-9.85-5.57c-0.79-0.45-0.69-1.23,0.22-1.75l9.76-5.52c0.91-0.52,2.3-0.57,3.09-0.13l9.85,5.57 c0.79,0.45,0.69,1.23-0.22,1.75l-9.76,5.52C378.14,331.16,376.76,331.21,375.97,330.76z" class="st6"/><path d="M391.18,339.37l-9.85-5.57c-0.79-0.45-0.69-1.23,0.22-1.75l9.76-5.52c0.91-0.52,2.3-0.57,3.09-0.13l9.85,5.57 c0.79,0.45,0.69,1.23-0.22,1.75l-9.76,5.52C393.36,339.76,391.97,339.82,391.18,339.37z" class="st6"/><path d="M406.4,347.97l-9.85-5.57c-0.79-0.45-0.69-1.23,0.22-1.75l9.76-5.52c0.91-0.52,2.3-0.57,3.09-0.13l9.85,5.57 c0.79,0.45,0.69,1.23-0.22,1.75l-9.76,5.52C408.57,348.36,407.19,348.42,406.4,347.97z" class="st6"/><path d="M421.62,356.58l-9.85-5.57c-0.79-0.45-0.69-1.23,0.22-1.75l9.76-5.52c0.91-0.52,2.3-0.57,3.09-0.13l9.85,5.57 c0.79,0.45,0.69,1.23-0.22,1.75l-9.76,5.52C423.79,356.97,422.41,357.02,421.62,356.58z" class="st6"/><path d="M212.88,288.8l-29.02-16.41c-0.79-0.45-0.69-1.23,0.22-1.75l9.76-5.52c0.91-0.52,2.3-0.57,3.09-0.13 l29.02,16.41c0.79,0.45,0.69,1.23-0.22,1.75l-9.76,5.52C215.05,289.2,213.67,289.25,212.88,288.8z" class="st6"/><path d="M399.83,394.51l-29.02-16.41c-0.79-0.45-0.69-1.23,0.22-1.75l9.76-5.52c0.91-0.52,2.3-0.57,3.09-0.13 l29.02,16.41c0.79,0.45,0.69,1.23-0.22,1.75l-9.76,5.52C402,394.9,400.62,394.96,399.83,394.51z" class="st6"/><path d="M338.97,379.11l-9.85-5.57c-0.79-0.45-0.69-1.23,0.22-1.75l11.63-6.58c0.91-0.52,2.3-0.57,3.09-0.13 l9.85,5.57c0.79,0.45,0.69,1.23-0.22,1.75l-11.63,6.58C341.14,379.5,339.76,379.56,338.97,379.11z" class="st6"/><path d="M228.46,316.62l-15.76-8.91c-0.79-0.45-0.69-1.23,0.22-1.75l11.63-6.58c0.91-0.52,2.3-0.57,3.09-0.13 l15.76,8.91c0.79,0.45,0.69,1.23-0.22,1.75l-11.63,6.58C230.63,317.01,229.25,317.07,228.46,316.62z" class="st6"/><path d="M324.31,370.82l-15.76-8.91c-0.79-0.45-0.69-1.23,0.22-1.75l11.63-6.58c0.91-0.52,2.3-0.57,3.09-0.13 l15.76,8.91c0.79,0.45,0.69,1.23-0.22,1.75l-11.63,6.58C326.48,371.21,325.1,371.26,324.31,370.82z" class="st6"/><path d="M250.42,329.04l-15.76-8.91c-0.79-0.45-0.69-1.23,0.22-1.75l11.63-6.58c0.91-0.52,2.3-0.57,3.09-0.13 l15.76,8.91c0.79,0.45,0.69,1.23-0.22,1.75l-11.63,6.58C252.59,329.43,251.21,329.48,250.42,329.04z" class="st6"/><path d="M249.7,311.74l68.52,38.74c0.85,0.48,0.85,1.26,0,1.74l-11.86,6.71c-0.85,0.48-2.23,0.48-3.08,0l-68.52-38.74 L249.7,311.74z" class="st6"/><path d="M381.5,394.71l10.98,6.21c0.65,0.37,0.57,1.01-0.18,1.43l-4.76,2.69c-0.75,0.42-1.88,0.47-2.53,0.1 l-10.98-6.21c-0.65-0.37-0.57-1.01,0.18-1.43l4.76-2.69C379.72,394.39,380.85,394.34,381.5,394.71z" class="st6"/><path d="M366.16,386.03l10.98,6.21c0.65,0.37,0.57,1.01-0.18,1.43l-4.76,2.69c-0.75,0.42-1.88,0.47-2.53,0.1 l-10.98-6.21c-0.65-0.37-0.57-1.01,0.18-1.43l4.76-2.69C364.38,385.71,365.51,385.67,366.16,386.03z" class="st6"/><path d="M350.94,377.43l10.98,6.21c0.65,0.37,0.57,1.01-0.18,1.43l-4.76,2.69c-0.75,0.42-1.88,0.47-2.53,0.1 l-10.98-6.21c-0.65-0.37-0.57-1.01,0.18-1.43l4.76-2.69C349.16,377.11,350.29,377.06,350.94,377.43z" class="st6"/><path d="M374.56,381.28l10.98,6.21c0.65,0.37,0.57,1.01-0.18,1.43l-4.76,2.69c-0.75,0.42-1.88,0.47-2.53,0.1 l-10.98-6.21c-0.65-0.37-0.57-1.01,0.18-1.43l4.76-2.69C372.78,380.96,373.91,380.91,374.56,381.28z" class="st6"/></g><g><polygon points="434.67 213.38 352.7 167.04 353.76 161.82 435.73 208.17" class="st4"/><polygon points="405.31 222.19 348.1 189.84 349.15 184.62 406.37 216.97" class="st4"/><polygon points="399.9 206.43 350.4 178.44 351.45 173.22 400.95 201.21" class="st5"/><polygon points="432.37 224.79 407.62 210.79 408.67 205.57 433.42 219.57" class="st6"/><polygon points="343.97 121.5 319.22 107.51 320.28 102.29 345.03 116.29" class="st4"/><polygon points="341.29 133.63 316.54 119.64 317.59 114.42 342.34 128.41" class="st5"/><polygon points="462.77 301.86 438.02 287.86 439.07 282.65 463.82 296.64" class="st4"/><polygon points="335.92 157.89 311.17 143.89 312.22 138.68 336.97 152.67" class="st4"/></g><g><path d="M389.39,161.65c-0.79,1.68-2.78,2.29-4.45,1.34c-1.67-0.94-2.38-3.07-1.59-4.76 c0.79-1.69,2.78-2.29,4.45-1.34C389.47,157.83,390.18,159.96,389.39,161.65z" class="st6"/><path d="M400.05,167.67c-0.79,1.69-2.78,2.29-4.45,1.34c-1.67-0.94-2.38-3.07-1.59-4.76 c0.79-1.68,2.78-2.29,4.45-1.34C400.13,163.86,400.84,165.99,400.05,167.67z" class="st5"/><path d="M410.71,173.7c-0.79,1.68-2.78,2.29-4.45,1.34c-1.67-0.94-2.38-3.07-1.59-4.76c0.79-1.68,2.78-2.29,4.45-1.34 C410.79,169.89,411.5,172.02,410.71,173.7z" class="st4"/><path d="M421.38,179.73c-0.79,1.68-2.78,2.29-4.45,1.34c-1.67-0.94-2.38-3.07-1.59-4.76 c0.79-1.69,2.78-2.29,4.45-1.34C421.45,175.91,422.16,178.05,421.38,179.73z" class="st5"/></g></g><g><g><path d="M241.26,152.58l-53.38-30.17c-1.06-0.6-2.12-0.62-3.03-0.22c0,0,0.01-0.03,0.01-0.03l-6.36,2.93 c0,0,2.39,0.82,3.79,1.3l-7.7,38.06c-0.63,3.1,0.79,6.69,3.16,8.03l51.02,28.84l-0.9,4.47l6.43-2.95l-0.03-0.01 c1.09-0.53,1.96-1.69,2.3-3.35l7.87-38.86C245.05,157.52,243.64,153.92,241.26,152.58z" class="st1"/><path d="M224.65,205.63l-53.38-30.17c-2.37-1.34-3.79-4.94-3.16-8.03l7.87-38.86c0.63-3.1,3.06-4.52,5.43-3.18 l53.38,30.17c2.37,1.34,3.79,4.94,3.16,8.03l-7.87,38.86C229.45,205.55,227.02,206.97,224.65,205.63z" class="st6"/><path d="M236,155.09l-53.38-30.17c-1.24-0.7-2.5-0.63-3.5,0.03c0.73-0.12,1.51,0,2.29,0.44l53.38,30.17 c2.37,1.34,3.79,4.94,3.16,8.04l-7.87,38.86c-0.3,1.47-1.01,2.55-1.93,3.15c1.48-0.24,2.72-1.54,3.14-3.62l7.87-38.86 C239.79,160.03,238.37,156.43,236,155.09z" class="st5"/></g><g><path d="M193.98,162.07c-0.46,2.25-2.44,3.16-4.43,2.04c-1.99-1.12-3.23-3.86-2.78-6.11 c0.46-2.25,2.44-3.16,4.43-2.04C193.2,157.08,194.44,159.82,193.98,162.07z" class="st5"/><path d="M204.89,168.23c-0.46,2.25-2.44,3.16-4.43,2.04c-1.99-1.12-3.23-3.86-2.78-6.11 c0.46-2.25,2.44-3.16,4.43-2.04C204.11,163.25,205.35,165.99,204.89,168.23z" class="st5"/><path d="M215.81,174.4c-0.46,2.25-2.44,3.16-4.43,2.04c-1.99-1.12-3.23-3.86-2.78-6.11c0.46-2.25,2.44-3.16,4.43-2.04 S216.26,172.15,215.81,174.4z" class="st5"/></g></g><g><g><path d="M217.3,103.72l-53.38-30.17c-1.06-0.6-2.12-0.62-3.03-0.22c0,0,0.01-0.03,0.01-0.03l-6.36,2.93 c0,0,2.39,0.82,3.79,1.3l-7.7,38.06c-0.63,3.1,0.79,6.69,3.16,8.03l51.02,28.84l-0.9,4.47l6.43-2.95l-0.03-0.01 c1.09-0.53,1.96-1.69,2.3-3.35l7.87-38.86C221.09,108.66,219.67,105.06,217.3,103.72z" class="st6"/><path d="M200.68,156.77l-53.38-30.17c-2.37-1.34-3.79-4.94-3.16-8.03l7.87-38.86c0.63-3.1,3.06-4.52,5.43-3.18 l53.38,30.17c2.37,1.34,3.79,4.94,3.16,8.03l-7.87,38.86C205.49,156.69,203.06,158.11,200.68,156.77z" class="st4"/><path d="M212.03,106.23l-53.38-30.17c-1.24-0.7-2.5-0.63-3.5,0.03c0.73-0.12,1.51,0,2.29,0.44l53.38,30.17 c2.37,1.34,3.79,4.94,3.16,8.04l-7.87,38.86c-0.3,1.47-1.01,2.55-1.93,3.15c1.48-0.24,2.72-1.54,3.14-3.62l7.87-38.86 C215.82,111.17,214.41,107.57,212.03,106.23z" class="st5"/></g><g><path d="M170.02,113.2c-0.46,2.25-2.44,3.16-4.43,2.04c-1.99-1.12-3.23-3.86-2.78-6.11c0.46-2.25,2.44-3.16,4.43-2.04 C169.23,108.22,170.47,110.95,170.02,113.2z" class="st5"/><path d="M180.93,119.37c-0.46,2.25-2.44,3.16-4.43,2.04c-1.99-1.12-3.23-3.86-2.78-6.11 c0.46-2.25,2.44-3.16,4.43-2.04C180.14,114.39,181.38,117.12,180.93,119.37z" class="st5"/><path d="M191.84,125.54c-0.46,2.25-2.44,3.16-4.43,2.04c-1.99-1.12-3.23-3.86-2.78-6.11 c0.46-2.25,2.44-3.16,4.43-2.04C191.05,120.56,192.3,123.29,191.84,125.54z" class="st5"/></g></g><path d="M245.54,398.53l-64.29-36.35c-1.87-1.06-1.64-2.91,0.52-4.13l38.8-21.94c2.16-1.22,5.43-1.35,7.3-0.3	l64.29,36.35c1.87,1.06,1.64,2.91-0.52,4.13l-38.8,21.94C250.68,399.46,247.41,399.59,245.54,398.53z" class="st5"/><g><g><polygon points="173.63 506.79 152.37 494.77 173.63 482.74 194.9 494.77" class="st0"/><polygon points="194.9 479.5 173.63 491.52 173.63 467.48 194.9 455.45" class="st1"/><polygon points="173.63 467.48 152.37 455.45 173.63 443.43 194.9 455.45" class="st4"/><polygon points="173.63 491.52 152.37 479.5 152.37 455.45 173.63 467.48" class="st6"/></g><polygon points="165.97 478.53 160.03 475.17 160.03 468.44 165.97 471.81" class="st5"/></g><path d="M315.91,429.33l-92.73-52.43c-2.08-1.18-2.08-4.12,0-5.3l88.17-49.85L410,377.53c2.08,1.18,2.08,4.12,0,5.3	l-82.25,46.5C324.09,431.4,319.57,431.4,315.91,429.33z" class="st0"/><g><g><path d="M313.23,285.39c0.01-5.77-4.14-8.12-9.24-5.24l-86.73,48.94c-1.4,0.79-2.54,2.72-2.54,4.3 c0,1.59,1.13,2.23,2.54,1.44l86.73-48.94c2.3-1.3,4.17-0.24,4.17,2.36l-0.01,9.5c1.68-0.1,3.37-0.1,5.08-0.08L313.23,285.39z" class="st7"/><path d="M217.23,351.92l86.73-30.95c5.1-2.88,9.26-9.91,9.26-15.68l0.01-7.6c-1.71-0.03-3.39-0.03-5.08,0.08 l-0.01,10.39c0,2.6-1.88,5.77-4.18,7.07l-86.73,30.95c-1.4,0.79-2.54,2.72-2.54,4.3C214.69,352.06,215.82,352.71,217.23,351.92z" class="st1"/></g><polygon points="215.35 352.03 320.85 411.82 410.17 359.65 417.25 349.29 416.52 352.96 414.61 343.35 248.81 349.54 219.6 347.7" class="st7"/><polygon points="218.84 333.99 218.82 346.71 320.78 404.48 323.54 392.36" class="st4"/><polygon points="415.94 339.26 310.61 279.58 215.64 333.67 215.44 335 320.93 394.76" class="st6"/><g><path d="M382.36,369.91l24.77-14.39c2.09-1.44,3.72-4.34,3.72-6.76l0.02-1.91c0-1.54-0.66-2.54-1.67-2.82 l-48.75,26.56l-39.7,21.03l0.04,12.86L382.36,369.91z" class="st5"/></g><path d="M324.3,392.79l-104.66-59.3l-2.22-1.26l-2.03-1.15c-0.41,0.74-0.67,1.56-0.67,2.31c0,0.78,0.28,1.33,0.72,1.59 l0,0l0.02,0.01l0.01,0l105.46,59.76L324.3,392.79z" class="st1"/><polygon points="319.53 411.07 320.85 411.82 321.09 411.41 320.27 410.77" class="st5"/><polygon points="319.56 393.99 320.91 394.75 320.57 394.03" class="st5"/><g><path d="M322.75,388.86l86.73-48.94c5.1-2.88,9.25-0.53,9.24,5.24l-0.02,1.91c-0.01,5.77-4.16,12.8-9.26,15.68 l-86.73,48.94c-1.4,0.79-2.54,0.15-2.54-1.44c0-1.59,1.14-3.51,2.54-4.3l86.73-48.94c2.3-1.3,4.17-4.47,4.18-7.07l0.02-1.91 c0-2.6-1.87-3.66-4.17-2.36l-86.73,48.94c-1.4,0.79-2.54,0.15-2.54-1.44C320.21,391.58,321.35,389.65,322.75,388.86z" class="st1"/></g><g><path d="M320.17,410.25c0-1.59,1.14-3.51,2.54-4.3l86.73-48.94c2.3-1.3,4.17-4.47,4.18-7.07l0.02-1.91 c0-1.7-0.8-2.74-2-2.89c0.39,0.5,0.61,1.21,0.61,2.1l-0.02,1.91c0,2.6-1.88,5.77-4.18,7.07l-86.73,48.94 c-1.4,0.79-2.54,2.72-2.54,4.3c0,1.2,0.65,1.86,1.58,1.76C320.24,410.96,320.17,410.63,320.17,410.25z" class="st5"/><path d="M320.21,393.17c0-1.59,1.14-3.51,2.54-4.3l86.73-48.94c2.2-1.24,4.21-1.51,5.8-0.95 c-1.7-1.42-4.29-1.48-7.19,0.16l-86.73,48.94c-1.4,0.79-2.54,2.72-2.54,4.3c0,1.2,0.65,1.86,1.58,1.76 C320.28,393.88,320.21,393.55,320.21,393.17z" class="st5"/></g><polygon points="280.1 340.44 327.95 313.44 369.45 336.95 321.6 363.95" class="st5"/></g><g><g><path d="M452.14,539.32l-64.68-36.57c-2.37-1.34-2.07-3.68,0.66-5.23l68.56-38.86c2.74-1.55,6.88-1.72,9.25-0.38 l64.68,36.57c2.37,1.34,2.07,3.68-0.66,5.23l-68.56,38.86C458.65,540.49,454.51,540.66,452.14,539.32z" class="st0"/><g><linearGradient id="SVGID_1_" x1="228.534" x2="228.534" y1="1475.525" y2="1323.424" gradientTransform="matrix(0.866 0.5 0 1.1547 299.5894 -1366.6678)" gradientUnits="userSpaceOnUse"><stop offset="0" stop-color="#2D0979"/><stop offset="1" stop-color="#5B04F7"/></linearGradient><path d="M532.08,470.53l-69.16-39.11c-2.69-1.52-4.87-5.6-4.87-9.11V260.22c0-3.51,2.18-5.13,4.87-3.61l69.16,39.11 c2.69,1.52,4.87,5.6,4.87,9.11v162.09C536.95,470.43,534.77,472.05,532.08,470.53z" class="st8"/><path d="M532.08,295.72l-69.16-39.11c-1.2-0.68-2.3-0.73-3.15-0.27l0,0l-78.96,44.61l3.72,13.48l71.99,200.81 l78.64-44.42c0.01-0.01,0.03-0.01,0.04-0.02l0.14-0.08l0-0.01c0.98-0.61,1.61-1.93,1.61-3.8V304.84 C536.95,301.32,534.77,297.24,532.08,295.72z" class="st2"/><path d="M532.08,295.72l-69.16-39.11c-1.2-0.68-2.3-0.73-3.15-0.27l0,0l-78.96,44.61l3.72,13.48l19.8,55.22 l3.73,2.11l127.53-72.11C534.7,297.96,533.46,296.5,532.08,295.72z" class="st4"/><path d="M453.18,515.1L384.02,476c-2.69-1.52-4.87-5.6-4.87-9.11V304.8c0-3.51,2.18-5.13,4.87-3.61l69.16,39.11 c2.69,1.52,4.87,5.6,4.87,9.11V511.5C458.05,515.01,455.87,516.62,453.18,515.1z" class="st6"/><linearGradient id="SVGID_2_" x1="94.708" x2="172.051" y1="1486.584" y2="1469.058" gradientTransform="matrix(0.866 0.5 0 1.1547 299.5894 -1366.6678)" gradientUnits="userSpaceOnUse"><stop offset="0" stop-color="#3919BB"/><stop offset="1" stop-color="#6507FA"/></linearGradient><path d="M448.83,505.34l-60.46-34.19c-2.35-1.33-4.26-4.9-4.26-7.97V312.66c0-3.07,1.91-4.48,4.26-3.15l60.46,34.19 c2.35,1.33,4.26,4.9,4.26,7.97v150.53C453.09,505.26,451.18,506.67,448.83,505.34z" class="st9"/><linearGradient id="SVGID_3_" x1="94.708" x2="172.051" y1="1486.584" y2="1469.058" gradientTransform="matrix(0.866 0.5 0 1.1547 299.5894 -1366.6678)" gradientUnits="userSpaceOnUse"><stop offset="0" stop-color="#3919BB"/><stop offset="1" stop-color="#6507FA"/></linearGradient><path d="M448.83,505.34l-60.46-34.19c-2.35-1.33-4.26-4.9-4.26-7.97V312.66c0-3.07,1.91-4.48,4.26-3.15l60.46,34.19 c2.35,1.33,4.26,4.9,4.26,7.97v150.53C453.09,505.26,451.18,506.67,448.83,505.34z" class="st10"/><path d="M448.83,505.34l-60.46-34.19c-2.35-1.33-4.26-4.9-4.26-7.97V312.66c0-3.07,1.91-4.48,4.26-3.15l60.46,34.19 c2.35,1.33,4.26,4.9,4.26,7.97v150.53C453.09,505.26,451.18,506.67,448.83,505.34z" class="st1"/><path d="M450.8,504.21l-60.46-34.19c-2.35-1.33-4.26-4.9-4.26-7.97V311.52c0-1.05,0.23-1.89,0.61-2.51 c-1.52-0.01-2.59,1.36-2.59,3.65v150.53c0,3.07,1.91,6.64,4.26,7.97l60.46,34.19c1.55,0.88,2.9,0.56,3.65-0.64 C451.96,504.7,451.4,504.54,450.8,504.21z" class="st2"/></g></g></g><g><g><path d="M448.83,436.23l-22.47-12.71l-35.84,20.27l62.57,35.38V444.2C453.09,441.13,451.18,437.56,448.83,436.23z" class="st1"/><path d="M448.83,405.39l-22.47-12.71l-35.84,20.27l62.57,35.38v-34.97C453.09,410.28,451.18,406.72,448.83,405.39z" class="st1"/><path d="M448.83,374.54l-22.47-12.71l-35.84,20.27l62.57,35.38v-34.97C453.09,379.44,451.18,375.87,448.83,374.54z" class="st1"/><path d="M448.83,343.69l-22.47-12.71l-35.84,20.27l62.57,35.38v-34.97C453.09,348.59,451.18,345.02,448.83,343.69z" class="st1"/><path d="M448.83,343.69l-49.75-28.13l-8.56,4.84l62.57,35.38v-4.12C453.09,348.59,451.18,345.02,448.83,343.69z" class="st1"/></g><polygon points="453.09 355.79 390.52 320.41 390.52 339.9 453.09 375.28" class="st6"/><polygon points="453.09 386.63 390.52 351.25 390.52 370.75 453.09 406.13" class="st6"/><polygon points="453.09 417.48 390.52 382.1 390.52 401.6 453.09 436.97" class="st6"/><polygon points="453.09 448.32 390.52 412.95 390.52 432.44 453.09 467.82" class="st6"/><polygon points="453.09 479.17 390.52 443.79 390.52 463.29 453.09 498.67" class="st6"/></g><g><path d="M447.57,368.33l-47.13-26.65c-1.33-0.75-2.41-2.77-2.41-4.51v-5.22c0-1.74,1.08-2.54,2.41-1.78l47.13,26.65 c1.33,0.75,2.41,2.77,2.41,4.51v5.22C449.98,368.29,448.9,369.09,447.57,368.33z" class="st1"/><path d="M402.82,340.69c-1.33-0.75-2.41-2.77-2.41-4.51v-5.22c0-0.28,0.04-0.52,0.09-0.75l-0.06-0.03 c-1.33-0.75-2.41,0.05-2.41,1.78v5.22c0,1.74,1.08,3.76,2.41,4.51l47.13,26.65c1.12,0.63,2.05,0.16,2.32-1.03L402.82,340.69z" class="st11"/><path d="M432.78,354.02l-28.36-16.04c-0.47-0.26-0.85-0.97-0.85-1.59l0,0c0-0.61,0.38-0.89,0.85-0.63l28.36,16.04 c0.47,0.26,0.85,0.97,0.85,1.59l0,0C433.63,354.01,433.25,354.29,432.78,354.02z" class="st5"/></g><g><path d="M447.57,398.99l-47.13-26.65c-1.33-0.75-2.41-2.77-2.41-4.51v-5.22c0-1.74,1.08-2.54,2.41-1.78l47.13,26.65 c1.33,0.75,2.41,2.77,2.41,4.51v5.22C449.98,398.94,448.9,399.74,447.57,398.99z" class="st1"/><path d="M402.82,371.34c-1.33-0.75-2.41-2.77-2.41-4.51v-5.22c0-0.28,0.04-0.52,0.09-0.75l-0.06-0.03 c-1.33-0.75-2.41,0.05-2.41,1.78v5.22c0,1.74,1.08,3.76,2.41,4.51l47.13,26.65c1.12,0.63,2.05,0.16,2.32-1.03L402.82,371.34z" class="st11"/><path d="M432.78,384.68l-28.36-16.04c-0.47-0.26-0.85-0.97-0.85-1.59v0c0-0.61,0.38-0.89,0.85-0.63l28.36,16.04 c0.47,0.26,0.85,0.97,0.85,1.59l0,0C433.63,384.66,433.25,384.94,432.78,384.68z" class="st5"/></g><g><path d="M447.57,429.93l-47.13-26.65c-1.33-0.75-2.41-2.77-2.41-4.51v-5.22c0-1.74,1.08-2.54,2.41-1.78l47.13,26.65 c1.33,0.75,2.41,2.77,2.41,4.51v5.22C449.98,429.89,448.9,430.68,447.57,429.93z" class="st1"/><path d="M402.82,402.28c-1.33-0.75-2.41-2.77-2.41-4.51v-5.22c0-0.28,0.04-0.52,0.09-0.75l-0.06-0.03 c-1.33-0.75-2.41,0.05-2.41,1.78v5.22c0,1.74,1.08,3.76,2.41,4.51l47.13,26.65c1.12,0.63,2.05,0.16,2.32-1.03L402.82,402.28z" class="st11"/><path d="M432.78,415.62l-28.36-16.04c-0.47-0.26-0.85-0.97-0.85-1.59l0,0c0-0.61,0.38-0.89,0.85-0.63l28.36,16.04 c0.47,0.26,0.85,0.97,0.85,1.59l0,0C433.63,415.6,433.25,415.89,432.78,415.62z" class="st4"/></g><g><path d="M447.57,461.16l-47.13-26.65c-1.33-0.75-2.41-2.77-2.41-4.51v-5.22c0-1.74,1.08-2.54,2.41-1.78l47.13,26.65 c1.33,0.75,2.41,2.77,2.41,4.51v5.22C449.98,461.11,448.9,461.91,447.57,461.16z" class="st1"/><path d="M402.82,433.51c-1.33-0.75-2.41-2.77-2.41-4.51v-5.22c0-0.28,0.04-0.52,0.09-0.75l-0.06-0.03 c-1.33-0.75-2.41,0.05-2.41,1.78V430c0,1.74,1.08,3.76,2.41,4.51l47.13,26.65c1.12,0.63,2.05,0.16,2.32-1.03L402.82,433.51z" class="st11"/><path d="M432.78,446.85l-28.36-16.04c-0.47-0.26-0.85-0.97-0.85-1.59l0,0c0-0.61,0.38-0.89,0.85-0.63l28.36,16.04 c0.47,0.26,0.85,0.97,0.85,1.59l0,0C433.63,446.83,433.25,447.11,432.78,446.85z" class="st6"/></g><g><path d="M447.57,491.77l-47.13-26.65c-1.33-0.75-2.41-2.77-2.41-4.51v-5.22c0-1.74,1.08-2.54,2.41-1.78l47.13,26.65 c1.33,0.75,2.41,2.77,2.41,4.51v5.22C449.98,491.72,448.9,492.52,447.57,491.77z" class="st1"/><path d="M402.82,464.12c-1.33-0.75-2.41-2.77-2.41-4.51v-5.22c0-0.28,0.04-0.52,0.09-0.75l-0.06-0.03 c-1.33-0.75-2.41,0.05-2.41,1.78v5.22c0,1.74,1.08,3.76,2.41,4.51l47.13,26.65c1.12,0.63,2.05,0.16,2.32-1.03L402.82,464.12z" class="st11"/><path d="M432.78,477.46l-28.36-16.04c-0.47-0.26-0.85-0.97-0.85-1.59l0,0c0-0.61,0.38-0.89,0.85-0.63l28.36,16.04 c0.47,0.26,0.85,0.97,0.85,1.59l0,0C433.63,477.44,433.25,477.72,432.78,477.46z" class="st4"/></g><polygon points="390.52 320.41 395.44 323.19 395.44 342.69 390.52 339.9" class="st0"/><polygon points="390.52 351.25 395.44 354.04 395.44 373.53 390.52 370.75" class="st0"/><polygon points="390.52 382.1 395.44 384.88 395.44 404.38 390.52 401.6" class="st0"/><polygon points="390.52 412.95 395.44 415.73 395.44 435.23 390.52 432.44" class="st0"/><polygon points="390.52 443.79 395.44 446.58 395.44 466.07 390.52 463.29" class="st0"/><path d="M438.37,355.95c0,0.62-0.45,0.88-1,0.56c-0.55-0.31-1-1.07-1-1.69c0-0.62,0.45-0.88,1-0.56	C437.92,354.57,438.37,355.33,438.37,355.95z" class="st4"/><path d="M442.6,358.34c0,0.62-0.45,0.88-1,0.56c-0.55-0.31-1-1.07-1-1.69s0.45-0.88,1-0.56	C442.15,356.96,442.6,357.72,442.6,358.34z" class="st6"/><path d="M446.83,360.73c0,0.62-0.45,0.88-1,0.56c-0.55-0.31-1-1.07-1-1.69s0.45-0.88,1-0.56	C446.38,359.35,446.83,360.11,446.83,360.73z" class="st4"/><path d="M438.37,386.78c0,0.62-0.45,0.88-1,0.56c-0.55-0.31-1-1.07-1-1.69c0-0.62,0.45-0.88,1-0.56	C437.92,385.4,438.37,386.16,438.37,386.78z" class="st6"/><path d="M442.6,389.17c0,0.62-0.45,0.88-1,0.56c-0.55-0.31-1-1.07-1-1.69c0-0.62,0.45-0.88,1-0.56	C442.15,387.79,442.6,388.55,442.6,389.17z" class="st4"/><path d="M446.83,391.56c0,0.62-0.45,0.88-1,0.56c-0.55-0.31-1-1.07-1-1.69c0-0.62,0.45-0.88,1-0.56	C446.38,390.18,446.83,390.94,446.83,391.56z" class="st5"/><path d="M438.37,417.84c0,0.62-0.45,0.88-1,0.56c-0.55-0.31-1-1.07-1-1.69c0-0.62,0.45-0.88,1-0.56	C437.92,416.46,438.37,417.22,438.37,417.84z" class="st5"/><path d="M442.6,420.23c0,0.62-0.45,0.88-1,0.56c-0.55-0.31-1-1.07-1-1.69c0-0.62,0.45-0.88,1-0.56	C442.15,418.85,442.6,419.61,442.6,420.23z" class="st6"/><path d="M446.83,422.63c0,0.62-0.45,0.88-1,0.56c-0.55-0.31-1-1.07-1-1.69c0-0.62,0.45-0.88,1-0.56	C446.38,421.24,446.83,422,446.83,422.63z" class="st5"/><path d="M438.37,448.45c0,0.62-0.45,0.88-1,0.56c-0.55-0.31-1-1.07-1-1.69c0-0.62,0.45-0.88,1-0.56	C437.92,447.07,438.37,447.83,438.37,448.45z" class="st5"/><path d="M442.6,450.85c0,0.62-0.45,0.88-1,0.56c-0.55-0.31-1-1.07-1-1.69c0-0.62,0.45-0.88,1-0.56	C442.15,449.46,442.6,450.22,442.6,450.85z" class="st4"/><path d="M446.83,453.24c0,0.62-0.45,0.88-1,0.56c-0.55-0.31-1-1.07-1-1.69c0-0.62,0.45-0.88,1-0.56	C446.38,451.86,446.83,452.61,446.83,453.24z" class="st4"/><path d="M438.37,479.48c0,0.62-0.45,0.88-1,0.56c-0.55-0.31-1-1.07-1-1.69c0-0.62,0.45-0.88,1-0.56	C437.92,478.1,438.37,478.86,438.37,479.48z" class="st5"/><path d="M442.6,481.87c0,0.62-0.45,0.88-1,0.56c-0.55-0.31-1-1.07-1-1.69c0-0.62,0.45-0.88,1-0.56	C442.15,480.49,442.6,481.25,442.6,481.87z" class="st6"/><path d="M446.83,484.27c0,0.62-0.45,0.88-1,0.56c-0.55-0.31-1-1.07-1-1.69c0-0.62,0.45-0.88,1-0.56	C446.38,482.89,446.83,483.64,446.83,484.27z" class="st4"/><g><path d="M468.47,493.19V355.17l0.29-0.16l58.9-33.3v138.02l-0.29,0.16L468.47,493.19z M469.63,355.83v135.38 l56.86-32.15V323.69L469.63,355.83z" class="st1"/></g><path d="M512.36,383.81l-26.41,14.93c-1.77,1-3.21-0.06-3.21-2.38v-14.34c0-2.32,1.44-5.01,3.21-6.01l26.41-14.93	c1.77-1,3.21,0.06,3.21,2.38v14.34C515.57,380.11,514.13,382.8,512.36,383.81z" class="st1"/><path d="M513,360.8c0.15,0.4,0.24,0.88,0.24,1.44v14.34c0,2.32-1.44,5.01-3.21,6.01l-26.41,14.93	c-0.22,0.12-0.43,0.22-0.64,0.28c0.48,1.27,1.63,1.7,2.97,0.94l26.41-14.93c1.77-1,3.21-3.69,3.21-6.01v-14.34	C515.57,361.43,514.46,360.36,513,360.8z" class="st6"/><g><g><path d="M507.53,375.17c0.49-0.28,0.88-0.05,0.88,0.5v3.27c0,0.55-0.4,1.22-0.88,1.5c-0.49,0.28-0.88,0.05-0.88-0.5 v-3.27C506.65,376.12,507.04,375.45,507.53,375.17z" class="st5"/><path d="M503.74,377.72c0.49-0.28,0.88-0.05,0.88,0.5v2.86c0,0.55-0.4,1.22-0.88,1.5c-0.49,0.28-0.88,0.05-0.88-0.5 v-2.86C502.86,378.67,503.25,378,503.74,377.72z" class="st4"/><path d="M499.95,376.67c0.49-0.28,0.88-0.05,0.88,0.5v6.05c0,0.55-0.4,1.22-0.88,1.5c-0.49,0.28-0.88,0.05-0.88-0.5 v-6.05C499.07,377.62,499.47,376.95,499.95,376.67z" class="st6"/><path d="M496.17,375.33c0.49-0.28,0.88-0.05,0.88,0.5v9.53c0,0.55-0.4,1.22-0.88,1.5c-0.49,0.28-0.88,0.05-0.88-0.5 v-9.53C495.28,376.28,495.68,375.61,496.17,375.33z" class="st4"/><path d="M492.38,378.47c0.49-0.28,0.88-0.05,0.88,0.5v8.53c0,0.55-0.4,1.22-0.88,1.5c-0.49,0.28-0.88,0.05-0.88-0.5 v-8.53C491.49,379.42,491.89,378.75,492.38,378.47z" class="st4"/><path d="M488.59,384.51c0.49-0.28,0.88-0.05,0.88,0.5v4.63c0,0.55-0.4,1.22-0.88,1.5c-0.49,0.28-0.88,0.05-0.88-0.5 v-4.63C487.71,385.46,488.1,384.79,488.59,384.51z" class="st5"/></g><path d="M506.66,373.52c0,0.54,0.39,0.76,0.87,0.49c0.48-0.27,0.87-0.93,0.87-1.47c0-0.54-0.39-0.76-0.87-0.49 C507.05,372.32,506.66,372.98,506.66,373.52z" class="st6"/><path d="M506.66,370.45c0,0.54,0.39,0.76,0.87,0.49c0.48-0.27,0.87-0.93,0.87-1.47c0-0.54-0.39-0.76-0.87-0.49 C507.05,369.25,506.66,369.91,506.66,370.45z" class="st5"/></g><g><path d="M46.15,332.57L8.27,311.15c-2.32-1.31-2.03-3.61,0.65-5.13l36.58-20.68c2.68-1.52,6.75-1.68,9.07-0.37 l37.88,21.42c2.32,1.31,2.03,3.61-0.65,5.13L55.22,332.2C52.53,333.72,48.47,333.88,46.15,332.57z" class="st0"/><path d="M94,285.85L94,285.85v-12.8l-29.31-0.02l-10.13-5.73c-2.32-1.31-6.39-1.15-9.07,0.37l-9.45,5.34L6.71,273 v13.16c-0.07,0.89,0.44,1.75,1.56,2.38l37.88,21.42c2.32,1.31,6.39,1.15,9.07-0.37l36.58-20.68 C93.34,288.04,94.09,286.91,94,285.85z" class="st2"/><path d="M50.36,266.43c-1.7,0.04-3.47,0.46-4.86,1.25l-9.45,5.34L6.71,273v13.16c-0.07,0.89,0.44,1.75,1.56,2.38 l37.88,21.42c1.12,0.63,2.64,0.92,4.21,0.88V266.43z" class="st2"/><path d="M10.03,273.01l-3.32,0v13.16c-0.07,0.89,0.44,1.75,1.56,2.38l1.76,1V273.01z" class="st6"/><path d="M46.73,310.25c2.01,0.84,4.91,0.79,7.25-0.08v-14.95h-7.25V310.25z" class="st6"/><path d="M46.15,296.85L8.27,275.43c-2.32-1.31-2.03-3.61,0.65-5.13l36.58-20.68c2.68-1.52,6.75-1.68,9.07-0.37 l37.88,21.42c2.32,1.31,2.03,3.61-0.65,5.13l-36.58,20.68C52.53,298,48.47,298.16,46.15,296.85z" class="st4"/><path d="M91.79,273.28l-36.58,20.68c-2.68,1.52-6.75,1.68-9.07,0.37L8.27,272.91c-0.52-0.29-0.9-0.64-1.16-1.01 c-0.8,1.26-0.44,2.62,1.16,3.53l37.88,21.42c2.32,1.31,6.39,1.15,9.07-0.37l36.58-20.68c2.09-1.18,2.72-2.83,1.81-4.12 C93.24,272.25,92.64,272.81,91.79,273.28z" class="st5"/><g><path d="M80.07,289.23c0,0.96-0.68,2.12-1.53,2.6c-0.85,0.48-1.53,0.09-1.53-0.87c0-0.96,0.68-2.12,1.53-2.6 C79.39,287.89,80.07,288.27,80.07,289.23z" class="st4"/><path d="M84.99,286.45c0,0.96-0.68,2.12-1.53,2.6c-0.84,0.48-1.53,0.09-1.53-0.86c0-0.96,0.68-2.12,1.53-2.6 C84.31,285.1,84.99,285.49,84.99,286.45z" class="st4"/><path d="M89.92,283.66c0,0.96-0.68,2.12-1.53,2.6c-0.84,0.48-1.53,0.09-1.53-0.86c0-0.96,0.68-2.12,1.53-2.6 C89.23,282.32,89.92,282.71,89.92,283.66z" class="st4"/></g><g><path d="M48.39,283.57l-17.73-10.02c-1.09-0.62-0.95-1.69,0.3-2.4l17.12-9.68c1.26-0.71,3.16-0.79,4.24-0.17 l17.73,10.02c1.09,0.62,0.95,1.69-0.3,2.4l-17.12,9.68C51.38,284.11,49.48,284.19,48.39,283.57z" class="st6"/><path d="M50.09,275.18l-2.45-1.39c-0.15-0.09-0.13-0.23,0.04-0.33l2.37-1.34c0.17-0.1,0.44-0.11,0.59-0.02l2.45,1.39 c0.15,0.09,0.13,0.23-0.04,0.33l-2.37,1.34C50.5,275.25,50.24,275.26,50.09,275.18z" class="st4"/><path d="M30.66,273.55l0.05,0.03c0.08-0.06,0.16-0.12,0.25-0.17l17.12-9.68c1.26-0.71,3.16-0.79,4.24-0.17L70,273.55 c1-0.7,1.06-1.66,0.05-2.23L52.33,261.3c-1.09-0.62-2.99-0.54-4.24,0.17l-17.12,9.68C29.71,271.86,29.58,272.93,30.66,273.55z" class="st2"/></g></g><g><polygon points="523.36 91.86 522.64 89.13 530.86 87.11 531.58 89.83" class="st6"/><polygon points="519.17 95.8 518.44 93.07 526.66 91.04 527.39 93.77" class="st6"/><polygon points="514.97 99.74 514.25 97.01 522.47 94.98 523.19 97.71" class="st6"/><polygon points="510.78 103.67 510.05 100.95 518.27 98.92 519 101.65" class="st6"/></g><g><path d="M99.94,43.03l1.7-2.77c0,0,1.42,0.75,2.94,0.29c1.21-0.37,2.27-1.42,3.13-3.14c3.03-6.04,8.62-6.5,11.16-5.9 l-0.8,3.12l0.4-1.56l-0.39,1.56c-0.49-0.11-4.82-0.9-7.36,4.17c-1.29,2.57-3.04,4.2-5.2,4.83 C102.63,44.48,100.21,43.18,99.94,43.03z" class="st6"/></g><path d="M56.85,138.48c-8.44,0-15.31-6.61-15.31-14.73c0-8.12,6.87-14.73,15.31-14.73s15.31,6.61,15.31,14.73	C72.15,131.87,65.29,138.48,56.85,138.48z M56.85,112.23c-6.6,0-11.97,5.17-11.97,11.52c0,6.35,5.37,11.52,11.97,11.52	s11.97-5.17,11.97-11.52C68.81,117.4,63.44,112.23,56.85,112.23z" class="st4"/><path d="M37.73,448.48l-7.37-14.42l14.98-7.09l7.37,14.42L37.73,448.48z M34.83,435.52l4.42,8.66l8.99-4.26l-4.42-8.66	L34.83,435.52z" class="st6"/><polygon points="426.83 33 419.95 36.26 416.56 29.63 423.45 26.37" class="st6"/><g><polygon points="240.9 85.05 238.54 82.78 249.76 71.98 252.12 74.25" class="st4"/><polygon points="249.76 85.05 238.54 74.25 240.9 71.98 252.12 82.78" class="st4"/></g><path d="M88.01,215.18c0,4.19-3.53,7.58-7.88,7.58c-4.35,0-7.88-3.39-7.88-7.58c0-4.19,3.53-7.58,7.88-7.58	C84.48,207.6,88.01,210.99,88.01,215.18z" class="st4"/><path d="M232.7,498.7c0,2.43-2.05,4.41-4.58,4.41s-4.58-1.97-4.58-4.41s2.05-4.41,4.58-4.41S232.7,496.27,232.7,498.7z" class="st4"/><g><polygon points="313.9 519.05 311.54 516.78 322.76 505.98 325.12 508.25" class="st4"/><polygon points="322.76 519.05 311.54 508.25 313.9 505.98 325.12 516.78" class="st4"/></g><g><g><path d="M140.96,412.16c0,0-5.07-2.56-8.18,1.25c-3.11,3.81-7.56,12.79-7.7,18.87c-0.14,6.07,4.81,5.66,7.74,4.23 c2.94-1.44,11.52-13.89,12.04-16.33c0.52-2.44-0.61-5.74-1.44-6.38C142.59,413.14,140.96,412.16,140.96,412.16z" class="st6"/><path d="M142.06,410.94l0.23,5.25c0.05,1.12-0.51,2.18-1.48,2.73c-0.89,0.5-2.17,0.89-3.91,0.61 c-3.82-0.61-4.16-1.7-4.43-6.96S142.06,410.94,142.06,410.94z" class="st4"/><g><path d="M122.4,402.06c0,0-5.07-2.56-8.18,1.25c-3.11,3.81-7.56,12.79-7.7,18.87c-0.14,6.07,4.81,5.66,7.74,4.23 c2.94-1.44,11.52-13.89,12.04-16.33c0.52-2.44-0.61-5.74-1.44-6.38C124.04,403.04,122.4,402.06,122.4,402.06z" class="st6"/><path d="M123.51,400.84l0.23,5.25c0.05,1.12-0.51,2.18-1.48,2.73c-0.89,0.5-2.17,0.89-3.91,0.61 c-3.82-0.61-4.16-1.71-4.43-6.96C113.64,397.22,123.51,400.84,123.51,400.84z" class="st4"/><path d="M168.74,304.4c-1.5-24.41-26.44,3.59-26.44,3.59l-17.07,16.73l-15.37,16.89c-3,3.3-4.4,7.75-3.82,12.17 l6.22,47.35c0.31,2.34,2.31,4.06,4.67,4.04c0.67-0.01,1.43-0.07,2.3-0.2c5.55-0.86,5.14-6.14,5.14-6.14l-1.14-44.28l32.28-19.46 C155.51,335.09,170.24,328.82,168.74,304.4z" class="st1"/></g><path d="M187.3,313.71c-1.5-24.42-26.44,3.59-26.44,3.59l-17.07,16.73l-15.37,16.89c-3,3.3-4.4,7.75-3.82,12.17 l6.22,47.35c0.31,2.34,2.31,4.06,4.67,4.04c0.67-0.01,1.43-0.07,2.3-0.2c5.55-0.86,5.14-6.14,5.14-6.14l-1.14-44.28l32.28-19.46 C174.07,344.4,188.8,338.12,187.3,313.71z" class="st1"/><path d="M172.55,235.33c18.91,7.84,18.53,19.02,18.53,19.02s-3.7,40.98-2.44,68.34 c0.53,11.44-60.78,12.31-51.64-18.21c10.78-35.99,6.74-65.12,11.79-69.51C153.83,230.58,167.66,233.31,172.55,235.33z" class="st6"/><path d="M178.63,245.24c-0.99,3.84-6.02,5.86-11.23,4.52c-5.22-1.34-8.64-5.54-7.65-9.38 c0.99-3.84,6.02-5.86,11.23-4.52C176.19,237.2,179.62,241.4,178.63,245.24z" class="st12"/><path d="M170.59,251.08c-1.11,0-2.26-0.14-3.42-0.44c-5.69-1.46-9.41-6.17-8.3-10.48c1.11-4.31,6.64-6.64,12.34-5.17 c2.71,0.7,5.06,2.14,6.63,4.06c1.63,2,2.23,4.28,1.67,6.43C178.62,248.91,174.93,251.08,170.59,251.08z M167.74,236.35 c-3.51,0-6.45,1.63-7.12,4.26c-0.86,3.35,2.28,7.07,7.01,8.28c4.72,1.21,9.27-0.52,10.13-3.87c0.4-1.57-0.07-3.29-1.33-4.83 c-1.33-1.62-3.34-2.85-5.68-3.45C169.73,236.47,168.71,236.35,167.74,236.35z" class="st5"/><path d="M164.97,234.48c0,0,0.16,0.76-0.16,6.75c-0.1,1.88,6.49,3.64,8.2,1.94s1.02-3.48,1.43-9.89 C174.84,226.87,164.97,234.48,164.97,234.48z" class="st12"/><path d="M174.43,233.28c0,0-1.62,5.94-9.63,8.22l0.12-5.4L174.43,233.28z" class="st13"/><path d="M179.5,218.18c2.01,7.78-2.67,15.72-10.45,17.73c-7.78,2.01-15.72-2.67-17.73-10.45 c-2.01-7.78,2.67-15.72,10.45-17.73C169.55,205.72,177.49,210.4,179.5,218.18z" class="st12"/><path d="M168.76,222.36c0,0-8.01,3.43-13.56,3.47c-5.55,0.04-4.33-4.61-4.33-4.61l16.47-2.38L168.76,222.36z" class="st13"/><path d="M153.54,223.26c0,0,6.98-2.96,13.1-1.73c1.44,0.29,2.77,1.06,3.7,2.2c0.3,0.37,0.69,0.71,1.12,0.81 c1.09,0.25,2.86-4.26,4.97-4.36c2.11-0.1,3.52,1.39,1.79,4.16c-1.73,2.77-1.15,5.87-0.35,6.32c0.8,0.44,9.24-6.02,1.79-20.78 c-7.45-14.76-26.38-6.81-29.32-3.82c0,0-3.1,2.7-5.62,0.3C144.73,206.35,141.9,227.53,153.54,223.26z" class="st1"/><path d="M180.47,284.29v11.07c0,1.27-0.53,2.48-1.47,3.33l-22.75,20.74l2.58,3.95l30.04-21.78 c1.4-1.02,2.31-2.58,2.49-4.3l2.03-19.31L180.47,284.29z" class="st12"/><path d="M189.48,248.81c0,0,6.9,10.38,9.47,37.69c0,0-11.79,3.81-18.48,1.65 C173.78,285.99,189.48,248.81,189.48,248.81z" class="st6"/><path d="M179.21,261.93c0,0-2.7,14.46-2.85,21.25c-0.04,1.87,1.1,3.55,2.85,4.19l0,0V261.93z" class="st2"/></g><g><path d="M173.31,333.83l-5.03-0.66l-32.45-18.74c-1.04-0.6-2.86-0.53-4.06,0.17l-23,13.27l-3.04-0.4v3.03l0,0 c-0.02,0.4,0.21,0.78,0.7,1.07l36.78,21.23c1.04,0.6,2.86,0.53,4.06-0.17l25.04-14.45c0.68-0.39,1.01-0.89,0.99-1.37l0,0V333.83z" class="st6"/><path d="M148.93,321.99l-2.31-1.33h-25.35l-12.5,7.21l-3.04-0.4v3.03l0,0c-0.02,0.4,0.21,0.78,0.7,1.07l36.78,21.23 c0.55,0.32,1.32,0.44,2.09,0.39L148.93,321.99z" class="st2"/><path d="M107.08,327.64l-1.35-0.18v3.03l0,0c-0.02,0.4,0.21,0.78,0.7,1.07l0.65,0.37V327.64z" class="st6"/><path d="M143.58,352.96c0.99,0.37,2.4,0.29,3.45-0.21v-5.15h-3.45V352.96z" class="st5"/><path d="M143.21,349.77l-36.78-21.23c-1.04-0.6-0.91-1.65,0.29-2.34l25.04-14.45c1.2-0.69,3.02-0.77,4.06-0.17 l36.78,21.23c1.04,0.6,0.91,1.65-0.29,2.34l-25.04,14.45C146.07,350.29,144.25,350.37,143.21,349.77z" class="st5"/><path d="M142.59,346.55l-30.58-17.66c-0.87-0.5-0.76-1.37,0.24-1.95l13.42-7.55c1-0.58,2.51-0.64,3.38-0.14 l30.58,17.66c0.87,0.5,0.76,1.37-0.24,1.95l-13.42,7.55C144.97,346.99,143.46,347.05,142.59,346.55z" class="st4"/></g><path d="M133.19,311.04l-0.38,2.54c-0.32,2.16-0.27,4.36,0.17,6.51l0.45,2.24c0.26,1.26,1.25,2.24,2.52,2.47l0,0 c0.99,0.18,1.92-0.52,2.03-1.51l0.61-5.43c0,0,1.39,1.82,2.06,1.82c0.67,0-0.75-5.43-2.27-8.51 C136.87,308.09,133.19,311.04,133.19,311.04z" class="st12"/><path d="M145.66,270.71l-3.95,7.81c-0.93,1.85-1.48,3.86-1.62,5.93l-1.71,26.72l-5.19-0.12l-2.36-30 c-0.07-0.93-0.03-1.86,0.13-2.77l2.69-15.21L145.66,270.71z" class="st12"/><g><path d="M141.97,351.81l-3.08-4.03L106.46,329c-1.04-0.6-1.88-2.21-1.88-3.6l0.03-26.55l-1.86-2.43l1.75-1.01l0,0 c0.34-0.22,0.78-0.21,1.27,0.07l36.75,21.28c1.04,0.6,1.88,2.21,1.88,3.6l-0.03,28.91c0,0.78-0.27,1.32-0.69,1.54l0,0 L141.97,351.81z" class="st1"/><path d="M119.54,336.58l-2.3-1.33l-12.65-21.97l0.01-14.43l-1.86-2.43l1.75-1.01l0,0c0.34-0.22,0.78-0.21,1.27,0.07 l36.75,21.28c0.55,0.32,1.04,0.92,1.39,1.62L119.54,336.58z" class="st2"/><path d="M103.57,297.5l-0.83-1.08l1.75-1.01l0,0c0.34-0.22,0.78-0.21,1.27,0.07l0.65,0.38L103.57,297.5z" class="st6"/><path d="M142.85,316.99c0.82,0.67,1.45,1.93,1.54,3.1l-3.59,2.07l-1.72-2.99L142.85,316.99z" class="st3"/><path d="M140.77,317.77l-36.75-21.28c-1.04-0.6-1.88,0.03-1.89,1.42l-0.03,28.91c0,1.39,0.84,3,1.88,3.6l36.75,21.28 c1.04,0.6,1.88-0.03,1.89-1.42l0.03-28.91C142.65,319.99,141.81,318.37,140.77,317.77z" class="st6"/></g><path d="M158.84,323.38l-0.59,1.22c-0.68,1.4-1.74,2.59-3.07,3.4l-3.65,2.25c-1.14,0.7-2.57,0.76-3.73,0.09 c-0.04-0.02-0.08-0.05-0.12-0.08c-1.16-0.73-1.27-2.39-0.31-3.37l3.81-3.92c0,0-2.14,1.64-2.74,0.98 c-0.44-0.48,2.08-2.85,4.01-2.93c1.93-0.08,3.81-1.6,3.81-1.6L158.84,323.38z" class="st12"/><path d="M149.16,234.91c0,0-13.99,15.22-19.63,29.18c0,0,4.78,8.62,16.49,12 C157.73,279.47,149.16,234.91,149.16,234.91z" class="st6"/><path d="M143.39,275.18l2.27-21.9l-5.34,20.51C141.27,274.3,142.3,274.76,143.39,275.18z" class="st2"/><path d="M159.64,231.84l-3.76-1.03c0,0,1.79,2.82,4.41,3.54c2.62,0.72,3.03-1.5,3.03-1.5L159.64,231.84z" class="st5"/></g></svg>