<svg xmlns="http://www.w3.org/2000/svg" xmlns:xlink="http://www.w3.org/1999/xlink" id="Layer_1" x="0" y="0" enable-background="new 0 0 550 550" version="1.1" viewBox="0 0 550 550" xml:space="preserve"><style type="text/css">.st0{opacity:.5;fill:#c4d9e8}.st1{fill:#173d7a}.st2{fill:#396caa}.st3{fill:#b2d3ea}.st4{fill:#274f89}.st5{fill:#d4ecff}.st6{fill:#fff}.st7{fill:#5793ce}.st8{opacity:.5}.st9{fill:#21539b}.st10{fill:#3a76bf}.st11{fill:#2c6cb7}.st12{fill:#3d8ee0}.st13{fill:#012c4f}.st14{fill:#ffc2b0}.st15{fill:#295c8e}.st16{fill:#ea9c92}.st17{fill:#98d2f9}.st18{fill:#033d77}.st19{fill:#2457a0}.st20{fill:#3073c4}.st21{fill:#15529b}.st22{fill:#1b538c}.st23{fill:#143c6d}.st24{fill:#12477c}.st25{fill:#2e6fbc}.st26{fill:#5094d8}.st27{fill:#4f91e0}.st28{fill:#2a65ba}.st29{fill:#8ccdf9}.st30{fill:#1f5099}.st31{fill:#69bbe8}.st32{fill:#2765af}</style><g><path d="M494.4,359.38l-32.27-18.78c-2.72-1.57-2.38-4.32,0.76-6.14l30.76-17.92c3.14-1.82,7.9-2.01,10.63-0.44 l32.27,18.78c2.72,1.57,2.38,4.32-0.76,6.13l-30.76,17.92C501.89,360.75,497.13,360.95,494.4,359.38z" class="st0"/><path d="M538.38,319.58L538.38,319.58v-6.47l-34.33-0.02l0.24-0.01c-2.72-1.57-7.48-1.38-10.63,0.44l1.02-0.42 l-34.37-0.02v6.9c-0.08,1.06,0.52,2.09,1.82,2.85l32.27,18.78c2.72,1.57,7.48,1.38,10.63-0.44l30.76-17.92 C537.6,322.2,538.48,320.84,538.38,319.58z" class="st1"/><path d="M499.35,312.03c-1.99,0.05-4.06,0.55-5.7,1.49l1.02-0.42l-34.37-0.02v6.9c-0.08,1.06,0.52,2.09,1.82,2.85 l32.27,18.78c1.31,0.76,3.09,1.1,4.93,1.05L499.35,312.03z" class="st2"/><path d="M464.2,313.08l-3.89,0v6.9c-0.08,1.06,0.52,2.09,1.82,2.85l2.06,1.19V313.08z" class="st3"/><path d="M495.09,341.94c2.35,1.01,5.75,0.95,8.49-0.1v-9.03h-8.49V341.94z" class="st4"/><path d="M494.4,334.76l-32.27-18.78c-2.72-1.57-2.38-4.32,0.76-6.13l30.76-17.92c3.14-1.82,7.9-2.01,10.63-0.44 l32.27,18.78c2.72,1.57,2.38,4.32-0.76,6.13l-30.76,17.92C501.89,336.14,497.13,336.34,494.4,334.76z" class="st5"/></g><path d="M171.92,229.52c-12.29,7.1-32.22,7.1-44.52,0c-12.29-7.1-12.29-18.6,0-25.7c12.29-7.1,32.22-7.1,44.52,0	C184.21,210.92,184.21,222.42,171.92,229.52z" class="st0"/><g><path d="M265.66,458.75L67.32,344.23c-5.61-3.24-4.91-8.9,1.57-12.64l135.05-77.95c6.48-3.74,16.28-4.15,21.89-0.91 l198.34,114.51c5.61,3.24,4.91,8.9-1.57,12.64l-135.05,77.95C281.07,461.58,271.27,461.99,265.66,458.75z" class="st0"/><path d="M475.04,157.25L272.81,40.49c-2.35-1.36-4.74-1.57-6.85-0.84l0.01-0.02l-0.37,0.14 c-0.03,0.01-0.06,0.02-0.09,0.03l-7.31,2.8l6.56,3.21c-0.03,0.12-0.07,0.23-0.09,0.36l-32.94,149.94 c-1.65,7.5,1.65,16.26,7.37,19.57l197.37,113.95l-0.7,8.36l7.99-3.1c2.68-1.26,4.83-4.09,5.72-8.14l32.94-149.94 C484.07,169.31,480.77,160.55,475.04,157.25z" class="st1"/><path d="M475.04,157.25L272.81,40.49c-2.35-1.36-4.74-1.57-6.85-0.84l0.01-0.02l-0.37,0.14 c-0.03,0.01-0.06,0.02-0.09,0.03l-7.31,2.8l6.56,3.21c-0.03,0.12-0.07,0.23-0.09,0.36l-21.71,98.82l98.95,77.09l139.52-56.77 C480.09,161.83,477.86,158.88,475.04,157.25z" class="st2"/><path d="M467.42,180.3l15.39-6.55c0.28-5.96-2.19-12.12-6.24-15.42l-24.37,10.25L467.42,180.3z" class="st4"/><path d="M428.74,337.2L226.51,220.44c-5.72-3.3-9.02-12.06-7.37-19.57l32.94-149.94c1.65-7.5,7.62-10.91,13.34-7.61 l202.23,116.76c5.72,3.3,9.02,12.06,7.37,19.57l-32.94,149.94C440.44,337.09,434.47,340.5,428.74,337.2z" class="st5"/><path d="M424.36,326.04l-190.2-109.76c-5.24-3.02-8.26-11.04-6.75-17.91l30.14-137.21c1.51-6.87,6.98-9.98,12.21-6.96 l190.2,109.76c5.23,3.02,8.26,11.04,6.75,17.91l-30.14,137.21C435.06,325.95,429.6,329.07,424.36,326.04z" class="st6"/><path d="M424.36,326.04l-190.2-109.76c-5.24-3.02-8.26-11.04-6.75-17.91l30.14-137.21c1.51-6.87,6.98-9.98,12.21-6.96 l190.2,109.76c5.23,3.02,8.26,11.04,6.75,17.91l-30.14,137.21C435.06,325.95,429.6,329.07,424.36,326.04z" class="st6"/><path d="M431.54,342.28l-27.64-3.65L225.45,235.61c-5.72-3.3-15.71-2.89-22.32,0.93L76.68,309.51l-16.72-2.21v9.48 l0.02,0c-0.11,2.19,1.14,4.3,3.84,5.86L266.05,439.4c5.72,3.3,15.71,2.89,22.32-0.93L426.08,359c3.72-2.15,5.57-4.91,5.46-7.51h0 V342.28z" class="st1"/><path d="M297.46,277.18l-12.68-7.32H145.4l-68.71,39.65l-16.72-2.21v9.48l0.02,0c-0.11,2.19,1.14,4.3,3.84,5.86 L266.05,439.4c3.02,1.75,7.24,2.44,11.52,2.16L297.46,277.18z" class="st2"/><path d="M67.38,308.28l-7.42-0.98v9.48l0.02,0c-0.11,2.19,1.14,4.3,3.84,5.86l3.56,2.06V308.28z" class="st7"/><path d="M268.09,440.35c5.42,2.06,13.18,1.61,18.96-1.18v-21.15h-18.96V440.35z" class="st4"/><path d="M266.05,429.93L63.82,313.17c-5.72-3.3-5-9.07,1.6-12.89l137.7-79.48c6.61-3.81,16.6-4.23,22.32-0.93 l202.23,116.76c5.72,3.3,5,9.07-1.6,12.89l-137.71,79.48C281.77,432.82,271.77,433.23,266.05,429.93z" class="st5"/><g><path d="M149.83,274.52l-9.15-5.28c-0.73-0.42-0.64-1.16,0.21-1.65l10.8-6.24c0.85-0.49,2.13-0.54,2.87-0.12 l9.15,5.28c0.73,0.42,0.64,1.17-0.21,1.65l-10.8,6.24C151.85,274.89,150.57,274.94,149.83,274.52z" class="st1"/><path d="M163.96,282.68l-9.15-5.28c-0.73-0.42-0.64-1.17,0.21-1.65l10.8-6.24c0.85-0.49,2.13-0.54,2.87-0.12 l9.15,5.28c0.73,0.42,0.64,1.17-0.21,1.65l-10.8,6.24C165.98,283.05,164.7,283.1,163.96,282.68z" class="st1"/><path d="M178.09,290.84l-9.15-5.28c-0.73-0.42-0.64-1.17,0.21-1.65l10.8-6.24c0.85-0.49,2.13-0.54,2.87-0.12 l9.15,5.28c0.73,0.42,0.64,1.17-0.21,1.65l-10.8,6.24C180.11,291.21,178.83,291.26,178.09,290.84z" class="st1"/><path d="M197.64,284.1l-9.15-5.28c-0.73-0.42-0.64-1.17,0.21-1.65l9.07-5.23c0.85-0.49,2.13-0.54,2.87-0.12l9.15,5.28 c0.73,0.42,0.64,1.17-0.21,1.65l-9.07,5.23C199.65,284.47,198.37,284.52,197.64,284.1z" class="st1"/><path d="M211.77,292.26l-9.15-5.28c-0.73-0.42-0.64-1.17,0.21-1.65l9.07-5.23c0.85-0.49,2.13-0.54,2.87-0.12 l9.15,5.28c0.73,0.42,0.64,1.17-0.21,1.65l-9.07,5.23C213.78,292.63,212.5,292.68,211.77,292.26z" class="st1"/><path d="M225.9,300.41l-9.15-5.28c-0.73-0.42-0.64-1.17,0.21-1.65l9.07-5.23c0.85-0.49,2.13-0.54,2.87-0.12l9.15,5.28 c0.73,0.42,0.64,1.17-0.21,1.65l-9.07,5.23C227.92,300.79,226.63,300.84,225.9,300.41z" class="st1"/><path d="M240.03,308.57l-9.15-5.28c-0.73-0.42-0.64-1.17,0.21-1.65l9.07-5.23c0.85-0.49,2.13-0.54,2.87-0.12 l9.15,5.28c0.73,0.42,0.64,1.16-0.21,1.65l-9.07,5.23C242.05,308.94,240.76,309,240.03,308.57z" class="st1"/><path d="M254.16,316.73l-9.15-5.28c-0.73-0.42-0.64-1.17,0.21-1.65l9.07-5.23c0.85-0.49,2.13-0.54,2.87-0.12 l9.15,5.28c0.73,0.42,0.64,1.17-0.21,1.65l-9.07,5.23C256.18,317.1,254.89,317.16,254.16,316.73z" class="st1"/><path d="M268.29,324.89l-9.15-5.28c-0.73-0.42-0.64-1.17,0.21-1.65l9.07-5.23c0.85-0.49,2.13-0.54,2.87-0.12 l9.15,5.28c0.73,0.42,0.64,1.17-0.21,1.65l-9.07,5.23C270.31,325.26,269.02,325.31,268.29,324.89z" class="st1"/><path d="M282.42,333.05l-9.15-5.28c-0.73-0.42-0.64-1.17,0.21-1.65l9.07-5.23c0.85-0.49,2.13-0.54,2.87-0.12 l9.15,5.28c0.73,0.42,0.64,1.17-0.21,1.65l-9.07,5.23C284.44,333.42,283.15,333.47,282.42,333.05z" class="st1"/><path d="M296.55,341.21l-9.15-5.28c-0.73-0.42-0.64-1.17,0.21-1.65l9.07-5.23c0.85-0.49,2.13-0.54,2.87-0.12 l9.15,5.28c0.73,0.42,0.64,1.17-0.21,1.65l-9.07,5.23C298.57,341.58,297.29,341.63,296.55,341.21z" class="st1"/><path d="M310.68,349.36l-9.15-5.28c-0.73-0.42-0.64-1.17,0.21-1.65l9.07-5.23c0.85-0.49,2.13-0.54,2.87-0.12 l9.15,5.28c0.73,0.42,0.64,1.17-0.21,1.65l-9.07,5.23C312.7,349.74,311.42,349.79,310.68,349.36z" class="st1"/><path d="M324.81,357.52l-9.15-5.28c-0.73-0.42-0.64-1.17,0.21-1.65l9.07-5.23c0.85-0.49,2.13-0.54,2.87-0.12 l9.15,5.28c0.73,0.42,0.64,1.17-0.21,1.65l-9.07,5.23C326.83,357.89,325.55,357.95,324.81,357.52z" class="st1"/><path d="M218.46,280.24l-9.15-5.28c-0.73-0.42-0.64-1.17,0.21-1.65l9.07-5.23c0.85-0.49,2.13-0.54,2.87-0.12 l9.15,5.28c0.73,0.42,0.64,1.17-0.21,1.65l-9.07,5.23C220.47,280.61,219.19,280.66,218.46,280.24z" class="st2"/><path d="M204.12,271.96l-9.15-5.28c-0.73-0.42-0.64-1.17,0.21-1.65l9.07-5.23c0.85-0.49,2.13-0.54,2.87-0.12 l9.15,5.28c0.73,0.42,0.64,1.17-0.21,1.65l-9.07,5.23C206.13,272.33,204.85,272.38,204.12,271.96z" class="st2"/><path d="M189.75,263.66l-19.71-11.38c-0.73-0.42-0.64-1.17,0.21-1.65l9.07-5.23c0.85-0.49,2.13-0.54,2.87-0.12 l19.71,11.38c0.73,0.42,0.64,1.17-0.21,1.65l-9.07,5.23C191.77,264.03,190.48,264.09,189.75,263.66z" class="st1"/><path d="M199.79,253.58l-15.99-9.23c-0.73-0.42-0.64-1.17,0.21-1.65l9.07-5.23c0.85-0.49,2.13-0.54,2.87-0.12 l15.99,9.23c0.73,0.42,0.64,1.16-0.21,1.65l-9.07,5.23C201.81,253.95,200.53,254,199.79,253.58z" class="st1"/><path d="M232.59,288.39l-9.15-5.28c-0.73-0.42-0.64-1.17,0.21-1.65l9.07-5.23c0.85-0.49,2.13-0.54,2.87-0.12 l9.15,5.28c0.73,0.42,0.64,1.17-0.21,1.65l-9.07,5.23C234.61,288.77,233.32,288.82,232.59,288.39z" class="st2"/><path d="M246.72,296.55l-9.15-5.28c-0.73-0.42-0.64-1.17,0.21-1.65l9.07-5.23c0.85-0.49,2.13-0.54,2.87-0.12 l9.15,5.28c0.73,0.42,0.64,1.17-0.21,1.65l-9.07,5.23C248.74,296.92,247.45,296.98,246.72,296.55z" class="st1"/><path d="M260.85,304.71l-9.15-5.28c-0.73-0.42-0.64-1.17,0.21-1.65l9.07-5.23c0.85-0.49,2.13-0.54,2.87-0.12 l9.15,5.28c0.73,0.42,0.64,1.17-0.21,1.65l-9.07,5.23C262.87,305.08,261.58,305.13,260.85,304.71z" class="st1"/><path d="M274.98,312.87l-9.15-5.28c-0.73-0.42-0.64-1.17,0.21-1.65l9.07-5.23c0.85-0.49,2.13-0.54,2.87-0.12 l9.15,5.28c0.73,0.42,0.64,1.17-0.21,1.65l-9.07,5.23C277,313.24,275.71,313.29,274.98,312.87z" class="st1"/><path d="M289.11,321.03l-9.15-5.28c-0.73-0.42-0.64-1.17,0.21-1.65l9.07-5.23c0.85-0.49,2.13-0.54,2.87-0.12 l9.15,5.28c0.73,0.42,0.64,1.17-0.21,1.65l-9.07,5.23C291.13,321.4,289.84,321.45,289.11,321.03z" class="st1"/><path d="M303.24,329.19l-9.15-5.28c-0.73-0.42-0.64-1.17,0.21-1.65l9.07-5.23c0.85-0.49,2.13-0.54,2.87-0.12 l9.15,5.28c0.73,0.42,0.64,1.17-0.21,1.65l-9.07,5.23C305.26,329.56,303.98,329.61,303.24,329.19z" class="st1"/><path d="M317.37,337.34l-9.15-5.28c-0.73-0.42-0.64-1.17,0.21-1.65l9.07-5.23c0.85-0.49,2.13-0.54,2.87-0.12 l9.15,5.28c0.73,0.42,0.64,1.17-0.21,1.65l-9.07,5.23C319.39,337.72,318.11,337.77,317.37,337.34z" class="st1"/><path d="M331.5,345.5l-9.15-5.28c-0.73-0.42-0.64-1.17,0.21-1.65l9.07-5.23c0.85-0.49,2.13-0.54,2.87-0.12l9.15,5.28 c0.73,0.42,0.64,1.17-0.21,1.65l-9.07,5.23C333.52,345.87,332.24,345.93,331.5,345.5z" class="st1"/><path d="M345.63,353.66l-9.15-5.28c-0.73-0.42-0.64-1.17,0.21-1.65l9.07-5.23c0.85-0.49,2.13-0.54,2.87-0.12 l9.15,5.28c0.73,0.42,0.64,1.17-0.21,1.65l-9.07,5.23C347.65,354.03,346.37,354.08,345.63,353.66z" class="st1"/><path d="M370.75,368.16l-19.96-11.53c-0.73-0.42-0.64-1.17,0.21-1.65l9.07-5.23c0.85-0.49,2.13-0.54,2.87-0.12 l19.96,11.53c0.73,0.42,0.64,1.17-0.21,1.65l-9.07,5.23C372.77,368.54,371.49,368.59,370.75,368.16z" class="st1"/><path d="M398.26,352.28l-16.85-9.73c-0.73-0.42-0.64-1.17,0.21-1.65l9.07-5.23c0.85-0.49,2.13-0.54,2.87-0.12 l16.85,9.73c0.73,0.42,0.64,1.17-0.21,1.65l-9.07,5.23C400.28,352.65,399,352.71,398.26,352.28z" class="st1"/><path d="M257.33,286.8l-9.15-5.28c-0.73-0.42-0.64-1.17,0.21-1.65l9.07-5.23c0.85-0.49,2.13-0.54,2.87-0.12l9.15,5.28 c0.73,0.42,0.64,1.17-0.21,1.65l-9.07,5.23C259.35,287.17,258.07,287.22,257.33,286.8z" class="st1"/><path d="M242.85,278.44l-9.15-5.28c-0.73-0.42-0.64-1.16,0.21-1.65l9.07-5.23c0.85-0.49,2.13-0.54,2.87-0.12 l9.15,5.28c0.73,0.42,0.64,1.17-0.21,1.65l-9.07,5.23C244.87,278.81,243.59,278.86,242.85,278.44z" class="st1"/><path d="M228.37,270.08l-9.15-5.28c-0.73-0.42-0.64-1.17,0.21-1.65l9.07-5.23c0.85-0.49,2.13-0.54,2.87-0.12 l9.15,5.28c0.73,0.42,0.64,1.17-0.21,1.65l-9.07,5.23C230.39,270.45,229.1,270.5,228.37,270.08z" class="st2"/><path d="M213.89,261.71l-9.15-5.28c-0.73-0.42-0.64-1.17,0.21-1.65l9.07-5.23c0.85-0.49,2.13-0.54,2.87-0.12 l9.15,5.28c0.73,0.42,0.64,1.17-0.21,1.65l-9.07,5.23C215.9,262.08,214.62,262.14,213.89,261.71z" class="st1"/><path d="M271.46,294.96l-9.15-5.28c-0.73-0.42-0.64-1.17,0.21-1.65l9.07-5.23c0.85-0.49,2.13-0.54,2.87-0.12 l9.15,5.28c0.73,0.42,0.64,1.17-0.21,1.65l-9.07,5.23C273.48,295.33,272.2,295.38,271.46,294.96z" class="st1"/><path d="M285.59,303.11l-9.15-5.28c-0.73-0.42-0.64-1.17,0.21-1.65l9.07-5.23c0.85-0.49,2.13-0.54,2.87-0.12 l9.15,5.28c0.73,0.42,0.64,1.17-0.21,1.65l-9.07,5.23C287.61,303.49,286.33,303.54,285.59,303.11z" class="st1"/><path d="M299.73,311.27l-9.15-5.28c-0.73-0.42-0.64-1.17,0.21-1.65l9.07-5.23c0.85-0.49,2.13-0.54,2.87-0.12 l9.15,5.28c0.73,0.42,0.64,1.17-0.21,1.65l-9.07,5.23C301.74,311.64,300.46,311.7,299.73,311.27z" class="st1"/><path d="M313.86,319.43l-9.15-5.28c-0.73-0.42-0.64-1.17,0.21-1.65l9.07-5.23c0.85-0.49,2.13-0.54,2.87-0.12 l9.15,5.28c0.73,0.42,0.64,1.17-0.21,1.65l-9.07,5.23C315.87,319.8,314.59,319.86,313.86,319.43z" class="st1"/><path d="M327.99,327.59l-9.15-5.28c-0.73-0.42-0.64-1.17,0.21-1.65l9.07-5.23c0.85-0.49,2.13-0.54,2.87-0.12 l9.15,5.28c0.73,0.42,0.64,1.17-0.21,1.65l-9.07,5.23C330,327.96,328.72,328.01,327.99,327.59z" class="st1"/><path d="M342.12,335.75l-9.15-5.28c-0.73-0.42-0.64-1.17,0.21-1.65l9.07-5.23c0.85-0.49,2.13-0.54,2.87-0.12 l9.15,5.28c0.73,0.42,0.64,1.17-0.21,1.65l-9.07,5.23C344.14,336.12,342.85,336.17,342.12,335.75z" class="st1"/><path d="M356.25,343.91l-9.15-5.28c-0.73-0.42-0.64-1.17,0.21-1.65l9.07-5.23c0.85-0.49,2.13-0.54,2.87-0.12 l9.15,5.28c0.73,0.42,0.64,1.17-0.21,1.65l-9.07,5.23C358.27,344.28,356.98,344.33,356.25,343.91z" class="st1"/><path d="M370.38,352.06l-9.15-5.28c-0.73-0.42-0.64-1.16,0.21-1.65l9.07-5.23c0.85-0.49,2.13-0.54,2.87-0.12 l9.15,5.28c0.73,0.42,0.64,1.17-0.21,1.65l-9.07,5.23C372.4,352.44,371.11,352.49,370.38,352.06z" class="st1"/><path d="M384.51,360.22l-9.15-5.28c-0.73-0.42-0.64-1.17,0.21-1.65l9.07-5.23c0.85-0.49,2.13-0.54,2.87-0.12 l9.15,5.28c0.73,0.42,0.64,1.17-0.21,1.65l-9.07,5.23C386.53,360.59,385.24,360.65,384.51,360.22z" class="st1"/><path d="M249.89,266.62l-9.15-5.28c-0.73-0.42-0.64-1.17,0.21-1.65l9.07-5.23c0.85-0.49,2.13-0.54,2.87-0.12 l9.15,5.28c0.73,0.42,0.64,1.17-0.21,1.65l-9.07,5.23C251.91,266.99,250.63,267.04,249.89,266.62z" class="st1"/><path d="M235.83,258.5l-9.15-5.28c-0.73-0.42-0.64-1.17,0.21-1.65l9.07-5.23c0.85-0.49,2.13-0.54,2.87-0.12l9.15,5.28 c0.73,0.42,0.64,1.17-0.21,1.65l-9.07,5.23C237.85,258.87,236.57,258.93,235.83,258.5z" class="st1"/><path d="M221.77,250.38l-9.15-5.28c-0.73-0.42-0.64-1.17,0.21-1.65l9.07-5.23c0.85-0.49,2.13-0.54,2.87-0.12 l9.15,5.28c0.73,0.42,0.64,1.17-0.21,1.65l-9.07,5.23C223.79,250.75,222.51,250.81,221.77,250.38z" class="st1"/><path d="M207.71,242.27l-9.15-5.28c-0.73-0.42-0.64-1.17,0.21-1.65l9.07-5.23c0.85-0.49,2.13-0.54,2.87-0.12 l9.15,5.28c0.73,0.42,0.64,1.17-0.21,1.65l-9.07,5.23C209.73,242.64,208.45,242.69,207.71,242.27z" class="st1"/><path d="M222.17,233.92l-9.15-5.28c-0.73-0.42-0.64-1.17,0.21-1.65l3-1.73c0.85-0.49,2.13-0.54,2.87-0.12l9.15,5.28 c0.73,0.42,0.64,1.17-0.21,1.65l-3,1.73C224.19,234.29,222.9,234.34,222.17,233.92z" class="st1"/><path d="M240.52,244.51l-9.15-5.28c-0.73-0.42-0.64-1.17,0.21-1.65l3-1.73c0.85-0.49,2.13-0.54,2.87-0.12l9.15,5.28 c0.73,0.42,0.64,1.17-0.21,1.65l-3,1.73C242.54,244.88,241.25,244.94,240.52,244.51z" class="st1"/><path d="M254.52,252.6l-9.15-5.28c-0.73-0.42-0.64-1.17,0.21-1.65l3-1.73c0.85-0.49,2.13-0.54,2.87-0.12l9.15,5.28 c0.73,0.42,0.64,1.17-0.21,1.65l-3,1.73C256.54,252.97,255.26,253.02,254.52,252.6z" class="st1"/><path d="M268.52,260.68l-9.15-5.28c-0.73-0.42-0.64-1.17,0.21-1.65l3-1.73c0.85-0.49,2.13-0.54,2.87-0.12l9.15,5.28 c0.73,0.42,0.64,1.17-0.21,1.65l-3,1.73C270.54,261.05,269.26,261.1,268.52,260.68z" class="st1"/><path d="M282.52,268.76l-9.15-5.28c-0.73-0.42-0.64-1.17,0.21-1.65l3-1.73c0.85-0.49,2.13-0.54,2.87-0.12l9.15,5.28 c0.73,0.42,0.64,1.17-0.21,1.65l-3,1.73C284.54,269.13,283.26,269.19,282.52,268.76z" class="st1"/><path d="M360.69,313.89l-9.15-5.28c-0.73-0.42-0.64-1.17,0.21-1.65l3-1.73c0.85-0.49,2.13-0.54,2.87-0.12l9.15,5.28 c0.73,0.42,0.64,1.17-0.21,1.65l-3,1.73C362.71,314.27,361.43,314.32,360.69,313.89z" class="st1"/><path d="M374.7,321.98l-9.15-5.28c-0.73-0.42-0.64-1.17,0.21-1.65l3-1.73c0.85-0.49,2.13-0.54,2.87-0.12l9.15,5.28 c0.73,0.42,0.64,1.17-0.21,1.65l-3,1.73C376.71,322.35,375.43,322.4,374.7,321.98z" class="st1"/><path d="M388.7,330.06l-9.15-5.28c-0.73-0.42-0.64-1.17,0.21-1.65l3-1.73c0.85-0.49,2.13-0.54,2.87-0.12l9.15,5.28 c0.73,0.42,0.64,1.17-0.21,1.65l-3,1.73C390.71,330.43,389.43,330.49,388.7,330.06z" class="st1"/><path d="M402.7,338.15l-9.15-5.28c-0.73-0.42-0.64-1.17,0.21-1.65l3-1.73c0.85-0.49,2.13-0.54,2.87-0.12l9.15,5.28 c0.73,0.42,0.64,1.17-0.21,1.65l-3,1.73C404.72,338.52,403.43,338.57,402.7,338.15z" class="st1"/><path d="M264.02,274.78l-9.15-5.28c-0.73-0.42-0.64-1.17,0.21-1.65l9.07-5.23c0.85-0.49,2.13-0.54,2.87-0.12 l9.15,5.28c0.73,0.42,0.64,1.17-0.21,1.65l-9.07,5.23C266.04,275.15,264.76,275.2,264.02,274.78z" class="st1"/><path d="M278.15,282.94l-9.15-5.28c-0.73-0.42-0.64-1.17,0.21-1.65l9.07-5.23c0.85-0.49,2.13-0.54,2.87-0.12 l9.15,5.28c0.73,0.42,0.64,1.17-0.21,1.65l-9.07,5.23C280.17,283.31,278.89,283.36,278.15,282.94z" class="st1"/><path d="M292.28,291.09l-9.15-5.28c-0.73-0.42-0.64-1.17,0.21-1.65l9.07-5.23c0.85-0.49,2.13-0.54,2.87-0.12 l9.15,5.28c0.73,0.42,0.64,1.17-0.21,1.65l-9.07,5.23C294.3,291.46,293.02,291.52,292.28,291.09z" class="st1"/><path d="M306.42,299.25l-9.15-5.28c-0.73-0.42-0.64-1.17,0.21-1.65l9.07-5.23c0.85-0.49,2.13-0.54,2.87-0.12 l9.15,5.28c0.73,0.42,0.64,1.17-0.21,1.65l-9.07,5.23C308.43,299.62,307.15,299.68,306.42,299.25z" class="st1"/><path d="M320.55,307.41l-9.15-5.28c-0.73-0.42-0.64-1.17,0.21-1.65l9.07-5.23c0.85-0.49,2.13-0.54,2.87-0.12 l9.15,5.28c0.73,0.42,0.64,1.17-0.21,1.65l-9.07,5.23C322.56,307.78,321.28,307.83,320.55,307.41z" class="st1"/><path d="M334.68,315.57l-9.15-5.28c-0.73-0.42-0.64-1.17,0.21-1.65l9.07-5.23c0.85-0.49,2.13-0.54,2.87-0.12 l9.15,5.28c0.73,0.42,0.64,1.17-0.21,1.65l-9.07,5.23C336.69,315.94,335.41,315.99,334.68,315.57z" class="st1"/><path d="M348.81,323.73l-9.15-5.28c-0.73-0.42-0.64-1.17,0.21-1.65l9.07-5.23c0.85-0.49,2.13-0.54,2.87-0.12 l9.15,5.28c0.73,0.42,0.64,1.17-0.21,1.65l-9.07,5.23C350.83,324.1,349.54,324.15,348.81,323.73z" class="st1"/><path d="M362.94,331.89l-9.15-5.28c-0.73-0.42-0.64-1.17,0.21-1.65l9.07-5.23c0.85-0.49,2.13-0.54,2.87-0.12 l9.15,5.28c0.73,0.42,0.64,1.17-0.21,1.65l-9.07,5.23C364.96,332.26,363.67,332.31,362.94,331.89z" class="st1"/><path d="M377.07,340.04l-9.15-5.28c-0.73-0.42-0.64-1.17,0.21-1.65l9.07-5.23c0.85-0.49,2.13-0.54,2.87-0.12 l9.15,5.28c0.73,0.42,0.64,1.17-0.21,1.65l-9.07,5.23C379.09,340.41,377.8,340.47,377.07,340.04z" class="st1"/><path d="M183.24,275.78l-26.95-15.56c-0.73-0.42-0.64-1.17,0.21-1.65l9.07-5.23c0.85-0.49,2.13-0.54,2.87-0.12 l26.95,15.56c0.73,0.42,0.64,1.17-0.21,1.65l-9.07,5.23C185.25,276.16,183.97,276.21,183.24,275.78z" class="st1"/><path d="M356.83,376.01l-26.95-15.56c-0.73-0.42-0.64-1.17,0.21-1.65l9.07-5.23c0.85-0.49,2.13-0.54,2.87-0.12 L368.97,369c0.73,0.42,0.64,1.17-0.21,1.65l-9.07,5.23C358.85,376.38,357.57,376.44,356.83,376.01z" class="st1"/><path d="M300.32,361.41l-9.15-5.28c-0.73-0.42-0.64-1.17,0.21-1.65l10.8-6.24c0.85-0.49,2.13-0.54,2.87-0.12 l9.15,5.28c0.73,0.42,0.64,1.17-0.21,1.65l-10.8,6.24C302.34,361.78,301.06,361.83,300.32,361.41z" class="st1"/><path d="M197.71,302.16l-14.63-8.45c-0.73-0.42-0.64-1.17,0.21-1.65l10.8-6.24c0.85-0.49,2.13-0.54,2.87-0.12 l14.63,8.45c0.73,0.42,0.64,1.17-0.21,1.65l-10.8,6.24C199.72,302.53,198.44,302.58,197.71,302.16z" class="st1"/><path d="M286.71,353.55l-14.63-8.45c-0.73-0.42-0.64-1.16,0.21-1.65l10.8-6.24c0.85-0.49,2.13-0.54,2.87-0.12 l14.63,8.45c0.73,0.42,0.64,1.17-0.21,1.65l-10.8,6.24C288.73,353.92,287.44,353.97,286.71,353.55z" class="st1"/><path d="M218.09,313.93l-14.63-8.45c-0.73-0.42-0.64-1.17,0.21-1.65l10.8-6.24c0.85-0.49,2.13-0.54,2.87-0.12 l14.63,8.45c0.73,0.42,0.64,1.17-0.21,1.65l-10.8,6.24C220.11,314.3,218.83,314.35,218.09,313.93z" class="st1"/><path d="M217.43,297.53l63.62,36.73c0.79,0.46,0.79,1.19,0,1.65l-11.01,6.36c-0.79,0.46-2.07,0.46-2.86,0 l-63.62-36.73L217.43,297.53z" class="st1"/><path d="M339.82,376.2l10.19,5.88c0.6,0.35,0.53,0.96-0.17,1.36l-4.42,2.55c-0.7,0.4-1.75,0.45-2.35,0.1l-10.19-5.88 c-0.6-0.35-0.53-0.96,0.17-1.36l4.42-2.55C338.16,375.89,339.21,375.85,339.82,376.2z" class="st1"/><path d="M325.57,367.97l10.19,5.88c0.6,0.35,0.53,0.95-0.17,1.36l-4.42,2.55c-0.7,0.4-1.75,0.45-2.35,0.1l-10.19-5.88 c-0.6-0.35-0.53-0.96,0.17-1.36l4.42-2.55C323.92,367.67,324.97,367.62,325.57,367.97z" class="st1"/><path d="M311.44,359.81l10.19,5.88c0.6,0.35,0.53,0.95-0.17,1.36l-4.42,2.55c-0.7,0.4-1.75,0.45-2.35,0.1l-10.19-5.88 c-0.6-0.35-0.53-0.95,0.17-1.36l4.42-2.55C309.78,359.51,310.84,359.47,311.44,359.81z" class="st1"/><path d="M333.37,363.47l10.19,5.88c0.6,0.35,0.53,0.95-0.17,1.36l-4.42,2.55c-0.7,0.4-1.75,0.45-2.35,0.1l-10.19-5.88 c-0.6-0.35-0.53-0.95,0.17-1.36l4.42-2.55C331.72,363.16,332.77,363.12,333.37,363.47z" class="st1"/></g></g><path d="M449,149.31l-65.53-37.83l-59.13-25.78l-11.3,47.27c0,0-16.08,58.15,39.71,126.43	c70.94,4.89,83.19-55.48,83.19-55.48L449,149.31z" class="st5"/><g><polygon points="432.16 139.59 449 149.31 456.68 146.65 433.65 133.36 324.34 85.71 322.36 93.99" class="st1"/><polygon points="449 149.31 432.16 139.59 430.41 146.92 447.25 156.63" class="st2"/></g><g><g class="st8"><path d="M308.96,113.56l-12.28-7.09c-1.14-0.66-1.81-2.29-1.5-3.64l0,0c0.31-1.35,1.49-1.91,2.63-1.25l12.28,7.09 c1.14,0.66,1.81,2.29,1.5,3.64l0,0C311.28,113.65,310.1,114.21,308.96,113.56z" class="st5"/><path d="M338.22,130.45l-18.11-10.46c-1.14-0.66-1.81-2.29-1.5-3.64l0,0c0.31-1.35,1.49-1.91,2.63-1.25l18.11,10.46 c1.14,0.66,1.81,2.29,1.5,3.64l0,0C340.54,130.55,339.36,131.11,338.22,130.45z" class="st5"/><path d="M287.55,170.89l-12.28-7.09c-1.14-0.66-1.81-2.29-1.5-3.64l0,0c0.31-1.35,1.49-1.91,2.63-1.25l12.28,7.09 c1.14,0.66,1.81,2.29,1.5,3.64l0,0C289.87,170.99,288.69,171.55,287.55,170.89z" class="st5"/><path d="M313.63,185.95l-18.11-10.46c-1.14-0.66-1.81-2.29-1.5-3.64l0,0c0.31-1.35,1.49-1.91,2.63-1.25l18.11,10.46 c1.14,0.66,1.81,2.29,1.5,3.64l0,0C315.95,186.05,314.77,186.61,313.63,185.95z" class="st5"/><path d="M272.73,104.25l-7.67-4.43c-1.14-0.66-1.81-2.29-1.5-3.64l0,0c0.31-1.35,1.49-1.91,2.63-1.25l7.67,4.43 c1.14,0.66,1.81,2.29,1.5,3.64l0,0C275.04,104.35,273.87,104.91,272.73,104.25z" class="st5"/><path d="M296.38,129.52l-23.45-13.54c-1.14-0.66-1.81-2.29-1.5-3.64l0,0c0.31-1.35,1.49-1.91,2.63-1.25l23.45,13.54 c1.14,0.66,1.81,2.29,1.5,3.64l0,0C298.69,129.62,297.52,130.18,296.38,129.52z" class="st5"/><path d="M275.87,140.92l-7.67-4.43c-1.14-0.66-1.81-2.29-1.5-3.64l0,0c0.31-1.35,1.49-1.91,2.63-1.25l7.67,4.43 c1.14,0.66,1.81,2.29,1.5,3.64l0,0C278.19,141.01,277.01,141.58,275.87,140.92z" class="st5"/><path d="M317.58,211.47l-20.5-11.83c-1.14-0.66-1.81-2.29-1.5-3.64l0,0c0.31-1.35,1.49-1.91,2.63-1.25l20.5,11.83 c1.14,0.66,1.81,2.29,1.5,3.64l0,0C319.9,211.56,318.72,212.13,317.58,211.47z" class="st5"/><path d="M268.39,159.83l-4.93-2.84c-1.14-0.66-1.81-2.29-1.5-3.64l0,0c0.31-1.35,1.49-1.91,2.63-1.25l4.93,2.84 c1.14,0.66,1.81,2.29,1.5,3.64l0,0C270.71,159.93,269.53,160.49,268.39,159.83z" class="st5"/><path d="M264.85,181.02l-6.12-3.53c-1.14-0.66-1.81-2.29-1.5-3.64l0,0c0.31-1.35,1.49-1.91,2.63-1.25l6.12,3.53 c1.14,0.66,1.81,2.29,1.5,3.64l0,0C267.17,181.12,265.99,181.68,264.85,181.02z" class="st5"/><path d="M288.65,194.76l-16.13-9.31c-1.14-0.66-1.81-2.29-1.5-3.64l0,0c0.31-1.35,1.49-1.91,2.63-1.25l16.13,9.31 c1.14,0.66,1.81,2.29,1.5,3.64l0,0C290.96,194.86,289.79,195.42,288.65,194.76z" class="st5"/><path d="M267.96,194.44l-11.6-6.69c-1.14-0.66-1.81-2.29-1.5-3.64l0,0c0.31-1.35,1.49-1.91,2.63-1.25l11.6,6.69 c1.14,0.66,1.81,2.29,1.5,3.64l0,0C270.28,194.53,269.1,195.09,267.96,194.44z" class="st5"/><path d="M335.17,221.67l-7.45-4.3c-1.14-0.66-1.81-2.29-1.5-3.64l0,0c0.31-1.35,1.49-1.91,2.63-1.25l7.45,4.3 c1.14,0.66,1.81,2.29,1.5,3.64l0,0C337.48,221.77,336.31,222.33,335.17,221.67z" class="st5"/><path d="M304.42,157.4l-20.5-11.83c-1.14-0.66-1.81-2.29-1.5-3.64l0,0c0.31-1.35,1.49-1.91,2.63-1.25l20.5,11.83 c1.14,0.66,1.81,2.29,1.5,3.64l0,0C306.73,157.49,305.56,158.06,304.42,157.4z" class="st5"/></g><path d="M306.29,146.86l-35.72-20.62c-1.14-0.66-1.81-2.29-1.5-3.64l0,0c0.31-1.35,1.49-1.91,2.63-1.25l35.72,20.62 c1.14,0.66,1.81,2.29,1.5,3.64l0,0C308.6,146.96,307.43,147.52,306.29,146.86z" class="st5"/><path d="M286.33,158.57l-20.5-11.83c-1.14-0.66-1.81-2.29-1.5-3.64l0,0c0.31-1.35,1.49-1.91,2.63-1.25l20.5,11.83 c1.14,0.66,1.81,2.29,1.5,3.64l0,0C288.64,158.67,287.47,159.23,286.33,158.57z" class="st5"/><path d="M319.96,166.37l-7.45-4.3c-1.14-0.66-1.81-2.29-1.5-3.64l0,0c0.31-1.35,1.49-1.91,2.63-1.25l7.45,4.3 c1.14,0.66,1.81,2.29,1.5,3.64l0,0C322.28,166.47,321.1,167.03,319.96,166.37z" class="st5"/><path d="M393.47,162.35l-44.1-25.46c-1.14-0.66-1.81-2.29-1.5-3.64l0,0c0.31-1.35,1.49-1.91,2.63-1.25l44.1,25.46 c1.14,0.66,1.81,2.29,1.5,3.64l0,0C395.79,162.44,394.61,163,393.47,162.35z" class="st5"/><path d="M285.74,181.46l-24.64-14.22c-1.14-0.66-1.81-2.29-1.5-3.64l0,0c0.31-1.35,1.49-1.91,2.63-1.25l24.64,14.22 c1.14,0.66,1.81,2.29,1.5,3.64l0,0C288.05,181.56,286.88,182.12,285.74,181.46z" class="st5"/><path d="M285.53,100.03l-18.11-10.46c-1.14-0.66-1.81-2.29-1.5-3.64l0,0c0.31-1.35,1.49-1.91,2.63-1.25l18.11,10.46 c1.14,0.66,1.81,2.29,1.5,3.64l0,0C287.85,100.12,286.67,100.68,285.53,100.03z" class="st5"/><path d="M264.73,204.19l-20.98-12.11c-1.14-0.66-1.81-2.29-1.5-3.64l0,0c0.31-1.35,1.49-1.91,2.63-1.25l20.98,12.11 c1.14,0.66,1.81,2.29,1.5,3.64l0,0C267.05,204.29,265.87,204.85,264.73,204.19z" class="st5"/></g><g><path d="M407.63,75.91c-17.13-12.3-34.91-22.56-53.04-30.63l-35.93-15.97l-11.51,4.48c0,0,5.05,2.7,9.26,4.96 l-17.06,71.38c0,0-16.08,58.15,39.71,126.43c10.71,0.74,20.07-0.02,28.26-1.82c-0.17,0.67-0.28,1.13-0.28,1.13l10.36-4.05 c0.96-0.35,1.91-0.72,2.83-1.11l0.22-0.09c0,0-0.01,0-0.01,0c34.71-14.54,41.81-49.54,41.81-49.54l19.31-80.82L407.63,75.91z" class="st1"/><path d="M354.59,45.28l-35.93-15.97l-11.51,4.48c0,0,5.05,2.7,9.26,4.96l-6.19,25.9l64.05,41.65l55.79-1.55l11.51-4.48 l-33.93-24.36C390.51,63.61,372.73,53.34,354.59,45.28z" class="st9"/><path d="M371.53,64.39l11.58-4.42c-9.38-5.49-18.9-10.41-28.52-14.69l-35.93-15.97l-11.51,4.48 c0,0,5.05,2.7,9.26,4.96l-0.37,1.53C338.45,50.1,371.53,64.39,371.53,64.39z" class="st10"/><path d="M373.98,54.82l-21.57,8.08l18.07,10.43l21.41-8.02C385.98,61.58,380.01,58.07,373.98,54.82z" class="st11"/><path d="M410.73,185.57l19.31-80.82l-33.93-24.36c-17.13-12.3-34.91-22.56-53.05-30.63l-35.93-15.97l-19.31,80.82 c0,0-16.08,58.15,39.71,126.43C398.49,245.94,410.73,185.57,410.73,185.57z" class="st2"/><path d="M332.05,232.26c-25.21-32-33.63-61.14-36.21-80.19c-2.89-21.29,0.66-34.96,0.68-35.06l16.88-70.59L339.42,58 c17.54,7.8,34.86,17.8,51.45,29.71l29.01,20.83l-17.91,74.94l-0.07,0.3c-0.03,0.13-2.9,13.24-13.11,25.63 C375.6,225.42,356.52,233.1,332.05,232.26z" class="st1"/></g><g><path d="M353.64,144.61c-0.57,1.73,0.19,3.84,1.7,4.71c1.5,0.87,3.18,0.16,3.74-1.57c0.57-1.73-0.19-3.84-1.7-4.71 C355.88,142.17,354.2,142.88,353.64,144.61z" class="st12"/><path d="M344.89,139.56c-0.57,1.73,0.19,3.84,1.7,4.71c1.5,0.87,3.18,0.16,3.74-1.57c0.57-1.73-0.19-3.84-1.7-4.71 C347.13,137.12,345.45,137.83,344.89,139.56z" class="st12"/><path d="M336.14,134.51c-0.57,1.73,0.19,3.84,1.7,4.71c1.5,0.87,3.18,0.16,3.74-1.57c0.57-1.73-0.19-3.84-1.7-4.71 C338.38,132.07,336.7,132.77,336.14,134.51z" class="st12"/></g><g><path d="M422.42,285.73c-0.57,1.73,0.19,3.84,1.7,4.71s3.18,0.16,3.74-1.57c0.57-1.73-0.19-3.84-1.7-4.71 C424.66,283.29,422.98,284,422.42,285.73z" class="st5"/><path d="M413.67,280.68c-0.57,1.73,0.19,3.84,1.7,4.71c1.5,0.87,3.18,0.16,3.74-1.57c0.57-1.73-0.19-3.84-1.7-4.71 S414.23,278.94,413.67,280.68z" class="st5"/><path d="M404.92,275.63c-0.57,1.73,0.19,3.84,1.7,4.71c1.5,0.87,3.18,0.16,3.74-1.57c0.57-1.73-0.19-3.84-1.7-4.71 C407.16,273.19,405.48,273.89,404.92,275.63z" class="st5"/></g><ellipse cx="41.54" cy="450.28" class="st0" rx="24.07" ry="13.9"/><g><path d="M27.01,280.62c0,0,0.64,12.45,1.65,20.82c1.01,8.37,22.42-6.43,22.42-6.43v-9.53L27.01,280.62z" class="st13"/><g><path d="M38.42,435.58c0.32,0.76,5.87,7.12,11.42,8.71c2.41,0.69,4.04,0.78,5.1,0.66c1.07-0.12,1.73-1.15,1.37-2.11 c-0.95-2.53-3.69-7.8-10.65-11.05C36.25,427.4,38.42,435.58,38.42,435.58z" class="st1"/><path d="M36.57,438.02c0,0,2.09,4.62,2.73,8.48c0.39,2.35-0.98,5.41-2.11,7.44c-0.7,1.26-2.48,1.54-3.6,0.59 c-1.81-1.55-4.12-4.24-4.5-8.1c-0.64-6.51,0-7.65,0-7.65L36.57,438.02z" class="st1"/><path d="M23.2,359.34c0,0-0.72,8.21,0,17.3c0.72,9.08,3.31,51.56,3.8,61.78c0,0-0.24,3.09,6.12,2.41 c6.36-0.68,5.85-4.12,5.85-4.12s8.94-0.11,9.22-5.07c0.28-4.96,9.15-59.21,9.15-78.71L23.2,359.34z" class="st5"/><g><path d="M60.65,316.88l4.38,6.38l15.05,17.11c0,0-0.52,1.59-2.39,2c-1.46,0.32-14.12-11.04-19.59-16.03 c-1.45-1.33-1.69-3.43-0.58-5.02L60.65,316.88z" class="st14"/><path d="M52.11,290.68c0,0,6.96-0.17,9.38,9.29c2.42,9.46,4.32,21.31,2.21,22.29c-6.32,2.96-10.32-0.5-10.32-0.5 L52.11,290.68z" class="st15"/><path d="M54.19,291.08c-1.19-0.47-2.52-0.53-3.75-0.19c-5.93,1.6-28.21,7.76-31.88,10.71 c-4.24,3.41,6.36,22.59,6.21,28.88c-0.15,6.29-0.91,13.7-1.5,20.54c-0.59,6.84-1.39,10.58,4.55,13.49 c5.94,2.91,16.08,3.04,23.68-2.4c7.59-5.45,6.22-9.17,5.9-13.12s-2.9-21.05-2.68-25.9c0,0,2.68-1.85,4.66-5.04 c1.98-3.18-1.52-9.03-2.97-12.83c-1.45-3.8,0.82-8.15,0.37-11.25C56.54,292.36,55.46,291.58,54.19,291.08z" class="st2"/><path d="M47.07,297.62c0.47,3.45-2.9,6.71-7.52,7.26c-4.62,0.56-8.75-1.79-9.22-5.25c-0.47-3.45,2.9-6.71,7.52-7.26 C42.47,291.81,46.6,294.16,47.07,297.62z" class="st6"/><path d="M44.68,297.91c0.34,2.47-2.07,4.79-5.37,5.19c-3.3,0.4-6.26-1.28-6.59-3.75c-0.34-2.47,2.07-4.79,5.37-5.19 C41.39,293.76,44.35,295.44,44.68,297.91z" class="st14"/><path d="M41.4,289.8c0,0-4.02-3.11-4.81-1.54s-1.44,8.34-1.44,8.34l7.99,2.02l-1.21-6.86 C41.92,291.77,43.52,290.49,41.4,289.8z" class="st14"/><path d="M53.88,282.38c-0.39,6.19-6.03,10.91-12.61,10.54c-6.58-0.37-11.59-5.68-11.2-11.87 c0.39-6.19,6.03-10.91,12.61-10.54C49.25,270.88,54.27,276.2,53.88,282.38z" class="st14"/><path d="M36.03,290.22c-0.07,0.35-0.14,0.73-0.2,1.12c0.8,3.91,7.01,5.61,7.01,5.61l-0.92-5.19 c0,0,0.75-0.6,0.54-1.2C40,289.84,36.91,289.19,36.03,290.22z" class="st16"/><path d="M53.88,282.38c-0.39,6.19-6.03,10.91-12.61,10.54c-6.58-0.37-11.59-5.68-11.2-11.87 c0.39-6.19,6.03-10.91,12.61-10.54C49.25,270.88,54.27,276.2,53.88,282.38z" class="st14"/><polygon points="12.59 329.24 13.93 359.27 18.59 359.73 21.63 332.69" class="st14"/><path d="M27.92,326.73c-1.54-6.41-4.59-20.59-4.59-20.59l-1.3,14.1c1.5,4.18,2.8,8.02,2.74,10.24 c-0.09,3.69-0.39,7.77-0.74,11.89l0,0.01C24.03,342.38,29.47,333.14,27.92,326.73z" class="st15"/><path d="M19.45,300.98c0,0-3.73,1.34-5.84,12.13c-2.11,10.79-3.69,21.59,0.07,22.98c3.76,1.39,6.91,2.44,8.02-0.45 c1.11-2.89,1.79-16.79,1.93-21.78C23.77,308.86,23.97,301.97,19.45,300.98z" class="st2"/><path d="M78.97,339.12c0,0,2.02,0.7,3.48,2.2c1.2,1.23,1.85,2.27,2.38,3.01c1.16,1.63,2.14,5.16,1.43,5.6 c-0.71,0.44-4.76-5.91-5.42-4.43c-0.65,1.48,0.01,2.84-0.83,2.86c-0.84,0.02-3.75-6.38-6.04-8.36 C71.68,338.01,78.97,339.12,78.97,339.12z" class="st14"/></g><path d="M38.97,436.71c0,0,1.11-0.02,2.55-0.25l0,0l1.75-66.03L38.97,436.71z" class="st17"/></g><path d="M13.96,359.02c0,0-1.23,7.01-1.05,9.26c0.19,2.25,1.46,5.95,2.43,5.87c0.97-0.08,0.03-9.03,1.73-8.14 c1.7,0.89,1.88,2.42,2.65,1.88c0.77-0.54-1.34-8.19-0.78-11.51C19.52,353.06,13.96,359.02,13.96,359.02z" class="st14"/><path d="M46.56,282.7c5.98,2,7.15,0.78,7.2,0.71c0.05-0.34,0.1-0.68,0.12-1.03c0.08-1.24-0.07-2.45-0.4-3.59 l-15.52-1.97C37.96,276.82,40.41,280.65,46.56,282.7z" class="st16"/><path d="M54.31,271.2c-1.41-1.14-6.5-6.76-15.61-5.43c-5.7,0.83-10.5,4.49-11.56,12.83 c-0.72,5.62,1.47,11.16,5.51,15.25c0.22-0.1,0.45-0.18,0.65-0.31c2.28-1.41,2.53-2.19,2.53-2.2l0.5-4.26 c-0.02-0.6-0.5-1.14-1.14-1.18c-0.5-0.03-1.1-0.25-1.67-0.96c-1.31-1.61-0.71-4.12,1.91-4.22c1.37-0.05,1.9-0.75,2.09-1.4 c0.17-0.57,0.81-0.89,1.4-0.68c2.98,1.01,10.32,3.2,15.04,1.94C60.01,278.97,55.72,272.34,54.31,271.2z" class="st18"/><path d="M47.51,287.77l3.65-0.94c0,0-1.74,2.58-4.28,3.24c-2.54,0.66-2.94-1.37-2.94-1.37L47.51,287.77z" class="st6"/></g><g><path d="M115.34,506.42L79.9,485.96c-2.17-1.26-1.9-3.45,0.61-4.9l34.22-19.76c2.51-1.45,6.31-1.61,8.49-0.35 l35.44,20.46c2.18,1.26,1.9,3.45-0.61,4.9l-34.22,19.76C121.32,507.52,117.52,507.68,115.34,506.42z" class="st0"/><g><path d="M170.41,465.83L170.41,465.83v-15.31l-34.33-0.02l-11.87-6.85c-2.72-1.57-7.48-1.38-10.63,0.44l-11.07,6.39 l-34.37-0.02v15.75c-0.08,1.06,0.52,2.09,1.82,2.85l44.38,25.62c2.72,1.57,7.48,1.38,10.63-0.44l42.85-24.74 C169.64,468.45,170.51,467.09,170.41,465.83z" class="st1"/><path d="M119.28,442.59c-1.99,0.05-4.06,0.55-5.7,1.49l-11.07,6.39l-34.37-0.02v15.75 c-0.08,1.06,0.52,2.09,1.82,2.85l44.38,25.62c1.31,0.76,3.09,1.1,4.93,1.05V442.59z" class="st19"/><path d="M72.04,450.46l-3.89,0v15.75c-0.08,1.06,0.52,2.09,1.82,2.85l2.06,1.19V450.46z" class="st20"/><path d="M115.03,495.01c2.35,1.01,5.75,0.95,8.49-0.1v-17.88h-8.49V495.01z" class="st21"/><path d="M114.35,478.99l-44.38-25.62c-2.72-1.57-2.38-4.32,0.76-6.13l42.85-24.74c3.14-1.82,7.9-2.01,10.63-0.44 l44.38,25.62c2.72,1.57,2.38,4.32-0.76,6.14l-42.85,24.74C121.83,480.36,117.07,480.56,114.35,478.99z" class="st22"/><path d="M115.15,474.37L77.96,452.9c-2.28-1.32-2-3.62,0.64-5.14l35.91-20.73c2.64-1.52,6.62-1.69,8.9-0.37 l37.19,21.47c2.28,1.32,2,3.62-0.64,5.14L124.05,474C121.42,475.53,117.43,475.69,115.15,474.37z" class="st23"/><g><path d="M154.09,469.87c0,1.14-0.8,2.53-1.79,3.1c-0.99,0.57-1.79,0.11-1.79-1.03c0-1.14,0.8-2.53,1.79-3.1 C153.29,468.26,154.09,468.73,154.09,469.87z" class="st2"/><path d="M159.86,466.54c0,1.14-0.8,2.53-1.79,3.1c-0.99,0.57-1.79,0.11-1.79-1.03c0-1.14,0.8-2.53,1.79-3.1 C159.05,464.93,159.86,465.4,159.86,466.54z" class="st2"/><path d="M165.62,463.21c0,1.14-0.8,2.53-1.79,3.1c-0.99,0.57-1.79,0.11-1.79-1.03c0-1.14,0.8-2.53,1.79-3.1 C164.82,461.6,165.62,462.07,165.62,463.21z" class="st2"/></g></g><g><path d="M170.41,441L170.41,441v-15.31l-34.33-0.02l-11.87-6.85c-2.72-1.57-7.48-1.38-10.63,0.44l-11.07,6.39 l-34.37-0.02v15.75c-0.08,1.06,0.52,2.09,1.82,2.85l44.38,25.62c2.72,1.57,7.48,1.38,10.63-0.44l42.85-24.74 C169.64,443.62,170.51,442.26,170.41,441z" class="st1"/><path d="M119.28,417.76c-1.99,0.05-4.06,0.55-5.7,1.49l-11.07,6.39l-34.37-0.02v15.75 c-0.08,1.06,0.52,2.09,1.82,2.85l44.38,25.62c1.31,0.76,3.09,1.1,4.93,1.05V417.76z" class="st19"/><path d="M72.04,425.63l-3.89,0v15.75c-0.08,1.06,0.52,2.09,1.82,2.85l2.06,1.19V425.63z" class="st20"/><path d="M115.03,470.18c2.35,1.01,5.75,0.95,8.49-0.1V452.2h-8.49V470.18z" class="st21"/><path d="M114.35,454.15l-44.38-25.62c-2.72-1.57-2.38-4.32,0.76-6.14l42.85-24.74c3.14-1.82,7.9-2.01,10.63-0.44 l44.38,25.62c2.72,1.57,2.38,4.32-0.76,6.13l-42.85,24.74C121.83,455.53,117.07,455.73,114.35,454.15z" class="st22"/><path d="M115.15,449.54l-37.19-21.47c-2.28-1.32-2-3.62,0.64-5.14l35.91-20.73c2.64-1.52,6.62-1.69,8.9-0.37 l37.19,21.47c2.28,1.32,2,3.62-0.64,5.14l-35.91,20.73C121.42,450.69,117.43,450.86,115.15,449.54z" class="st23"/><g><path d="M154.09,445.04c0,1.14-0.8,2.53-1.79,3.1c-0.99,0.57-1.79,0.11-1.79-1.03s0.8-2.53,1.79-3.1 C153.29,443.43,154.09,443.89,154.09,445.04z" class="st2"/><path d="M159.86,441.71c0,1.14-0.8,2.53-1.79,3.1c-0.99,0.57-1.79,0.11-1.79-1.03c0-1.14,0.8-2.53,1.79-3.1 C159.05,440.1,159.86,440.57,159.86,441.71z" class="st2"/><path d="M165.62,438.38c0,1.14-0.8,2.53-1.79,3.1c-0.99,0.57-1.79,0.11-1.79-1.03c0-1.14,0.8-2.53,1.79-3.1 C164.82,436.77,165.62,437.24,165.62,438.38z" class="st2"/></g></g><g><path d="M170.41,416.16L170.41,416.16v-15.31l-34.33-0.02l-11.87-6.85c-2.72-1.57-7.48-1.38-10.63,0.44l-11.07,6.39 l-34.37-0.02v15.75c-0.08,1.06,0.52,2.09,1.82,2.85l44.38,25.62c2.72,1.57,7.48,1.38,10.63-0.44l42.85-24.74 C169.64,418.78,170.51,417.43,170.41,416.16z" class="st1"/><path d="M119.28,392.93c-1.99,0.05-4.06,0.55-5.7,1.49l-11.07,6.39l-34.37-0.02v15.75 c-0.08,1.06,0.52,2.09,1.82,2.85l44.38,25.62c1.31,0.76,3.09,1.1,4.93,1.05V392.93z" class="st19"/><path d="M72.04,400.8l-3.89,0v15.75c-0.08,1.06,0.52,2.09,1.82,2.85l2.06,1.19V400.8z" class="st20"/><path d="M115.03,445.35c2.35,1.01,5.75,0.95,8.49-0.1v-17.88h-8.49V445.35z" class="st21"/><path d="M114.35,429.32L69.97,403.7c-2.72-1.57-2.38-4.32,0.76-6.13l42.85-24.74c3.14-1.82,7.9-2.01,10.63-0.44 l44.38,25.62c2.72,1.57,2.38,4.32-0.76,6.13l-42.85,24.74C121.83,430.7,117.07,430.89,114.35,429.32z" class="st19"/><path d="M167.82,401.13l-42.85,24.74c-3.14,1.82-7.9,2.01-10.63,0.44l-44.38-25.62c-0.61-0.35-1.05-0.76-1.36-1.21 c-0.94,1.51-0.51,3.14,1.36,4.22l44.38,25.62c2.72,1.57,7.48,1.38,10.63-0.44l42.85-24.74c2.44-1.41,3.19-3.38,2.12-4.93 C169.52,399.9,168.81,400.56,167.82,401.13z" class="st2"/><g><path d="M154.09,420.2c0,1.14-0.8,2.53-1.79,3.1c-0.99,0.57-1.79,0.11-1.79-1.03c0-1.14,0.8-2.53,1.79-3.1 C153.29,418.6,154.09,419.06,154.09,420.2z" class="st2"/><path d="M159.86,416.88c0,1.14-0.8,2.53-1.79,3.1c-0.99,0.57-1.79,0.11-1.79-1.03c0-1.14,0.8-2.53,1.79-3.1 C159.05,415.27,159.86,415.73,159.86,416.88z" class="st2"/><path d="M165.62,413.55c0,1.14-0.8,2.53-1.79,3.1c-0.99,0.57-1.79,0.11-1.79-1.03c0-1.14,0.8-2.53,1.79-3.1 C164.82,411.94,165.62,412.4,165.62,413.55z" class="st2"/></g><g><path d="M116.97,414.12l-20.77-11.99c-1.27-0.74-1.11-2.02,0.36-2.87l20.05-11.58c1.47-0.85,3.7-0.94,4.97-0.21 l20.77,11.99c1.27,0.74,1.11,2.02-0.36,2.87l-20.05,11.58C120.47,414.76,118.25,414.85,116.97,414.12z" class="st1"/><path d="M118.96,404.08l-2.87-1.66c-0.18-0.1-0.15-0.28,0.05-0.4l2.77-1.6c0.2-0.12,0.51-0.13,0.69-0.03l2.87,1.66 c0.18,0.1,0.15,0.28-0.05,0.4l-2.77,1.6C119.44,404.17,119.14,404.18,118.96,404.08z" class="st2"/><path d="M96.21,402.13l0.06,0.03c0.1-0.07,0.19-0.14,0.3-0.21l20.05-11.58c1.47-0.85,3.7-0.94,4.97-0.21l20.71,11.96 c1.17-0.84,1.24-1.99,0.06-2.67l-20.77-11.99c-1.27-0.74-3.5-0.64-4.97,0.21l-20.05,11.58 C95.09,400.11,94.93,401.39,96.21,402.13z" class="st2"/></g></g><path d="M101.09,457.39l-17.97-10.37c-1.11-0.64-2.01-2.36-2.01-3.83l0,0c0-1.48,0.9-2.16,2.01-1.52l17.97,10.37 c1.11,0.64,2.01,2.36,2.01,3.83l0,0C103.09,457.35,102.19,458.03,101.09,457.39z" class="st2"/><path d="M102.69,456.4l-17.97-10.37c-1.11-0.64-2.01-2.36-2.01-3.83c0-0.25,0.03-0.47,0.08-0.67 c-0.96-0.35-1.69,0.32-1.69,1.66c0,1.48,0.9,3.19,2.01,3.83l17.97,10.37c0.92,0.53,1.69,0.14,1.92-0.85 C102.91,456.5,102.8,456.46,102.69,456.4z" class="st24"/></g><g><path d="M109.58,315.1l-4.63-2.64l0,0.01c-0.42-0.34-1-0.36-1.65,0.01l-31.72,18.31c-1.26,0.73-2.29,2.69-2.29,4.37 v53.08c0,2.89,1.55,5.56,4.06,7.01l0.71,0.41l0.46-5.75l31.07-17.94v-56.02l0.61,3.31L109.58,315.1z" class="st19"/><path d="M104.95,312.45L104.95,312.45c-0.41-0.33-1-0.36-1.65,0.02l-31.72,18.31c-0.74,0.43-1.39,1.28-1.81,2.25 l35.82,20.68v-37.77l0.61,3.31l3.38-4.15L104.95,312.45z" class="st19"/><path d="M76.4,338.91l3.58-2.07l-9.25-5.34c-0.77,0.86-1.32,2.13-1.41,3.32L76.4,338.91z" class="st25"/><path d="M110.35,374.69l-36.3,20.96v-57.76c0-1.68,1.02-3.64,2.29-4.37l31.72-18.31c1.26-0.73,2.29,0.04,2.29,1.73 V374.69z" class="st1"/></g><path d="M88.51,388.89c0,1.02-0.71,1.43-1.6,0.92c-0.88-0.51-1.6-1.75-1.6-2.77s0.72-1.43,1.6-0.92	C87.8,386.63,88.51,387.87,88.51,388.89z" class="st26"/><polygon points="80.45 389.1 85.75 386.03 88.11 389.88 82.79 392.96" class="st26"/><path d="M83.25,391.93c0,1.02-0.71,1.43-1.6,0.92c-0.88-0.51-1.6-1.75-1.6-2.77s0.71-1.43,1.6-0.92	C82.53,389.67,83.25,390.91,83.25,391.93z" class="st19"/><path d="M82.47,391.48c0,0.53-0.37,0.74-0.82,0.48c-0.46-0.26-0.82-0.9-0.82-1.43c0-0.53,0.37-0.74,0.82-0.48	C82.1,390.32,82.47,390.96,82.47,391.48z" class="st1"/><path d="M107.08,378.4c0,1.02-0.72,1.43-1.6,0.92c-0.88-0.51-1.6-1.75-1.6-2.77s0.71-1.43,1.6-0.92	C106.37,376.15,107.08,377.38,107.08,378.4z" class="st26"/><polygon points="99.02 378.61 104.32 375.55 106.68 379.4 101.36 382.47" class="st26"/><path d="M101.81,381.44c0,1.02-0.71,1.43-1.6,0.92c-0.88-0.51-1.6-1.75-1.6-2.77s0.71-1.43,1.6-0.92	C101.1,379.19,101.81,380.43,101.81,381.44z" class="st19"/><path d="M101.04,381c0,0.53-0.37,0.74-0.82,0.48c-0.45-0.26-0.82-0.9-0.82-1.43c0-0.53,0.37-0.74,0.82-0.48	C100.67,379.83,101.04,380.47,101.04,381z" class="st1"/><path d="M416.68,468.04l-26.33-15.2c-1.62-0.93-1.41-2.56,0.45-3.64l25.42-14.68c1.87-1.08,4.69-1.19,6.3-0.26	l26.33,15.2c1.62,0.93,1.41,2.56-0.45,3.64l-25.42,14.68C421.12,468.86,418.3,468.97,416.68,468.04z" class="st0"/><g><path d="M471.01,422.43L471.01,422.43v-15.31l-34.33-0.02l-11.87-6.85c-2.72-1.57-7.48-1.38-10.63,0.44l-11.07,6.39 l-34.37-0.02v15.75c-0.08,1.06,0.52,2.09,1.82,2.85l44.38,25.62c2.72,1.57,7.48,1.38,10.63-0.44l42.85-24.74 C470.24,425.05,471.12,423.69,471.01,422.43z" class="st1"/><path d="M419.88,399.19c-1.99,0.05-4.06,0.55-5.7,1.49l-11.07,6.39l-34.37-0.02v15.75c-0.08,1.06,0.52,2.09,1.82,2.85 l44.38,25.62c1.31,0.76,3.09,1.1,4.93,1.05V399.19z" class="st19"/><path d="M372.64,407.06l-3.89,0v15.75c-0.08,1.06,0.52,2.09,1.82,2.85l2.06,1.19V407.06z" class="st27"/><path d="M415.63,451.61c2.35,1.01,5.75,0.95,8.49-0.1v-17.88h-8.49V451.61z" class="st28"/><path d="M414.95,435.59l-44.38-25.62c-2.72-1.57-2.38-4.32,0.76-6.13l42.85-24.74c3.15-1.82,7.9-2.01,10.63-0.44 l44.38,25.62c2.72,1.57,2.38,4.32-0.76,6.13l-42.85,24.74C422.43,436.96,417.67,437.16,414.95,435.59z" class="st5"/><g><path d="M454.69,426.47c0,1.14-0.8,2.53-1.79,3.1c-0.99,0.57-1.79,0.11-1.79-1.03c0-1.14,0.8-2.53,1.79-3.1 C453.89,424.87,454.69,425.33,454.69,426.47z" class="st27"/><path d="M460.46,423.14c0,1.14-0.8,2.53-1.79,3.1c-0.99,0.57-1.79,0.11-1.79-1.03c0-1.14,0.8-2.53,1.79-3.1 S460.46,422,460.46,423.14z" class="st27"/><path d="M466.23,419.81c0,1.14-0.8,2.53-1.79,3.1c-0.99,0.57-1.79,0.11-1.79-1.03c0-1.14,0.8-2.53,1.79-3.1 C465.42,418.21,466.23,418.67,466.23,419.81z" class="st27"/></g></g><path d="M397.47,425.49l17.48,10.09c2.72,1.57,7.48,1.38,10.63-0.44l31.1-17.95l0.2-0.24l-25.09-13.9L397.47,425.49z" class="st29"/><polygon points="404.66 429.64 404.66 445.33 398.16 441.63 395.18 426.42 400.27 427.11" class="st28"/><polygon points="383.54 433.14 385.11 434.05 388.19 419.34 386.27 418.51 380.37 420.52" class="st27"/><ellipse cx="385.08" cy="473.65" class="st0" rx="25.51" ry="14.73"/><path d="M411.85,324.83l-2.95-0.81c0,0,1.41,2.22,3.47,2.78c2.06,0.57,2.38-1.18,2.38-1.18L411.85,324.83z" class="st6"/><g><path d="M196.49,315.15c-15.01-8.66-39.33-8.66-54.34,0c-15.01,8.66-15,22.71,0,31.37c15.01,8.66,39.33,8.66,54.34,0 C211.49,337.86,211.49,323.82,196.49,315.15z M168.39,331.14c-3.86,2.23-10.12,2.23-13.97,0c-3.86-2.23-3.86-5.84,0-8.07 c3.86-2.23,10.12-2.23,13.97,0C172.25,325.3,172.25,328.91,168.39,331.14z" class="st3"/><path d="M204.59,339.57c-2,1.99-4.48,3.87-7.44,5.58s-6.21,3.14-9.67,4.29l7.35,4.24l11.07,0.57l5.48,3.16l-2.23,1.29 l4.15,2.39l4.47-2.58l7.24,4.18l-7.28,4.2l5.35,3.09l5.19,3l6.46-3.73l9.58,5.53l-3.66,2.11l6.15,3.55l3.66-2.11l2.89,1.67 l-2.91,5.79l9.31,5.37l34.21,0L204.59,339.57z" class="st3"/></g><g><path d="M207.74,327.79V317.4l-3.06,1.73c-1.87-2.55-4.6-4.93-8.19-7.01c-15.01-8.66-39.33-8.66-54.34,0 c-4.16,2.4-7.16,5.22-9.02,8.22l-2.24-2.94v10.39c-0.01,5.68,3.74,11.37,11.25,15.7c15.01,8.66,39.33,8.66,54.34,0 C204,339.16,207.75,333.47,207.74,327.79z M168.26,321.02c-3.86,2.23-10.12,2.23-13.97,0c-3.86-2.23-3.86-5.84,0-8.07 c3.86-2.23,10.12-2.23,13.97,0C172.11,315.18,172.11,318.79,168.26,321.02z" class="st1"/><path d="M166.1,335.98l-16.58-8.17l-14.73-9.73c-0.63,0.74-1.18,1.5-1.66,2.27l-2.24-2.94v10.39 c-0.01,5.68,3.74,11.37,11.25,15.7c6.68,3.86,15.22,5.99,23.95,6.42V335.98z" class="st30"/><path d="M196.49,301.71c-15.01-8.66-39.33-8.66-54.34,0c-15.01,8.66-15,22.71,0,31.37c15.01,8.66,39.33,8.66,54.34,0 C211.49,324.42,211.49,310.38,196.49,301.71z M168.39,317.7c-3.86,2.23-10.12,2.23-13.97,0c-3.86-2.23-3.86-5.84,0-8.07 c3.86-2.23,10.12-2.23,13.97,0C172.25,311.86,172.25,315.47,168.39,317.7z" class="st31"/><path d="M175.92,307.2h-20.85c-1.91,0.44-3.76,0.97-5.55,1.59v17.67h26.4V307.2z M168.26,321.02 c-3.86,2.23-10.12,2.23-13.97,0c-3.86-2.23-3.86-5.84,0-8.07c3.86-2.23,10.12-2.23,13.97,0 C172.11,315.18,172.11,318.79,168.26,321.02z" class="st1"/><path d="M193.27,303.57c-13.23-7.64-34.67-7.64-47.9,0c-13.23,7.64-13.23,20.02,0,27.65c13.23,7.64,34.67,7.64,47.9,0 C206.49,323.59,206.49,311.21,193.27,303.57z M168.39,317.7c-3.86,2.23-10.12,2.23-13.97,0c-3.86-2.23-3.86-5.84,0-8.07 c3.86-2.23,10.12-2.23,13.97,0C172.25,311.86,172.25,315.47,168.39,317.7z" class="st2"/><path d="M145.37,306.44c13.23-7.64,34.67-7.64,47.9,0c5.98,3.45,9.25,7.88,9.82,12.39c0.69-5.47-2.57-11.08-9.82-15.26 c-13.23-7.64-34.67-7.64-47.9,0c-7.25,4.18-10.51,9.79-9.82,15.26C136.12,314.32,139.39,309.9,145.37,306.44z" class="st1"/><g><path d="M204.59,336.46c-2,1.99-4.48,3.87-7.44,5.58c-2.96,1.71-6.21,3.14-9.67,4.29l7.35,4.24l11.07,0.57l5.48,3.16 l-2.23,1.29l4.15,2.39l4.47-2.58l7.24,4.18l-7.28,4.2l5.35,3.09l5.19,3l6.46-3.73l9.58,5.53l-3.66,2.11l6.15,3.55l3.66-2.11 l2.89,1.67l-2.91,5.79l9.31,5.37l34.21,0L204.59,336.46z" class="st30"/><path d="M204.59,328.95c-2,1.99-4.48,3.87-7.44,5.58c-2.96,1.71-6.21,3.14-9.67,4.29l7.35,4.24l11.07,0.57l5.48,3.16 l-2.23,1.29l4.15,2.39l4.47-2.58l7.24,4.18l-7.28,4.2l5.35,3.09l5.19,2.99l6.46-3.73l9.58,5.53l-3.66,2.11l6.15,3.55l3.66-2.11 l2.89,1.67l-2.91,5.79l9.31,5.37l34.21,0L204.59,328.95z" class="st31"/><rect width="34.21" height="7.51" x="259.75" y="380.54" class="st1"/><polygon points="246.8 377.33 246.8 369.83 250.46 367.71 250.46 375.22" class="st1"/><polygon points="240.65 366.27 240.65 373.78 246.8 377.33 246.8 369.83" class="st1"/><polygon points="234.73 358.63 234.73 366.14 228.26 369.87 228.26 362.36" class="st1"/><polygon points="217.73 356.28 217.73 363.79 228.26 369.87 228.26 362.36" class="st1"/><polygon points="250.46 375.22 250.44 382.67 259.75 388.05 259.75 380.54" class="st1"/><polygon points="213.29 350.48 213.29 357.99 209.15 355.59 209.15 348.08" class="st1"/><polygon points="194.84 343.06 194.84 350.57 205.91 351.14 205.91 343.63" class="st1"/><polygon points="270.61 375.22 205.19 337.42 208.82 335.32 277.84 375.2" class="st1"/><polygon points="208.82 337.13 274.71 375.21 277.84 375.2 208.82 335.32 205.19 337.42 206.76 338.32" class="st32"/><polygon points="194.84 350.57 194.84 343.06 187.49 338.82 187.49 346.33" class="st1"/><polygon points="217.76 347.9 217.76 355.4 213.29 357.99 213.29 350.48" class="st1"/></g><path d="M193.27,303.57c-7.43-4.29-17.46-6.17-27.16-5.64v2.87c9.71-0.53,19.73,1.35,27.16,5.64 c5.98,3.45,9.25,7.88,9.82,12.39C203.78,313.36,200.51,307.76,193.27,303.57z" class="st30"/></g><path d="M95.72,356.39l0.01-3.32c0-0.2-0.16-0.27-0.37-0.16l-2.78,1.6c-0.2,0.12-0.37,0.38-0.37,0.58l-0.01,3.32	c0,0.2,0.16,0.27,0.37,0.16l2.78-1.6C95.55,356.86,95.72,356.6,95.72,356.39z" class="st2"/><g><path d="M219.8,537.16l-32.27-18.78c-2.72-1.57-2.38-4.32,0.76-6.13l30.76-17.92c3.14-1.82,7.9-2.01,10.63-0.44 l32.27,18.78c2.72,1.57,2.38,4.32-0.76,6.14l-30.76,17.92C227.28,538.53,222.52,538.73,219.8,537.16z" class="st0"/><path d="M263.77,497.36L263.77,497.36v-6.47l-34.33-0.02l0.24-0.01c-2.72-1.57-7.48-1.38-10.63,0.44l1.02-0.42 l-34.37-0.02v6.9c-0.08,1.06,0.52,2.09,1.82,2.85l32.27,18.78c2.72,1.57,7.48,1.38,10.63-0.44l30.76-17.92 C263,499.98,263.88,498.62,263.77,497.36z" class="st1"/><path d="M224.75,489.81c-1.99,0.05-4.06,0.55-5.7,1.49l1.02-0.42l-34.37-0.02v6.9c-0.08,1.06,0.52,2.09,1.82,2.85 l32.27,18.78c1.31,0.76,3.09,1.1,4.93,1.05L224.75,489.81z" class="st2"/><path d="M189.59,490.86l-3.89,0v6.9c-0.08,1.06,0.52,2.09,1.82,2.85l2.06,1.19V490.86z" class="st3"/><path d="M220.48,519.72c2.35,1.01,5.75,0.95,8.49-0.1v-9.03h-8.49V519.72z" class="st4"/><path d="M219.8,512.54l-32.27-18.78c-2.72-1.57-2.38-4.32,0.76-6.14l30.76-17.92c3.14-1.82,7.9-2.01,10.63-0.44 l32.27,18.78c2.72,1.57,2.38,4.32-0.76,6.13l-30.76,17.92C227.28,513.92,222.52,514.12,219.8,512.54z" class="st5"/></g><g><path d="M69.32,157.57L37.05,138.8c-2.72-1.57-2.38-4.32,0.76-6.14l30.76-17.92c3.14-1.82,7.9-2.01,10.63-0.44 l32.27,18.78c2.72,1.57,2.38,4.32-0.76,6.13l-30.76,17.92C76.81,158.95,72.05,159.14,69.32,157.57z" class="st0"/><path d="M113.3,119.31L113.3,119.31v-6.47l-34.33-0.02l0.24-0.01c-2.72-1.57-7.48-1.38-10.63,0.44l1.02-0.42 l-34.37-0.02v6.9c-0.08,1.06,0.52,2.09,1.82,2.85l32.27,18.78c2.72,1.57,7.48,1.38,10.63-0.44l30.76-17.92 C112.53,121.93,113.4,120.58,113.3,119.31z" class="st1"/><path d="M74.27,111.77c-1.99,0.05-4.06,0.55-5.7,1.49l1.02-0.42l-34.37-0.02v6.9c-0.08,1.06,0.52,2.09,1.82,2.85 l32.27,18.78c1.31,0.76,3.09,1.1,4.93,1.05L74.27,111.77z" class="st2"/><path d="M39.12,112.82l-3.89,0v6.9c-0.08,1.06,0.52,2.09,1.82,2.85l2.06,1.19V112.82z" class="st3"/><path d="M70.01,141.68c2.35,1.01,5.75,0.95,8.49-0.1v-9.03h-8.49V141.68z" class="st4"/><path d="M69.32,134.5l-32.27-18.78c-2.72-1.57-2.38-4.32,0.76-6.13l30.76-17.92c3.14-1.82,7.9-2.01,10.63-0.44 L111.47,110c2.72,1.57,2.38,4.32-0.76,6.14l-30.76,17.92C76.81,135.87,72.05,136.07,69.32,134.5z" class="st5"/></g><g><g><path d="M394.42,466.77c0,0-3.85-2.02-6.21,0.99c-2.36,3-5.74,10.1-5.84,14.89c-0.1,4.79,3.64,4.47,5.87,3.34 c2.23-1.13,8.74-10.96,9.13-12.89c0.39-1.93-0.46-4.53-1.09-5.04C395.66,467.55,394.42,466.77,394.42,466.77z" class="st7"/><path d="M395.26,465.81l0.18,4.15c0.04,0.88-0.39,1.72-1.13,2.16c-0.67,0.4-1.65,0.7-2.97,0.48 c-2.9-0.48-3.16-1.35-3.36-5.49C387.78,462.96,395.26,465.81,395.26,465.81z" class="st5"/><g><path d="M380.34,458.8c0,0-3.85-2.02-6.21,0.99c-2.36,3-5.74,10.1-5.84,14.89c-0.1,4.79,3.64,4.47,5.87,3.34 c2.23-1.13,8.74-10.96,9.13-12.89c0.39-1.93-0.46-4.53-1.09-5.04C381.59,459.58,380.34,458.8,380.34,458.8z" class="st7"/><path d="M381.18,457.84l0.18,4.15c0.04,0.88-0.39,1.72-1.13,2.16c-0.67,0.4-1.65,0.7-2.97,0.48 c-2.9-0.48-3.16-1.35-3.36-5.49C373.7,454.99,381.18,457.84,381.18,457.84z" class="st5"/><path d="M415.49,381.73c-1.14-19.27-20.05,2.83-20.05,2.83l-12.95,13.21l-11.66,13.33c-2.28,2.6-3.34,6.12-2.9,9.61 l4.72,37.37c0.23,1.85,1.75,3.21,3.54,3.19c0.51,0,1.08-0.05,1.75-0.16c4.21-0.68,3.9-4.84,3.9-4.84l-0.86-34.95l24.48-15.36 C405.46,405.95,416.63,401,415.49,381.73z" class="st1"/></g><path d="M429.57,389.07c-1.14-19.27-20.05,2.83-20.05,2.83l-12.95,13.21l-11.66,13.33c-2.28,2.6-3.34,6.12-2.9,9.61 l4.72,37.37c0.23,1.85,1.75,3.21,3.54,3.19c0.51,0,1.08-0.05,1.75-0.16c4.21-0.68,3.9-4.84,3.9-4.84l-0.86-34.95l24.48-15.36 C419.53,413.29,430.71,408.34,429.57,389.07z" class="st1"/><path d="M418.38,327.21c14.34,6.19,14.05,15.01,14.05,15.01s-2.81,32.34-1.85,53.94c0.4,9.03-46.1,9.72-39.16-14.37 c8.18-28.4,5.11-51.4,8.94-54.86C404.18,323.46,414.67,325.61,418.38,327.21z" class="st7"/><path d="M422.99,335.03c-0.75,3.03-4.56,4.63-8.52,3.57c-3.96-1.06-6.55-4.38-5.8-7.41 c0.75-3.03,4.56-4.63,8.52-3.57C421.14,328.69,423.74,332,422.99,335.03z" class="st14"/><path d="M416.89,339.64c-0.84,0-1.71-0.11-2.59-0.35c-4.31-1.16-7.14-4.87-6.3-8.27c0.84-3.4,5.04-5.24,9.36-4.08 c2.05,0.55,3.84,1.69,5.03,3.2c1.24,1.58,1.69,3.38,1.27,5.07C422.98,337.93,420.18,339.64,416.89,339.64z M414.73,328.01 c-2.66,0-4.89,1.29-5.4,3.36c-0.65,2.64,1.73,5.58,5.31,6.54c3.58,0.96,7.03-0.41,7.69-3.05c0.31-1.24-0.05-2.59-1.01-3.81 c-1.01-1.28-2.53-2.25-4.31-2.72C416.24,328.11,415.47,328.01,414.73,328.01z" class="st6"/><path d="M412.63,326.54c0,0,0.12,0.6-0.12,5.33c-0.08,1.49,4.92,2.88,6.22,1.53c1.29-1.35,0.78-2.75,1.09-7.8 C420.12,320.53,412.63,326.54,412.63,326.54z" class="st14"/><path d="M419.81,325.59c0,0-1.23,4.69-7.3,6.49l0.09-4.26L419.81,325.59z" class="st16"/><path d="M423.65,313.67c1.53,6.14-2.02,12.41-7.92,14c-5.9,1.59-11.92-2.1-13.45-8.25c-1.53-6.14,2.02-12.41,7.92-14 C416.11,303.84,422.13,307.53,423.65,313.67z" class="st14"/><path d="M415.5,316.97c0,0-6.08,2.71-10.29,2.74c-4.21,0.03-3.28-3.64-3.28-3.64l12.49-1.88L415.5,316.97z" class="st16"/><path d="M403.96,317.68c0,0,5.29-2.34,9.94-1.36c1.09,0.23,2.1,0.84,2.81,1.74c0.23,0.29,0.52,0.56,0.85,0.64 c0.82,0.19,2.17-3.36,3.77-3.44c1.6-0.08,2.67,1.1,1.36,3.29c-1.31,2.19-0.87,4.63-0.26,4.99c0.6,0.35,7.01-4.75,1.36-16.4 c-5.65-11.65-20-5.37-22.24-3.01c0,0-2.35,2.13-4.26,0.23C397.28,304.34,395.14,321.05,403.96,317.68z" class="st1"/><path d="M424.39,365.85v8.74c0,1-0.41,1.96-1.12,2.63l-17.25,16.37l1.96,3.12l22.78-17.19 c1.06-0.8,1.75-2.04,1.89-3.4l1.54-15.24L424.39,365.85z" class="st14"/><path d="M431.22,337.85c0,0,5.23,8.19,7.18,29.75c0,0-8.94,3.01-14.01,1.3C419.31,367.2,431.22,337.85,431.22,337.85z" class="st7"/><path d="M423.43,348.21c0,0-2.05,11.41-2.17,16.77c-0.03,1.47,0.83,2.8,2.17,3.31l0,0V348.21z" class="st2"/></g><g><path d="M418.96,404.95l-3.81-0.52l-24.61-14.79c-0.79-0.47-2.17-0.41-3.08,0.13l-17.44,10.47l-2.31-0.32v2.39l0,0 c-0.02,0.31,0.16,0.62,0.53,0.84l27.89,16.76c0.79,0.47,2.17,0.41,3.08-0.13l18.99-11.41c0.51-0.31,0.77-0.7,0.75-1.08l0,0V404.95 z" class="st7"/><path d="M400.46,395.61l-1.75-1.05h-19.23l-9.48,5.69l-2.31-0.32v2.39l0,0c-0.02,0.31,0.16,0.62,0.53,0.84 l27.89,16.76c0.42,0.25,1,0.35,1.59,0.31L400.46,395.61z" class="st2"/><path d="M368.73,400.07l-1.02-0.14v2.39l0,0c-0.02,0.31,0.16,0.62,0.53,0.84l0.49,0.3V400.07z" class="st7"/><path d="M396.41,420.05c0.75,0.3,1.82,0.23,2.62-0.17v-4.06h-2.62V420.05z" class="st6"/><path d="M396.13,417.53l-27.89-16.76c-0.79-0.47-0.69-1.3,0.22-1.85l18.99-11.41c0.91-0.55,2.29-0.61,3.08-0.13 l27.89,16.76c0.79,0.47,0.69,1.3-0.22,1.85l-18.99,11.41C398.3,417.95,396.92,418.01,396.13,417.53z" class="st6"/><path d="M395.66,414.99l-23.19-13.93c-0.66-0.39-0.57-1.08,0.18-1.54l10.18-5.96c0.76-0.46,1.9-0.5,2.56-0.11 l23.19,13.94c0.66,0.39,0.57,1.08-0.18,1.54l-10.18,5.96C397.46,415.34,396.31,415.39,395.66,414.99z" class="st5"/></g><path d="M388.53,386.96l-0.29,2c-0.25,1.71-0.2,3.44,0.13,5.14l0.34,1.76c0.19,1,0.95,1.77,1.91,1.95l0,0 c0.75,0.14,1.46-0.41,1.54-1.19l0.46-4.28c0,0,1.05,1.44,1.56,1.44c0.51,0-0.57-4.29-1.72-6.71 C391.32,384.64,388.53,386.96,388.53,386.96z" class="st14"/><path d="M397.98,355.13l-2.99,6.16c-0.71,1.46-1.12,3.05-1.22,4.68l-1.3,21.09l-3.94-0.1l-1.79-23.68 c-0.06-0.73-0.02-1.47,0.1-2.19l2.04-12.01L397.98,355.13z" class="st14"/><g><path d="M395.19,419.14l-2.34-3.18l-24.6-14.82c-0.79-0.48-1.43-1.75-1.43-2.84l0.02-20.96l-1.41-1.92l1.33-0.8l0,0 c0.25-0.17,0.59-0.17,0.96,0.06l27.87,16.79c0.79,0.48,1.43,1.75,1.43,2.84L397,417.14c0,0.62-0.2,1.04-0.52,1.22l0,0 L395.19,419.14z" class="st1"/><path d="M378.18,407.12l-1.75-1.05l-9.59-17.34l0.01-11.39l-1.41-1.92l1.33-0.8l0,0c0.25-0.17,0.59-0.17,0.96,0.06 l27.87,16.79c0.42,0.25,0.79,0.73,1.05,1.28L378.18,407.12z" class="st2"/><path d="M366.06,376.28l-0.63-0.85l1.33-0.8l0,0c0.25-0.17,0.59-0.17,0.96,0.06l0.49,0.3L366.06,376.28z" class="st7"/><path d="M395.85,391.66c0.62,0.53,1.1,1.52,1.16,2.44l-2.72,1.64l-1.31-2.36L395.85,391.66z" class="st4"/><path d="M394.27,392.28l-27.87-16.79c-0.79-0.48-1.43,0.03-1.43,1.12l-0.02,22.82c0,1.09,0.64,2.37,1.43,2.84 l27.87,16.79c0.79,0.48,1.43-0.03,1.43-1.12l0.02-22.82C395.7,394.03,395.06,392.75,394.27,392.28z" class="st7"/></g><path d="M407.98,396.71l-0.45,0.96c-0.51,1.11-1.32,2.04-2.33,2.69l-2.77,1.78c-0.86,0.55-1.95,0.6-2.83,0.07 c-0.03-0.02-0.06-0.04-0.09-0.06c-0.88-0.57-0.96-1.89-0.24-2.66l2.89-3.1c0,0-1.63,1.3-2.08,0.77c-0.33-0.38,1.58-2.25,3.04-2.31 c1.47-0.06,2.89-1.26,2.89-1.26L407.98,396.71z" class="st14"/><path d="M400.64,326.88c0,0-10.61,12.01-14.89,23.03c0,0,3.63,6.8,12.51,9.47 C407.14,362.05,400.64,326.88,400.64,326.88z" class="st7"/><path d="M396.27,358.67l1.72-17.28l-4.05,16.19C394.66,357.97,395.44,358.33,396.27,358.67z" class="st2"/><path d="M408.59,324.46l-2.85-0.81c0,0,1.36,2.23,3.35,2.8c1.99,0.57,2.3-1.18,2.3-1.18L408.59,324.46z" class="st6"/></g><path d="M482.84,522.3c-5.94,0-10.77-5.25-10.77-11.71c0-6.45,4.83-11.71,10.77-11.71c5.94,0,10.77,5.25,10.77,11.71	C493.62,517.05,488.78,522.3,482.84,522.3z M482.84,502.49c-4.11,0-7.46,3.64-7.46,8.1s3.35,8.11,7.46,8.11s7.46-3.64,7.46-8.11	S486.95,502.49,482.84,502.49z" class="st7"/><path d="M510.89,241.58l-7.31-16.16l14.87-7.95l7.31,16.16L510.89,241.58z M508.02,227.06l4.39,9.7l8.93-4.77l-4.39-9.7	L508.02,227.06z" class="st7"/><path d="M490.3,80.9c-8.38,0-15.19-7.41-15.19-16.51c0-9.1,6.81-16.51,15.19-16.51c8.38,0,15.19,7.41,15.19,16.51	C505.49,73.49,498.68,80.9,490.3,80.9z M490.3,51.48c-6.55,0-11.88,5.79-11.88,12.91c0,7.12,5.33,12.91,11.88,12.91	c6.55,0,11.88-5.79,11.88-12.91C502.18,57.27,496.85,51.48,490.3,51.48z" class="st5"/><g><path d="M320.62,519.67l1.68-3.1c0,0,1.41,0.84,2.91,0.33c1.21-0.41,2.25-1.6,3.1-3.52c3.01-6.77,8.56-7.29,11.08-6.61 l-0.79,3.5l0.4-1.75l-0.38,1.75c-0.48-0.12-4.79-1.01-7.31,4.68c-1.28,2.88-3.02,4.7-5.16,5.41 C323.28,521.29,320.88,519.84,320.62,519.67z" class="st7"/></g><g><polygon points="42.72 514.59 40.37 512.05 51.51 499.95 53.85 502.49" class="st5"/><polygon points="51.51 514.59 40.37 502.49 42.72 499.95 53.85 512.05" class="st5"/></g><path d="M58.91,39.24c0,4.69-3.5,8.5-7.82,8.5c-4.32,0-7.82-3.8-7.82-8.5c0-4.69,3.5-8.5,7.82-8.5	C55.41,30.74,58.91,34.55,58.91,39.24z" class="st5"/><polygon points="195.87 116.92 185.45 122.5 180.11 110.74 190.53 105.16" class="st7"/><g><polygon points="49.64 205.85 48.92 202.79 57.08 200.52 57.8 203.58" class="st7"/><polygon points="45.47 210.26 44.75 207.21 52.92 204.94 53.64 207.99" class="st7"/><polygon points="41.31 214.67 40.59 211.62 48.75 209.35 49.47 212.4" class="st7"/><polygon points="37.15 219.09 36.43 216.03 44.59 213.76 45.31 216.81" class="st7"/></g></svg>