<svg width="263" height="44" viewBox="0 0 263 44" fill="none" xmlns="http://www.w3.org/2000/svg">
<path d="M243.405 22.4049C243.405 24.2259 243.752 25.8464 244.444 27.2662C245.133 28.686 246.109 29.7971 247.366 30.5998C248.624 31.3714 250.068 31.7571 251.704 31.7571C253.746 31.7571 255.428 31.3097 256.748 30.4145C258.098 29.5194 258.948 28.2539 259.292 26.6181L262.123 27.1737C261.589 29.4887 260.409 31.2787 258.586 32.5443C256.763 33.8098 254.484 34.4425 251.75 34.4425C249.551 34.4425 247.585 33.9333 245.857 32.9147C244.128 31.8651 242.776 30.43 241.803 28.6088C240.859 26.757 240.388 24.6889 240.388 22.4049C240.388 20.1209 240.859 18.0683 241.803 16.2472C242.776 14.3953 244.128 12.96 245.857 11.9414C247.585 10.892 249.551 10.3673 251.75 10.3673C253.887 10.3673 255.789 10.8303 257.455 11.7563C259.152 12.6822 260.472 13.9631 261.414 15.599C262.358 17.2349 262.829 19.0868 262.829 21.1548C262.798 21.6487 262.766 22.1579 262.734 22.6826H242.085V19.9975H259.766C259.513 17.9294 258.681 16.2626 257.266 14.9971C255.853 13.7008 254.013 13.0526 251.75 13.0526C249.267 13.0526 247.255 13.9014 245.716 15.599C244.206 17.2966 243.437 19.5653 243.405 22.4049Z" fill="#202020"/>
<path d="M226.074 34.4438C223.622 34.4438 221.532 33.9189 219.804 32.8696C218.075 31.7892 216.755 30.3386 215.844 28.5176C214.963 26.6964 214.524 24.6594 214.524 22.4062C214.524 20.153 214.963 18.1158 215.844 16.2947C216.755 14.4737 218.075 13.0384 219.804 11.989C221.532 10.9087 223.622 10.3685 226.074 10.3685C227.71 10.3685 229.295 10.7543 230.836 11.526C232.375 12.2976 233.538 13.2853 234.324 14.4891V1.29404H237.295V34.0734H234.324V30.3231C233.79 31.4652 232.737 32.4374 231.166 33.24C229.625 34.0424 227.928 34.4438 226.074 34.4438ZM226.168 31.7584C228.746 31.7584 230.805 30.9096 232.344 29.212C233.885 27.5143 234.655 25.2458 234.655 22.4062C234.655 19.5665 233.885 17.2979 232.344 15.6003C230.805 13.9026 228.746 13.0538 226.168 13.0538C223.59 13.0538 221.532 13.9026 219.993 15.6003C218.452 17.2979 217.682 19.5665 217.682 22.4062C217.682 25.2458 218.452 27.5143 219.993 29.212C221.532 30.9096 223.59 31.7584 226.168 31.7584Z" fill="#202020"/>
<path d="M208.429 18.7936C208.429 17.0343 207.832 15.6453 206.638 14.6268C205.475 13.5773 203.935 13.0526 202.018 13.0526C200.195 13.0526 198.702 13.5465 197.539 14.5341C196.376 15.5219 195.684 16.8645 195.464 18.5621L192.588 18.0065C192.934 15.7225 193.971 13.886 195.7 12.497C197.429 11.0772 199.535 10.3673 202.018 10.3673C203.841 10.3673 205.459 10.7222 206.873 11.4322C208.288 12.1112 209.388 13.0835 210.174 14.349C210.992 15.6145 211.4 17.0651 211.4 18.701V34.0721H208.429V18.7936ZM200.037 34.4425C198.466 34.4425 197.067 34.1648 195.841 33.6091C194.616 33.0227 193.657 32.2201 192.966 31.2017C192.306 30.1521 191.976 28.9485 191.976 27.5904C191.976 25.368 192.934 23.6395 194.851 22.4049C196.769 21.1393 199.707 20.306 203.667 19.9048L209.136 19.3492V21.803L203.762 22.3586C200.87 22.6673 198.702 23.269 197.256 24.1642C195.81 25.0285 195.087 26.1704 195.087 27.5904C195.087 28.825 195.574 29.8281 196.549 30.5998C197.523 31.3714 198.765 31.7571 200.273 31.7571C202.85 31.7571 204.846 31.0165 206.26 29.5349C207.706 28.0534 208.429 25.9699 208.429 23.2845L208.665 29.257C208.068 30.8312 206.968 32.0968 205.365 33.0535C203.793 33.9795 202.018 34.4425 200.037 34.4425Z" fill="#202020"/>
<path d="M192.232 13.6082C191.289 13.2378 190.251 13.0526 189.12 13.0526C187.768 13.0526 186.558 13.5156 185.49 14.4416C184.421 15.3367 183.573 16.6948 182.944 18.5158C182.347 20.3059 182.048 22.4821 182.048 25.0438V34.0721H179.078V10.7377H182.048V15.6916C182.771 14.1483 183.84 12.8828 185.254 11.8951C186.669 10.8766 188.114 10.3673 189.591 10.3673C190.629 10.3673 191.571 10.5062 192.42 10.784L192.232 13.6082Z" fill="#202020"/>
<path d="M176.417 33.9331C175.38 34.2726 174.169 34.4423 172.787 34.4423C170.838 34.4423 169.298 33.8714 168.166 32.7293C167.035 31.5564 166.469 29.7972 166.469 27.4513V13.4229H161.849V10.7375H166.469V3.56128H169.439V10.7375H175.992V13.4229H169.439V27.9142C169.439 29.1798 169.769 30.1366 170.429 30.7848C171.089 31.433 172.001 31.7569 173.164 31.7569C174.358 31.7569 175.38 31.541 176.228 31.1088L176.417 33.9331Z" fill="#202020"/>
<path d="M159.753 27.962C160.238 27.962 160.631 28.3481 160.631 28.8247V33.2105C160.631 33.687 160.238 34.0732 159.753 34.0732H155.192C154.707 34.0732 154.314 33.687 154.314 33.2105V28.8247C154.314 28.3481 154.707 27.962 155.192 27.962H159.753Z" fill="#202020"/>
<path d="M128.724 10.7377H134.664V14.2564C135.45 13.0835 136.503 12.1421 137.823 11.4322C139.143 10.7222 140.604 10.3673 142.207 10.3673C143.936 10.3673 145.445 10.7222 146.733 11.4322C148.053 12.1112 149.075 13.0989 149.798 14.3953C150.52 15.6607 150.882 17.1269 150.882 18.7936V34.0721H144.942V20.1825C144.942 18.7936 144.533 17.6824 143.716 16.8491C142.899 15.9848 141.799 15.5527 140.416 15.5527C139.222 15.5527 138.184 15.8768 137.304 16.525C136.456 17.1732 135.796 18.1146 135.324 19.3492C134.884 20.5839 134.664 22.0807 134.664 23.8402V34.0721H128.724V10.7377Z" fill="#202020"/>
<path d="M121.301 32.9623C119.604 33.9499 117.592 34.4438 115.266 34.4438C113.821 34.4438 112.469 34.1659 111.212 33.6104C109.986 33.0548 109.075 32.3141 108.477 31.388V34.0734H102.537V1.29404H108.477V13.3316C109.2 12.4365 110.159 11.7266 111.353 11.2019C112.579 10.6463 113.915 10.3685 115.361 10.3685C117.687 10.3685 119.682 10.8778 121.348 11.8964C123.045 12.8841 124.334 14.2885 125.214 16.1095C126.125 17.9306 126.581 20.0295 126.581 22.4062C126.581 24.7829 126.125 26.8816 125.214 28.7026C124.334 30.5239 123.03 31.9437 121.301 32.9623ZM109.797 27.499C110.96 28.7644 112.5 29.3973 114.418 29.3973C116.303 29.3973 117.812 28.7644 118.944 27.499C120.106 26.2335 120.688 24.5359 120.688 22.4062C120.688 20.2765 120.106 18.5788 118.944 17.3133C117.812 16.0478 116.303 15.4151 114.418 15.4151C112.5 15.4151 110.96 16.0478 109.797 17.3133C108.666 18.5788 108.1 20.2765 108.1 22.4062C108.1 24.5359 108.666 26.2335 109.797 27.499Z" fill="#202020"/>
<path d="M101.109 16.3861C100.292 16.0157 99.2865 15.8305 98.0922 15.8305C96.8979 15.8305 95.8293 16.17 94.8863 16.8491C93.9435 17.4972 93.1733 18.5621 92.5761 20.0437C92.0105 21.4943 91.7275 23.3155 91.7275 25.507V34.0721H85.7874V10.7377H91.7275V14.9971C92.3249 13.7008 93.299 12.6051 94.6506 11.7099C96.0335 10.8148 97.4479 10.3673 98.8937 10.3673C99.8681 10.3673 100.732 10.4908 101.487 10.7377L101.109 16.3861Z" fill="#202020"/>
<path d="M72.4677 34.4425C70.1104 34.4425 68.0204 33.9333 66.1974 32.9147C64.3744 31.8961 62.9444 30.4763 61.9072 28.6553C60.9015 26.8341 60.3986 24.7506 60.3986 22.4049C60.3986 20.0592 60.9015 17.9757 61.9072 16.1546C62.9444 14.3335 64.3744 12.9137 66.1974 11.8951C68.0204 10.8766 70.1104 10.3673 72.4677 10.3673C75.4849 10.3673 77.9993 11.0926 80.0109 12.5433C82.0538 13.994 83.2638 15.954 83.6411 18.4232L77.8422 19.5344C77.6223 18.2689 77.0407 17.2658 76.0979 16.525C75.1864 15.7842 74.0392 15.4138 72.6563 15.4138C70.8333 15.4138 69.3562 16.0466 68.2246 17.3121C67.1247 18.5775 66.5746 20.2752 66.5746 22.4049C66.5746 24.5346 67.1247 26.2321 68.2246 27.4977C69.3562 28.7633 70.8333 29.3959 72.6563 29.3959C74.0392 29.3959 75.1706 29.0565 76.0508 28.3773C76.9623 27.6674 77.5594 26.6798 77.8422 25.4142L83.6411 26.5718C83.1696 29.0102 81.9281 30.9392 79.9167 32.359C77.9366 33.7481 75.4536 34.4425 72.4677 34.4425Z" fill="#202020"/>
<path fill-rule="evenodd" clip-rule="evenodd" d="M19.8585 0C8.89094 0 0 8.73127 0 19.5018V41.8451C0 43.0353 0.982462 44 2.19439 44H24.9461C33.6425 44 41.0333 38.5105 43.7213 30.8676C43.6301 30.8709 43.5369 30.8467 43.4549 30.792C41.9761 29.8048 36.8911 26.5196 33.0446 25.3754C29.9217 24.4467 25.2423 24.2144 22.5858 24.1605L14.5495 31.8354C14.0921 32.2723 13.3695 32.2903 12.8901 31.8769L12.4778 31.5215C11.9596 31.0745 11.92 30.2954 12.3904 29.8001L30.1034 11.1484C30.5639 10.6634 31.3376 10.6369 31.8315 11.0891L33.1596 12.305C33.6707 12.773 33.6791 13.5658 33.1781 14.0443L25.6538 21.2304C28.3014 21.3679 31.7411 21.6859 34.2143 22.4177C37.8815 23.5032 42.6687 26.4258 44.5504 27.6276C44.7175 26.6086 44.8046 25.5634 44.8046 24.4981V2.155C44.8046 0.964823 43.8222 0 42.6103 0H19.8585Z" fill="#202020"/>
</svg>
