<svg xmlns="http://www.w3.org/2000/svg" xmlns:xlink="http://www.w3.org/1999/xlink" id="Layer_1" x="0" y="0" version="1.1" viewBox="0 0 422.2 128.8" style="enable-background:new 0 0 422.2 128.8" xml:space="preserve"><style type="text/css">.st0{fill:#00a19a}.st1{fill:#f47a38}.st2{fill:#fff}</style><g><g><path d="M63.7,128.8c-5,0-10.1-0.2-15.1-1c-13.5-2.1-25.9-9.3-34.8-20C5.2,97.2,0.3,83.8,0.1,70.2l0-0.8 c-0.1-9.6-0.3-19.5,3.1-29.2h0C7.7,26.9,16.8,15.7,28.7,8.7c13.5-8,28.4-8,40.3-8.1l46.8-0.2c10,0,20.2-0.1,30.1-0.2 c19.8-0.2,40.2-0.4,60.3-0.1c0.4,0,0.7,0,1.1,0l0.6,0c0,0,0,0,0,0c2.8,0,5.5,1.1,7.6,3.2c2,2,3.2,4.7,3.2,7.6l0.4,106.4 c0,3.2-1.2,6-3.5,7.9c-1.9,1.9-4.4,2.9-7.3,2.9l-129.7,0.4c-2.3,0-4.6,0.1-6.9,0.1C69,128.7,66.4,128.8,63.7,128.8z M183.9,8.8 c-12.7,0-25.5,0.1-37.9,0.2c-9.9,0.1-20.1,0.2-30.1,0.2L69.1,9.4c-13.8,0-25.2,0.6-35.9,6.9c-10.1,6-17.8,15.5-21.8,26.8 C8.6,51.3,8.7,60,8.9,69.2l0,0.8c0.4,24.3,18.1,45.4,41.2,49c6.8,1.1,14.2,0.9,21.3,0.8c2.4-0.1,4.7-0.1,7.1-0.1l129.7-0.4 c0.7,0,1-0.2,1.2-0.4l0.3-0.3c0.1-0.1,0.5-0.4,0.5-1.3l-0.4-106.4c0-0.5-0.2-1-0.6-1.4c-0.2-0.2-0.7-0.6-1.3-0.6c0,0,0,0,0,0 l-0.6,0c-0.4,0-0.8,0-1.3,0C198.7,8.8,191.3,8.8,183.9,8.8z" class="st0"/></g><g><path d="M419.5,41.6C415.7,29.5,408,19,397.8,12.5c-11-7.1-22.7-7.4-35-7.5c-14.3-0.1-28.6-0.1-42.9-0.2 c-27.6-0.1-55.3-0.7-82.9-0.3c-0.5,0-1.1,0-1.6,0c-3.2,0-5.8,2.9-5.8,6.4c-0.1,31-0.2,62-0.3,93c0,4.5,0,9,0,13.4 c0,2.1,0.7,3.6,1.9,4.7c0.9,1,2.3,1.7,4,1.7c24,0.1,47.9,0.2,71.9,0.3c15.7,0.1,31.5,0.1,47.2,0.2c8.8,0,18,0.8,26.7-0.7 c23.9-4.1,40.9-27.4,41.2-53.3C422.2,60.5,422.5,50.8,419.5,41.6z" class="st1"/></g><g><g><path d="M348.5,85.4c-7.8-16.8-15.7-33.5-23.5-50.3c-1.2-2.5-3.2-3.6-5.6-3.6c-3,0-5,1.3-6.1,3.9 c-7.7,16.6-15.4,33.2-23.1,49.7c-1.5,3.2-0.7,5.7,2.1,7c2.8,1.3,5.6,0.3,7-2.8c1.5-3.2,3-6.4,4.3-9.6c0.5-1.2,1.2-1.6,2.4-1.6 c8.9,0,17.8,0.1,26.7,0c1.3,0,1.9,0.5,2.4,1.6c1.4,3.3,2.9,6.6,4.4,9.8c1.3,2.9,4,3.9,6.7,2.6C348.9,91,349.9,88.4,348.5,85.4z M308.1,69.4c3.7-8.3,7.3-16.5,11.2-25.2c3.8,8.6,7.5,16.8,11.2,25.2H308.1z" class="st2"/></g><g><path d="M285.8,37.4c-3.7-3.9-8.6-5.2-13.8-5.4c-7.6-0.2-15.2-0.1-22.8,0c-3.6,0-5.3,1.8-5.3,5.4 c0,16.6,0,33.1,0,49.7c0,3.7,2,5.7,5.6,5.6c3.3-0.1,5.3-2,5.3-5.3c0.1-6.1,0-12.2,0-18.5c1.6,0,3.1,0,4.6,0 c5.7-0.2,11.4,0.1,17-0.7c6.6-0.9,11.4-4.8,13.3-11.4C291.7,49.8,291.2,43,285.8,37.4z M272.4,60c-5.7,0.4-11.5,0.1-17.5,0.1 V40.7c0.5-0.1,1.1-0.2,1.6-0.2c5.4,0.1,10.9-0.1,16.2,0.5c5.2,0.6,7.5,4.2,7.4,10.1C280,56,277.2,59.7,272.4,60z" class="st2"/></g><g><path d="M402.2,86.3C399,89.2,395.2,91,391,92c-6.7,1.7-13.3,1.5-19.8-0.9c-8.3-3.1-13.5-9.2-15.9-17.5 c-2.2-7.4-2.3-15-0.2-22.5c3.4-12.2,13-19.6,25.6-20c7.8-0.2,14.9,1.5,21.1,6.4c2,1.5,2.4,3.5,1.8,5.8c-0.6,2.3-2.6,3.4-4.9,2.5 c-1.1-0.4-2.2-1.1-3.2-1.8c-5.3-3.7-11.2-4.8-17.4-3.5c-7.2,1.5-10.9,6.5-12.4,13.3c-0.6,2.7-0.7,5.5-1.1,8.6 c0.4,2.8,0.7,5.9,1.4,8.9c2.4,9.8,10.1,13.6,19.1,12.4c3.3-0.4,6.4-2.1,9.5-3.3c0.9-0.4,1.7-1.1,2.6-1.6c2.5-1.4,4.4-1.3,5.7,0.4 C404.4,81.4,404.2,84.5,402.2,86.3z" class="st2"/></g></g><g><g><path d="M74.8,92.3c-4.2,0.1-8.4,0-12.6,0c-6.1,0-12.2,0-18.3,0c-4,0-5.7-1.7-5.7-5.7V37.7c0-4,1.7-5.7,5.7-5.7 c10.3,0,20.5,0,30.8,0c3.7,0,5.7,2.3,4.8,5.5c-0.5,1.9-1.9,3-4.2,3.1c-5.1,0.1-10.2,0.1-15.3,0.1c-3.1,0-6.2,0-9.4,0 c-0.9,0-1.6,0.1-1.6,1.3c0,5,0,10,0,15.3h22.7c0.9,0,1.8,0,2.6,0.2c2.6,0.5,3.7,2,3.6,4.6c-0.1,2.3-1.6,3.8-4.2,3.8 c-7.5,0.1-14.9,0.2-22.4,0.1c-1.9,0-2.4,0.6-2.4,2.4c0.1,4.4,0.1,8.8,0,13.2c-0.1,1.7,0.5,2.2,2.2,2.1c7.7-0.1,15.3-0.1,23,0 c3.2,0,4.7,1,5.3,3.1C80.3,89.9,78.4,92.2,74.8,92.3z" class="st1"/></g><g><path d="M177.3,37c-0.2,2-1.3,3.3-3.3,3.6c-1.2,0.2-2.4,0.3-3.7,0.3c-7.5,0-14.9,0-22.6,0v16.4h2.2c7,0,14,0,21,0 c3.2,0,4.7,1.6,4.6,4.7c-0.1,2.3-1.2,3.7-3.6,3.9c-4.2,0.2-8.4,0.2-12.6,0.2c-3.8,0-7.6,0-11.7,0v2.3c0,6.1,0,12.2,0,18.3 c0,3.8-1.9,5.9-5.1,6c-3.6,0.1-5.8-1.9-5.8-5.6c0-9.7,0-19.4,0-29.1V37.5c0-3.7,1.7-5.5,5.5-5.5c10,0,20.1,0,30.1,0 C175.9,32,177.6,33.8,177.3,37z" class="st1"/></g><g><path d="M128.8,37.1c-0.2,2-1.3,3.2-3.3,3.5c-1.1,0.2-2.3,0.3-3.4,0.3c-6.8,0-13.6,0-20.4,0h-2.3v16.4h2.3 c6.9,0,13.8,0,20.8,0c3.3,0,4.8,1.6,4.7,4.7c-0.1,2.2-1.2,3.5-3.4,3.8c-1.1,0.2-2.2,0.2-3.2,0.2c-6.2,0-12.5,0-18.7,0h-2.4v2.4 c0,6.1,0,12.2,0,18.3c0,4-2,6-5.6,6c-3.1,0-5.2-2.1-5.3-5.2c0-0.3,0-0.7,0-1V37.9c0-4.2,1.6-5.9,5.9-5.9c9.9,0,19.8,0,29.8,0 C127.4,32,129.1,33.9,128.8,37.1z" class="st1"/></g><g><path d="M196.3,37.5c0,16.6,0,33.2,0,49.9c0,3-1.8,5.1-4.4,5.4c-3.3,0.4-5.6-1-6.3-3.8c-0.2-0.7-0.2-1.5-0.2-2.2 c0-8.3,0-16.6,0-24.8V37.5c0-3.8,1.9-5.9,5.4-5.9C194.4,31.6,196.3,33.6,196.3,37.5z" class="st1"/></g></g></g></svg>