<svg xmlns="http://www.w3.org/2000/svg" width="243" height="68" viewBox="0 0 243 68" fill="#000000">
<path d="M192.322 14.5501C182.746 14.5501 174.981 22.3127 174.981 31.8909C174.981 41.469 182.744 49.2316 192.322 49.2316C201.9 49.2316 209.663 41.469 209.663 31.8909C209.663 22.3127 201.9 14.5501 192.322 14.5501ZM192.406 40.2857C187.769 40.2857 184.011 36.5274 184.011 31.8909C184.011 27.2544 187.769 23.496 192.406 23.496C197.042 23.496 200.8 27.2544 200.8 31.8909C200.8 36.5274 197.042 40.2857 192.406 40.2857Z" fill="#000000"/>
<path d="M233.499 34.1059C233.499 37.524 230.727 40.2967 227.308 40.2967C223.89 40.2967 221.118 37.524 221.118 34.1059H212.11C212.11 42.4591 218.881 49.2294 227.234 49.2294C235.587 49.2294 242.357 42.4591 242.357 34.1059H233.497H233.499Z" fill="#000000"/>
<path d="M242.357 15.4765C242.357 7.12339 235.587 0.353058 227.234 0.353058C218.881 0.353058 212.11 7.12339 212.11 15.4765H220.971C220.971 12.0584 223.743 9.28576 227.161 9.28576C230.58 9.28576 233.352 12.0584 233.352 15.4765H242.36H242.357Z" fill="#000000"/>
<path d="M242.342 32.5209C238.742 28.9206 231.688 29.465 227.234 29.465C220.575 29.465 212.11 26.6989 212.11 17.0527C215.97 20.4752 222.119 20.2799 227.234 20.2799C235.341 20.2799 242.342 26.2862 242.342 32.5187V32.5209Z" fill="#000000"/>
<path d="M175.15 67.5734C180.529 62.1949 187.429 62.8513 192.408 62.8513C199.848 62.8513 209.665 59.6791 209.665 42.8454C204.802 51.5542 198.126 52.9856 192.408 52.9856C183.348 52.9856 175.15 59.4705 175.15 67.5734Z" fill="#000000"/>
<path d="M26.2205 9.01167C24.3018 5.54088 20.7498 3.21387 15.8477 3.21387C8.74149 3.21387 3.84155 8.23673 3.84155 15.22C3.84155 22.2033 8.86443 27.3074 15.8477 27.3074C22.1768 27.3074 25.8934 23.5907 27.2392 18.8555H14.131V16.1596H30.7099C30.2204 23.7949 24.6267 30.0844 15.8455 30.0844C7.06427 30.0844 0.572754 23.6324 0.572754 15.22C0.572754 6.80758 6.90182 0.355576 15.8455 0.355576C22.2163 0.355576 27.0745 3.54095 29.4828 9.01167H26.2161H26.2205Z" fill="#000000"/>
<path d="M47.1263 12.2779H46.2679C41.8576 12.2779 39.1639 15.2592 39.1639 19.9966V29.5111H35.9785V9.42184H39.041V14.403C40.0201 10.7698 43.166 9.25719 47.1263 9.25719V12.2779Z" fill="#000000"/>
<path d="M71.0553 9.41963V29.5089H67.9929V25.4674C66.7679 27.7132 63.6637 30.0007 59.5804 30.0007C53.4138 30.0007 49.291 25.0195 49.291 19.4654C49.291 13.9112 53.416 8.93008 59.5804 8.93008C63.6637 8.93008 66.8491 11.1759 67.9511 13.5029V9.41963H71.0553ZM60.1117 27.3861C63.9908 27.3861 67.8699 24.5278 67.8699 19.4654C67.8699 14.403 63.9908 11.5447 60.1117 11.5447C55.4576 11.5447 52.4764 15.1779 52.4764 19.4654C52.4764 23.7528 55.4576 27.3861 60.1117 27.3861Z" fill="#000000"/>
<path d="M91.5112 9.41965H94.9008L86.4884 29.0194L82.6905 38.0026H79.4238L83.3447 28.7735L75.0552 9.41748H78.3635L85.0197 25.5069L91.5134 9.41748L91.5112 9.41965Z" fill="#000000"/>
<path d="M99.9633 23.7924C100.413 26.2006 102.209 27.6298 104.944 27.6298C107.68 27.6298 109.517 26.2423 109.517 24.0777C109.517 22.3215 108.415 21.3819 106.455 20.8111L103.188 19.8715C100.249 19.0549 98.0424 17.584 98.0424 14.4403C98.0424 11.132 100.859 8.9279 104.699 8.9279C108.538 8.9279 110.946 11.2549 111.394 14.5633H108.617C108.413 12.8487 107.188 11.2966 104.696 11.2966C102.451 11.2966 100.98 12.4799 100.98 14.3591C100.98 16.2383 102.082 16.7674 104.042 17.3403L107.675 18.4029C110.738 19.3007 112.452 21.0153 112.452 23.8736C112.452 27.6298 108.859 29.9985 104.898 29.9985C100.938 29.9985 97.7109 27.9986 97.1401 23.7924H99.9567H99.9633Z" fill="#000000"/>
<path d="M115.849 19.4654C115.849 13.9529 120.055 8.93008 126.711 8.93008C133.367 8.93008 137.573 13.9529 137.573 19.4654C137.573 24.9778 133.367 30.0007 126.711 30.0007C120.055 30.0007 115.849 24.9778 115.849 19.4654ZM118.953 19.4654C118.953 23.5486 121.892 27.3465 126.711 27.3465C131.53 27.3465 134.469 23.5486 134.469 19.4654C134.469 15.3821 131.569 11.5842 126.711 11.5842C121.853 11.5842 118.953 15.4216 118.953 19.4654Z" fill="#000000"/>
<path d="M145.819 29.5089H142.633V9.41963H145.696V13.3405C146.758 10.4822 149.656 8.93008 153.21 8.93008C158.11 8.93008 161.214 12.7675 161.214 17.9945V29.5089H158.029V18.607C158.029 14.6467 156.314 11.7884 152.231 11.7884C148.475 11.7884 145.821 14.7279 145.821 18.5258V29.5111L145.819 29.5089Z" fill="#000000"/>
<path d="M120.715 51.5016C116.913 51.5016 114.722 49.2601 114.428 45.9211H118.375C118.522 47.1636 119.203 48.1384 120.812 48.1384C122.078 48.1384 122.981 47.2866 122.981 46.2614C122.981 45.3349 122.421 44.7268 121.323 44.4348L119.058 43.8246C116.5 43.1418 114.696 41.7544 114.696 39.0739C114.696 35.6624 117.304 33.7612 120.64 33.7612C123.977 33.7612 126.221 36.1739 126.318 39.1463H122.542C122.493 38.075 121.859 37.1245 120.616 37.1245C119.374 37.1245 118.763 37.7589 118.763 38.659C118.763 39.6096 119.47 39.9981 120.542 40.2923L122.735 40.9026C125.439 41.6578 127.049 43.0716 127.049 45.9211C127.049 49.4533 123.808 51.5016 120.713 51.5016H120.715Z" fill="#000000"/>
<path d="M133.167 42.1188L138.991 34.1015H143.694L137.725 42.3866L144.012 51.1591H139.163L133.169 42.6808V51.1591H129.027V34.1037H133.169V42.121L133.167 42.1188Z" fill="#000000"/>
<path d="M154.879 45.0188V51.1591H150.736V45.0188L144.84 34.1037H149.274L152.807 41.1704L156.339 34.1037H160.773L154.877 45.0188H154.879Z" fill="#000000"/>
<path d="M26.2205 9.01167C24.3018 5.54088 20.7498 3.21387 15.8477 3.21387C8.74149 3.21387 3.84155 8.23673 3.84155 15.22C3.84155 22.2033 8.86443 27.3074 15.8477 27.3074C22.1768 27.3074 25.8934 23.5907 27.2392 18.8555H14.131V16.1596H30.7099C30.2204 23.7949 24.6267 30.0844 15.8455 30.0844C7.06427 30.0844 0.572754 23.6324 0.572754 15.22C0.572754 6.80758 6.90182 0.355576 15.8455 0.355576C22.2163 0.355576 27.0745 3.54095 29.4828 9.01167H26.2161H26.2205Z" fill="#000000"/>
<path d="M47.1263 12.2779H46.2679C41.8576 12.2779 39.1639 15.2592 39.1639 19.9966V29.5111H35.9785V9.42184H39.041V14.403C40.0201 10.7698 43.166 9.25719 47.1263 9.25719V12.2779Z" fill="#000000"/>
<path d="M71.0553 9.41963V29.5089H67.9929V25.4674C66.7679 27.7132 63.6637 30.0007 59.5804 30.0007C53.4138 30.0007 49.291 25.0195 49.291 19.4654C49.291 13.9112 53.416 8.93008 59.5804 8.93008C63.6637 8.93008 66.8491 11.1759 67.9511 13.5029V9.41963H71.0553ZM60.1117 27.3861C63.9908 27.3861 67.8699 24.5278 67.8699 19.4654C67.8699 14.403 63.9908 11.5447 60.1117 11.5447C55.4576 11.5447 52.4764 15.1779 52.4764 19.4654C52.4764 23.7528 55.4576 27.3861 60.1117 27.3861Z" fill="#000000"/>
<path d="M99.9633 23.7924C100.413 26.2006 102.209 27.6298 104.944 27.6298C107.68 27.6298 109.517 26.2423 109.517 24.0777C109.517 22.3215 108.415 21.3819 106.455 20.8111L103.188 19.8715C100.249 19.0549 98.0424 17.584 98.0424 14.4403C98.0424 11.132 100.859 8.9279 104.699 8.9279C108.538 8.9279 110.946 11.2549 111.394 14.5633H108.617C108.413 12.8487 107.188 11.2966 104.696 11.2966C102.451 11.2966 100.98 12.4799 100.98 14.3591C100.98 16.2383 102.082 16.7674 104.042 17.3403L107.675 18.4029C110.738 19.3007 112.452 21.0153 112.452 23.8736C112.452 27.6298 108.859 29.9985 104.898 29.9985C100.938 29.9985 97.7109 27.9986 97.1401 23.7924H99.9567H99.9633Z" fill="#000000"/>
<path d="M115.849 19.4654C115.849 13.9529 120.055 8.93008 126.711 8.93008C133.367 8.93008 137.573 13.9529 137.573 19.4654C137.573 24.9778 133.367 30.0007 126.711 30.0007C120.055 30.0007 115.849 24.9778 115.849 19.4654ZM118.953 19.4654C118.953 23.5486 121.892 27.3465 126.711 27.3465C131.53 27.3465 134.469 23.5486 134.469 19.4654C134.469 15.3821 131.569 11.5842 126.711 11.5842C121.853 11.5842 118.953 15.4216 118.953 19.4654Z" fill="#000000"/>
<path d="M145.819 29.5089H142.633V9.41963H145.696V13.3405C146.758 10.4822 149.656 8.93008 153.21 8.93008C158.11 8.93008 161.214 12.7675 161.214 17.9945V29.5089H158.029V18.607C158.029 14.6467 156.314 11.7884 152.231 11.7884C148.475 11.7884 145.821 14.7279 145.821 18.5258V29.5111L145.819 29.5089Z" fill="#000000"/>
</svg>