<svg xmlns="http://www.w3.org/2000/svg" width="126" height="30" fill="none" viewBox="0 0 126 30"><path fill="#0C0C0C" fill-rule="evenodd" d="M119.813 11V5H121.763L122.913 9.09274L124.05 5H126V11H124.799L124.795 6.279L123.53 11H122.279L121.018 6.279L121.014 11H119.813ZM115.9 11V6.01422H114V5H119.096V6.01422H117.205V11H115.9Z" clip-rule="evenodd"/><path fill="#2A6AF1" fill-rule="evenodd" d="M0 0.301758H5.8823V11.7939H16.9568V0.301758H22.8391V29.9997H16.9568V17.1872H5.8823V29.9997H0V0.301758ZM26.1735 8.32675H32.0558V29.9997H26.1735V8.32675Z" clip-rule="evenodd"/><path fill="#2A6AF1" d="M29.6442 0.261719H28.4674C27.0451 0.261719 25.8804 1.41496 25.8804 2.82333V3.34699C25.8804 4.75535 27.0436 5.9086 28.4674 5.9086H29.6442C31.0666 5.9086 32.2313 4.75685 32.2313 3.34699V2.82333C32.2313 1.41496 31.0681 0.261719 29.6442 0.261719Z"/><path fill="#0C0C0C" fill-rule="evenodd" d="M41.1352 25.0886H52.5653V30H36.0982H35.2529V2.17285H41.1352V25.0886Z" clip-rule="evenodd"/><path fill="#0C0C0C" fill-rule="evenodd" d="M56.4551 9.80148C58.5615 8.62884 61.0958 8.0828 64.1394 7.93809C67.519 7.77696 70.1618 8.44682 71.9805 10.3833C73.1648 11.6455 73.549 13.303 73.549 15.2753V29.6006H69.6285L68.3733 26.4945C66.6813 28.9711 64.165 30.2765 60.6498 29.9497C56.9478 29.6051 54.5129 27.6656 54.4164 23.4271C54.329 19.5884 56.6585 17.5982 60.1405 16.8657C62.6387 16.3405 65.2152 16.342 67.7857 16.3614V14.8874C67.7842 12.5511 65.9475 11.8245 63.1194 12.287C61.5011 12.5511 59.9251 12.9494 58.4138 13.6461L56.4551 9.80148ZM67.7707 19.6914L64.8491 19.8077C62.2454 19.9122 60.5383 20.9013 60.4976 23.2048C60.463 25.1145 61.8055 26.0767 64.4573 25.5919C66.7039 25.1816 67.7707 23.5047 67.7707 21.8337V19.6914Z" clip-rule="evenodd"/><path fill="#0C0C0C" fill-rule="evenodd" d="M76.5122 0H82.3056V6.48981L82.0419 11.1326C83.844 8.83957 86.0423 7.75942 88.5962 7.85192C92.2772 7.98619 95.5363 10.5717 96.1766 15.771C97.0551 22.9098 95.3735 27.8614 90.7132 29.5607C88.4154 30.3977 84.7209 30.25 82.3945 27.2229H81.7873L80.823 29.5891H76.5137V0H76.5122ZM86.2894 12.4888C82.5527 12.55 82.3794 15.6352 82.2484 18.2416C82.1127 20.9315 82.6235 25.2178 86.1719 25.276C90.0156 25.3401 90.4555 21.4015 90.4073 18.6131C90.3591 15.859 89.8845 12.4291 86.2894 12.4888Z" clip-rule="evenodd"/><path fill="#0C0C0C" fill-rule="evenodd" d="M114.233 9.6452C110.236 7.89817 106.117 7.2089 101.905 8.84702C99.5849 9.74963 98.3403 11.3848 98.2544 13.824C98.0781 18.8309 103.207 20.1557 106.98 21.852C108.443 22.5099 109.04 23.4871 108.592 24.5285C107.485 27.1035 100.406 24.8731 98.4443 24.1063V28.7073C101.348 29.9904 105.315 30.2649 108.446 29.7636C110.702 29.4026 112.564 28.5417 113.619 26.8768C113.918 26.4038 114.152 25.8951 114.318 25.3684C115.189 22.6024 114.203 19.3352 111.208 17.9775L105.803 15.5293C104.384 14.8863 103.936 13.9464 104.183 13.2332C104.328 12.817 104.709 12.4768 105.273 12.3202C107.7 11.6473 110.164 12.5499 112.528 13.8225L114.233 9.6452Z" clip-rule="evenodd"/></svg>