<svg viewBox="0 0 90 28" fill="none" xmlns="http://www.w3.org/2000/svg">
<path fill-rule="evenodd" clip-rule="evenodd" d="M12.7375 14.7864C17.7727 12.0262 21.1718 5.7444 21.4757 0.72455C21.4747 0.297245 21.1799 0.00310584 20.7523 0.00310584H16.6773C16.2878 0.00310584 16.0087 0.247002 15.9611 0.613495L15.9539 0.717067V0.726499L15.9534 0.725848C15.5444 5.73009 11.035 12.1634 5.81504 12.9091V6.70616V0.726336C5.81504 0.298056 5.51989 0.00310584 5.09148 0.00310584H1.10246C0.674057 0.00310584 0.378906 0.298056 0.378906 0.726336V6.70616V20.6765V26.6563C0.378906 27.0846 0.674057 27.3797 1.10246 27.3797H5.09148C5.51989 27.3797 5.81504 27.0846 5.81504 26.6563V20.6765V14.708L16.3355 27.3797H22.9451V26.8321L12.7375 14.7864Z" fill="#301F1A"/>
<path fill-rule="evenodd" clip-rule="evenodd" d="M82.3433 13.3087C81.3243 12.2897 80.1054 11.7844 78.6639 11.7844C77.2228 11.7844 76.0036 12.2897 74.9846 13.3087C73.965 14.3281 73.4668 15.5474 73.4668 16.988C73.4668 18.4289 73.9648 19.6477 74.9846 20.6672C76.0036 21.6862 77.2226 22.1916 78.6639 22.1916C80.1054 22.1916 81.3243 21.6862 82.3433 20.6672C83.3628 19.6482 83.8676 18.4294 83.8676 16.988C83.8676 15.5469 83.3628 14.3276 82.3433 13.3087ZM78.6639 6.59641C81.5267 6.59641 83.9878 7.61605 86.0106 9.64217C88.0343 11.6691 89.0556 14.1229 89.0556 16.988C89.0556 19.8531 88.034 22.3068 86.0106 24.3338C83.9878 26.3599 81.5267 27.3797 78.6639 27.3797C75.7987 27.3797 73.3435 26.3597 71.3177 24.3341C69.2918 22.3083 68.2788 19.8524 68.2788 16.988C68.2788 14.1235 69.2918 11.6676 71.3177 9.64185C73.3432 7.61622 75.7991 6.59641 78.6639 6.59641Z" fill="#301F1A"/>
<path fill-rule="evenodd" clip-rule="evenodd" d="M59.4443 13.3087C58.4252 12.2897 57.2065 11.7844 55.7651 11.7844C54.3239 11.7844 53.1047 12.2896 52.0857 13.3087C51.0662 14.3281 50.5679 15.5474 50.5679 16.988C50.5679 18.4289 51.0661 19.6477 52.0857 20.6672C53.1047 21.6864 54.3239 22.1916 55.7651 22.1916C57.2065 22.1916 58.4252 21.6862 59.4443 20.6672C60.4638 19.6482 60.9687 18.4294 60.9687 16.988C60.9687 15.5469 60.4638 14.3276 59.4443 13.3087ZM60.5544 7.91133V0.723414C60.5544 0.299524 60.8454 2.05926e-05 61.2714 2.05926e-05H65.019C65.4474 2.05926e-05 65.7425 0.294971 65.7425 0.723414V26.191C65.7425 26.6213 65.4517 26.9209 65.019 26.9209H64.0184C62.8716 26.9209 61.9322 26.4761 61.2701 25.5715C59.659 26.8048 57.8033 27.3797 55.7651 27.3797C52.8998 27.3797 50.4446 26.3599 48.4188 24.3341C46.3927 22.3083 45.3799 19.8524 45.3799 16.988C45.3799 14.1235 46.3927 11.6676 48.4188 9.64185C50.4445 7.61622 52.9002 6.59641 55.7651 6.59641C57.489 6.59641 59.1014 7.01136 60.5544 7.91133Z" fill="#301F1A"/>
<path fill-rule="evenodd" clip-rule="evenodd" d="M36.1372 13.3087C35.1181 12.2897 33.8989 11.7844 32.4578 11.7844C31.0164 11.7844 29.7976 12.2897 28.7784 13.3087C27.7591 14.3281 27.2606 15.5474 27.2606 16.988C27.2606 18.4289 27.7588 19.6477 28.7784 20.6672C29.7974 21.6862 31.0164 22.1916 32.4578 22.1916C33.8989 22.1916 35.1181 21.6862 36.1372 20.6672C37.1564 19.6482 37.6614 18.4294 37.6614 16.988C37.6614 15.5469 37.1564 14.3276 36.1372 13.3087ZM32.4578 6.59641C35.3205 6.59641 37.7819 7.61605 39.8044 9.64217C41.8279 11.6688 42.8494 14.1229 42.8494 16.988C42.8494 19.8531 41.8278 22.3072 39.8044 24.3338C37.7819 26.3599 35.3205 27.3797 32.4578 27.3797C29.5925 27.3797 27.1372 26.3597 25.1115 24.3341C23.0857 22.3085 22.0728 19.8524 22.0728 16.988C22.0728 14.1235 23.0856 11.6676 25.1115 9.64185C27.1372 7.61622 29.5927 6.59641 32.4578 6.59641Z" fill="#301F1A"/>
</svg>
