<?xml version="1.0" standalone="no"?>
<!DOCTYPE svg PUBLIC "-//W3C//DTD SVG 20010904//EN"
 "http://www.w3.org/TR/2001/REC-SVG-20010904/DTD/svg10.dtd">
<svg version="1.0" xmlns="http://www.w3.org/2000/svg"
 width="1080.000000pt" height="321.000000pt" viewBox="0 0 1080.000000 321.000000"
 preserveAspectRatio="xMidYMid meet">

<g transform="translate(0.000000,321.000000) scale(0.100000,-0.100000)"
fill="#000000" stroke="none">
<path d="M0 2189 c0 -765 3 -1020 12 -1017 6 2 33 56 60 119 27 62 62 142 79
177 16 35 29 67 29 73 0 6 9 27 19 47 11 20 39 82 62 137 23 55 45 105 49 110
4 6 13 27 19 47 7 20 25 64 42 98 16 33 29 64 29 69 0 5 6 22 14 38 8 15 24
51 36 78 13 28 30 56 38 63 19 15 284 17 312 2 15 -8 100 -141 100 -156 0 -2
24 -46 53 -97 29 -50 58 -103 65 -117 7 -14 21 -36 31 -49 l18 -23 20 33 c11
19 40 79 63 134 23 55 57 133 76 173 19 39 34 76 34 82 0 22 46 30 173 30 185
0 182 4 100 -180 -11 -25 -33 -74 -48 -110 -15 -36 -38 -87 -50 -115 -13 -27
-48 -111 -80 -185 -31 -74 -65 -153 -74 -175 -52 -115 -85 -193 -112 -258 -13
-33 -34 -65 -46 -73 -26 -19 -287 -24 -304 -7 -13 13 -1 55 48 162 18 40 33
86 33 102 0 16 -25 74 -56 131 -31 57 -68 123 -81 148 -13 25 -28 52 -33 60
-5 8 -21 36 -35 63 l-27 47 -18 -22 c-20 -26 -45 -79 -125 -268 -32 -74 -64
-151 -73 -170 -8 -19 -22 -53 -32 -75 -45 -104 -80 -174 -90 -180 -14 -9 -281
-9 -309 0 l-21 6 0 -570 0 -571 5400 0 5400 0 0 839 c0 462 -4 842 -8 845 -9
5 -20 -17 -77 -154 -16 -36 -41 -93 -56 -128 -16 -34 -29 -65 -29 -68 0 -4 -9
-25 -19 -48 -77 -166 -70 -156 -104 -157 -18 -1 -41 -2 -52 -3 -58 -3 -70 11
-112 122 l-41 107 19 50 c11 27 26 64 33 80 26 56 83 190 96 222 10 27 9 40
-5 83 -15 45 -19 50 -38 44 -23 -7 -37 -22 -37 -40 0 -11 -31 -84 -86 -201
-13 -28 -24 -57 -24 -63 0 -6 -6 -21 -14 -33 -15 -23 -79 -173 -117 -272 -39
-100 -51 -107 -178 -96 l-74 6 -24 43 c-17 30 -25 60 -25 95 -1 51 9 78 92
253 11 23 20 46 20 52 0 6 7 23 15 39 63 124 66 149 25 240 -21 46 -22 47 -37
28 -8 -11 -26 -45 -40 -75 -13 -30 -33 -73 -43 -95 -10 -22 -30 -69 -45 -105
-15 -36 -37 -85 -47 -110 -11 -25 -26 -58 -33 -75 -12 -29 -53 -118 -108 -236
-22 -46 -32 -57 -54 -60 -16 -2 -117 -2 -226 1 l-197 5 -25 30 c-13 17 -32 46
-42 65 -10 19 -33 55 -50 81 -18 25 -33 49 -33 53 0 3 -16 28 -35 55 -19 26
-35 51 -35 55 0 3 -13 24 -29 46 -28 39 -29 39 -49 22 -11 -9 -41 -66 -67
-127 -93 -221 -116 -269 -129 -277 -6 -4 -80 -8 -163 -8 -178 0 -173 -4 -127
104 15 33 33 77 41 96 7 19 22 52 33 72 11 20 20 42 20 47 0 6 15 43 34 83 46
98 116 265 116 276 0 5 7 15 15 22 8 7 15 20 15 30 0 16 72 183 100 232 6 10
10 24 10 32 0 19 39 87 59 104 11 9 111 12 423 12 400 0 408 0 418 -20 9 -17
6 -31 -13 -73 -29 -60 -33 -69 -162 -369 -66 -152 -104 -228 -116 -231 -12 -3
-26 9 -47 42 -106 166 -109 171 -127 210 -13 26 -14 43 -7 77 5 24 7 46 4 49
-10 10 -151 5 -157 -5 -4 -6 5 -26 19 -45 14 -18 26 -36 26 -39 0 -3 25 -42
55 -87 30 -45 55 -82 55 -84 0 -9 163 -261 173 -267 21 -14 35 -9 42 15 4 12
15 40 25 62 9 22 25 58 34 80 10 22 23 54 30 70 7 17 22 50 33 75 12 25 46
106 78 180 31 74 72 168 91 208 19 39 34 78 34 86 0 7 9 25 21 40 l20 26 187
0 c171 0 190 -2 221 -21 l33 -20 22 20 c21 19 34 21 188 21 193 0 193 0 228
-95 12 -33 27 -68 32 -79 5 -10 25 -60 43 -110 51 -139 66 -176 76 -176 5 0 9
303 9 715 l0 715 -5400 0 -5400 0 0 -1021z m6156 547 c5 -14 -13 -74 -71 -231
-15 -38 -30 -86 -35 -105 -5 -19 -20 -66 -35 -105 -37 -100 -66 -185 -76 -220
-4 -16 -20 -61 -34 -100 -35 -91 -46 -136 -39 -157 5 -17 28 -18 294 -18 159
0 295 -3 304 -6 26 -10 18 -37 -26 -90 -24 -28 -59 -70 -78 -93 -19 -24 -51
-63 -71 -86 -20 -24 -52 -64 -70 -89 -18 -25 -36 -46 -39 -46 -4 0 -19 -17
-33 -38 -13 -21 -42 -59 -63 -84 -22 -25 -61 -73 -89 -108 -27 -34 -59 -72
-71 -84 -11 -13 -63 -77 -114 -142 -52 -66 -97 -121 -100 -124 -9 -7 -172
-207 -196 -241 -33 -46 -94 -109 -104 -109 -6 0 -10 9 -10 21 0 19 69 239 90
284 5 11 14 36 19 55 5 19 38 114 71 210 34 96 65 189 70 205 4 17 15 50 24
74 20 55 20 77 0 85 -9 3 -150 6 -315 6 -164 0 -299 4 -299 9 0 11 45 78 84
122 49 57 67 80 151 186 43 54 85 105 92 113 7 8 40 49 73 90 34 41 79 96 101
121 22 26 50 61 62 77 51 70 121 152 129 152 4 0 8 5 8 11 0 7 21 37 48 68 26
31 52 63 59 71 37 47 122 151 153 186 19 22 53 64 75 92 42 55 52 61 61 38z
m-3482 -527 c14 -17 26 -37 26 -45 0 -8 9 -32 20 -54 26 -50 26 -116 0 -158
-11 -18 -20 -40 -20 -50 0 -10 -6 -26 -13 -37 -8 -11 -25 -49 -39 -85 -15 -36
-33 -78 -42 -95 -9 -16 -16 -36 -16 -43 0 -8 -6 -26 -14 -40 -7 -15 -24 -52
-36 -82 -13 -30 -32 -75 -43 -100 -24 -56 -30 -71 -60 -145 -14 -33 -28 -67
-31 -75 -4 -8 -13 -26 -21 -40 l-14 -25 -469 -5 c-258 -3 -482 -3 -498 0 -23
4 -34 15 -53 55 -13 28 -30 62 -38 77 -17 34 -17 79 2 115 30 59 85 184 85
195 0 5 9 27 19 47 10 20 29 61 41 91 11 30 27 69 35 85 13 30 51 123 65 160
4 11 19 45 33 75 14 30 28 66 32 80 4 14 14 34 21 45 8 11 14 27 14 37 0 9 10
24 22 32 20 14 83 16 494 16 l472 0 26 -31z m1212 25 c20 -5 50 -61 89 -163
12 -33 14 -50 6 -65 -5 -12 -22 -50 -36 -86 -15 -36 -33 -78 -40 -95 -8 -16
-32 -75 -55 -130 -23 -55 -48 -113 -55 -130 -22 -49 -121 -286 -146 -348 -38
-96 8 -88 -538 -87 -264 0 -487 3 -495 6 -7 3 -28 42 -46 87 -36 92 -36 114 5
203 32 70 32 71 86 199 23 55 47 114 54 130 7 17 25 59 40 95 14 36 32 79 40
95 33 74 85 201 85 208 0 4 11 25 25 47 l25 40 468 0 c257 0 476 -3 488 -6z
m1251 -59 c35 -36 63 -74 63 -85 0 -16 -25 -82 -66 -175 -42 -96 -53 -122 -58
-141 -6 -20 -38 -40 -101 -64 -16 -6 -41 -19 -54 -29 -23 -17 -23 -19 -8 -52
46 -100 47 -106 30 -155 -29 -85 -63 -131 -166 -224 -56 -51 -112 -99 -124
-107 -18 -12 -98 -14 -484 -14 -286 0 -466 4 -472 10 -11 11 -3 36 49 149 19
40 34 76 34 80 0 4 10 27 21 52 12 25 28 59 35 75 7 17 20 48 30 70 54 128 58
136 108 247 14 31 26 60 26 65 0 4 9 26 20 48 11 22 36 78 56 125 59 138 75
169 92 180 10 6 193 10 462 10 l444 0 63 -65z m2318 51 c11 -11 11 -19 1 -47
-13 -34 -38 -95 -56 -134 -5 -11 -16 -38 -25 -60 -9 -21 -21 -43 -28 -47 -7
-4 -81 -8 -164 -8 l-153 0 -6 -27 c-4 -16 -12 -37 -19 -49 -8 -12 -25 -50 -40
-85 -29 -71 -50 -119 -70 -164 -8 -16 -50 -113 -94 -215 -44 -102 -88 -202
-98 -223 l-17 -37 -156 2 -155 3 1 30 c2 28 14 59 80 201 13 28 24 54 24 58 0
4 13 35 28 69 16 34 41 91 56 127 15 36 34 79 41 95 55 123 84 198 80 206 -4
5 -79 9 -169 9 -106 0 -166 4 -173 11 -12 12 -10 24 12 74 8 17 28 66 45 110
51 128 -11 115 552 115 399 0 492 -3 503 -14z m1084 -3 c22 -19 81 -158 81
-191 0 -18 -34 -107 -76 -199 -8 -17 -14 -37 -14 -45 0 -8 -4 -18 -9 -24 -5
-5 -30 -61 -56 -124 -25 -63 -62 -148 -81 -188 -19 -40 -34 -77 -34 -82 0 -4
-6 -21 -14 -37 -8 -15 -29 -63 -47 -106 -18 -43 -38 -82 -43 -87 -16 -13 -37
-13 -533 -12 l-463 2 -19 38 c-36 70 -58 146 -51 173 7 25 37 97 86 204 12 28
39 93 59 145 20 52 40 100 44 105 4 6 16 33 26 60 10 28 29 75 42 105 45 101
51 115 78 180 47 110 -9 100 530 100 436 0 474 -1 494 -17z"/>
<path d="M1898 1918 c-20 -17 -50 -84 -152 -338 -15 -36 -31 -73 -36 -82 -6
-10 -10 -29 -10 -43 l0 -25 198 -1 c200 -2 243 -2 252 0 8 2 34 56 80 166 23
55 47 114 55 130 53 123 66 158 63 178 -3 22 -4 22 -218 25 -163 2 -220 -1
-232 -10z"/>
<path d="M3121 1901 c-12 -16 -21 -34 -21 -41 0 -7 -6 -24 -14 -38 -8 -15 -26
-54 -40 -87 -13 -33 -45 -109 -70 -169 -25 -60 -46 -115 -46 -123 0 -11 41
-13 232 -11 l233 3 27 50 c14 28 30 64 33 80 4 17 11 35 15 40 5 6 17 33 28
60 11 28 38 93 60 145 29 68 37 99 30 108 -8 9 -66 12 -229 12 l-218 0 -20
-29z"/>
<path d="M4355 1906 c-9 -14 -15 -33 -13 -43 3 -17 20 -18 203 -20 219 -3 230
0 237 52 l3 30 -207 3 -207 2 -16 -24z"/>
<path d="M4169 1489 c-15 -31 -18 -44 -9 -53 7 -7 78 -12 205 -14 l195 -3 26
26 c17 17 24 34 22 53 l-3 27 -207 3 -207 2 -22 -41z"/>
<path d="M7773 1922 c-9 -6 -51 -97 -123 -272 -11 -25 -33 -76 -49 -113 -52
-115 -67 -107 199 -107 l230 0 34 73 c19 39 44 97 56 127 12 30 26 62 30 71
11 21 55 137 69 178 6 18 8 37 5 42 -6 11 -434 12 -451 1z"/>
</g>
</svg>
