<svg xmlns="http://www.w3.org/2000/svg" width="400" height="400" fill="none" viewBox="0 0 400 400"><path fill="#1BADE0" d="M348.929 231.392H333.532L302.584 202.801H285.761L281.436 245.721C281.437 246.076 281.574 246.417 281.82 246.673C282.066 246.928 282.402 247.079 282.756 247.092H297.898C298.092 247.105 298.283 247.04 298.429 246.913C298.576 246.785 298.666 246.605 298.681 246.412L301.203 218.212L331.839 246.976H348.432C348.529 246.982 348.626 246.97 348.718 246.938C348.81 246.907 348.895 246.857 348.968 246.793C349.041 246.729 349.1 246.65 349.143 246.563C349.185 246.476 349.21 246.381 349.216 246.283L350.253 232.741C350.246 232.389 350.105 232.054 349.86 231.803C349.614 231.552 349.282 231.404 348.931 231.39"/><path fill="#1BADE0" d="M359.854 172.01L350.701 152.83C350.591 152.598 350.422 152.4 350.21 152.255C349.999 152.11 349.753 152.024 349.497 152.004C349.241 151.985 348.985 152.033 348.754 152.145C348.523 152.256 348.325 152.426 348.181 152.638L335.186 171.82C335.038 172.039 334.952 172.294 334.938 172.559C334.924 172.823 334.982 173.086 335.106 173.32C335.23 173.553 335.415 173.749 335.642 173.885C335.868 174.022 336.128 174.094 336.392 174.094H339L336.555 202.915L305.387 174.094H289.271C289.081 174.082 288.893 174.144 288.747 174.268C288.602 174.392 288.51 174.567 288.491 174.758L287.018 188.301C287.017 188.657 287.153 189 287.4 189.257C287.646 189.514 287.982 189.666 288.338 189.68H304.206L335.252 218.328L352.107 218.446L356.32 174.094H358.542C358.788 174.094 359.031 174.032 359.246 173.913C359.462 173.794 359.644 173.623 359.775 173.415C359.907 173.207 359.983 172.969 359.998 172.723C360.012 172.477 359.964 172.232 359.858 172.01"/><path fill="#061059" d="M218.866 247.545C218.507 247.532 218.169 247.379 217.922 247.119C217.675 246.859 217.54 246.512 217.546 246.154L218.617 237.437C219.228 232.468 219.84 227.498 220.451 222.529C220.729 219.485 222.02 216.622 224.118 214.399C226.216 212.176 228.999 210.72 232.022 210.266C238.716 208.772 245.536 207.428 252.134 206.126L254.862 205.588C258.091 204.953 258.72 204.34 259.075 201.5L259.219 200.337C259.716 196.325 260.209 192.313 260.696 188.301C260.9 186.653 260.617 186.181 260.493 186.06C260.368 185.94 259.957 185.69 258.427 185.686C254.149 185.671 249.119 185.665 244.136 185.686C241.932 185.686 241.174 186.339 240.895 188.436C240.633 190.383 240.398 192.331 240.158 194.317L239.842 196.91C239.821 197.098 239.729 197.271 239.584 197.393C239.439 197.514 239.253 197.576 239.064 197.564H224.759C224.398 197.551 224.057 197.396 223.81 197.133C223.563 196.87 223.431 196.519 223.441 196.158L225.399 182.481C225.754 179.899 227.073 177.546 229.091 175.896C231.108 174.245 233.676 173.419 236.277 173.583H265.477C268.722 173.515 271.862 174.732 274.213 176.969C275.397 178.209 276.28 179.705 276.793 181.341C277.305 182.978 277.434 184.71 277.169 186.405C276.474 192.213 275.743 198.153 274.928 204.562C274.611 207.53 273.324 210.312 271.267 212.476C269.21 214.639 266.497 216.065 263.548 216.532C255.762 218.282 247.901 219.834 241.14 221.15C236.984 221.965 236.709 222.232 236.251 225.962L235.255 234.049C235.249 234.407 235.385 234.753 235.631 235.013C235.878 235.272 236.217 235.425 236.575 235.439H269.617C269.796 235.445 269.973 235.486 270.136 235.561C270.3 235.636 270.447 235.742 270.569 235.873C270.691 236.005 270.786 236.159 270.849 236.328C270.911 236.496 270.94 236.675 270.933 236.854L269.405 246.883C269.348 247.262 268.631 247.513 268.631 247.513L218.866 247.545Z"/><path fill="#061059" d="M206.489 247.515C206.663 247.525 206.835 247.473 206.975 247.368C207.114 247.263 207.212 247.113 207.251 246.943L208.414 237.859C208.43 237.676 208.408 237.492 208.35 237.318C208.293 237.144 208.2 236.984 208.078 236.846C207.956 236.709 207.808 236.598 207.642 236.52C207.476 236.442 207.296 236.399 207.113 236.392L177.431 236.25C177.072 236.235 176.734 236.08 176.488 235.818C176.243 235.556 176.11 235.207 176.12 234.848L177.022 228.329C177.046 228.144 177.14 227.975 177.285 227.856C177.429 227.737 177.614 227.678 177.8 227.69H201.612C203.792 227.827 205.941 227.121 207.615 225.718C209.289 224.315 210.36 222.323 210.606 220.152L212.607 203.855C212.835 202.253 212.69 200.619 212.183 199.082C211.676 197.545 210.821 196.146 209.683 194.994C207.404 192.82 204.363 191.625 201.213 191.665H175.867C173.236 191.499 170.642 192.345 168.615 194.03C166.588 195.715 165.282 198.112 164.964 200.728L160.454 235.822C160.279 237.389 160.46 238.974 160.984 240.461C161.508 241.948 162.362 243.296 163.481 244.406C165.437 246.356 168.076 247.465 170.837 247.497L206.489 247.515ZM196.1 217.83L179.318 217.516C178.97 217.497 178.642 217.347 178.4 217.096C178.158 216.845 178.02 216.512 178.014 216.164L179.46 203.254C179.467 203.156 179.493 203.06 179.537 202.972C179.581 202.883 179.642 202.805 179.717 202.74C179.791 202.676 179.878 202.627 179.972 202.597C180.066 202.567 180.165 202.555 180.263 202.564L196.968 202.853C197.32 202.871 197.651 203.024 197.894 203.28C198.137 203.536 198.272 203.875 198.271 204.228L196.904 217.162C196.886 217.357 196.791 217.536 196.641 217.661C196.49 217.786 196.297 217.847 196.102 217.83"/><path fill="#061059" d="M138.081 204.569L133.281 246.004C133.278 246.361 133.415 246.705 133.661 246.963C133.907 247.222 134.245 247.374 134.601 247.387H148.002C148.19 247.4 148.376 247.339 148.521 247.218C148.665 247.097 148.758 246.925 148.78 246.738L154.221 203.933C154.461 202.326 154.325 200.684 153.825 199.138C153.324 197.591 152.473 196.181 151.336 195.019C148.857 192.745 145.585 191.535 142.222 191.649H117.762C115.132 191.484 112.538 192.329 110.511 194.014C108.484 195.699 107.178 198.094 106.86 200.711L101.033 245.99C101.027 246.349 101.162 246.696 101.409 246.956C101.656 247.217 101.995 247.37 102.353 247.383H116.027C116.215 247.395 116.401 247.334 116.546 247.214C116.691 247.093 116.784 246.921 116.807 246.734L122.216 203.901C122.237 203.714 122.329 203.542 122.473 203.421C122.617 203.3 122.802 203.238 122.99 203.249L136.755 203.169C137.112 203.182 137.451 203.334 137.698 203.593C137.946 203.852 138.082 204.197 138.079 204.555"/><path fill="#061059" d="M98.307 187.03C98.661 185.249 98.5871 183.409 98.0913 181.662C97.5955 179.915 96.6919 178.311 95.455 176.981C94.0887 175.769 92.4954 174.841 90.7675 174.25C89.0397 173.659 87.2116 173.417 85.3895 173.538H57.1976C54.5437 173.37 51.9272 174.232 49.8932 175.945C47.8591 177.658 46.5644 180.09 46.2785 182.734L40.1366 235.119C39.8713 236.763 39.9936 238.447 40.4937 240.036C40.9937 241.625 41.8578 243.075 43.0171 244.272C45.4972 246.525 48.7698 247.702 52.117 247.545L80.0013 247.568C82.8008 247.748 85.5635 246.852 87.7241 245.063C89.8848 243.273 91.2803 240.726 91.6252 237.942L98.307 187.03ZM75.4259 235.337L57.8576 235.21C57.5006 235.195 57.1639 235.04 56.9189 234.78C56.6739 234.52 56.54 234.174 56.5457 233.817L62.5125 186.148C62.535 185.957 62.6309 185.782 62.7799 185.661C62.9289 185.539 63.1194 185.48 63.311 185.496L80.6124 185.773C80.9673 185.791 81.3014 185.946 81.5445 186.205C81.7876 186.464 81.9209 186.807 81.9162 187.163L76.2122 234.683C76.1911 234.873 76.0972 235.047 75.9502 235.17C75.8032 235.292 75.6146 235.353 75.4238 235.339"/></svg>