<svg width="157" height="26" viewBox="0 0 157 26" fill="none" xmlns="http://www.w3.org/2000/svg">
<path d="M34.3928 23.4955V3.07812H42.5002C43.7453 3.07812 44.8587 3.32589 45.8403 3.82143C46.822 4.31697 47.5904 5.01637 48.1455 5.92276C48.7007 6.82602 48.9767 7.91118 48.9767 9.17511V9.5546C48.9767 10.8185 48.6881 11.9068 48.1173 12.8226C47.5434 13.7384 46.7718 14.4378 45.7996 14.924C44.8273 15.4101 43.7296 15.6547 42.5033 15.6547H37.5448V23.5018H34.396L34.3928 23.4955ZM37.5417 12.7913H42.1803C43.2874 12.7913 44.1718 12.4996 44.8336 11.9162C45.4953 11.3329 45.8247 10.5363 45.8247 9.52324V9.23156C45.8247 8.19971 45.4953 7.39368 44.8336 6.81033C44.1718 6.22698 43.2874 5.93531 42.1803 5.93531H37.5417V12.7913Z" fill="black"/>
<path d="M56.5004 23.9048C55.042 23.9048 53.7687 23.5975 52.6804 22.9859C51.5921 22.3743 50.7421 21.5087 50.1274 20.389C49.5159 19.2725 49.2085 17.9741 49.2085 16.4937V16.1424C49.2085 14.6464 49.5096 13.3386 50.1118 12.2189C50.7139 11.1024 51.5544 10.2368 52.6333 9.62207C53.7122 9.01049 54.9605 8.70312 56.3812 8.70312C57.802 8.70312 58.9718 9.01049 60.0131 9.62207C61.0543 10.2337 61.8666 11.0867 62.4469 12.175C63.0302 13.2633 63.3219 14.5367 63.3219 15.995V17.1335H52.2664C52.304 18.3975 52.7274 19.4042 53.5366 20.1538C54.3426 20.9034 55.3494 21.2766 56.5569 21.2766C57.6828 21.2766 58.5359 21.0257 59.1098 20.5176C59.6838 20.0127 60.126 19.4293 60.4365 18.7675L62.9173 20.0503C62.6444 20.596 62.2524 21.17 61.7349 21.7721C61.2206 22.3743 60.5431 22.8792 59.7088 23.2901C58.8715 23.6978 57.802 23.9017 56.5004 23.9017V23.9048ZM52.3009 14.8346H60.264C60.1856 13.7463 59.7967 12.8964 59.0973 12.2817C58.3979 11.6701 57.4821 11.3627 56.3561 11.3627C55.2302 11.3627 54.3081 11.6701 53.5993 12.2817C52.8905 12.8932 52.4577 13.7463 52.3009 14.8346Z" fill="black"/>
<path d="M65.1945 23.4982V9.11818H68.1395V10.8087H68.6068C68.8389 10.2065 69.2153 9.76426 69.7296 9.482C70.244 9.19973 70.8807 9.05859 71.6397 9.05859H73.3615V11.7715H71.5236C70.5514 11.7715 69.7547 12.0381 69.1306 12.5744C68.5065 13.1107 68.196 13.9293 68.196 15.0395V23.4982H65.1914H65.1945Z" fill="black"/>
<path d="M80.3023 23.9048C78.4739 23.9048 76.959 23.4971 75.7516 22.6785C74.5472 21.8631 73.807 20.6274 73.5342 18.9745L76.3349 18.3034C76.4917 19.1 76.752 19.7335 77.1221 20.1977C77.4922 20.665 77.9532 20.9943 78.5084 21.1888C79.0635 21.3832 79.6594 21.4805 80.3023 21.4805C81.2558 21.4805 81.9897 21.2954 82.504 20.9253C83.0184 20.5552 83.2756 20.0785 83.2756 19.4952C83.2756 18.9118 83.0309 18.4853 82.5448 18.2124C82.0587 17.9396 81.3404 17.7169 80.387 17.5412L79.3959 17.3656C78.4237 17.19 77.5392 16.9391 76.7426 16.6066C75.946 16.2773 75.3125 15.8194 74.8483 15.2361C74.381 14.6527 74.1489 13.9031 74.1489 12.9905C74.1489 11.6293 74.6538 10.5755 75.6669 9.82593C76.6768 9.07635 78.0191 8.70312 79.6908 8.70312C81.3624 8.70312 82.6326 9.06694 83.6707 9.7977C84.712 10.5253 85.3863 11.5133 85.6968 12.7584L82.8961 13.5456C82.7204 12.6706 82.3503 12.0527 81.7889 11.692C81.2244 11.3314 80.525 11.1526 79.6876 11.1526C78.8502 11.1526 78.2292 11.3031 77.7619 11.6042C77.2946 11.9053 77.0625 12.3287 77.0625 12.8744C77.0625 13.4578 77.2915 13.8843 77.7494 14.1572C78.2073 14.43 78.822 14.6339 79.6029 14.7688L80.6222 14.9444C81.6541 15.12 82.595 15.3615 83.4512 15.6751C84.3074 15.9856 84.9817 16.4341 85.4772 17.0175C85.9728 17.6008 86.2205 18.3786 86.2205 19.3509C86.2205 20.7905 85.6842 21.907 84.6148 22.7067C83.5453 23.5034 82.1057 23.9017 80.2992 23.9017L80.3023 23.9048Z" fill="black"/>
<path d="M92.9005 23.9017C91.8687 23.9017 90.9497 23.726 90.1437 23.3779C89.3377 23.0266 88.6947 22.5123 88.218 21.8317C87.7413 21.1511 87.5029 20.3263 87.5029 19.3509C87.5029 18.3755 87.7413 17.5381 88.218 16.8858C88.6947 16.2334 89.3471 15.7441 90.1719 15.4117C90.9968 15.0824 91.9377 14.9162 92.9852 14.9162H97.3604V13.9815C97.3604 13.1441 97.1063 12.4761 96.6014 11.968C96.0964 11.4631 95.3186 11.209 94.2679 11.209C93.2173 11.209 92.4489 11.4537 91.9063 11.9398C91.3606 12.4259 91.0031 13.0595 90.8274 13.8341L88.0267 12.9309C88.2588 12.1531 88.6351 11.4474 89.1495 10.817C89.6638 10.1866 90.3507 9.67539 91.2069 9.28648C92.0631 8.89758 93.0918 8.70312 94.2993 8.70312C96.1654 8.70312 97.6332 9.17984 98.7027 10.1333C99.7722 11.0867 100.308 12.4385 100.308 14.1885V20.1099C100.308 20.6932 100.581 20.9849 101.124 20.9849H102.35V23.494H100.105C99.4241 23.494 98.8689 23.3183 98.4424 22.9702C98.0158 22.6189 97.7994 22.1453 97.7994 21.54V21.4522H97.3635C97.2067 21.7439 96.9746 22.0857 96.6641 22.4715C96.3536 22.8604 95.8957 23.196 95.2935 23.4783C94.6914 23.7605 93.8947 23.9017 92.9005 23.9017ZM93.3396 21.424C94.544 21.424 95.5162 21.079 96.2564 20.389C96.9965 19.699 97.3635 18.7519 97.3635 17.5444V17.2527H93.164C92.3674 17.2527 91.7244 17.4221 91.2383 17.7639C90.7522 18.1026 90.5075 18.6044 90.5075 19.2662C90.5075 19.928 90.7584 20.4517 91.2665 20.8406C91.7714 21.2295 92.4614 21.424 93.3365 21.424H93.3396Z" fill="black"/>
<path d="M103.52 23.4941V9.11413H106.465V11.2719H106.932C107.205 10.6886 107.691 10.1428 108.391 9.6379C109.09 9.13295 110.131 8.87891 111.511 8.87891C112.6 8.87891 113.569 9.12354 114.412 9.60967C115.256 10.0958 115.924 10.7826 116.41 11.6671C116.896 12.5515 117.141 13.6179 117.141 14.8598V23.4941H114.136V15.0951C114.136 13.85 113.826 12.931 113.202 12.3383C112.578 11.7455 111.725 11.4475 110.636 11.4475C109.391 11.4475 108.394 11.8553 107.647 12.6738C106.898 13.4893 106.525 14.6779 106.525 16.2336V23.4972H103.52V23.4941Z" fill="black"/>
<path d="M124.17 23.9017C123.138 23.9017 122.219 23.726 121.413 23.3779C120.607 23.0266 119.964 22.5123 119.487 21.8317C119.011 21.1511 118.772 20.3263 118.772 19.3509C118.772 18.3755 119.011 17.5381 119.487 16.8858C119.964 16.2334 120.616 15.7441 121.441 15.4117C122.266 15.0824 123.207 14.9162 124.254 14.9162H128.63V13.9815C128.63 13.1441 128.376 12.4761 127.871 11.968C127.366 11.4631 126.588 11.209 125.537 11.209C124.487 11.209 123.718 11.4537 123.176 11.9398C122.63 12.4259 122.272 13.0595 122.097 13.8341L119.296 12.9309C119.528 12.1531 119.904 11.4474 120.419 10.817C120.933 10.1866 121.62 9.67539 122.476 9.28648C123.332 8.89758 124.361 8.70312 125.569 8.70312C127.435 8.70312 128.902 9.17984 129.972 10.1333C131.041 11.0867 131.578 12.4385 131.578 14.1885V20.1099C131.578 20.6932 131.851 20.9849 132.393 20.9849H134.247L133.62 23.494H131.374C130.693 23.494 130.138 23.3183 129.712 22.9702C129.285 22.6189 129.069 22.1453 129.069 21.54V21.4522H128.633C128.476 21.7439 128.244 22.0857 127.933 22.4715C127.623 22.8604 127.165 23.196 126.563 23.4783C125.961 23.7605 125.164 23.9017 124.17 23.9017ZM124.609 21.424C125.813 21.424 126.785 21.079 127.526 20.389C128.266 19.699 128.633 18.7519 128.633 17.5444V17.2527H124.433C123.637 17.2527 122.994 17.4221 122.508 17.7639C122.021 18.1026 121.777 18.6044 121.777 19.2662C121.777 19.928 122.028 20.4517 122.536 20.8406C123.041 21.2295 123.731 21.424 124.606 21.424H124.609Z" fill="black"/>
<path d="M134.933 23.4955L140.767 3.07812H146.309L152.114 23.4955H148.877L147.535 18.6844H139.544L138.201 23.4955H134.933ZM140.331 15.7676H146.748L143.771 5.03518H143.304L140.328 15.7676H140.331Z" fill="black"/>
<path d="M153.134 23.4955V3.07812H156.283V23.4955H153.134Z" fill="black"/>
<path d="M27.1636 2.67214C25.6832 1.01931 23.6007 0.0972255 21.145 0H16.2398C12.1846 0 9.67551 3.40603 9.67551 6.56116V9.32111H13.1255V6.56116C13.1255 5.30664 14.1165 3.44994 16.2398 3.44994H21.0415C24.2938 3.59107 25.7585 5.91194 25.7679 8.1544C25.7773 10.3969 24.3315 12.7271 21.0854 12.8996H6.56743C2.94499 12.8996 0 15.8446 0 19.4608V19.5298C0.128589 22.7445 2.42436 26 6.56115 26H6.56429C8.50253 25.9969 10.033 25.2849 11.1308 24.1998C12.3759 22.9609 13.0565 21.2422 13.1255 19.5329V16.3496H21.2077C23.6634 16.2304 25.7365 15.2895 27.2043 13.6273C28.5122 12.1469 29.2273 10.1961 29.2178 8.13872C29.2084 6.08444 28.4808 4.13993 27.1636 2.67214ZM6.56429 22.5501H6.56115C5.19058 22.5501 3.55657 21.7315 3.44994 19.4294C3.46876 17.7264 4.85814 16.3496 6.56743 16.3496H9.67551V19.4263C9.61279 20.8314 8.97925 21.6844 8.18263 22.1361C7.67454 22.4246 7.09746 22.5501 6.56429 22.5501Z" fill="url(#paint0_linear_436_33114)"/>
<path d="M13.1254 16.3502V19.5336C13.0564 21.2429 12.3759 22.9616 11.1307 24.2004L8.18262 22.1367C8.97924 21.6851 9.61278 20.832 9.6755 19.427V16.3502H9.62218L9.6755 16.2812H13.1254V16.3502Z" fill="url(#paint1_linear_436_33114)"/>
<defs>
<linearGradient id="paint0_linear_436_33114" x1="4.55078" y1="32.5078" x2="24.2092" y2="-3.53462" gradientUnits="userSpaceOnUse">
<stop stop-color="#3D22D8"/>
<stop offset="0.71" stop-color="#C13DDD"/>
</linearGradient>
<linearGradient id="paint1_linear_436_33114" x1="12.6801" y1="18.7213" x2="-5.29723" y2="30.7208" gradientUnits="userSpaceOnUse">
<stop stop-color="#4724D8"/>
<stop offset="0.71" stop-color="#C13DDD"/>
</linearGradient>
</defs>
</svg>
