<svg xmlns="http://www.w3.org/2000/svg" id="Layer_1" data-name="Layer 1" viewBox="0 0 450.7 143.32"><defs><style>.cls-1{fill:#80c7a5}.cls-2{fill:#1a4c9e}.cls-3{isolation:isolate}</style></defs><g><polygon points="25.21 16.22 25.17 59.74 25.2 59.68 68.85 103.33 68.86 103.35 112.29 103.35 112.28 103.35 25.29 16.36 25.21 16.22" class="cls-2"/><polygon points="138.87 125.91 138.91 82.39 138.88 82.45 95.23 38.8 95.22 38.78 51.79 38.78 51.8 38.78 138.79 125.76 138.87 125.91" class="cls-1"/></g><g class="cls-3"><g class="cls-3"><path d="m157.94,86.31h-10.75v-6.34h29.28v6.34h-10.75v27.27h-7.78v-27.27Z" class="cls-1"/><path d="m202.63,102.78h-19.54c.72,3.22,3.46,5.18,7.39,5.18,2.74,0,4.7-.82,6.48-2.5l3.98,4.32c-2.4,2.74-6,4.18-10.66,4.18-8.93,0-14.74-5.62-14.74-13.3s5.9-13.3,13.78-13.3,13.44,5.09,13.44,13.39c0,.58-.1,1.39-.14,2.02Zm-19.63-4.37h12.72c-.53-3.26-2.98-5.38-6.34-5.38s-5.86,2.06-6.38,5.38Z" class="cls-1"/><path d="m251.4,98.79v14.79h-7.49v-13.63c0-4.18-1.87-6.1-4.9-6.1-3.36,0-5.71,2.16-5.71,6.77v12.96h-7.49v-13.63c0-4.18-1.78-6.1-4.9-6.1-3.31,0-5.66,2.16-5.66,6.77v12.96h-7.49v-25.83h7.15v2.98c1.92-2.21,4.8-3.36,8.11-3.36,3.6,0,6.67,1.39,8.5,4.22,2.06-2.64,5.42-4.22,9.31-4.22,6.15,0,10.56,3.55,10.56,11.42Z" class="cls-1"/><path d="m286.25,100.66c0,8.11-5.62,13.3-12.87,13.3-3.22,0-5.86-1.01-7.78-3.12v12.05h-7.49v-35.14h7.15v2.98c1.87-2.26,4.66-3.36,8.11-3.36,7.25,0,12.87,5.18,12.87,13.3Zm-7.58,0c0-4.46-2.83-7.15-6.58-7.15s-6.58,2.69-6.58,7.15,2.83,7.15,6.58,7.15,6.58-2.69,6.58-7.15Z" class="cls-1"/><path d="m295.56,86.31h-10.75v-6.34h29.28v6.34h-10.75v27.27h-7.78v-27.27Z" class="cls-1"/><path d="m339.29,98.84v14.74h-7.01v-3.22c-1.39,2.35-4.08,3.6-7.87,3.6-6.05,0-9.65-3.36-9.65-7.82s3.22-7.73,11.09-7.73h5.95c0-3.22-1.92-5.09-5.95-5.09-2.74,0-5.57.91-7.44,2.4l-2.69-5.23c2.83-2.02,7.01-3.12,11.14-3.12,7.87,0,12.43,3.65,12.43,11.47Zm-7.49,6.58v-2.64h-5.14c-3.5,0-4.61,1.3-4.61,3.02,0,1.87,1.58,3.12,4.22,3.12,2.5,0,4.66-1.15,5.52-3.5Z" class="cls-1"/><path d="m357.14,103.45l-3.6,3.55v6.58h-7.49v-35.62h7.49v20.16l10.94-10.37h8.93l-10.75,10.95,11.71,14.88h-9.07l-8.16-10.13Z" class="cls-1"/><path d="m401.78,102.78h-19.54c.72,3.22,3.46,5.18,7.39,5.18,2.74,0,4.7-.82,6.48-2.5l3.98,4.32c-2.4,2.74-6,4.18-10.66,4.18-8.93,0-14.74-5.62-14.74-13.3s5.9-13.3,13.78-13.3,13.44,5.09,13.44,13.39c0,.58-.1,1.39-.14,2.02Zm-19.63-4.37h12.72c-.53-3.26-2.98-5.38-6.34-5.38s-5.86,2.06-6.38,5.38Z" class="cls-1"/><path d="m422.95,87.37v6.91c-.62-.05-1.1-.1-1.68-.1-4.13,0-6.86,2.26-6.86,7.2v12.19h-7.49v-25.83h7.15v3.41c1.82-2.5,4.9-3.79,8.88-3.79Z" class="cls-1"/></g></g></svg>