<svg xmlns="http://www.w3.org/2000/svg" xmlns:xlink="http://www.w3.org/1999/xlink" width="77" height="77" version="1.1" viewBox="0 0 77 77"><title>Share</title><desc>Created with Sketch.</desc><g id="Share" fill="none" fill-rule="evenodd" stroke="none" stroke-width="1"><circle id="Oval" cx="39" cy="39" r="32" fill="#666"/><path id="Path" fill="#FFF" fill-rule="nonzero" d="M50,49 C50,51.7575 47.7167273,54 44.9090909,54 C42.1014545,54 39.8181818,51.7575 39.8181818,49 C39.8181818,48.9975 39.8194545,48.995 39.8194545,48.9925 L30.0627273,43.04125 C29.2252727,43.6375 28.2032727,44 27.0909091,44 C24.2832727,44 22,41.7575 22,39 C22,36.2425 24.2832727,34 27.0909091,34 C28.4565455,34 29.6923636,34.5375 30.6074545,35.4 L39.8805455,29.61 C39.8550909,29.4075 39.8181818,29.20875 39.8181818,29 C39.8181818,26.2425 42.1014545,24 44.9090909,24 C47.7167273,24 50,26.2425 50,29 C50,31.7575 47.7167273,34 44.9090909,34 C43.238,34 41.7667273,33.195 40.8389091,31.9725 L31.9323636,37.53375 C32.08,38 32.1818182,38.48625 32.1818182,39 C32.1818182,39.75125 31.9998182,40.45625 31.6969091,41.09625 L40.5334545,46.48625 C41.4192727,45.00625 43.0381818,44 44.9090909,44 C47.7167273,44 50,46.2425 50,49 Z"/></g></svg>