<svg width="44" height="43" viewBox="0 0 44 43" fill="none" xmlns="http://www.w3.org/2000/svg">
<path d="M37.9261 10.2402C38.1001 10.2402 38.274 10.1534 38.4045 10.0666L42.8843 5.59738C43.0583 5.42381 43.1453 5.12008 43.0148 4.90313C42.8843 4.68618 42.6668 4.51261 42.4059 4.51261H38.5785V0.650858C38.5785 0.390515 38.4045 0.130172 38.187 0.0433905C37.9261 -0.0433905 37.6651 -1.29314e-08 37.4912 0.173562L33.0114 4.64279C32.8809 4.77296 32.8374 4.94652 32.8374 5.12008V9.32896L32.4894 9.67608C29.0535 6.46519 24.3997 4.46922 19.311 4.46922C8.65515 4.46922 0 13.1039 0 23.7346C0 34.3653 8.65515 43 19.311 43C29.9668 43 38.622 34.3653 38.622 23.7346C38.622 18.6579 36.6213 14.0585 33.4028 10.5873L33.7507 10.2402H37.9261ZM40.8401 5.77094L37.6651 8.93845H35.0555L38.2305 5.77094H40.8401ZM34.0987 5.38042L37.2737 2.21292V4.81635L34.0987 7.98385V5.38042ZM37.2737 23.6912C37.2737 33.5843 29.184 41.6549 19.2675 41.6549C9.35104 41.6549 1.2613 33.5843 1.2613 23.6912C1.2613 13.7982 9.35104 5.72755 19.2675 5.72755C24.0083 5.72755 28.3141 7.54995 31.4891 10.5439L28.1836 13.8416C25.835 11.7154 22.66 10.3703 19.224 10.3703C11.8736 10.3703 5.91508 16.3148 5.91508 23.6478C5.91508 30.9808 11.9606 37.0121 19.311 37.0121C26.6613 37.0121 32.6199 31.0242 32.6199 23.6912C32.6199 20.2634 31.3151 17.1393 29.1405 14.7528L32.4459 11.4551C35.447 14.7094 37.2737 19.005 37.2737 23.6912ZM18.8326 24.1685C18.963 24.2987 19.137 24.3421 19.311 24.3421C19.485 24.3421 19.6589 24.2987 19.7894 24.1685L24.0518 19.9162C24.8781 20.9576 25.4 22.2593 25.4 23.6912C25.4 27.0323 22.7035 29.7225 19.3545 29.7225C16.0055 29.7225 13.3089 27.0323 13.3089 23.6912C13.3089 20.3502 16.0055 17.6599 19.3545 17.6599C20.7898 17.6599 22.0946 18.1806 23.1384 19.005L18.8761 23.2573C18.5716 23.5177 18.5716 23.9082 18.8326 24.1685ZM24.0083 18.0938C22.747 17.0091 21.0942 16.3582 19.2675 16.3582C15.2226 16.3582 11.9171 19.6559 11.9171 23.6912C11.9171 27.7265 15.2226 31.0242 19.2675 31.0242C23.3124 31.0242 26.6179 27.7265 26.6179 23.6912C26.6179 21.9122 25.9655 20.2634 24.8781 18.9617L28.1836 15.664C30.0973 17.7901 31.2716 20.6105 31.2716 23.6478C31.2716 30.2432 25.8785 35.6236 19.2675 35.6236C12.6565 35.6236 7.26337 30.2432 7.26337 23.6478C7.26337 17.0525 12.6565 11.672 19.2675 11.672C22.3555 11.672 25.1391 12.8436 27.2703 14.7528L24.0083 18.0938Z" fill="#5DC9D5"/>
</svg>
