<svg width="32" height="32" viewBox="0 0 32 32" fill="none" xmlns="http://www.w3.org/2000/svg">
<path fill-rule="evenodd" clip-rule="evenodd" d="M25.7055 0.763997C24.6882 -0.254666 23.0362 -0.254666 22.0187 0.763997L2.70106 20.0798C2.37305 20.4091 2.1384 20.8198 2.02105 21.2691L0.0863445 28.7357C-0.358999 30.449 0.982356 32.0263 2.63972 31.9997H2.66639H30.9333C31.5226 31.9997 31.9999 31.5224 31.9999 30.933C31.9999 30.3437 31.5226 29.8664 30.9333 29.8664H11.065C11.3837 29.7357 11.6744 29.5424 11.9197 29.2984L31.236 9.98118C32.2547 8.96385 32.2547 7.31188 31.236 6.29448L25.7055 0.763997ZM29.7282 7.80254L24.1975 2.27199C24.0122 2.08666 23.7121 2.08666 23.5268 2.27199L19.7868 6.01193L25.9882 12.2132L29.7283 8.47326C29.9136 8.28792 29.9135 7.98785 29.7282 7.80254ZM24.4801 13.7212L18.2787 7.51992L4.21046 21.5878C4.15046 21.6478 4.10779 21.7225 4.08645 21.8051L2.15042 29.2703C2.05975 29.621 2.37842 29.9397 2.72909 29.849L10.1945 27.913C10.2772 27.8917 10.3518 27.849 10.4118 27.789L24.4801 13.7212Z" fill="#5DC9D5"/>
</svg>
