<svg width="39" height="38" viewBox="0 0 39 38" fill="none" xmlns="http://www.w3.org/2000/svg">
<path d="M11.0979 4.18058L11.0979 4.1806L11.1018 4.18085C11.2137 4.18821 11.2726 4.24862 11.2963 4.31714C11.32 4.38603 11.3097 4.46749 11.2344 4.53731L9.04748 6.3996L9.03349 6.41151L9.02041 6.42442C8.73214 6.70895 8.59354 7.12758 8.66362 7.54261L8.66669 7.56075L8.67108 7.57862L9.35695 10.3712C9.37031 10.4415 9.34165 10.5257 9.25628 10.5874C9.17237 10.648 9.09844 10.6424 9.04449 10.6069L9.03513 10.6007L9.02551 10.595L6.53148 9.1095L6.5304 9.10885C6.15828 8.88848 5.66194 8.88848 5.28982 9.10885L5.28874 9.1095L2.80757 10.5873C2.70944 10.6359 2.61489 10.6195 2.54604 10.5702C2.4772 10.521 2.44757 10.4513 2.46319 10.3715L3.14477 7.59642C3.29019 7.13497 3.12074 6.67887 2.76659 6.39437L0.585735 4.53724C0.499871 4.45787 0.488421 4.36499 0.508465 4.29857C0.518826 4.26424 0.537154 4.2381 0.55909 4.22025C0.579117 4.20395 0.613734 4.18491 0.675376 4.18085L0.675377 4.18087L0.679275 4.18058L3.54482 3.96951C3.98856 3.96075 4.42912 3.67826 4.59208 3.22597L5.70379 0.609336L5.70674 0.60239L5.70948 0.595358C5.72993 0.542882 5.77931 0.5 5.87248 0.5C5.96464 0.5 6.04028 0.545038 6.0779 0.619876L7.19144 3.2408L7.19801 3.25626L7.20559 3.27123C7.41914 3.69279 7.78663 3.89961 8.17247 3.96309L8.19457 3.96672L8.21691 3.96837L11.0979 4.18058Z" stroke="#5DC9D5"/>
<path d="M7.19144 16.6529L7.19801 16.6684L7.20559 16.6833C7.38792 17.0433 7.74017 17.3725 8.2326 17.3816L11.0806 17.5914C11.2009 17.6111 11.2703 17.686 11.2963 17.7611C11.3098 17.8004 11.3096 17.8347 11.3032 17.86C11.2976 17.8821 11.2848 17.9083 11.2505 17.9359L11.2504 17.9358L11.2405 17.9442L9.04748 19.8117L9.03349 19.8236L9.02041 19.8365C8.73214 20.1211 8.59354 20.5397 8.66362 20.9547L8.66669 20.9729L8.67108 20.9907L9.35695 23.7833C9.37031 23.8536 9.34165 23.9379 9.25628 23.9995C9.17237 24.0601 9.09844 24.0545 9.04449 24.019L9.03513 24.0128L9.02551 24.0071L6.53148 22.5216L6.5304 22.521C6.15828 22.3006 5.66194 22.3006 5.28982 22.521L5.28874 22.5216L2.80757 23.9995C2.70944 24.048 2.61489 24.0316 2.54604 23.9823C2.4772 23.9331 2.44757 23.8634 2.46319 23.7836L3.14477 21.0085C3.29019 20.5471 3.12074 20.091 2.76659 19.8065L0.585734 17.9493C0.499871 17.87 0.488421 17.7771 0.508465 17.7107C0.518826 17.6763 0.537154 17.6502 0.55909 17.6324C0.579117 17.6161 0.613734 17.597 0.675376 17.593L0.675377 17.593L0.679276 17.5927L3.54482 17.3816C3.98856 17.3729 4.42912 17.0904 4.59208 16.6381L5.70379 14.0214L5.70674 14.0145L5.70948 14.0075C5.72993 13.955 5.77931 13.9121 5.87248 13.9121C5.96464 13.9121 6.04028 13.9571 6.07791 14.032L7.19144 16.6529Z" stroke="#5DC9D5"/>
<path d="M11.0979 31.0458L11.0979 31.0458L11.1018 31.0461C11.2137 31.0535 11.2726 31.1139 11.2963 31.1824C11.32 31.2513 11.3097 31.3327 11.2344 31.4025L9.04748 33.2648L9.03349 33.2767L9.02041 33.2897C8.73214 33.5742 8.59354 33.9928 8.66362 34.4078L8.66669 34.426L8.67108 34.4439L9.35695 37.2364C9.37031 37.3068 9.34165 37.391 9.25628 37.4526C9.17237 37.5132 9.09844 37.5076 9.04449 37.4721L9.03513 37.466L9.02551 37.4602L6.53148 35.9747L6.5304 35.9741C6.15828 35.7537 5.66194 35.7537 5.28982 35.9741L5.28874 35.9747L2.80757 37.4526C2.70944 37.5011 2.61489 37.4847 2.54604 37.4355C2.4772 37.3862 2.44757 37.3166 2.46319 37.2367L3.14477 34.4617C3.29019 34.0002 3.12074 33.5441 2.76659 33.2596L0.585734 31.4025C0.499871 31.3231 0.488421 31.2302 0.508465 31.1638C0.518826 31.1295 0.537153 31.1033 0.559089 31.0855C0.579116 31.0692 0.613734 31.0501 0.675376 31.0461L0.675377 31.0461L0.679276 31.0458L3.54482 30.8347C3.98856 30.826 4.42912 30.5435 4.59208 30.0912L5.70379 27.4746L5.70674 27.4676L5.70948 27.4606C5.72993 27.4081 5.77931 27.3652 5.87248 27.3652C5.96464 27.3652 6.04028 27.4103 6.07791 27.4851L7.19144 30.106L7.19801 30.1215L7.20559 30.1365C7.38792 30.4964 7.74017 30.8256 8.2326 30.8348L11.0979 31.0458Z" stroke="#5DC9D5"/>
<rect x="16" y="5" width="23" height="2" rx="1" fill="#5DC9D5"/>
<rect x="15.698" y="19" width="23.3021" height="2" rx="1" fill="#5DC9D5"/>
<rect x="15.698" y="33" width="23.3021" height="2" rx="1" fill="#5DC9D5"/>
</svg>
