<svg width="33" height="23" viewBox="0 0 33 23" fill="none" xmlns="http://www.w3.org/2000/svg">
<path d="M9.39127 3.80554L9.39127 3.80555L9.3954 3.80584C9.42637 3.808 9.4431 3.81748 9.45437 3.82684C9.46799 3.83816 9.48271 3.85757 9.49189 3.88579C9.51007 3.9417 9.49904 4.0012 9.45292 4.04724L7.60195 5.71886L7.58826 5.73122L7.57553 5.74456C7.31828 6.01383 7.20107 6.4009 7.26119 6.7785L7.26393 6.79572L7.26787 6.8127L7.84859 9.32025C7.85844 9.3764 7.83519 9.43679 7.78326 9.47657C7.75871 9.49537 7.73969 9.49943 7.73284 9.49993C7.73269 9.49994 7.73252 9.49996 7.73234 9.49998C7.73018 9.50022 7.72573 9.50072 7.71335 9.49208L7.70394 9.48551L7.69424 9.47938L5.58199 8.14512L5.58089 8.14443C5.23622 7.92796 4.7746 7.92796 4.42992 8.14443L4.42883 8.14512L2.33045 9.47062C2.30347 9.48424 2.28365 9.48563 2.2697 9.48441C2.25207 9.48287 2.23172 9.4758 2.21213 9.46093C2.17512 9.43284 2.15025 9.38593 2.16214 9.32061L2.73905 6.82952C2.86362 6.40881 2.72153 5.9854 2.40292 5.71349L0.557764 4.04713C0.502134 3.99193 0.490806 3.92188 0.506136 3.86801C0.513623 3.8417 0.525344 3.82728 0.532907 3.82075C0.537826 3.81651 0.548908 3.80794 0.578994 3.80584L0.578996 3.80586L0.583127 3.80554L3.00716 3.61618C3.42888 3.60625 3.82174 3.32371 3.96386 2.90704L4.90507 0.557628L4.90775 0.550916L4.91025 0.544129C4.91901 0.520287 4.92853 0.513275 4.93309 0.510267C4.94027 0.505526 4.95376 0.5 4.97354 0.5C4.99332 0.5 5.01327 0.50565 5.02988 0.516105C5.04365 0.524767 5.05985 0.53952 5.0735 0.568043L6.0162 2.92117L6.02221 2.93616L6.02917 2.95074C6.2168 3.34355 6.54715 3.54671 6.90426 3.60901L6.92762 3.61308L6.95125 3.61493L9.39127 3.80554Z" stroke="#5DC9D5"/>
<path d="M6.0162 15.9212L6.02221 15.9362L6.02917 15.9507C6.18452 16.276 6.5001 16.6058 6.96747 16.6162L9.37124 16.804C9.42995 16.8157 9.47285 16.8559 9.49189 16.9144C9.50181 16.9449 9.50141 16.9712 9.49712 16.9891C9.49356 17.004 9.48656 17.0179 9.46914 17.0328L9.46903 17.0327L9.45927 17.0415L7.60195 18.7189L7.58826 18.7312L7.57553 18.7446C7.31828 19.0138 7.20107 19.4009 7.26119 19.7785L7.26393 19.7957L7.26787 19.8127L7.84859 22.3203C7.85844 22.3764 7.83519 22.4368 7.78326 22.4766C7.75871 22.4954 7.73969 22.4994 7.73284 22.4999C7.73269 22.4999 7.73252 22.5 7.73234 22.5C7.73018 22.5002 7.72573 22.5007 7.71335 22.4921L7.70394 22.4855L7.69424 22.4794L5.58199 21.1451L5.58089 21.1444C5.23622 20.928 4.7746 20.928 4.42992 21.1444L4.42883 21.1451L2.33045 22.4706C2.30347 22.4842 2.28365 22.4856 2.2697 22.4844C2.25207 22.4829 2.23172 22.4758 2.21213 22.4609C2.17512 22.4328 2.15025 22.3859 2.16214 22.3206L2.73905 19.8295C2.86361 19.4088 2.72153 18.9854 2.40292 18.7135L0.557766 17.0471C0.502135 16.9919 0.490805 16.9219 0.506136 16.868C0.513623 16.8417 0.525344 16.8273 0.532907 16.8208C0.537826 16.8165 0.548908 16.8079 0.578994 16.8058L0.578996 16.8059L0.583127 16.8055L3.00716 16.6162C3.42888 16.6062 3.82174 16.3237 3.96386 15.907L4.90507 13.5576L4.90775 13.5509L4.91025 13.5441C4.91901 13.5203 4.92853 13.5133 4.93309 13.5103C4.94027 13.5055 4.95376 13.5 4.97354 13.5C4.99332 13.5 5.01327 13.5056 5.02988 13.5161C5.04365 13.5248 5.05985 13.5395 5.0735 13.568L6.0162 15.9212Z" stroke="#5DC9D5"/>
<rect x="15" y="4" width="18" height="2" rx="1" fill="#5DC9D5"/>
<rect x="15" y="18" width="18" height="2" rx="1" fill="#5DC9D5"/>
</svg>
