<svg width="32" height="28" viewBox="0 0 32 28" fill="none" xmlns="http://www.w3.org/2000/svg">
<g id="Group 1000001134">
<g id="Group">
<path id="Vector" d="M7.49945 3.14368C7.50026 3.14809 7.5001 3.15226 7.49941 3.15523C7.49904 3.15684 7.49852 3.15819 7.49774 3.15956C7.49718 3.16055 7.4959 3.1626 7.49312 3.16556L6.01453 4.50088L6.00085 4.51324L5.98811 4.52657C5.76 4.76535 5.65736 5.10667 5.7102 5.43853L5.71294 5.45574L5.71687 5.47272L6.18071 7.47555C6.18095 7.47758 6.18085 7.47925 6.18041 7.48103L4.519 6.43155L4.5179 6.43086C4.20964 6.23726 3.79901 6.23726 3.49075 6.43086L3.48966 6.43155L1.82724 7.48166C1.82728 7.48034 1.82742 7.47857 1.82777 7.47628L2.288 5.48904C2.39771 5.11433 2.27035 4.73703 1.98834 4.49566L0.515259 3.16532C0.506465 3.1562 0.503079 3.14831 0.501453 3.14204C0.50145 3.14203 0.501447 3.14202 0.501445 3.14201L2.41088 2.99284C2.78838 2.98277 3.13728 2.73101 3.26486 2.36046L3.98976 0.550992L4.72013 2.37413L4.72614 2.38912L4.7331 2.40369C4.89888 2.75075 5.19281 2.93104 5.50622 2.98572L5.52958 2.98979L5.55322 2.99164L7.49945 3.14368ZM1.8164 7.48849C1.8164 7.48849 1.81643 7.48848 1.81647 7.48846L1.81646 7.48847C1.81643 7.48848 1.81641 7.48849 1.8164 7.48849ZM2.06688 7.92169L1.82233 7.48781L2.06688 7.92169Z" stroke="#5DC9D5"/>
<path id="Vector_2" d="M7.49945 13.1437C7.50026 13.1481 7.5001 13.1523 7.49941 13.1552C7.49904 13.1568 7.49852 13.1582 7.49774 13.1596C7.49718 13.1606 7.4959 13.1626 7.49312 13.1656L6.01453 14.5009L6.00085 14.5132L5.98811 14.5266C5.76 14.7653 5.65736 15.1067 5.7102 15.4385L5.71294 15.4557L5.71687 15.4727L6.18071 17.4755C6.18095 17.4776 6.18085 17.4793 6.18041 17.481L4.519 16.4316L4.5179 16.4309C4.20964 16.2373 3.79901 16.2373 3.49075 16.4309L3.48966 16.4316L1.82724 17.4817C1.82728 17.4803 1.82742 17.4786 1.82777 17.4763L2.288 15.489C2.39771 15.1143 2.27035 14.737 1.98834 14.4957L0.515259 13.1653C0.506465 13.1562 0.503079 13.1483 0.501453 13.142C0.50145 13.142 0.501447 13.142 0.501445 13.142L2.41088 12.9928C2.78838 12.9828 3.13728 12.731 3.26486 12.3605L3.98976 10.551L4.72013 12.3741L4.72614 12.3891L4.7331 12.4037C4.89888 12.7508 5.19281 12.931 5.50622 12.9857L5.52958 12.9898L5.55322 12.9916L7.49945 13.1437ZM1.8164 17.4885C1.8164 17.4885 1.81643 17.4885 1.81647 17.4885L1.81646 17.4885C1.81643 17.4885 1.81641 17.4885 1.8164 17.4885ZM2.06688 17.9217L1.82233 17.4878L2.06688 17.9217Z" stroke="#5DC9D5"/>
<path id="Vector_3" d="M4.72013 22.3741L4.72614 22.3891L4.7331 22.4037C4.86668 22.6834 5.14579 22.9823 5.56896 22.9929L7.48191 23.1423C7.48318 23.1427 7.48399 23.1431 7.48445 23.1433C7.48561 23.1438 7.48677 23.1445 7.48813 23.1457C7.49123 23.1485 7.49535 23.1538 7.49798 23.1612L6.01453 24.5009L6.00085 24.5132L5.98811 24.5266C5.76 24.7653 5.65736 25.1067 5.7102 25.4385L5.71294 25.4557L5.71687 25.4727L6.18071 27.4755C6.18095 27.4776 6.18085 27.4793 6.18041 27.481L4.519 26.4316L4.5179 26.4309C4.20964 26.2373 3.79901 26.2373 3.49075 26.4309L3.48966 26.4316L1.82724 27.4817C1.82728 27.4803 1.82742 27.4786 1.82777 27.4763L2.288 25.489C2.39771 25.1143 2.27036 24.737 1.98835 24.4957L0.51526 23.1653C0.506465 23.1562 0.503079 23.1483 0.501453 23.142C0.50145 23.142 0.501447 23.142 0.501445 23.142L2.41088 22.9928C2.78838 22.9828 3.13728 22.731 3.26486 22.3605L3.98976 20.551L4.72013 22.3741Z" stroke="#5DC9D5"/>
</g>
<rect id="Rectangle 27" x="14" y="3" width="18" height="2" rx="1" fill="#5DC9D5"/>
<rect id="Rectangle 29" x="14" y="13" width="18" height="2" rx="1" fill="#5DC9D5"/>
<rect id="Rectangle 28" x="14" y="24" width="18" height="2" rx="1" fill="#5DC9D5"/>
</g>
</svg>
