<svg width="44" height="43" viewBox="0 0 44 43" fill="none" xmlns="http://www.w3.org/2000/svg">
<path fill-rule="evenodd" clip-rule="evenodd" d="M11.601 27.7194C11.6602 27.9459 11.6907 28.1818 11.6907 28.4234C11.6907 29.2029 11.3718 29.9088 10.8543 30.4203C10.3369 30.9318 9.62265 31.247 8.83397 31.247C8.04529 31.247 7.33111 30.9318 6.8136 30.4203C6.29609 29.9088 5.9772 29.2029 5.9772 28.4234C5.9772 28.1818 6.00776 27.9459 6.06696 27.7194H1.1705V40.305C1.1705 40.7278 1.34619 41.1128 1.6269 41.3921C1.90952 41.6715 2.29909 41.8432 2.72684 41.8432H16.9361V36.8737C16.9361 36.5547 17.1978 36.2942 17.5224 36.2942C17.6771 36.2942 17.8165 36.3527 17.9215 36.449C18.0609 36.5547 18.2175 36.6396 18.3874 36.7C18.5612 36.7604 18.7522 36.7944 18.9508 36.7944C19.4167 36.7944 19.8368 36.6075 20.1424 36.3055C20.4479 36.0036 20.6369 35.5883 20.6369 35.1278C20.6369 34.6673 20.4479 34.252 20.1424 33.95C19.8368 33.648 19.4167 33.4612 18.9508 33.4612C18.7502 33.4612 18.5612 33.4951 18.3874 33.5555C18.2175 33.6159 18.059 33.7009 17.9215 33.8066C17.8165 33.9028 17.6771 33.9613 17.5224 33.9613C17.1996 33.9613 16.9361 33.7028 16.9361 33.3819V27.7175H11.5987L11.601 27.7194ZM16.9384 22.4609V26.5623H10.6995C10.3768 26.5623 10.1133 26.8209 10.1133 27.1417C10.1133 27.272 10.1572 27.3928 10.2317 27.489C10.3233 27.623 10.3959 27.7684 10.4436 27.9231C10.4933 28.0798 10.52 28.2478 10.52 28.4233C10.52 28.8839 10.331 29.2991 10.0254 29.6011C9.71992 29.9031 9.29978 30.0899 8.83385 30.0899C8.3679 30.0899 7.94778 29.9031 7.64224 29.6011C7.3367 29.2991 7.14766 28.8839 7.14766 28.4233C7.14766 28.2478 7.17439 28.0779 7.22404 27.9231C7.27369 27.7684 7.34435 27.623 7.43601 27.489C7.51048 27.3928 7.55441 27.272 7.55441 27.1398C7.55441 26.8209 7.29279 26.5604 6.96816 26.5604H1.17074V13.9748C1.17074 13.5501 1.34643 13.167 1.62714 12.8877C1.90976 12.6083 2.29932 12.4366 2.72708 12.4366H16.9364V17.0363C16.6824 16.9645 16.417 16.9249 16.1458 16.9249C15.3571 16.9249 14.6429 17.2401 14.1254 17.7516C13.6079 18.2631 13.289 18.969 13.289 19.7485C13.289 20.528 13.6079 21.2339 14.1254 21.7454C14.6429 22.2569 15.3571 22.5721 16.1458 22.5721C16.4169 22.5721 16.6824 22.5344 16.9364 22.4607L16.9384 22.4609ZM27.6132 26.8001C27.5426 26.8964 27.5005 27.0134 27.5005 27.1399C27.5005 27.4588 27.7622 27.7193 28.0868 27.7193H33.8749V40.3049C33.8749 40.7277 33.6992 41.1127 33.4185 41.3921C33.1359 41.6714 32.7463 41.8432 32.3186 41.8432H18.1093V37.8248C18.3785 37.9078 18.6612 37.9512 18.9534 37.9512C19.742 37.9512 20.4562 37.636 20.9737 37.1245C21.4912 36.6131 21.8101 35.9072 21.8101 35.1276C21.8101 34.3481 21.4912 33.6422 20.9737 33.1307C20.4562 32.6192 19.742 32.304 18.9534 32.304C18.6612 32.304 18.3766 32.3493 18.1093 32.4305V27.7175H24.2431C24.5658 27.7175 24.8293 27.4589 24.8293 27.1381C24.8293 27.0116 24.7873 26.8927 24.7166 26.7983C24.6422 26.6757 24.583 26.5435 24.5429 26.4076C24.5008 26.2661 24.4798 26.1094 24.4798 25.9433C24.4798 25.4828 24.6689 25.0676 24.9744 24.7656C25.2799 24.4636 25.7001 24.2767 26.166 24.2767C26.632 24.2767 27.0521 24.4636 27.3576 24.7656C27.6632 25.0675 27.8522 25.4828 27.8522 25.9433C27.8522 26.1113 27.8293 26.2661 27.7892 26.4076C27.7491 26.5435 27.6918 26.6757 27.6154 26.7983L27.6132 26.8001ZM23.3776 26.5604C23.3318 26.3585 23.307 26.1508 23.307 25.9432C23.307 25.1637 23.6259 24.4578 24.1434 23.9463C24.6609 23.4348 25.3751 23.1196 26.1638 23.1196C26.9524 23.1196 27.6666 23.4348 28.1841 23.9463C28.7016 24.4578 29.0205 25.1637 29.0205 25.9432C29.0205 26.1509 28.9957 26.3585 28.9499 26.5604H34.4608C34.7836 26.5604 35.0471 26.819 35.0471 27.1399V40.3028C35.0471 41.0465 34.7396 41.7203 34.2469 42.2092C33.7524 42.698 33.0706 43 32.3182 43H2.72883C1.97642 43 1.2947 42.6961 0.800122 42.2092C0.305539 41.7203 0 41.0465 0 40.3028V13.9749C0 13.2313 0.307451 12.5575 0.800122 12.0686C1.2947 11.5798 1.97642 11.2778 2.72883 11.2778H17.5228C17.8455 11.2778 18.109 11.5364 18.109 11.8572V17.9613C18.109 18.2803 17.8474 18.5408 17.5228 18.5408C17.3777 18.5408 17.244 18.4879 17.1409 18.4011C17.0034 18.3011 16.8506 18.2218 16.6883 18.1689C16.5222 18.1142 16.3407 18.084 16.1479 18.084C15.6819 18.084 15.2618 18.2709 14.9563 18.5728C14.6507 18.8748 14.4617 19.2901 14.4617 19.7506C14.4617 20.2112 14.6507 20.6264 14.9563 20.9284C15.2618 21.2304 15.6819 21.4172 16.1479 21.4172C16.3407 21.4172 16.5221 21.387 16.6883 21.3323C16.8506 21.2776 17.0034 21.1983 17.1409 21.1001C17.244 21.0133 17.3758 20.9605 17.5228 20.9605C17.8455 20.9605 18.109 21.219 18.109 21.5399V26.566H23.3795L23.3776 26.5604ZM29.7998 18.5593L29.8037 18.5725L29.8075 18.5857V18.5876L29.8094 18.5895C29.8151 18.6065 29.8228 18.6254 29.8304 18.6424L29.8323 18.6443C29.8361 18.6518 29.8399 18.6612 29.8438 18.6688V18.6707L29.8495 18.682L29.8514 18.6839L29.8571 18.6952L29.859 18.6971L29.8648 18.7065L29.8667 18.7103L29.8724 18.7198L29.8743 18.7235L29.88 18.7311L29.882 18.7349L29.8877 18.7424L29.8896 18.7462L29.8953 18.7537L29.8972 18.7575L29.903 18.7651L29.9068 18.7688L29.9125 18.7764L29.9144 18.7802L29.924 18.7896L29.9316 18.799L29.945 18.8122L29.9545 18.8198L29.9564 18.8217L29.966 18.8292H29.9679L29.9774 18.8368L29.9813 18.8387L29.9889 18.8443L29.9927 18.8481L30.0004 18.8538L30.0023 18.8556L30.0118 18.8613L30.0156 18.8632L30.0252 18.8689L30.029 18.8708L30.0366 18.8764L30.0405 18.8783L30.0481 18.884L30.0538 18.8877L30.0615 18.8934L30.0634 18.8953L30.0729 18.9009L34.7668 21.5793V21.5774L34.7687 21.5793C35.2079 21.8303 35.7101 21.8812 36.1627 21.7605C36.6172 21.6397 37.0278 21.349 37.2799 20.9149L43.7534 9.83007H43.7515L43.7534 9.82819C44.0074 9.39407 44.0589 8.89766 43.9367 8.45033C43.8145 8.00111 43.5204 7.59533 43.0812 7.34615V7.34804L30.6323 0.243732C30.1931 -0.00729867 29.6909 -0.0582605 29.2383 0.0625364C28.7972 0.17956 28.4 0.457016 28.1441 0.872262C28.1364 0.883587 28.1288 0.896799 28.1211 0.908123L26.4904 3.69964C26.307 3.5109 26.0951 3.3448 25.8563 3.20892C25.1727 2.81822 24.3936 2.73894 23.687 2.9258C22.9805 3.11266 22.3465 3.56563 21.9512 4.24137C21.5559 4.91706 21.4757 5.68717 21.6647 6.38552C21.8538 7.08387 22.3121 7.71051 22.9957 8.10122C23.2364 8.239 23.4903 8.33715 23.7443 8.39944L21.6723 11.9459C21.6513 11.9742 21.6341 12.0044 21.6189 12.0365C21.3878 12.4612 21.3439 12.9387 21.4604 13.371C21.5788 13.807 21.8595 14.1995 22.2758 14.4506C22.3006 14.4676 22.3274 14.4827 22.3541 14.4959L27.025 17.161C27.3038 17.3214 27.6609 17.227 27.8232 16.9514C27.8958 16.8269 27.9168 16.6872 27.892 16.557C27.8633 16.372 27.8633 16.1814 27.8977 15.9964C27.9302 15.8152 27.997 15.6359 28.0963 15.4641C28.3293 15.064 28.7036 14.7959 29.1218 14.6865C29.54 14.5751 30.0002 14.6223 30.4032 14.8525C30.8061 15.0828 31.0773 15.4528 31.1899 15.8661C31.3026 16.2795 31.2549 16.7344 31.0219 17.1326C30.9226 17.3044 30.7966 17.4497 30.6533 17.5705C30.5044 17.6951 30.3363 17.7932 30.1569 17.8593L30.1549 17.8612H30.153L30.1263 17.8725L30.1225 17.8744L30.1129 17.8782L30.1072 17.88L30.0977 17.8838L30.0957 17.8857L30.0862 17.8914L30.0747 17.897L30.069 17.9008L30.0614 17.9046L30.0556 17.9084L30.048 17.9121L30.0365 17.9197L30.0289 17.9235L30.0251 17.9272L30.0174 17.9329L30.0136 17.9367L30.006 17.9423L30.0022 17.9461L29.9945 17.9518L29.9449 18.0008L29.9411 18.0065L29.9353 18.0122L29.9315 18.0178L29.922 18.0273L29.9162 18.0348L29.9143 18.0386L29.9067 18.0461L29.9048 18.0499L29.8991 18.0575L29.8952 18.0612L29.8895 18.0688L29.8857 18.0726L29.88 18.082L29.878 18.0839L29.8704 18.0933L29.8685 18.0952L29.8609 18.1065L29.859 18.1084L29.8513 18.1197L29.8456 18.1292L29.8437 18.133V18.1348L29.836 18.1462L29.8303 18.1594C29.8017 18.2179 29.7826 18.2821 29.7768 18.3444V18.3462L29.7749 18.3557V18.3613L29.773 18.3689V18.3764L29.7711 18.3821V18.3934C29.7692 18.4519 29.7768 18.5123 29.794 18.5709L29.7998 18.5593ZM26.7712 15.681C26.8304 15.4205 26.9259 15.1657 27.0615 14.9222C27.0748 14.8939 27.0901 14.8675 27.1073 14.843C27.5026 14.188 28.127 13.7482 28.8202 13.5652C29.5115 13.3821 30.2735 13.4557 30.9456 13.8237C30.9743 13.837 31.001 13.8521 31.0258 13.8709C31.6885 14.2616 32.1334 14.8788 32.3186 15.564C32.5077 16.2623 32.4275 17.0305 32.0322 17.7081C31.8832 17.9629 31.6999 18.1856 31.4918 18.3763L35.3492 20.577V20.5789C35.5077 20.6695 35.691 20.6865 35.8572 20.6412C36.0233 20.5978 36.1741 20.4902 36.2658 20.3336L42.7393 9.24876H42.7412C42.8329 9.0921 42.8501 8.9109 42.8043 8.74668C42.7603 8.58247 42.6515 8.43336 42.493 8.34276V8.34087L30.048 1.2385C29.8895 1.14791 29.7062 1.13092 29.5362 1.17433C29.3758 1.21774 29.2326 1.314 29.1409 1.45933L29.1276 1.48387L27.0385 5.06057C26.9774 5.17382 26.8781 5.26819 26.7463 5.32104C26.4484 5.44372 26.1066 5.30405 25.9824 5.00961C25.9118 4.84162 25.8144 4.68496 25.6922 4.54718C25.5757 4.41506 25.4325 4.29804 25.2663 4.20366C24.8634 3.9734 24.4032 3.9281 23.985 4.03757C23.5668 4.14893 23.1925 4.41695 22.9595 4.81521C22.7265 5.21346 22.6807 5.66833 22.7914 6.08169C22.9041 6.49505 23.1753 6.86499 23.5782 7.09528C23.7405 7.18776 23.9143 7.25004 24.0919 7.28591C24.2771 7.32177 24.4643 7.32932 24.64 7.30478C24.9589 7.26326 25.253 7.48598 25.295 7.80116C25.3141 7.94083 25.2797 8.07484 25.209 8.1862L22.6711 12.5311C22.6654 12.5424 22.6597 12.5538 22.654 12.5632C22.5623 12.7199 22.5451 12.9011 22.589 13.0653C22.6329 13.2295 22.7418 13.3786 22.9003 13.4692L26.7692 15.6775L26.7712 15.681Z" fill="#5DC9D5"/>
</svg>
