<svg width="51" height="46" viewBox="0 0 51 46" fill="none" xmlns="http://www.w3.org/2000/svg">
<path d="M29.9926 15.1501C30.2806 15.7462 30.8449 16.1612 31.4997 16.2584L41.0991 17.6839L34.1264 24.6245C33.6669 25.0819 33.4576 25.7337 33.565 26.3732L35.2076 36.1538L26.6626 31.5646C26.0717 31.2473 25.361 31.2473 24.77 31.5646L16.225 36.1538L17.8676 26.3732C17.975 25.7337 17.7658 25.0819 17.3062 24.6245L10.3336 17.6839L19.9329 16.2584C20.5877 16.1612 21.152 15.7462 21.44 15.1501L20.5396 14.7151L21.44 15.1501L25.7163 6.29876L29.9926 15.1501Z" stroke="#5DC9D5" stroke-width="2"/>
<path d="M27.2163 44.5V40.5C27.2163 39.6716 26.5447 39 25.7163 39C24.8879 39 24.2163 39.6716 24.2163 40.5V44.5C24.2163 45.3284 24.8879 46 25.7163 46C26.5447 46 27.2163 45.3284 27.2163 44.5Z" fill="#5DC9D5"/>
<path d="M48.8197 27.8416L44.4747 26.1033C43.7033 25.7947 42.8278 26.1698 42.5192 26.9412C42.2106 27.7126 42.5858 28.5881 43.3571 28.8967L47.7022 30.635C48.4736 30.9436 49.349 30.5685 49.6576 29.7971C49.9662 29.0257 49.5911 28.1503 48.8197 27.8416Z" fill="#5DC9D5"/>
<path d="M40.3948 1.13157L37.0696 4.93228C36.5226 5.55756 36.586 6.50792 37.2113 7.05497C37.8366 7.60201 38.7869 7.53859 39.334 6.91331L42.6591 3.1126C43.2062 2.48732 43.1427 1.53696 42.5175 0.989914C41.8922 0.442868 40.9418 0.506292 40.3948 1.13157Z" fill="#5DC9D5"/>
<path d="M6.70123 26.104L2.35652 27.8433C1.58522 28.152 1.21026 29.0276 1.51903 29.7989C1.82779 30.5702 2.70336 30.9452 3.47465 30.6364L7.81936 28.8971C8.59066 28.5884 8.96562 27.7128 8.65686 26.9415C8.34809 26.1702 7.47253 25.7953 6.70123 26.104Z" fill="#5DC9D5"/>
<path d="M14.1054 5.18818L10.7803 1.38747C10.2332 0.762189 9.28285 0.698766 8.65756 1.24581C8.03228 1.79286 7.96886 2.74322 8.51591 3.3685L11.8411 7.16921C12.3881 7.79449 13.3385 7.85792 13.9638 7.31087C14.589 6.76382 14.6525 5.81346 14.1054 5.18818Z" fill="#5DC9D5"/>
</svg>
