<svg xmlns="http://www.w3.org/2000/svg" xmlns:xlink="http://www.w3.org/1999/xlink" width="303.031" height="160.849" version="1.1" viewBox="0 0 8209 4357" xml:space="preserve" style="shape-rendering:geometricPrecision;text-rendering:geometricPrecision;image-rendering:optimizeQuality;fill-rule:evenodd;clip-rule:evenodd"><defs><style type="text/css">.str0{stroke:#c8c8c9;stroke-width:17.3332}.fil0{fill:none}.fil1{fill:#fefefe}.fil3,.fil4{fill:#0eccd8}.fil6{fill:#c8c8c9}.fil2,.fil5{fill:#666;fill-rule:nonzero}.fil5{fill:#c8c8c9}</style></defs><g id="Layer_x0020_1"><metadata id="CorelCorpID_0Corel-Layer"/><g><path d="M4009 1179c512,0 927,416 927,928 0,512 -415,927 -927,927 -512,0 -928,-415 -928,-927 0,-512 416,-928 928,-928z" class="fil0 str0"/></g><rect width="804" height="430" x="4344" y="1295" class="fil1"/><path d="M4685 1404c0,15 -4,26 -12,34 -8,8 -20,12 -35,12l-25 0 0 -91 28 0c14,0 25,4 33,12 7,8 11,19 11,33zm-11 0c0,-12 -3,-21 -9,-27 -6,-5 -14,-8 -26,-8l-15 0 0 72 13 0c12,0 21,-4 28,-10 6,-6 9,-15 9,-27zm71 46l-2 -10 0 0c-3,4 -7,7 -10,9 -4,1 -8,2 -13,2 -6,0 -12,-2 -15,-5 -4,-4 -6,-9 -6,-15 0,-14 11,-21 33,-22l11 0 0 -4c0,-5 -1,-9 -3,-12 -3,-2 -6,-4 -11,-4 -6,0 -12,2 -19,6l-4 -8c4,-2 7,-4 11,-5 4,-1 8,-1 12,-1 8,0 14,2 18,5 4,4 6,10 6,17l0 47 -8 0zm-23 -8c7,0 12,-1 15,-5 4,-3 6,-8 6,-14l0 -7 -10 1c-9,0 -14,1 -18,4 -4,2 -5,5 -5,10 0,4 1,7 3,9 2,2 5,2 9,2zm62 8l-10 0 0 -68 10 0 0 68zm-11 -86c0,-3 1,-4 2,-5 1,-2 3,-2 4,-2 2,0 3,0 5,2 1,1 1,2 1,5 0,2 0,4 -1,5 -2,1 -3,2 -5,2 -1,0 -3,-1 -4,-2 -1,-1 -2,-3 -2,-5zm43 86l-10 0 0 -96 10 0 0 96zm11 -68l11 0 15 39c3,8 5,15 6,19l1 0c0,-2 1,-6 3,-11 2,-5 7,-21 17,-47l11 0 -29 77c-3,8 -6,13 -10,16 -4,3 -9,5 -14,5 -4,0 -7,0 -10,-1l0 -8c3,0 5,1 8,1 7,0 12,-4 15,-12l4 -10 -28 -68zm-265 216c0,8 -3,14 -9,18 -5,5 -13,7 -23,7 -11,0 -19,-1 -25,-4l0 -10c4,1 8,3 12,4 5,0 9,1 13,1 7,0 13,-1 16,-4 4,-3 5,-6 5,-11 0,-3 0,-6 -1,-8 -2,-2 -4,-4 -7,-5 -3,-2 -7,-4 -13,-6 -9,-3 -15,-7 -18,-11 -4,-4 -6,-9 -6,-16 0,-7 3,-12 8,-17 5,-4 12,-6 21,-6 9,0 17,2 25,5l-4 9c-7,-3 -14,-4 -21,-4 -6,0 -10,1 -13,3 -3,3 -5,6 -5,10 0,3 1,6 2,8 1,2 3,4 6,5 2,2 7,4 12,6 10,3 16,7 20,11 3,4 5,9 5,15zm39 17c2,0 3,-1 5,-1 2,0 3,0 4,-1l0 8c-1,1 -3,1 -5,2 -2,0 -4,0 -6,0 -13,0 -19,-7 -19,-21l0 -40 -10 0 0 -5 10 -4 4 -14 6 0 0 15 20 0 0 8 -20 0 0 40c0,4 1,7 3,9 2,3 4,4 8,4zm64 7l-2 -10 0 0c-4,4 -7,7 -10,9 -4,1 -8,2 -13,2 -7,0 -12,-2 -16,-5 -4,-4 -6,-8 -6,-15 0,-14 11,-21 33,-21l12 -1 0 -4c0,-5 -1,-9 -4,-12 -2,-2 -6,-3 -11,-3 -5,0 -12,1 -19,5l-3 -8c3,-2 7,-3 11,-4 4,-1 8,-2 12,-2 8,0 14,2 18,5 4,4 6,10 6,18l0 46 -8 0zm-23 -7c6,0 11,-2 15,-6 4,-3 6,-8 6,-14l0 -6 -11 0c-8,0 -14,2 -17,4 -4,2 -6,6 -6,10 0,4 1,7 4,9 2,2 5,3 9,3zm98 7l0 -44c0,-5 -1,-10 -4,-12 -2,-3 -6,-4 -11,-4 -7,0 -13,2 -16,5 -3,4 -5,11 -5,19l0 36 -10 0 0 -68 8 0 2 9 0 0c2,-3 5,-5 9,-7 4,-2 8,-3 13,-3 8,0 14,2 18,6 4,4 6,10 6,19l0 44 -10 0zm78 -9l-1 0c-5,7 -12,10 -21,10 -9,0 -16,-3 -21,-9 -5,-6 -7,-15 -7,-26 0,-11 2,-20 7,-26 5,-6 12,-9 21,-9 9,0 16,3 21,10l1 0 -1 -5 0 -5 0 -27 10 0 0 96 -8 0 -1 -9zm-21 1c7,0 12,-1 15,-5 3,-4 5,-10 5,-19l0 -2c0,-9 -2,-16 -5,-20 -3,-4 -8,-6 -15,-6 -6,0 -11,2 -14,7 -3,4 -5,11 -5,19 0,9 2,15 5,20 3,4 8,6 14,6zm62 -60l0 44c0,6 1,10 3,12 3,3 7,4 12,4 7,0 12,-1 16,-5 3,-4 5,-10 5,-19l0 -36 10 0 0 68 -9 0 -1 -9 -1 0c-2,3 -5,6 -8,7 -4,2 -8,3 -13,3 -8,0 -15,-2 -19,-6 -4,-4 -6,-10 -6,-19l0 -44 11 0zm99 69c-4,0 -8,-1 -12,-2 -4,-2 -7,-4 -9,-8l-1 0c1,4 1,8 1,11l0 28 -10 0 0 -98 8 0 1 9 1 0c2,-3 5,-6 9,-8 3,-1 7,-2 12,-2 9,0 16,3 21,9 5,6 7,15 7,26 0,11 -2,20 -7,26 -5,6 -12,9 -21,9zm-1 -61c-7,0 -12,2 -15,5 -4,4 -5,10 -5,19l0 2c0,9 1,16 5,20 3,4 8,6 15,6 6,0 10,-2 14,-7 3,-4 4,-11 4,-19 0,-9 -1,-15 -4,-20 -4,-4 -8,-6 -14,-6z" class="fil2"/><rect width="733" height="217" x="2966" y="2599" class="fil1"/><path d="M3139 2699c0,15 -4,26 -12,34 -8,8 -19,12 -35,12l-25 0 0 -90 28 0c14,0 25,4 33,11 8,8 11,19 11,33zm-11 0c0,-11 -3,-20 -9,-26 -5,-6 -14,-9 -26,-9l-15 0 0 72 13 0c12,0 22,-3 28,-9 6,-6 9,-15 9,-28zm59 47c-10,0 -18,-3 -24,-9 -6,-6 -9,-14 -9,-25 0,-11 3,-20 8,-26 6,-7 13,-10 22,-10 8,0 15,3 20,9 5,5 7,12 7,22l0 6 -46 0c0,8 2,14 6,18 4,4 9,6 16,6 7,0 14,-1 22,-4l0 9c-4,2 -7,3 -11,3 -3,1 -7,1 -11,1zm-3 -61c-6,0 -10,2 -13,5 -3,4 -5,9 -6,15l35 0c0,-7 -1,-12 -4,-15 -3,-4 -7,-5 -12,-5zm57 60l-25 -68 11 0 14 41c3,9 5,15 6,18l0 0c1,-2 2,-7 5,-14 2,-7 8,-22 16,-45l11 0 -26 68 -12 0zm77 1c-10,0 -18,-3 -23,-9 -6,-6 -9,-14 -9,-25 0,-11 3,-20 8,-26 5,-7 13,-10 22,-10 8,0 15,3 20,9 5,5 7,12 7,22l0 6 -46 0c0,8 2,14 6,18 3,4 9,6 16,6 7,0 14,-1 21,-4l0 9c-3,2 -7,3 -10,3 -3,1 -7,1 -12,1zm-2 -61c-6,0 -10,2 -13,5 -4,4 -6,9 -6,15l35 0c0,-7 -1,-12 -4,-15 -3,-4 -7,-5 -12,-5zm55 60l-10 0 0 -96 10 0 0 96zm80 -34c0,11 -3,20 -8,26 -6,6 -14,9 -23,9 -6,0 -12,-1 -16,-4 -5,-3 -9,-7 -11,-12 -3,-5 -4,-12 -4,-19 0,-11 3,-19 8,-26 6,-6 13,-9 23,-9 10,0 17,3 23,10 5,6 8,14 8,25zm-51 0c0,9 1,15 5,20 3,5 8,7 15,7 7,0 12,-2 15,-7 4,-5 5,-11 5,-20 0,-8 -1,-15 -5,-19 -3,-5 -8,-7 -15,-7 -7,0 -12,2 -15,7 -4,4 -5,10 -5,19zm100 35c-4,0 -8,0 -12,-2 -3,-2 -6,-4 -9,-8l0 0c0,4 0,8 0,12l0 27 -10 0 0 -98 8 0 2 10 0 0c3,-4 6,-7 9,-8 4,-2 8,-3 12,-3 9,0 16,3 21,9 5,7 8,15 8,26 0,11 -3,20 -8,26 -5,6 -12,9 -21,9zm-1 -61c-7,0 -12,2 -15,6 -3,3 -5,10 -5,18l0 2c0,10 2,17 5,21 3,4 8,6 15,6 6,0 11,-3 14,-7 3,-5 5,-12 5,-20 0,-8 -2,-15 -5,-19 -3,-5 -8,-7 -14,-7z" class="fil2"/><rect width="512" height="217" x="3017" y="1402" class="fil1"/><path d="M3178 1561l-10 0 0 -81 -29 0 0 -9 68 0 0 9 -29 0 0 81zm61 2c-10,0 -18,-3 -24,-10 -6,-6 -9,-14 -9,-25 0,-11 3,-19 8,-26 6,-6 13,-10 22,-10 8,0 15,3 20,9 5,5 8,13 8,22l0 6 -47 0c0,8 2,14 6,18 4,5 9,7 16,7 7,0 15,-2 22,-5l0 9c-4,2 -7,3 -11,4 -3,0 -7,1 -11,1zm-3 -62c-6,0 -10,2 -13,5 -3,4 -5,9 -6,15l36 0c0,-6 -2,-11 -5,-15 -3,-3 -7,-5 -12,-5zm89 42c0,6 -3,11 -7,14 -5,4 -12,6 -20,6 -9,0 -16,-2 -21,-5l0 -9c3,1 7,3 10,4 4,1 8,1 11,1 5,0 10,-1 12,-2 3,-2 5,-5 5,-8 0,-3 -1,-5 -4,-7 -2,-2 -6,-4 -13,-7 -6,-2 -11,-4 -13,-6 -3,-2 -5,-4 -6,-6 -2,-2 -2,-5 -2,-8 0,-5 2,-10 6,-13 5,-3 11,-5 19,-5 7,0 14,2 21,5l-3 8c-7,-3 -13,-4 -19,-4 -5,0 -8,1 -11,2 -2,2 -4,4 -4,7 0,1 1,3 2,4 1,2 2,3 4,4 2,1 6,3 12,5 8,3 14,6 16,9 3,3 5,6 5,11zm38 11c2,0 4,0 5,0 2,-1 3,-1 4,-1l0 8c-1,0 -2,1 -4,1 -3,0 -5,1 -6,1 -13,0 -20,-7 -20,-21l0 -40 -10 0 0 -5 10 -5 4 -14 6 0 0 16 20 0 0 8 -20 0 0 39c0,5 1,8 3,10 2,2 5,3 8,3z" class="fil2"/><rect width="727" height="217" x="4399" y="2599" class="fil1"/><path d="M4616 2697c0,15 -4,27 -12,34 -8,8 -20,12 -35,12l-25 0 0 -90 28 0c14,0 25,4 33,12 7,7 11,18 11,32zm-11 1c0,-12 -3,-21 -9,-27 -6,-6 -14,-9 -26,-9l-15 0 0 72 13 0c12,0 21,-3 28,-9 6,-6 9,-15 9,-27zm58 46c-10,0 -17,-3 -23,-9 -6,-6 -9,-14 -9,-25 0,-11 3,-20 8,-26 6,-6 13,-10 22,-10 8,0 15,3 20,9 5,5 7,13 7,22l0 6 -46 0c0,8 2,14 6,18 4,4 9,6 16,6 7,0 14,-1 21,-4l0 9c-3,2 -7,3 -10,3 -3,1 -7,1 -12,1zm-2 -61c-6,0 -10,2 -13,5 -4,4 -5,9 -6,15l35 0c0,-7 -1,-12 -4,-15 -3,-3 -7,-5 -12,-5zm88 42c0,6 -2,11 -7,14 -4,4 -11,5 -19,5 -9,0 -16,-1 -21,-4l0 -9c3,1 6,3 10,4 4,1 7,1 11,1 5,0 9,-1 12,-3 3,-1 5,-4 5,-7 0,-3 -2,-5 -4,-7 -2,-2 -7,-4 -13,-7 -7,-2 -11,-4 -14,-6 -2,-2 -4,-4 -6,-6 -1,-2 -1,-5 -1,-8 0,-5 2,-10 6,-13 5,-3 11,-5 19,-5 7,0 14,2 21,5l-4 8c-6,-3 -13,-4 -18,-4 -5,0 -9,1 -11,2 -3,2 -4,4 -4,6 0,2 1,4 2,5 1,1 2,3 4,4 2,1 6,3 12,5 8,3 13,6 16,9 3,3 4,6 4,11zm27 18l-10 0 0 -67 10 0 0 67zm-11 -86c0,-2 1,-4 2,-5 1,-1 3,-2 4,-2 2,0 3,1 5,2 1,1 1,3 1,5 0,3 0,4 -1,5 -2,1 -3,2 -5,2 -1,0 -3,-1 -4,-2 -1,-1 -2,-2 -2,-5zm88 19l0 6 -12 2c1,1 2,3 3,5 1,3 1,5 1,8 0,7 -2,12 -6,16 -5,4 -11,6 -19,6 -2,0 -4,0 -6,-1 -4,3 -6,6 -6,9 0,2 1,3 2,4 2,1 4,1 8,1l12 0c7,0 13,2 17,5 4,3 6,8 6,14 0,7 -3,13 -9,17 -6,4 -15,6 -27,6 -9,0 -15,-2 -20,-5 -5,-4 -7,-8 -7,-14 0,-4 1,-8 4,-11 2,-3 6,-5 11,-6 -2,-1 -3,-2 -5,-4 -1,-1 -1,-3 -1,-5 0,-3 0,-5 2,-7 1,-2 3,-4 6,-5 -4,-2 -7,-4 -9,-8 -2,-3 -3,-7 -3,-12 0,-7 2,-13 7,-17 4,-4 10,-6 19,-6 3,0 6,1 9,2l23 0zm-53 79c0,3 1,6 4,8 3,2 8,3 13,3 9,0 15,-2 20,-4 4,-3 6,-6 6,-11 0,-3 -1,-6 -4,-7 -2,-2 -6,-2 -12,-2l-13 0c-4,0 -8,1 -11,3 -2,2 -3,5 -3,10zm5 -58c0,5 1,9 4,11 3,2 7,4 11,4 10,0 15,-5 15,-15 0,-10 -5,-15 -15,-15 -5,0 -8,1 -11,4 -3,2 -4,6 -4,11zm109 46l0 -44c0,-5 -2,-9 -4,-12 -3,-3 -7,-4 -12,-4 -7,0 -12,2 -15,6 -4,4 -5,10 -5,19l0 35 -11 0 0 -67 9 0 1 9 1 0c2,-4 5,-6 9,-8 3,-2 8,-3 12,-3 9,0 15,2 19,6 4,4 6,10 6,19l0 44 -10 0z" class="fil2"/><path d="M5573 526l0 58c0,11 -3,19 -9,25 -6,6 -15,9 -26,9 -11,0 -19,-3 -25,-9 -6,-6 -9,-14 -9,-25l0 -58 11 0 0 59c0,7 2,13 6,17 4,4 10,6 18,6 8,0 13,-2 18,-6 4,-4 6,-10 6,-17l0 -59 10 0zm66 72c0,6 -2,11 -7,14 -5,4 -11,6 -20,6 -9,0 -16,-2 -21,-5l0 -9c4,1 7,3 11,4 4,1 7,1 11,1 5,0 9,-1 12,-2 3,-2 4,-5 4,-8 0,-3 -1,-5 -3,-7 -2,-2 -7,-4 -14,-7 -6,-2 -10,-4 -13,-6 -3,-2 -5,-4 -6,-6 -1,-2 -2,-5 -2,-8 0,-5 2,-10 7,-13 4,-3 11,-5 18,-5 8,0 15,2 22,5l-4 8c-7,-3 -13,-4 -18,-4 -5,0 -9,1 -11,2 -3,2 -4,4 -4,7 0,1 0,3 1,4 1,1 3,3 5,4 2,1 6,3 12,5 8,3 13,6 16,9 3,3 4,6 4,11zm45 20c-10,0 -17,-3 -23,-10 -6,-6 -9,-14 -9,-25 0,-11 3,-20 8,-26 5,-6 13,-10 22,-10 8,0 15,3 20,9 5,5 7,13 7,22l0 6 -46 0c0,8 2,14 6,18 4,5 9,7 16,7 7,0 14,-2 21,-5l0 9c-3,2 -7,3 -10,4 -3,0 -7,1 -12,1zm-2 -62c-6,0 -10,2 -13,5 -4,4 -5,9 -6,15l35 0c0,-6 -1,-11 -4,-15 -3,-3 -7,-5 -12,-5zm76 -9c3,0 5,1 8,1l-2 10c-3,-1 -5,-1 -7,-1 -6,0 -10,2 -14,6 -4,5 -6,10 -6,17l0 36 -10 0 0 -67 8 0 1 12 1 0c2,-4 5,-8 9,-10 3,-2 7,-4 12,-4zm106 45c0,8 -3,14 -9,19 -6,4 -14,7 -23,7 -11,0 -19,-2 -25,-5l0 -10c4,2 8,3 12,4 4,1 9,1 13,1 7,0 12,-1 16,-4 3,-2 5,-6 5,-11 0,-3 -1,-5 -2,-7 -1,-2 -3,-4 -6,-6 -3,-2 -8,-3 -14,-6 -8,-3 -14,-6 -18,-10 -3,-4 -5,-10 -5,-16 0,-7 3,-13 8,-17 5,-4 12,-6 21,-6 9,0 17,1 24,5l-3 9c-7,-3 -15,-5 -22,-5 -5,0 -10,1 -13,4 -3,2 -4,5 -4,10 0,3 0,5 1,7 2,2 3,4 6,6 3,2 7,3 13,5 9,4 16,7 19,11 4,4 6,9 6,15zm38 17c2,0 4,0 6,0 1,-1 3,-1 4,-1l0 8c-1,0 -3,1 -5,1 -2,0 -4,1 -6,1 -13,0 -20,-7 -20,-21l0 -40 -9 0 0 -5 9 -5 5 -14 6 0 0 16 19 0 0 8 -19 0 0 39c0,5 1,8 2,10 2,2 5,3 8,3zm82 -27c0,11 -3,20 -9,26 -5,6 -13,10 -23,10 -6,0 -11,-2 -16,-5 -5,-3 -8,-7 -11,-12 -2,-5 -4,-11 -4,-19 0,-11 3,-19 9,-25 5,-7 13,-10 23,-10 9,0 17,4 22,10 6,6 9,15 9,25zm-52 0c0,9 2,16 5,20 4,5 9,7 15,7 7,0 12,-2 16,-7 3,-4 5,-11 5,-20 0,-8 -2,-15 -5,-19 -4,-5 -9,-7 -16,-7 -6,0 -11,2 -15,7 -3,4 -5,11 -5,19zm100 -35c3,0 6,1 8,1l-1 10c-3,-1 -5,-1 -7,-1 -6,0 -10,2 -14,6 -4,5 -6,10 -6,17l0 36 -10 0 0 -67 8 0 1 12 1 0c2,-4 5,-8 9,-10 3,-2 7,-4 11,-4zm31 69l-10 0 0 -67 10 0 0 67zm-11 -86c0,-2 1,-4 2,-5 1,-1 3,-1 4,-1 2,0 3,0 5,1 1,1 1,3 1,5 0,3 0,4 -1,5 -2,2 -3,2 -5,2 -1,0 -3,0 -4,-2 -1,-1 -2,-2 -2,-5zm62 88c-10,0 -18,-3 -24,-10 -6,-6 -9,-14 -9,-25 0,-11 3,-20 8,-26 6,-6 13,-10 22,-10 9,0 15,3 20,9 5,5 8,13 8,22l0 6 -47 0c0,8 2,14 6,18 4,5 9,7 16,7 7,0 15,-2 22,-5l0 9c-4,2 -7,3 -11,4 -3,0 -7,1 -11,1zm-3 -62c-6,0 -10,2 -13,5 -3,4 -5,9 -6,15l36 0c0,-6 -2,-11 -5,-15 -3,-3 -7,-5 -12,-5zm89 42c0,6 -3,11 -7,14 -5,4 -12,6 -20,6 -9,0 -16,-2 -21,-5l0 -9c3,1 7,3 10,4 4,1 8,1 11,1 5,0 10,-1 12,-2 3,-2 5,-5 5,-8 0,-3 -1,-5 -4,-7 -2,-2 -6,-4 -13,-7 -6,-2 -11,-4 -13,-6 -3,-2 -5,-4 -6,-6 -2,-2 -2,-5 -2,-8 0,-5 2,-10 6,-13 5,-3 11,-5 19,-5 7,0 14,2 21,5l-3 8c-7,-3 -13,-4 -19,-4 -5,0 -8,1 -11,2 -2,2 -4,4 -4,7 0,1 1,3 2,4 1,1 2,3 4,4 2,1 6,3 12,5 8,3 14,6 16,9 3,3 5,6 5,11z" class="fil2"/><g><g id="_2275810858224"><path d="M5956 175l-173 0c-4,0 -7,3 -7,7 0,4 3,7 7,7l173 0c4,0 7,-3 7,-7 0,-4 -3,-7 -7,-7z" class="fil3"/><path d="M5783 134l69 0c4,0 7,-4 7,-7 0,-4 -3,-7 -7,-7l-69 0c-4,0 -7,3 -7,7 0,3 3,7 7,7z" class="fil3"/><path d="M5956 231l-173 0c-4,0 -7,3 -7,6 0,4 3,7 7,7l173 0c4,0 7,-3 7,-7 0,-3 -3,-6 -7,-6z" class="fil3"/><path d="M5956 286l-173 0c-4,0 -7,3 -7,7 0,4 3,7 7,7l173 0c4,0 7,-3 7,-7 0,-4 -3,-7 -7,-7z" class="fil3"/><path d="M5956 341l-173 0c-4,0 -7,3 -7,7 0,4 3,7 7,7l173 0c4,0 7,-3 7,-7 0,-4 -3,-7 -7,-7z" class="fil3"/><path d="M5983 103l0 -101 -297 0 0 381 34 0 0 35 298 0 0 -280 -35 -35zm-62 -43l62 63 11 11 -73 0 0 -74zm-221 309l0 -353 270 0 0 73 -53 -52 -197 0 0 332 -20 0zm34 35l0 -21 0 -333 173 0 0 97 97 0 0 257 -270 0z" class="fil3"/></g></g><path d="M6888 561c0,9 -3,16 -10,21 -6,5 -15,7 -26,7l-11 0 0 36 -11 0 0 -91 24 0c22,0 34,9 34,27zm-47 19l9 0c10,0 16,-1 21,-4 4,-3 6,-8 6,-15 0,-6 -2,-10 -6,-13 -4,-3 -10,-5 -18,-5l-12 0 0 37zm95 -24c3,0 6,0 8,0l-1 10c-3,-1 -6,-1 -8,-1 -5,0 -10,2 -14,7 -4,4 -6,10 -6,16l0 37 -10 0 0 -68 8 0 2 12 0 0c3,-4 6,-7 9,-10 4,-2 8,-3 12,-3zm76 35c0,11 -2,19 -8,26 -5,6 -13,9 -23,9 -6,0 -11,-2 -16,-4 -5,-3 -8,-7 -11,-13 -2,-5 -4,-11 -4,-18 0,-11 3,-20 9,-26 5,-6 13,-9 23,-9 9,0 17,3 22,9 6,6 8,15 8,26zm-51 0c0,8 2,15 5,19 4,5 9,7 15,7 7,0 12,-2 16,-7 3,-4 5,-11 5,-19 0,-9 -2,-15 -5,-20 -4,-4 -9,-7 -16,-7 -6,0 -12,3 -15,7 -3,4 -5,11 -5,20zm115 25l0 0c-5,6 -12,10 -21,10 -9,0 -16,-3 -21,-9 -5,-6 -7,-15 -7,-26 0,-11 2,-20 7,-26 5,-6 12,-9 21,-9 9,0 16,3 21,10l1 0 -1 -5 0 -5 0 -28 10 0 0 97 -8 0 -2 -9zm-20 1c7,0 12,-2 15,-5 3,-4 5,-10 5,-19l0 -2c0,-10 -2,-16 -5,-21 -3,-4 -8,-6 -15,-6 -6,0 -11,3 -14,7 -3,5 -5,12 -5,20 0,9 2,15 5,20 3,4 8,6 14,6zm62 -60l0 44c0,5 1,9 3,12 3,3 7,4 12,4 7,0 12,-2 16,-6 3,-3 5,-10 5,-19l0 -35 10 0 0 68 -9 0 -1 -9 -1 0c-2,3 -5,5 -8,7 -4,2 -8,3 -13,3 -8,0 -15,-2 -19,-6 -4,-4 -6,-10 -6,-19l0 -44 11 0zm95 69c-10,0 -18,-3 -23,-9 -6,-6 -8,-15 -8,-26 0,-11 2,-20 8,-26 5,-6 13,-9 23,-9 3,0 7,0 10,1 3,0 6,1 8,2l-4 9c-2,-1 -4,-2 -7,-2 -3,-1 -5,-1 -7,-1 -14,0 -21,9 -21,26 0,8 2,15 5,19 4,5 9,7 15,7 6,0 12,-1 18,-4l0 9c-5,3 -11,4 -17,4zm55 -9c1,0 3,0 5,0 1,0 3,-1 4,-1l0 8c-1,1 -3,1 -5,1 -2,1 -4,1 -6,1 -13,0 -20,-7 -20,-21l0 -40 -9 0 0 -5 9 -4 5 -15 6 0 0 16 19 0 0 8 -19 0 0 40c0,4 1,7 3,9 1,2 4,3 8,3zm57 -83l25 0c12,0 21,2 26,6 6,3 8,9 8,17 0,5 -1,9 -4,13 -3,3 -8,6 -13,7l0 0c13,3 20,10 20,22 0,8 -3,14 -8,19 -5,4 -13,7 -23,7l-31 0 0 -91zm10 39l17 0c8,0 13,-1 16,-4 4,-2 5,-6 5,-11 0,-5 -1,-9 -5,-11 -4,-2 -9,-4 -17,-4l-16 0 0 30zm0 9l0 34 19 0c7,0 13,-2 16,-5 4,-2 6,-7 6,-13 0,-5 -2,-10 -6,-12 -3,-3 -9,-4 -17,-4l-18 0zm112 43l-2 -10 -1 0c-3,4 -7,7 -10,9 -3,1 -8,2 -13,2 -6,0 -11,-2 -15,-5 -4,-4 -6,-9 -6,-15 0,-14 11,-21 33,-22l11 0 0 -4c0,-5 -1,-9 -3,-12 -2,-2 -6,-4 -11,-4 -6,0 -12,2 -19,5l-3 -7c3,-2 7,-4 11,-5 4,-1 7,-1 11,-1 9,0 14,2 18,5 4,4 6,9 6,17l0 47 -7 0zm-24 -8c7,0 12,-1 16,-5 3,-3 5,-8 5,-15l0 -6 -10 1c-8,0 -14,1 -18,4 -3,2 -5,5 -5,10 0,4 1,7 3,8 2,2 5,3 9,3zm79 9c-9,0 -17,-3 -22,-9 -6,-6 -8,-15 -8,-26 0,-11 2,-20 8,-26 5,-6 13,-9 23,-9 3,0 7,0 10,1 3,0 6,1 7,2l-3 9c-2,-1 -4,-2 -7,-2 -3,-1 -5,-1 -7,-1 -14,0 -21,9 -21,26 0,8 2,15 5,19 4,5 9,7 15,7 6,0 12,-1 17,-4l0 9c-4,3 -10,4 -17,4zm44 -36c1,-3 4,-6 8,-10l22 -23 12 0 -28 29 30 39 -13 0 -24 -32 -7 6 0 26 -10 0 0 -97 10 0 0 51c0,3 -1,6 -1,11l1 0zm66 35l-10 0 0 -97 10 0 0 97zm80 -34c0,11 -3,19 -8,26 -6,6 -13,9 -23,9 -6,0 -12,-2 -16,-4 -5,-3 -9,-7 -11,-13 -3,-5 -4,-11 -4,-18 0,-11 3,-20 8,-26 6,-6 14,-9 23,-9 10,0 17,3 23,9 5,6 8,15 8,26zm-51 0c0,8 1,15 5,19 3,5 8,7 15,7 7,0 12,-2 15,-7 4,-4 6,-11 6,-19 0,-9 -2,-15 -6,-20 -3,-4 -8,-7 -15,-7 -7,0 -12,3 -15,7 -4,4 -5,11 -5,20zm125 -34l0 6 -13 2c1,1 2,3 3,6 1,2 1,4 1,7 0,7 -2,12 -6,16 -5,4 -11,6 -19,6 -2,0 -4,0 -6,0 -4,2 -6,5 -6,8 0,2 1,4 2,4 2,1 4,2 8,2l12 0c7,0 13,1 17,4 4,4 6,8 6,14 0,7 -3,13 -9,17 -6,4 -15,6 -27,6 -8,0 -15,-2 -20,-5 -5,-3 -7,-8 -7,-14 0,-4 1,-8 4,-11 2,-3 6,-5 11,-6 -2,-1 -3,-2 -5,-3 -1,-2 -1,-4 -1,-6 0,-3 0,-5 2,-7 1,-1 3,-3 6,-5 -4,-1 -6,-4 -9,-7 -2,-4 -3,-8 -3,-12 0,-8 2,-13 7,-17 4,-4 10,-6 19,-6 3,0 6,0 9,1l24 0zm-54 79c0,4 1,6 4,8 3,2 8,3 14,3 8,0 15,-1 19,-4 4,-2 6,-6 6,-10 0,-4 -1,-6 -4,-8 -2,-1 -6,-2 -12,-2l-13 0c-4,0 -8,1 -10,3 -3,3 -4,6 -4,10zm5 -57c0,4 2,8 4,10 3,3 7,4 11,4 10,0 15,-5 15,-15 0,-10 -5,-15 -15,-15 -5,0 -8,1 -11,4 -3,3 -4,6 -4,12z" class="fil2"/><g><g id="_2275764640128"><g><rect width="14.98" height="14.98" x="7201" y="365" class="fil3"/></g></g><g id="_2275764641280"><g><rect width="14.98" height="14.98" x="7231" y="365" class="fil3"/></g></g><g id="_2275764640576"><g><rect width="14.98" height="14.98" x="7201" y="275" class="fil3"/></g></g><g id="_2275764640640"><g><rect width="14.98" height="14.98" x="7231" y="275" class="fil3"/></g></g><g id="_2275764655520"><g><path d="M7425 95c-4,0 -8,1 -13,1 -20,-67 -91,-105 -158,-85 -51,15 -88,61 -91,115 -2,-1 -5,-1 -7,-1 -46,0 -83,37 -83,83 0,45 37,82 83,82l15 0 0 23c0,4 3,7 7,7l15 0 0 15 -15 0c-4,0 -7,3 -7,7l0 60c0,5 3,8 7,8l240 0c4,0 7,-3 7,-8l0 -60c0,-4 -3,-7 -7,-7l-15 0 0 -15 15 0c4,0 7,-3 7,-7l0 -23c54,0 98,-44 98,-97 0,-54 -44,-98 -98,-98zm-15 255l0 45 -224 0 0 -45 224 0zm-202 -15l0 -15 180 0 0 15 -180 0zm202 -30l-224 0 0 -45 224 0 0 45zm32 -32c-5,2 -11,2 -17,2l0 -22c0,-5 -3,-8 -7,-8l-75 0 0 -67 69 0c4,11 17,18 28,13 12,-4 18,-17 14,-28 -4,-12 -17,-18 -29,-14 -6,2 -11,7 -13,14l-77 0c-4,0 -7,3 -7,7l0 75 -37 0 0 -142 31 0c4,12 17,18 29,14 11,-5 17,-17 13,-29 -4,-12 -17,-18 -28,-14 -7,2 -12,7 -14,14l-39 0c-4,0 -7,3 -7,7l0 150 -38 0 0 -52c0,-4 -3,-8 -7,-8l-39 0c-4,-11 -17,-18 -29,-13 -12,4 -18,16 -14,28 5,12 17,18 29,14 6,-2 12,-7 14,-14l31 0 0 45 -45 0c-4,0 -7,3 -7,8l0 22 -15 0c-38,0 -68,-30 -68,-67 0,-38 30,-68 68,-68 4,0 9,1 13,2 3,0 5,-1 7,-2 1,-1 2,-4 2,-6 0,0 0,-1 0,-1 0,-62 50,-113 112,-113 52,0 98,36 110,86 1,4 4,7 8,6 45,-9 89,19 98,64 9,44 -19,88 -64,97zm-17 -103c0,-4 4,-7 8,-7 4,0 7,3 7,7 0,4 -3,8 -7,8 -4,0 -8,-4 -8,-8zm-90 -75c0,-4 4,-7 8,-7 4,0 7,3 7,7 0,4 -3,8 -7,8 -4,0 -8,-4 -8,-8zm-157 98c0,4 -3,7 -7,7 -4,0 -8,-3 -8,-7 0,-4 4,-8 8,-8 4,0 7,4 7,8z" class="fil3"/></g></g></g><path d="M7180 2229c0,8 -3,14 -8,18 -6,5 -14,7 -24,7 -10,0 -19,-1 -24,-4l0 -10c3,1 7,2 12,3 4,1 8,2 13,2 7,0 12,-2 15,-4 4,-3 6,-7 6,-11 0,-3 -1,-6 -2,-8 -1,-2 -4,-4 -6,-6 -3,-1 -8,-3 -14,-5 -8,-3 -14,-7 -18,-11 -3,-4 -5,-9 -5,-16 0,-7 2,-13 8,-17 5,-4 12,-6 20,-6 9,0 18,2 25,5l-3 9c-8,-3 -15,-5 -22,-5 -5,0 -10,2 -13,4 -3,2 -5,6 -5,10 0,3 1,6 2,8 1,2 3,4 6,5 3,2 7,4 12,6 10,3 16,7 20,11 4,3 5,9 5,15zm49 25c-5,0 -9,-1 -12,-3 -4,-1 -7,-4 -10,-7l0 0c0,4 0,8 0,11l0 28 -10 0 0 -98 9 0 1 9 0 0c3,-3 6,-6 10,-8 3,-1 7,-2 12,-2 9,0 16,3 21,9 4,6 7,15 7,26 0,11 -3,20 -8,26 -5,6 -11,9 -20,9zm-2 -62c-7,0 -12,2 -15,6 -3,4 -4,10 -5,19l0 2c0,9 2,16 5,20 3,4 9,6 16,6 5,0 10,-2 13,-7 4,-5 5,-11 5,-19 0,-9 -1,-15 -5,-20 -3,-4 -8,-7 -14,-7zm79 -8c3,0 5,0 8,1l-2 9c-3,-1 -5,-1 -7,-1 -6,0 -10,2 -14,7 -4,4 -6,10 -6,16l0 37 -10 0 0 -68 8 0 1 13 1 0c2,-5 5,-8 9,-11 3,-2 7,-3 12,-3zm31 69l-11 0 0 -68 11 0 0 68zm-12 -86c0,-3 1,-4 2,-5 1,-2 3,-2 5,-2 1,0 3,0 4,2 1,1 2,2 2,5 0,2 -1,4 -2,5 -1,1 -3,2 -4,2 -2,0 -4,-1 -5,-2 -1,-1 -2,-3 -2,-5zm80 86l0 -44c0,-6 -2,-10 -4,-12 -3,-3 -7,-5 -12,-5 -7,0 -12,2 -15,6 -4,4 -5,10 -5,19l0 36 -11 0 0 -68 9 0 1 9 1 0c2,-3 5,-6 9,-7 3,-2 8,-3 12,-3 8,0 15,2 19,6 4,4 6,10 6,19l0 44 -10 0zm53 -8c2,0 3,0 5,0 2,0 3,0 4,-1l0 8c-1,1 -3,1 -5,1 -2,1 -4,1 -6,1 -13,0 -19,-7 -19,-21l0 -40 -10 0 0 -5 10 -4 4 -15 6 0 0 16 20 0 0 8 -20 0 0 40c0,4 1,7 3,9 2,2 4,3 8,3zm-351 116c0,9 -3,16 -10,21 -6,5 -15,7 -26,7l-11 0 0 36 -10 0 0 -90 23 0c22,0 34,8 34,26zm-47 19l9 0c10,0 16,-1 21,-4 4,-3 6,-8 6,-15 0,-6 -2,-10 -6,-13 -4,-3 -10,-4 -18,-4l-12 0 0 36zm74 45l-10 0 0 -96 10 0 0 96zm64 0l-2 -10 -1 0c-3,4 -7,7 -10,9 -3,1 -7,2 -13,2 -6,0 -11,-2 -15,-5 -4,-4 -6,-8 -6,-15 0,-14 11,-21 33,-21l11 -1 0 -4c0,-5 -1,-9 -3,-12 -2,-2 -6,-3 -11,-3 -6,0 -12,1 -19,5l-3 -8c3,-2 7,-3 11,-4 4,-1 8,-2 11,-2 9,0 15,2 18,5 4,4 6,10 6,18l0 46 -7 0zm-23 -7c6,0 11,-2 15,-6 3,-3 5,-8 5,-14l0 -6 -10 0c-8,0 -14,2 -18,4 -3,2 -5,6 -5,10 0,4 1,7 3,9 2,2 5,3 10,3zm98 7l0 -44c0,-5 -2,-10 -4,-12 -3,-3 -7,-4 -12,-4 -7,0 -12,2 -15,5 -4,4 -5,11 -5,19l0 36 -11 0 0 -68 9 0 1 9 1 0c2,-3 5,-6 9,-7 3,-2 8,-3 12,-3 9,0 15,2 19,6 4,4 6,10 6,19l0 44 -10 0zm77 0l0 -44c0,-5 -1,-10 -3,-12 -3,-3 -7,-4 -12,-4 -7,0 -13,2 -16,5 -3,4 -5,11 -5,19l0 36 -10 0 0 -68 8 0 2 9 0 0c3,-3 5,-6 9,-7 4,-2 8,-3 13,-3 8,0 14,2 18,6 4,4 7,10 7,19l0 44 -11 0zm42 0l-10 0 0 -68 10 0 0 68zm-11 -86c0,-3 0,-4 1,-5 2,-1 3,-2 5,-2 1,0 3,1 4,2 1,1 2,3 2,5 0,2 -1,4 -2,5 -1,1 -3,2 -4,2 -2,0 -3,-1 -5,-2 -1,-1 -1,-3 -1,-5zm79 86l0 -44c0,-5 -1,-10 -4,-12 -2,-3 -6,-4 -12,-4 -7,0 -12,2 -15,5 -4,4 -5,11 -5,19l0 36 -10 0 0 -68 8 0 2 9 0 0c2,-3 5,-6 9,-7 4,-2 8,-3 13,-3 8,0 14,2 18,6 4,4 6,10 6,19l0 44 -10 0zm87 -68l0 7 -13 1c1,2 2,3 3,6 1,2 1,5 1,8 0,6 -2,12 -6,16 -5,3 -11,5 -19,5 -2,0 -4,0 -6,0 -4,2 -6,5 -6,9 0,1 1,3 2,4 2,1 4,1 8,1l12 0c7,0 13,2 17,5 4,3 6,7 6,13 0,8 -3,13 -9,17 -6,4 -15,6 -27,6 -9,0 -15,-1 -20,-5 -5,-3 -7,-8 -7,-14 0,-4 1,-7 4,-10 2,-3 6,-5 11,-6 -2,-1 -3,-2 -5,-4 -1,-2 -1,-4 -1,-6 0,-2 0,-5 2,-6 1,-2 3,-4 6,-6 -4,-1 -6,-4 -9,-7 -2,-4 -3,-7 -3,-12 0,-7 2,-13 7,-17 4,-4 10,-6 19,-6 3,0 6,0 9,1l24 0zm-54 79c0,4 1,7 4,8 3,2 8,3 13,3 9,0 15,-1 20,-4 4,-2 6,-6 6,-10 0,-4 -1,-6 -4,-8 -2,-1 -6,-2 -12,-2l-13 0c-4,0 -8,1 -11,4 -2,2 -3,5 -3,9zm5 -57c0,5 1,8 4,11 3,2 7,3 11,3 10,0 15,-5 15,-14 0,-11 -5,-16 -15,-16 -5,0 -8,2 -11,4 -3,3 -4,7 -4,12z" class="fil2"/><g><g id="_2241127582576"><g><path d="M7476 1729c-16,0 -28,12 -28,27 0,15 12,27 28,27 15,0 27,-12 27,-27 0,-15 -12,-27 -27,-27zm0 41c-8,0 -14,-6 -14,-14 0,-8 6,-14 14,-14 7,0 13,6 13,14 0,8 -6,14 -13,14z" class="fil3"/></g></g><g id="_2240648461568"><g><path d="M7120 1954c-15,0 -27,12 -27,27 0,15 12,28 27,28 16,0 28,-13 28,-28 0,-15 -12,-27 -28,-27zm0 41c-7,0 -13,-6 -13,-14 0,-7 6,-13 13,-13 8,0 14,6 14,13 0,8 -6,14 -14,14z" class="fil3"/></g></g><g id="_2240648462720"><g><path d="M7462 1737l-59 -28c-3,-2 -7,0 -9,3 -1,3 0,8 3,9l59 29c1,0 2,0 3,0 3,0 5,-1 6,-4 2,-3 1,-7 -3,-9z" class="fil3"/></g></g><g id="_2240648463232"><g><path d="M7400 2002c-15,0 -27,12 -27,27 0,15 12,27 27,27 16,0 28,-12 28,-27 0,-15 -12,-27 -28,-27zm0 41c-7,0 -13,-6 -13,-14 0,-7 6,-14 13,-14 8,0 14,7 14,14 0,8 -6,14 -14,14z" class="fil3"/></g></g><g id="_2241131011616"><g><path d="M7387 2010l-59 -28c-3,-2 -7,0 -9,3 -1,4 0,8 3,9l59 29c1,0 2,0 3,0 3,0 5,-1 6,-3 2,-4 1,-8 -3,-10z" class="fil3"/></g></g><g id="_2241131011104"><g><path d="M7298 1831c-15,0 -27,12 -27,27 0,15 12,28 27,28 15,0 27,-13 27,-28 0,-15 -12,-27 -27,-27zm0 41c-8,0 -14,-6 -14,-14 0,-7 6,-13 14,-13 8,0 14,6 14,13 0,8 -6,14 -14,14z" class="fil3"/></g></g><g id="_2241131011424"><g><path d="M7286 1840l-45 -35c-3,-2 -8,-2 -10,1 -2,3 -2,8 1,10l46 35c1,1 2,2 4,2 2,0 4,-1 5,-3 3,-3 2,-7 -1,-10z" class="fil3"/></g></g><g id="_2241131008224"><g><path d="M7421 1824c-41,0 -75,34 -75,75 0,42 34,75 75,75 41,0 75,-33 75,-75 0,-41 -34,-75 -75,-75zm0 137c-34,0 -62,-28 -62,-62 0,-34 28,-61 62,-61 34,0 61,27 61,61 0,34 -27,62 -61,62z" class="fil3"/></g></g><g id="_2241131009792"><g><path d="M7421 1852c-15,0 -27,12 -27,27 0,15 12,27 27,27 15,0 27,-12 27,-27 0,-15 -12,-27 -27,-27zm0 41c-8,0 -14,-7 -14,-14 0,-8 6,-14 14,-14 7,0 14,6 14,14 0,7 -7,14 -14,14z" class="fil3"/></g></g><g id="_2241131003424"><g><path d="M7441 1920l-40 0c-12,0 -21,9 -21,20l0 18c0,3 1,5 3,6 12,7 25,10 38,10 13,0 26,-3 37,-10 3,-1 4,-3 4,-6l0 -18c0,-11 -10,-20 -21,-20zm7 34c-17,9 -37,9 -54,0l0 -14c0,-3 3,-6 7,-6l40 0c4,0 7,3 7,6l0 14 0 0z" class="fil3"/></g></g><g id="_2275808906928"><g><path d="M7257 1906c-41,0 -75,34 -75,75 0,42 34,75 75,75 41,0 75,-33 75,-75 0,-41 -34,-75 -75,-75zm0 137c-34,0 -61,-28 -61,-62 0,-34 27,-61 61,-61 34,0 62,27 62,61 0,34 -28,62 -62,62z" class="fil3"/></g></g><g id="_2275808904752"><g><path d="M7257 1934c-15,0 -27,12 -27,27 0,15 12,27 27,27 15,0 27,-12 27,-27 0,-15 -12,-27 -27,-27zm0 40c-7,0 -14,-6 -14,-13 0,-8 7,-14 14,-14 8,0 14,6 14,14 0,7 -6,13 -14,13z" class="fil3"/></g></g><g id="_2275808902800"><g><path d="M7277 2002l-40 0c-11,0 -21,9 -21,20l0 18c0,3 1,5 3,6 12,7 25,10 38,10 13,0 26,-3 38,-10 2,-1 3,-3 3,-6l0 -18c0,-11 -9,-20 -21,-20zm7 34c-17,9 -37,9 -54,0l0 -14c0,-3 3,-7 7,-7l40 0c4,0 7,4 7,7l0 14 0 0z" class="fil3"/></g></g><g id="_2275808899664"><g><path d="M7168 1736c-41,0 -75,33 -75,75 0,41 34,75 75,75 42,0 75,-34 75,-75 0,-42 -33,-75 -75,-75zm0 136c-34,0 -61,-28 -61,-61 0,-34 27,-62 61,-62 34,0 62,28 62,62 0,33 -28,61 -62,61z" class="fil3"/></g></g><g id="_2275808899216"><g><path d="M7168 1763c-15,0 -27,12 -27,27 0,15 12,27 27,27 15,0 28,-12 28,-27 0,-15 -13,-27 -28,-27zm0 41c-7,0 -13,-6 -13,-14 0,-7 6,-14 13,-14 8,0 14,7 14,14 0,8 -6,14 -14,14z" class="fil3"/></g></g><g id="_2275808899568"><g><path d="M7188 1831l-40 0c-11,0 -21,9 -21,21l0 18c0,2 2,4 4,6 11,6 24,10 37,10 13,0 26,-4 38,-10 2,-2 3,-4 3,-6l0 -18c0,-12 -9,-21 -21,-21zm8 35c-17,8 -38,8 -55,0l0 -14c0,-4 3,-7 7,-7l40 0c4,0 8,3 8,7l0 14 0 0z" class="fil3"/></g></g><g id="_2275808899760"><g><path d="M7332 1647c-41,0 -75,33 -75,75 0,41 34,75 75,75 42,0 75,-34 75,-75 0,-42 -33,-75 -75,-75zm0 136c-34,0 -61,-27 -61,-61 0,-34 27,-62 61,-62 34,0 62,28 62,62 0,34 -28,61 -62,61z" class="fil3"/></g></g><g id="_2275808897200"><g><path d="M7332 1674c-15,0 -27,12 -27,27 0,15 12,28 27,28 15,0 27,-13 27,-28 0,-15 -12,-27 -27,-27zm0 41c-7,0 -13,-6 -13,-14 0,-7 6,-13 13,-13 8,0 14,6 14,13 0,8 -6,14 -14,14z" class="fil3"/></g></g><g id="_2275808898320"><g><path d="M7352 1742l-40 0c-11,0 -21,10 -21,21l0 18c0,2 1,5 4,6 11,6 24,10 37,10 13,0 26,-4 38,-10 2,-1 3,-4 3,-6l0 -18c0,-11 -9,-21 -21,-21zm7 35c-17,8 -37,8 -54,0l0 -14c0,-4 3,-7 7,-7l40 0c4,0 7,3 7,7l0 14 0 0z" class="fil3"/></g></g><g id="_2275808898352"><g><path d="M7269 1717c-2,-2 -7,-3 -10,0l-47 40c-3,3 -3,7 -1,10 2,1 4,2 6,2 1,0 3,0 4,-1l47 -41c3,-2 4,-7 1,-10z" class="fil3"/></g></g><g id="_2275808898192"><g><path d="M7420 1827l-41 -55c-3,-3 -7,-3 -10,-1 -3,2 -4,7 -1,10l41 54c1,2 3,3 5,3 2,0 3,-1 4,-1 3,-3 4,-7 2,-10z" class="fil3"/></g></g><g id="_2275764652576"><g><path d="M7364 1922c-3,-3 -7,-4 -10,-1l-38 28c-3,2 -4,7 -2,10 2,2 4,2 6,2 1,0 3,0 4,-1l38 -28c3,-3 4,-7 2,-10z" class="fil3"/></g></g><g id="_2275764653536"><g><path d="M7189 1974l-48 0c-4,0 -7,4 -7,7 0,4 3,7 7,7l48 0c4,0 7,-3 7,-7 0,-3 -3,-7 -7,-7z" class="fil3"/></g></g><g id="_2275764652928"><g><path d="M7168 1647c-15,0 -27,12 -27,27 0,15 12,27 27,27 15,0 28,-12 28,-27 0,-15 -13,-27 -28,-27zm0 41c-7,0 -13,-6 -13,-14 0,-7 6,-14 13,-14 8,0 14,7 14,14 0,8 -6,14 -14,14z" class="fil3"/></g></g><g id="_2275764650560"><g><path d="M7168 1688c-3,0 -7,3 -7,7l0 47c0,4 4,7 7,7 4,0 7,-3 7,-7l0 -47c0,-4 -3,-7 -7,-7z" class="fil3"/></g></g></g><path d="M10 2215l0 38 -10 0 0 -91 25 0c11,0 19,3 24,7 6,4 8,10 8,19 0,12 -6,20 -18,24l25 41 -13 0 -22 -38 -19 0zm0 -9l15 0c7,0 13,-1 16,-4 4,-3 5,-8 5,-14 0,-5 -1,-10 -5,-12 -3,-3 -9,-4 -17,-4l-14 0 0 34zm95 48c-10,0 -18,-3 -23,-9 -6,-6 -9,-15 -9,-26 0,-11 3,-19 8,-26 5,-6 12,-9 22,-9 8,0 15,3 20,8 5,6 7,13 7,22l0 7 -47 0c1,8 3,14 6,18 4,4 10,6 17,6 7,0 14,-2 21,-5l0 10c-3,1 -7,2 -10,3 -3,1 -7,1 -12,1zm-3 -62c-5,0 -9,2 -13,6 -3,3 -5,8 -5,14l35 0c0,-6 -1,-11 -4,-14 -3,-4 -7,-6 -13,-6zm67 53c2,0 4,0 6,0 1,0 3,0 4,-1l0 8c-1,1 -3,1 -5,1 -2,1 -4,1 -6,1 -13,0 -20,-7 -20,-21l0 -40 -9 0 0 -5 9 -4 5 -15 6 0 0 16 19 0 0 8 -19 0 0 40c0,4 0,7 2,9 2,2 5,3 8,3zm54 -61c3,0 6,0 8,1l-1 9c-3,-1 -6,-1 -8,-1 -5,0 -10,2 -14,7 -4,4 -6,10 -6,16l0 37 -10 0 0 -68 9 0 1 13 0 0c3,-5 6,-8 9,-11 4,-2 8,-3 12,-3zm77 35c0,11 -3,19 -9,26 -5,6 -13,9 -23,9 -6,0 -11,-1 -16,-4 -5,-3 -8,-7 -11,-13 -2,-5 -4,-11 -4,-18 0,-11 3,-20 9,-26 5,-6 13,-9 23,-9 9,0 17,3 22,9 6,7 9,15 9,26zm-52 0c0,8 2,15 5,20 4,4 9,6 16,6 6,0 11,-2 15,-6 3,-5 5,-12 5,-20 0,-9 -2,-15 -5,-20 -4,-4 -9,-7 -16,-7 -6,0 -11,3 -15,7 -3,4 -5,11 -5,20zm113 15c0,7 -2,11 -7,15 -5,3 -11,5 -20,5 -9,0 -16,-1 -21,-4l0 -10c4,2 7,3 11,4 4,1 7,1 11,1 5,0 9,0 12,-2 3,-2 4,-4 4,-8 0,-3 -1,-5 -3,-7 -2,-2 -7,-4 -13,-6 -7,-3 -11,-5 -14,-6 -3,-2 -5,-4 -6,-6 -1,-3 -2,-5 -2,-8 0,-6 2,-10 7,-13 4,-4 11,-5 18,-5 8,0 15,1 22,4l-4 9c-7,-3 -13,-5 -18,-5 -5,0 -9,1 -11,3 -3,1 -4,3 -4,6 0,2 0,3 1,5 1,1 3,2 5,3 2,1 6,3 12,5 8,3 13,6 16,9 3,3 4,7 4,11zm48 20c-4,0 -8,-1 -12,-3 -3,-1 -6,-4 -9,-7l-1 0c1,4 1,8 1,11l0 28 -10 0 0 -98 8 0 2 9 0 0c3,-3 6,-6 9,-8 4,-1 8,-2 12,-2 9,0 16,3 21,9 5,6 7,15 7,26 0,11 -2,20 -7,26 -5,6 -12,9 -21,9zm-1 -62c-7,0 -12,2 -15,6 -3,4 -5,10 -5,19l0 2c0,9 2,16 5,20 3,4 8,6 15,6 6,0 11,-2 14,-7 3,-5 5,-11 5,-19 0,-9 -2,-15 -5,-20 -3,-4 -8,-7 -14,-7zm76 62c-10,0 -18,-3 -24,-9 -6,-6 -8,-15 -8,-26 0,-11 2,-19 8,-26 5,-6 12,-9 21,-9 9,0 15,3 20,8 5,6 8,13 8,22l0 7 -47 0c0,8 2,14 6,18 4,4 9,6 16,6 8,0 15,-2 22,-5l0 10c-4,1 -7,2 -10,3 -4,1 -8,1 -12,1zm-3 -62c-5,0 -10,2 -13,6 -3,3 -5,8 -6,14l36 0c0,-6 -2,-11 -5,-14 -2,-4 -7,-6 -12,-6zm72 62c-9,0 -17,-3 -22,-9 -6,-6 -9,-15 -9,-26 0,-11 3,-20 9,-26 5,-6 13,-9 23,-9 3,0 6,0 10,1 3,1 6,1 7,2l-3 9c-2,-1 -5,-2 -7,-2 -3,-1 -5,-1 -7,-1 -14,0 -21,9 -21,26 0,8 2,15 5,19 4,5 8,7 15,7 6,0 11,-1 17,-4l0 9c-4,3 -10,4 -17,4zm55 -9c2,0 4,0 6,0 1,0 3,0 4,-1l0 8c-2,1 -3,1 -5,1 -3,1 -4,1 -6,1 -13,0 -20,-7 -20,-21l0 -40 -10 0 0 -5 10 -4 4 -15 6 0 0 16 20 0 0 8 -20 0 0 40c0,4 1,7 3,9 2,2 5,3 8,3zm33 8l-10 0 0 -68 10 0 0 68zm-11 -86c0,-3 1,-4 2,-5 1,-2 3,-2 4,-2 2,0 3,0 4,2 2,1 2,2 2,5 0,2 0,4 -2,5 -1,1 -2,2 -4,2 -1,0 -3,-1 -4,-2 -1,-1 -2,-3 -2,-5zm48 86l-26 -68 11 0 15 40c3,10 5,16 6,18l0 0c0,-2 2,-6 4,-13 3,-7 8,-22 17,-45l11 0 -26 68 -12 0zm77 1c-10,0 -18,-3 -24,-9 -6,-6 -8,-15 -8,-26 0,-11 2,-19 8,-26 5,-6 12,-9 21,-9 9,0 15,3 20,8 5,6 8,13 8,22l0 7 -47 0c0,8 2,14 6,18 4,4 9,6 16,6 8,0 15,-2 22,-5l0 10c-4,1 -7,2 -10,3 -4,1 -7,1 -12,1zm-3 -62c-5,0 -10,2 -13,6 -3,3 -5,8 -6,14l36 0c0,-6 -2,-11 -4,-14 -3,-4 -7,-6 -13,-6z" class="fil2"/><g><g id="_2275835458576"><g><g><path d="M5618 3565l-344 0c-19,0 -34,15 -34,34l0 344c0,19 15,34 34,34l344 0c19,0 34,-15 34,-34l0 -344c0,-19 -15,-34 -34,-34zm20 378c0,11 -9,20 -20,20l-344 0c-12,0 -21,-9 -21,-20l0 -310 385 0 0 310 0 0zm0 -323l-385 0 0 -21c0,-11 9,-21 21,-21l344 0c11,0 20,10 20,21l0 21 0 0z" class="fil3"/><path d="M5288 3592l-7 0c-4,0 -7,3 -7,7 0,4 3,7 7,7l7 0c3,0 6,-3 6,-7 0,-4 -3,-7 -6,-7z" class="fil3"/><path d="M5318 3593c-2,-1 -4,-1 -5,0 -1,0 -2,1 -3,1 -2,3 -2,7 0,10 1,1 2,1 3,1 1,1 3,1 5,0 1,0 1,0 2,-1 3,-3 3,-7 0,-10 -1,0 -1,-1 -2,-1z" class="fil3"/><path d="M5345 3593c-2,-1 -5,-1 -7,1 -1,1 -1,2 -2,2 0,2 0,4 0,6 1,0 1,1 2,2 2,3 7,3 9,0 1,-1 2,-2 2,-2 0,-1 1,-2 0,-3 1,-3 -1,-5 -4,-6z" class="fil3"/><path d="M5611 3592l-234 0c-4,0 -7,3 -7,7 0,4 3,7 7,7l234 0c4,0 7,-3 7,-7 0,-4 -3,-7 -7,-7z" class="fil3"/><path d="M5345 3892c0,0 1,1 1,1 26,27 62,43 100,43 38,0 74,-16 100,-43 0,0 0,-1 0,-1 1,0 1,-1 1,-1 48,-52 48,-133 0,-185l0 0c0,-1 0,-1 -1,-1 0,-1 0,-1 -1,-1 -25,-27 -62,-43 -99,-43 -38,0 -74,16 -100,43 0,0 -1,0 -1,1 0,0 0,0 -1,1 -48,52 -48,133 0,185 1,0 1,1 1,1zm138 24c11,-12 19,-27 24,-43l0 0c8,4 16,9 24,15 -14,13 -30,23 -48,28zm57 -38c-9,-7 -19,-14 -29,-18 4,-18 6,-36 7,-55l51 0c-1,27 -11,52 -29,73zm29 -86l-51 0c-1,-19 -3,-37 -7,-55 10,-5 20,-11 29,-18 18,20 28,46 29,73zm-38 -83c-8,6 -16,11 -24,15 -5,-16 -13,-31 -24,-43 18,5 34,15 48,28zm-78 -33c16,4 31,24 41,53 -14,5 -27,7 -41,8l0 -61zm0 75c15,-1 30,-4 45,-9 3,16 6,33 6,50l-51 0 0 -41zm0 54l51 0c0,17 -3,33 -6,49 -15,-4 -30,-7 -45,-8l0 -41zm0 55c14,1 27,3 41,8 -10,29 -25,49 -41,53l0 -61zm-92 28c7,-6 15,-11 24,-15l0 0c5,16 13,31 23,43 -18,-5 -34,-15 -47,-28zm78 33c-17,-4 -32,-24 -41,-53 13,-5 27,-7 41,-8l0 61zm0 -75c-15,1 -31,4 -45,8 -4,-16 -6,-32 -7,-49l52 0 0 41zm0 -54l-52 0c1,-17 3,-34 7,-50 14,5 30,8 45,9l0 41zm0 -116l0 61c-14,-1 -28,-3 -41,-8 9,-29 24,-49 41,-53zm-31 4c-10,13 -18,28 -23,44l0 0c-9,-4 -17,-9 -24,-15 13,-13 29,-23 47,-29zm-57 39c9,7 19,13 30,18 -4,18 -7,36 -7,55l-52 0c2,-27 12,-53 29,-73zm23 86c0,19 3,37 7,55 -11,4 -21,11 -30,18 -17,-21 -27,-46 -29,-73l52 0 0 0z" class="fil3"/></g></g></g></g><path d="M5281 4136l30 0 0 44c-4,2 -9,3 -14,4 -5,1 -11,1 -17,1 -14,0 -25,-4 -32,-12 -8,-8 -12,-20 -12,-34 0,-10 2,-18 6,-25 4,-7 9,-12 16,-16 7,-4 16,-6 25,-6 10,0 19,2 27,6l-4 9c-8,-4 -16,-5 -24,-5 -11,0 -19,3 -25,9 -6,7 -10,16 -10,28 0,12 3,21 9,27 6,7 15,10 27,10 6,0 12,-1 18,-2l0 -28 -20 0 0 -10zm109 14c0,11 -3,20 -8,26 -6,6 -14,9 -23,9 -6,0 -12,-1 -17,-4 -4,-3 -8,-7 -10,-12 -3,-6 -4,-12 -4,-19 0,-11 3,-20 8,-26 6,-6 13,-9 23,-9 9,0 17,3 23,9 5,7 8,15 8,26zm-52 0c0,9 2,15 6,20 3,4 8,6 15,6 7,0 12,-2 15,-6 4,-5 5,-11 5,-20 0,-9 -1,-15 -5,-20 -3,-4 -9,-6 -15,-6 -7,0 -12,2 -15,6 -4,5 -6,11 -6,20zm104 34l0 -91 11 0 0 81 40 0 0 10 -51 0zm75 0l-11 0 0 -68 11 0 0 68zm-12 -86c0,-3 1,-4 2,-5 1,-1 3,-2 5,-2 1,0 3,1 4,2 1,1 2,2 2,5 0,2 -1,4 -2,5 -1,1 -3,2 -4,2 -2,0 -4,-1 -5,-2 -1,-1 -2,-3 -2,-5zm48 86l-26 -68 11 0 15 40c3,10 5,16 6,18l0 0c1,-2 2,-6 5,-13 2,-7 7,-22 16,-45l11 0 -26 68 -12 0zm77 1c-10,0 -18,-3 -23,-9 -6,-6 -9,-15 -9,-26 0,-10 3,-19 8,-26 5,-6 13,-9 22,-9 8,0 15,3 20,8 5,6 7,13 7,22l0 7 -46 0c0,8 2,14 6,18 3,4 9,6 16,6 7,0 14,-1 21,-5l0 10c-3,1 -7,2 -10,3 -3,1 -7,1 -12,1zm-3 -62c-5,0 -9,2 -13,6 -3,3 -5,8 -5,14l35 0c0,-6 -1,-11 -4,-14 -3,-4 -7,-6 -13,-6z" class="fil2"/><path d="M7036 4183l-11 0 0 -90 51 0 0 9 -40 0 0 33 37 0 0 9 -37 0 0 39zm82 1c-10,0 -18,-3 -24,-9 -6,-6 -9,-14 -9,-25 0,-11 3,-20 8,-26 6,-7 13,-10 22,-10 9,0 15,3 20,8 5,6 8,13 8,23l0 6 -47 0c0,8 2,14 6,18 4,4 9,6 16,6 7,0 15,-1 22,-4l0 9c-4,1 -7,3 -11,3 -3,1 -7,1 -11,1zm-3 -61c-5,0 -10,1 -13,5 -3,4 -5,8 -6,15l36 0c0,-7 -2,-12 -5,-15 -3,-4 -7,-5 -12,-5zm74 61c-10,0 -18,-3 -24,-9 -6,-6 -9,-14 -9,-25 0,-11 3,-20 8,-26 6,-7 13,-10 22,-10 8,0 15,3 20,8 5,6 8,13 8,23l0 6 -47 0c0,8 2,14 6,18 4,4 9,6 16,6 7,0 15,-1 22,-4l0 9c-4,1 -7,3 -11,3 -3,1 -7,1 -11,1zm-3 -61c-6,0 -10,1 -13,5 -3,4 -5,8 -6,15l36 0c0,-7 -2,-12 -5,-15 -3,-4 -7,-5 -12,-5zm91 51l0 0c-5,7 -12,10 -22,10 -9,0 -15,-3 -20,-9 -5,-6 -8,-14 -8,-26 0,-11 3,-19 8,-26 5,-6 11,-9 20,-9 9,0 17,3 21,10l1 0 0 -5 0 -4 0 -28 10 0 0 96 -9 0 -1 -9zm-20 2c7,0 12,-2 15,-6 3,-4 5,-10 5,-18l0 -3c0,-9 -2,-16 -5,-20 -3,-4 -9,-6 -16,-6 -6,0 -10,2 -13,7 -4,4 -5,11 -5,20 0,8 1,15 5,19 3,4 7,7 14,7zm83 -62c9,0 16,3 21,9 5,6 7,15 7,26 0,11 -2,20 -7,26 -5,6 -12,9 -21,9 -4,0 -8,-1 -12,-2 -4,-2 -7,-4 -9,-8l-1 0 -2 9 -7 0 0 -96 10 0 0 23c0,6 0,10 -1,14l1 0c5,-6 12,-10 21,-10zm-1 9c-7,0 -13,2 -16,6 -3,4 -4,11 -4,20 0,10 1,16 5,21 3,4 8,6 15,6 6,0 11,-3 14,-7 3,-5 4,-11 4,-20 0,-9 -1,-15 -4,-20 -3,-4 -8,-6 -14,-6zm89 60l-2 -10 -1 0c-3,5 -7,8 -10,9 -3,2 -8,2 -13,2 -6,0 -12,-1 -15,-5 -4,-3 -6,-8 -6,-15 0,-13 11,-21 33,-21l11 -1 0 -4c0,-5 -1,-9 -3,-11 -3,-3 -6,-4 -11,-4 -6,0 -12,1 -19,5l-3 -8c3,-2 6,-3 10,-4 4,-1 8,-2 12,-2 8,0 14,2 18,6 4,3 6,9 6,17l0 46 -7 0zm-24 -7c7,0 12,-2 15,-5 4,-4 6,-9 6,-15l0 -6 -10 0c-8,1 -14,2 -18,4 -4,2 -5,6 -5,10 0,4 1,7 3,9 2,2 5,3 9,3zm79 8c-9,0 -17,-3 -22,-9 -6,-6 -8,-14 -8,-25 0,-12 2,-20 8,-27 5,-6 13,-9 23,-9 3,0 6,0 10,1 3,1 6,2 7,3l-3 8c-2,-1 -4,-1 -7,-2 -3,0 -5,-1 -7,-1 -14,0 -21,9 -21,27 0,8 2,14 5,19 4,4 8,6 15,6 6,0 11,-1 17,-3l0 9c-4,2 -10,3 -17,3zm44 -36c1,-2 4,-5 8,-9l22 -24 12 0 -28 29 30 39 -13 0 -24 -32 -7 7 0 25 -11 0 0 -96 11 0 0 51c0,2 -1,6 -1,10l1 0z" class="fil2"/><g><g id="_2275835469680"><g><path d="M7207 3559l-16 16c-1,-1 -3,-1 -4,-1l-85 0c-5,0 -9,4 -9,8l0 86c0,5 4,8 9,8l85 0c5,0 9,-3 9,-8l0 -73 23 -24 -12 -12zm-29 100l-68 0 0 -68 65 0 -31 31 -11 -11 -12 12 17 17c4,3 9,3 12,0l28 -28 0 47z" class="fil3"/></g></g><g id="_2275835470192"><g><path d="M7207 3713l-16 16c-1,-1 -3,-1 -4,-1l-85 0c-5,0 -9,4 -9,8l0 86c0,4 4,8 9,8l85 0c5,0 9,-4 9,-8l0 -74 23 -23 -12 -12zm-29 100l-68 0 0 -68 65 0 -31 30 -11 -11 -12 12 17 18c4,3 9,3 12,0l28 -29 0 48z" class="fil3"/></g></g><g id="_2275835468688"><g><path d="M7207 3858l-16 16c-1,-1 -3,-1 -4,-1l-85 0c-5,0 -9,4 -9,8l0 86c0,5 4,8 9,8l85 0c5,0 9,-3 9,-8l0 -73 23 -24 -12 -12zm-29 100l-68 0 0 -68 65 0 -31 31 -11 -11 -12 12 17 17c4,3 9,3 12,0l28 -28 0 47z" class="fil3"/></g></g><g id="_2275835468624"><g><rect width="247.721" height="17.084" x="7255" y="3642" class="fil3"/></g></g><g id="_2275835467408"><g><rect width="247.721" height="17.084" x="7255" y="3591" class="fil3"/></g></g><g id="_2275835467824"><g><rect width="247.721" height="17.084" x="7255" y="3796" class="fil3"/></g></g><g id="_2275835466832"><g><rect width="247.721" height="17.084" x="7255" y="3745" class="fil3"/></g></g><g id="_2275835465104"><g><rect width="247.721" height="17.084" x="7255" y="3941" class="fil3"/></g></g><g id="_2275835465680"><g><rect width="247.721" height="17.084" x="7255" y="3890" class="fil3"/></g></g></g><path d="M4156 618l0 -90 11 0 0 90 -11 0zm80 0l0 -43c0,-6 -1,-10 -4,-13 -2,-2 -6,-4 -11,-4 -7,0 -13,2 -16,6 -3,4 -5,10 -5,19l0 35 -10 0 0 -67 8 0 2 9 0 0c3,-3 5,-6 9,-8 4,-2 8,-3 13,-3 8,0 14,2 18,6 4,4 6,11 6,19l0 44 -10 0zm59 2c-10,0 -18,-3 -23,-9 -6,-6 -8,-15 -8,-26 0,-11 2,-20 8,-26 5,-6 13,-10 23,-10 3,0 7,1 10,1 3,1 6,2 8,3l-4 9c-2,-1 -4,-2 -7,-3 -3,0 -5,0 -7,0 -14,0 -21,8 -21,26 0,8 2,15 5,19 4,4 9,7 15,7 6,0 12,-2 18,-4l0 9c-5,2 -11,4 -17,4zm61 0c-10,0 -18,-3 -23,-10 -6,-6 -9,-14 -9,-25 0,-11 3,-20 8,-26 5,-6 13,-10 22,-10 8,0 15,3 20,9 5,5 7,13 7,22l0 6 -46 0c0,8 2,14 6,18 3,5 9,7 16,7 7,0 14,-2 21,-5l0 9c-3,2 -7,3 -10,4 -3,0 -7,1 -12,1zm-3 -62c-5,0 -9,2 -13,5 -3,4 -5,9 -5,15l35 0c0,-6 -1,-11 -4,-15 -3,-3 -7,-5 -13,-5zm77 62c-4,0 -8,-1 -12,-3 -4,-1 -7,-4 -9,-7l-1 0c1,4 1,7 1,11l0 28 -10 0 0 -98 8 0 1 9 1 0c2,-4 6,-6 9,-8 4,-2 8,-3 12,-3 9,0 16,4 21,10 5,6 7,14 7,25 0,12 -2,20 -7,26 -5,7 -12,10 -21,10zm-1 -62c-7,0 -12,2 -15,6 -3,4 -5,10 -5,18l0 2c0,10 1,17 5,21 3,4 8,6 15,6 6,0 10,-2 14,-7 3,-5 5,-11 5,-20 0,-8 -2,-15 -5,-19 -4,-5 -8,-7 -14,-7zm69 53c2,0 3,0 5,0 2,-1 3,-1 4,-1l0 8c-1,0 -3,1 -5,1 -2,0 -4,1 -6,1 -13,0 -19,-7 -19,-21l0 -40 -10 0 0 -5 10 -5 4 -14 6 0 0 16 20 0 0 8 -20 0 0 39c0,5 1,8 3,10 2,2 5,3 8,3zm33 7l-10 0 0 -67 10 0 0 67zm-11 -86c0,-2 0,-4 2,-5 1,-1 2,-1 4,-1 2,0 3,0 4,1 1,1 2,3 2,5 0,3 -1,4 -2,5 -1,2 -2,2 -4,2 -2,0 -3,0 -4,-2 -2,-1 -2,-2 -2,-5zm91 52c0,11 -3,20 -8,26 -6,6 -13,10 -23,10 -6,0 -12,-2 -16,-5 -5,-3 -9,-7 -11,-12 -3,-5 -4,-11 -4,-19 0,-11 3,-19 8,-25 6,-6 13,-10 23,-10 10,0 17,4 23,10 5,6 8,15 8,25zm-51 0c0,9 1,16 5,20 3,5 8,7 15,7 7,0 12,-2 15,-7 4,-4 5,-11 5,-20 0,-8 -1,-15 -5,-19 -3,-5 -8,-7 -15,-7 -7,0 -12,2 -15,7 -4,4 -5,11 -5,19zm115 34l0 -43c0,-6 -1,-10 -3,-13 -3,-2 -7,-4 -12,-4 -7,0 -12,2 -16,6 -3,4 -5,10 -5,19l0 35 -10 0 0 -67 8 0 2 9 1 0c2,-3 5,-6 8,-8 4,-2 8,-3 13,-3 8,0 14,2 18,6 5,4 7,11 7,19l0 44 -11 0z" class="fil2"/><path d="M334 618l-12 0 -49 -75 -1 0c1,8 1,17 1,24l0 51 -9 0 0 -90 11 0 50 76 0 0c0,-2 0,-5 0,-11 -1,-6 -1,-11 -1,-13l0 -52 10 0 0 90zm97 -46c0,15 -4,27 -12,35 -8,7 -20,11 -35,11l-25 0 0 -90 28 0c14,0 25,4 32,12 8,8 12,18 12,32zm-11 1c0,-12 -3,-21 -9,-27 -6,-6 -15,-9 -26,-9l-16 0 0 72 13 0c13,0 22,-3 28,-9 7,-6 10,-15 10,-27zm85 45l-11 -28 -36 0 -11 28 -11 0 36 -90 9 0 35 90 -11 0zm-14 -38l-11 -28c-1,-3 -2,-8 -4,-13 -1,4 -2,8 -4,13l-10 28 29 0z" class="fil2"/><g><g id="_2275835350080"><g><path d="M1670 48c-45,0 -83,31 -94,73 0,0 0,0 0,0 -2,8 -3,16 -3,24 0,53 43,97 97,97 54,0 97,-44 97,-97 0,-54 -43,-97 -97,-97zm-8 138c-4,0 -8,3 -8,8 0,4 4,8 8,8l66 0c-15,15 -35,24 -58,24 -45,0 -81,-36 -81,-81 0,-5 0,-10 1,-14l35 0c2,0 3,1 3,2 0,0 1,2 0,3l0 2c-3,6 -2,13 2,18 4,6 10,9 16,9l31 0c4,0 8,-3 8,-8 0,-4 -4,-8 -8,-8l-31 0c-1,0 -2,-1 -3,-2 0,0 -1,-2 0,-3l0 -2c3,-6 2,-13 -2,-18 -4,-6 -10,-9 -16,-9l-31 0c12,-30 42,-51 76,-51 26,0 50,12 65,32l-47 0c-5,0 -8,3 -8,8 0,4 3,8 8,8l56 0c5,10 7,21 7,33 0,15 -4,29 -11,41l-78 0z" class="fil4"/></g></g><g id="_2275835349184"><g><path d="M1890 313c-1,-2 -3,-2 -5,-2 -2,0 -4,0 -6,2 -1,1 -2,3 -2,6 0,2 1,4 2,5 2,2 4,3 6,3 2,0 4,-1 5,-3 2,-1 3,-3 3,-5 0,-3 -1,-5 -3,-6z" class="fil4"/></g></g><g id="_2275835348320"><g><path d="M1927 349l-17 -17c-3,-3 -8,-3 -11,0 -3,4 -3,9 0,12l17 17c4,4 6,9 6,15 0,5 -2,10 -6,14 -9,9 -22,9 -30,0l-64 -64 30 -29 7 7c3,3 8,3 12,0 3,-3 3,-8 0,-11l-34 -34c-4,-4 -9,-6 -15,-6 -5,0 -10,2 -14,6l-6 6 -25 -24c23,-25 36,-58 36,-95 0,-78 -63,-141 -141,-141 -79,0 -142,63 -142,141 0,79 63,142 142,142 36,0 69,-13 94,-36l25 25 -7 6c-4,4 -6,9 -6,14 0,6 2,11 6,15l21 20c0,0 0,0 0,0 0,0 0,0 0,0l69 70c8,7 17,11 27,11 9,0 19,-4 26,-11 14,-15 14,-38 0,-53zm-255 -77c-70,0 -126,-56 -126,-126 0,-69 56,-125 126,-125 69,0 125,56 125,125 0,70 -56,126 -125,126zm124 28c-1,-1 -2,-2 -2,-3 0,-1 1,-2 2,-3l23 -24c1,0 2,-1 3,-1 2,0 3,1 3,1l15 15 -30 30 -14 -15z" class="fil4"/></g></g><g id="_2275835348352"><g><path d="M1660 332c-1,0 -1,0 -1,0 -3,-5 -6,-10 -11,-15 -10,-10 -24,-16 -39,-16 -15,0 -29,6 -40,16 -4,5 -8,10 -10,15 -1,0 -2,0 -2,0 -23,8 -27,18 -27,25 0,11 12,20 29,25 2,5 6,10 10,14 11,11 25,17 40,17 14,0 28,-6 39,-17 5,-4 8,-9 11,-14 17,-5 29,-14 29,-25 0,-7 -5,-18 -28,-25zm-107 31c-5,-3 -7,-6 -7,-6 0,-1 2,-3 7,-6 0,2 0,4 0,6 0,2 0,4 0,6zm29 24c9,1 18,1 27,1 9,0 18,0 26,-1 -15,13 -38,13 -53,0zm65 -19c-11,3 -24,4 -38,4 -14,0 -27,-1 -38,-4 -4,-13 -1,-29 10,-39 7,-8 17,-12 28,-12 10,0 20,4 28,12 11,10 14,26 10,39zm17 -5c1,-4 1,-8 0,-12 6,3 8,5 8,6 0,0 -2,3 -8,6z" class="fil4"/></g></g><g id="_2275835348160"><g><path d="M1888 5c-27,0 -49,22 -49,49 0,27 22,49 49,49 28,0 50,-22 50,-49 0,-27 -22,-49 -50,-49zm0 83c-18,0 -33,-16 -33,-34 0,-18 15,-33 33,-33 19,0 34,15 34,33 0,18 -15,34 -34,34z" class="fil4"/></g></g><g id="_2275835346304"><g><path d="M1919 203l-27 -26c-3,-3 -8,-3 -11,0l-26 26c-3,3 -3,8 0,11l26 27c2,1 4,2 6,2 2,0 4,-1 5,-2l27 -27c3,-3 3,-8 0,-11zm-32 21l-15 -15 15 -15 15 15 -15 15z" class="fil4"/></g></g><g id="_2275835346944"><g><path d="M1713 152c-1,-2 -3,-3 -6,-3 -2,0 -4,1 -5,3 -2,1 -2,3 -2,5 0,2 0,4 2,6 1,1 3,2 5,2 3,0 5,-1 6,-2 2,-2 2,-4 2,-6 0,-2 0,-4 -2,-5z" class="fil4"/></g></g><g id="_2275835345696"><g><path d="M1759 362c-2,-2 -4,-3 -6,-3 -2,0 -4,1 -6,3 -1,1 -2,3 -2,5 0,2 1,4 2,6 2,1 4,2 6,2 2,0 4,-1 6,-2 1,-2 2,-4 2,-6 0,-2 -1,-4 -2,-5z" class="fil4"/></g></g><g id="_2275835347424"><g><path d="M1869 134c-1,-1 -3,-2 -5,-2 -2,0 -5,1 -6,2 -1,2 -2,4 -2,6 0,2 1,4 2,6 1,1 4,2 6,2 2,0 4,-1 5,-2 2,-2 3,-4 3,-6 0,-2 -1,-4 -3,-6z" class="fil4"/></g></g><g id="_2275835345280"><g><path d="M1931 284c-2,-2 -4,-2 -6,-2 -2,0 -4,0 -6,2 -1,1 -2,3 -2,6 0,2 1,4 2,5 2,2 4,3 6,3 2,0 4,-1 6,-3 1,-1 2,-3 2,-5 0,-3 -1,-5 -2,-6z" class="fil4"/></g></g></g><path d="M1528 572c0,15 -4,27 -12,35 -8,7 -20,11 -35,11l-25 0 0 -90 28 0c14,0 25,4 32,12 8,8 12,18 12,32zm-11 1c0,-12 -3,-21 -9,-27 -6,-6 -15,-9 -26,-9l-15 0 0 72 12 0c13,0 22,-3 28,-9 7,-6 10,-15 10,-27zm40 45l-10 0 0 -67 10 0 0 67zm-11 -86c0,-2 0,-4 1,-5 2,-1 3,-1 5,-1 1,0 3,0 4,1 1,1 2,3 2,5 0,3 -1,4 -2,5 -1,2 -3,2 -4,2 -2,0 -3,0 -5,-2 -1,-1 -1,-2 -1,-5zm76 68c0,6 -2,11 -7,14 -4,4 -11,6 -20,6 -9,0 -15,-2 -21,-5l0 -9c4,1 7,3 11,4 4,1 7,1 11,1 5,0 9,-1 12,-2 3,-2 4,-5 4,-8 0,-3 -1,-5 -3,-7 -2,-2 -7,-4 -13,-7 -7,-2 -11,-4 -14,-6 -2,-2 -4,-4 -6,-6 -1,-2 -2,-5 -2,-8 0,-5 3,-10 7,-13 5,-3 11,-5 18,-5 8,0 15,2 22,5l-4 8c-7,-3 -13,-4 -18,-4 -5,0 -9,1 -11,2 -3,2 -4,4 -4,7 0,1 0,3 1,4 1,1 3,3 5,4 2,1 6,3 12,5 8,3 13,6 16,9 3,3 4,6 4,11zm44 20c-10,0 -17,-3 -23,-9 -5,-6 -8,-15 -8,-26 0,-11 3,-20 8,-26 6,-6 14,-10 24,-10 3,0 6,1 9,1 4,1 6,2 8,3l-3 9c-2,-1 -5,-2 -8,-3 -2,0 -5,0 -7,0 -13,0 -20,8 -20,26 0,8 1,15 5,19 3,4 8,7 15,7 5,0 11,-2 17,-4l0 9c-4,2 -10,4 -17,4zm91 -36c0,11 -2,20 -8,26 -5,6 -13,10 -23,10 -6,0 -11,-2 -16,-5 -5,-3 -8,-7 -11,-12 -2,-5 -4,-11 -4,-19 0,-11 3,-19 9,-25 5,-6 13,-10 23,-10 9,0 17,4 22,10 6,6 8,15 8,25zm-51 0c0,9 2,16 5,20 4,5 9,7 15,7 7,0 12,-2 16,-7 3,-4 5,-11 5,-20 0,-8 -2,-15 -5,-19 -4,-5 -9,-7 -16,-7 -6,0 -12,2 -15,7 -3,4 -5,11 -5,19zm82 34l-26 -67 11 0 15 40c3,9 5,15 5,18l1 0c0,-2 2,-7 4,-13 3,-7 8,-22 16,-45l11 0 -25 67 -12 0zm77 2c-10,0 -18,-3 -24,-10 -6,-6 -9,-14 -9,-25 0,-11 3,-20 9,-26 5,-6 12,-10 21,-10 9,0 15,3 20,9 5,5 8,13 8,22l0 6 -47 0c0,8 2,14 6,18 4,5 9,7 16,7 7,0 15,-2 22,-5l0 9c-4,2 -7,3 -10,4 -4,0 -8,1 -12,1zm-3 -62c-5,0 -10,2 -13,5 -3,4 -5,9 -6,15l36 0c0,-6 -2,-11 -5,-15 -2,-3 -7,-5 -12,-5zm76 -9c3,0 6,1 8,1l-1 10c-3,-1 -6,-1 -8,-1 -5,0 -10,2 -14,6 -4,5 -6,10 -6,17l0 36 -10 0 0 -67 9 0 1 12 0 0c3,-4 6,-8 9,-10 4,-2 8,-4 12,-4zm10 2l11 0 15 38c3,9 5,15 6,19l0 0c1,-2 2,-5 4,-10 1,-6 7,-21 17,-47l10 0 -29 77c-2,7 -6,13 -10,16 -4,3 -8,5 -14,5 -3,0 -6,-1 -9,-1l0 -9c2,1 5,1 7,1 8,0 13,-4 16,-12l3 -9 -27 -68z" class="fil2"/><path d="M2981 594c0,8 -3,14 -9,19 -6,4 -13,7 -23,7 -11,0 -19,-2 -25,-5l0 -10c4,2 8,3 12,4 4,1 9,1 13,1 7,0 12,-1 16,-4 3,-2 5,-6 5,-11 0,-3 -1,-5 -2,-7 -1,-2 -3,-4 -6,-6 -3,-2 -7,-3 -14,-6 -8,-3 -14,-6 -17,-10 -4,-4 -6,-10 -6,-16 0,-7 3,-13 8,-17 5,-4 12,-6 21,-6 9,0 17,1 24,5l-3 9c-7,-3 -15,-5 -22,-5 -5,0 -9,1 -13,4 -3,2 -4,5 -4,10 0,3 0,5 1,7 2,2 4,4 6,6 3,2 7,3 13,5 9,4 16,7 19,11 4,4 6,9 6,15zm18 24l0 -90 11 0 0 81 39 0 0 9 -50 0zm123 0l-12 -28 -36 0 -11 28 -11 0 36 -90 9 0 35 90 -10 0zm-15 -38l-10 -28c-2,-3 -3,-8 -5,-13 -1,4 -2,8 -4,13l-10 28 29 0z" class="fil2"/><g><path d="M3285 100c-1,-5 -5,-10 -9,-12 -5,-3 -11,-4 -16,-2 -5,1 -10,4 -13,9l-3 6c-3,-2 -8,-1 -9,3l-18 29 -6 -3c-1,-1 -3,-1 -5,-1 -2,1 -3,2 -4,3 -2,4 -1,8 2,10l6 3 -58 102 -15 38 -7 13c-4,7 -3,16 2,22l-16 19 -4 -11c-2,-4 -7,-8 -12,-8 -5,-1 -10,2 -13,6l-2 5 -3 -28c0,-6 -5,-12 -12,-12 -6,-1 -12,3 -14,9l-17 51c-1,3 0,7 4,8 1,1 1,1 2,1 3,0 6,-2 7,-5l17 -51 2 28c0,6 5,11 11,13 5,1 11,-2 14,-7l3 -4 4 11c2,4 6,8 11,8 5,1 10,-1 13,-5l16 -20c2,1 3,1 5,1 8,0 14,-4 18,-10l7 -12 26 -32 59 -102 6 3c2,1 3,3 4,4 0,2 0,4 -1,6l-28 47c-1,2 -1,4 -1,6 1,1 2,3 4,4 1,1 3,1 5,1 2,-1 3,-2 4,-4l28 -47c2,-5 3,-11 2,-16 -2,-5 -5,-10 -10,-12l-6 -4 17 -30c2,-3 1,-7 -2,-9l3 -6c3,-5 4,-11 2,-16l0 0zm-26 2c1,-2 3,-3 4,-3 2,-1 4,0 6,0 1,1 2,3 3,5 0,1 0,3 -1,5l-3 6 -12 -7 3 -6zm-93 192l-4 -2 -10 -6 10 -26 21 12 -17 22zm-21 20c-3,-2 -4,-6 -2,-9l3 -6 12 7 -3 6c-1,1 -3,3 -5,3 -2,0 -4,0 -5,-1l0 0zm46 -53l-24 -14 55 -95 24 14 -55 95zm62 -107l-24 -14 14 -24 24 14 -14 24zm0 0z" class="fil4"/><path d="M2982 310l-25 25 -14 -15c-3,-3 -7,-3 -10,0 -1,1 -2,3 -2,5 0,2 1,4 2,5l15 14c2,3 6,4 9,4 4,0 8,-1 10,-4l24 -24c3,-3 3,-7 0,-9 -2,-3 -6,-3 -9,-1l0 0zm0 0z" class="fil4"/><path d="M2901 329c0,32 26,58 58,58 33,0 59,-26 59,-58 0,-4 -3,-7 -7,-7 -4,0 -7,3 -7,7 0,25 -20,45 -45,45 -24,0 -44,-20 -44,-45 0,-25 20,-45 44,-45 10,0 19,3 27,9 3,2 7,2 10,-1 2,-3 1,-8 -2,-10 -17,-13 -41,-15 -61,-5 -20,10 -32,30 -32,52l0 0zm0 0z" class="fil4"/><path d="M3121 57c4,0 7,-3 7,-7 0,-3 -3,-6 -7,-6l-179 0c-4,0 -7,3 -7,6l0 28c0,4 3,7 7,7l179 0c4,0 7,-3 7,-7 0,-4 -3,-7 -7,-7l-172 0 0 -14 172 0zm0 0z" class="fil4"/><path d="M2963 99c-4,0 -7,3 -7,6 0,4 3,7 7,7l137 0c4,0 7,-3 7,-7 0,-3 -3,-6 -7,-6l-137 0zm0 0z" class="fil4"/><path d="M3141 147l-151 0c-4,0 -7,3 -7,7 0,3 3,6 7,6l151 0c4,0 7,-3 7,-6 0,-4 -3,-7 -7,-7l0 0zm0 0z" class="fil4"/><path d="M3073 195c0,-4 -3,-7 -7,-7l-138 0c-3,0 -7,3 -7,7 0,4 4,7 7,7l138 0c4,0 7,-3 7,-7zm0 0z" class="fil4"/><path d="M3141 188l-48 0c-3,0 -7,3 -7,7 0,4 4,7 7,7l48 0c4,0 7,-3 7,-7 0,-4 -3,-7 -7,-7zm0 0z" class="fil4"/><path d="M2997 236c4,0 7,-3 7,-7 0,-4 -3,-7 -7,-7l-69 0c-3,0 -7,3 -7,7 0,4 4,7 7,7l69 0zm0 0z" class="fil4"/><path d="M3025 236l48 0c3,0 7,-3 7,-7 0,-4 -4,-7 -7,-7l-48 0c-4,0 -7,3 -7,7 0,4 3,7 7,7zm0 0z" class="fil4"/><path d="M3183 319c-4,0 -7,3 -7,7l0 68c0,4 -3,7 -7,7l-275 0c-4,0 -7,-3 -7,-7l0 -371c0,-4 3,-7 7,-7l275 0c4,0 7,3 7,7l0 129c0,4 3,7 7,7 4,0 7,-3 7,-7l0 -129c0,-11 -10,-21 -21,-21l-275 0c-11,0 -21,10 -21,21l0 371c0,12 10,21 21,21l275 0c11,0 21,-9 21,-21l0 -68c0,-4 -3,-7 -7,-7l0 0zm0 0z" class="fil4"/></g><g><g id="_2275835610112"><g><path d="M4371 65c-16,-1 -32,-2 -48,-3 -4,0 -8,3 -8,7 0,4 3,8 7,8 6,1 11,1 17,1l0 59c0,4 4,8 8,8 4,0 7,-4 7,-8l0 -58c6,1 11,1 17,1 0,0 0,0 0,0 4,0 7,-3 8,-7 0,-4 -3,-8 -8,-8z" class="fil4"/></g></g><g id="_2275835608320"><g><path d="M4590 62c0,-4 -4,-7 -8,-7 -16,2 -32,4 -48,6 -5,0 -8,4 -7,8 0,4 3,7 7,7 1,0 1,0 1,0 5,-1 11,-1 16,-2l0 58c0,4 3,7 8,7 4,0 7,-3 7,-7l0 -59c6,-1 12,-2 18,-3 4,0 7,-4 6,-8z" class="fil4"/></g></g><g id="_2275835608736"><g><path d="M4509 90l0 -2c0,-7 -2,-13 -7,-17 -5,-5 -11,-7 -18,-7 -6,1 -12,1 -19,1 -4,0 -7,4 -7,8l0 36 0 30c0,4 3,7 8,7 4,0 7,-3 7,-7l0 -23c6,0 11,2 15,6 4,4 6,9 6,15 0,4 3,7 8,7 4,0 7,-3 7,-7 0,-10 -4,-19 -11,-26 0,0 0,0 0,0 7,-5 11,-12 11,-21zm-15 0c0,5 -4,10 -10,10l0 0c-3,0 -7,1 -11,1l0 -21c4,0 8,0 12,0 3,-1 5,0 7,2 1,1 2,3 2,6l0 2z" class="fil4"/></g></g><g id="_2275835607104"><g><path d="M4414 66c-7,0 -13,3 -18,7 -4,5 -7,11 -7,18l0 48c0,4 4,8 8,8 4,0 7,-4 7,-8l0 -23c6,1 11,1 17,1 1,0 2,0 3,0l0 22c0,5 4,8 8,8 4,0 7,-3 7,-8l0 -48c0,-14 -11,-25 -25,-25zm10 35c-6,0 -13,0 -20,0l0 -10c0,-3 1,-5 3,-7 2,-2 5,-3 7,-3 6,0 10,5 10,10l0 10 0 0z" class="fil4"/></g></g><g id="_2275835607712"><g><path d="M4278 90l-2 0c-5,0 -9,-6 -9,-11 0,-2 0,-4 2,-5 1,-1 3,-2 6,-2 6,1 12,2 18,3 4,0 8,-3 8,-7 1,-4 -2,-8 -6,-9 -6,0 -13,-1 -19,-2 -6,0 -13,1 -17,6 -5,4 -8,10 -8,16 0,13 11,25 24,26l2 1c5,0 9,5 9,10 0,2 -1,4 -2,6 -1,1 -3,2 -6,1 -6,0 -12,-1 -18,-2 -4,-1 -8,2 -8,7 -1,4 2,7 6,8 6,1 12,2 19,2 1,1 1,1 2,1 6,0 11,-2 15,-6 5,-4 7,-10 7,-17 0,-13 -10,-24 -23,-26z" class="fil4"/></g></g><g id="_2275835604928"><g><path d="M4674 2c-1,-2 -4,-2 -6,-2 -140,20 -283,23 -424,9 -4,-1 -8,2 -8,6 -1,5 2,8 6,9 140,14 281,11 420,-8l0 147c-160,22 -322,22 -482,0l0 -147c12,2 24,3 35,5 4,0 8,-3 9,-7 0,-4 -3,-8 -7,-8 -14,-2 -29,-4 -44,-6 -2,0 -4,0 -6,2 -1,1 -2,3 -2,6l0 161c0,4 3,7 6,8 6,1 12,1 17,2l0 225c0,4 4,7 8,7l30 0c4,0 8,-3 8,-7l0 -219c62,6 124,9 187,9 62,0 125,-3 187,-9l0 67c0,4 3,8 8,8 4,0 7,-4 7,-8l0 -69c5,-1 10,-1 15,-2l0 215 -15 0 0 -118c0,-5 -3,-8 -7,-8 -5,0 -8,3 -8,8l0 126c0,4 3,7 8,7l30 0c4,0 8,-3 8,-7l0 -225c5,-1 11,-1 16,-2 4,-1 7,-4 7,-8l0 -161c0,-3 -1,-5 -3,-6zm-455 394l-16 0 0 -215c5,1 10,1 16,2l0 213z" class="fil4"/></g></g></g><path d="M3881 2115c0,8 -3,14 -9,19 -6,5 -14,7 -24,7 -10,0 -19,-2 -26,-5l0 -18c6,3 11,5 15,6 5,1 9,1 12,1 4,0 7,0 10,-2 2,-2 3,-4 3,-7 0,-2 0,-4 -1,-5 -1,-1 -3,-3 -5,-4 -2,-1 -6,-3 -11,-6 -6,-3 -10,-5 -13,-8 -3,-2 -5,-5 -6,-8 -2,-3 -3,-7 -3,-11 0,-8 3,-14 8,-19 6,-4 13,-7 23,-7 4,0 9,1 13,2 4,1 9,3 13,5l-6 15c-5,-2 -9,-4 -12,-5 -3,0 -6,-1 -9,-1 -4,0 -6,1 -8,3 -2,1 -3,4 -3,6 0,2 0,4 1,5 1,1 2,2 4,3 1,2 5,4 12,7 8,4 14,8 17,12 3,4 5,9 5,15zm53 26c-9,0 -15,-3 -19,-9l-1 0c0,6 1,9 1,10l0 28 -19 0 0 -99 15 0 3 9 1 0c4,-7 10,-10 19,-10 8,0 15,3 19,9 5,6 7,15 7,26 0,8 -1,14 -3,19 -2,6 -5,10 -9,13 -4,3 -9,4 -14,4zm-6 -56c-5,0 -8,1 -10,4 -2,3 -3,7 -3,14l0 2c0,8 1,13 3,16 2,3 6,5 10,5 9,0 13,-7 13,-21 0,-7 -1,-12 -3,-15 -2,-4 -5,-5 -10,-5zm86 -15c3,0 5,0 7,0l-2 18c-1,-1 -3,-1 -5,-1 -6,0 -11,2 -14,5 -4,3 -5,7 -5,13l0 35 -19 0 0 -69 14 0 3 11 1 0c2,-3 5,-7 8,-9 4,-2 8,-3 12,-3zm18 -17c0,-6 4,-9 11,-9 6,0 10,3 10,9 0,3 -1,5 -3,7 -1,1 -4,2 -7,2 -7,0 -11,-3 -11,-9zm20 87l-19 0 0 -69 19 0 0 69zm83 0l-18 0 0 -40c0,-5 -1,-9 -3,-12 -2,-2 -5,-3 -9,-3 -5,0 -9,1 -11,5 -2,3 -3,9 -3,17l0 33 -19 0 0 -69 14 0 3 9 1 0c2,-4 5,-6 8,-8 4,-2 8,-2 13,-2 8,0 14,2 18,6 4,4 6,11 6,19l0 45zm49 -14c3,0 7,-1 12,-2l0 14c-5,2 -11,3 -18,3 -7,0 -13,-2 -16,-6 -3,-3 -5,-9 -5,-17l0 -33 -9 0 0 -8 10 -6 6 -15 12 0 0 15 19 0 0 14 -19 0 0 33c0,3 0,5 2,6 1,1 3,2 6,2z" class="fil2"/><path d="M161 4160c0,8 -3,14 -9,18 -5,5 -13,7 -23,7 -11,0 -19,-1 -25,-4l0 -10c4,1 8,3 12,3 5,1 9,2 13,2 7,0 13,-2 16,-4 4,-3 5,-7 5,-11 0,-3 0,-6 -1,-8 -2,-2 -4,-4 -7,-5 -3,-2 -7,-4 -13,-6 -9,-3 -15,-7 -18,-11 -4,-4 -6,-9 -6,-16 0,-7 3,-12 8,-17 5,-4 12,-6 21,-6 9,0 17,2 25,5l-4 9c-7,-3 -14,-4 -21,-4 -6,0 -10,1 -13,3 -3,3 -5,6 -5,10 0,3 1,6 2,8 1,2 3,4 6,5 2,2 6,4 12,6 10,3 16,7 20,11 3,4 5,9 5,15zm63 24l0 -44c0,-6 -1,-10 -4,-12 -2,-3 -6,-4 -11,-4 -7,0 -13,2 -16,5 -3,4 -5,11 -5,19l0 36 -10 0 0 -96 10 0 0 29c0,3 0,6 0,8l0 0c2,-3 5,-5 9,-7 4,-2 8,-3 13,-3 8,0 14,2 18,6 4,4 6,10 6,19l0 44 -10 0zm42 0l-11 0 0 -68 11 0 0 68zm-11 -86c0,-3 0,-4 1,-5 2,-1 3,-2 5,-2 1,0 3,1 4,2 1,1 2,2 2,5 0,2 -1,4 -2,5 -1,1 -3,2 -4,2 -2,0 -3,-1 -5,-2 -1,-1 -1,-3 -1,-5zm64 87c-4,0 -8,-1 -12,-2 -4,-2 -7,-5 -9,-8l-1 0c0,4 1,8 1,11l0 28 -11 0 0 -98 9 0 1 9 1 0c2,-3 5,-6 9,-8 3,-1 7,-2 12,-2 9,0 16,3 21,9 5,6 7,15 7,26 0,11 -2,20 -7,26 -5,6 -12,9 -21,9zm-2 -61c-6,0 -11,1 -15,5 -3,4 -4,10 -4,19l0 2c0,9 1,16 4,20 4,4 9,6 16,6 6,0 10,-2 13,-7 4,-4 5,-11 5,-19 0,-9 -1,-15 -5,-20 -3,-4 -8,-6 -14,-6zm79 61c-4,0 -8,-1 -12,-2 -3,-2 -6,-5 -9,-8l-1 0c1,4 1,8 1,11l0 28 -10 0 0 -98 8 0 2 9 0 0c3,-3 6,-6 9,-8 4,-1 8,-2 12,-2 9,0 16,3 21,9 5,6 8,15 8,26 0,11 -3,20 -8,26 -5,6 -12,9 -21,9zm-1 -61c-7,0 -12,1 -15,5 -3,4 -5,10 -5,19l0 2c0,9 2,16 5,20 3,4 8,6 15,6 6,0 11,-2 14,-7 3,-4 5,-11 5,-19 0,-9 -2,-15 -5,-20 -3,-4 -8,-6 -14,-6zm89 60l-2 -10 -1 0c-3,4 -6,7 -10,9 -3,1 -7,2 -12,2 -7,0 -12,-2 -16,-5 -4,-4 -6,-9 -6,-15 0,-14 11,-21 33,-21l12 -1 0 -4c0,-5 -2,-9 -4,-12 -2,-2 -6,-4 -11,-4 -5,0 -12,2 -19,6l-3 -8c3,-2 7,-3 11,-4 4,-2 8,-2 12,-2 8,0 14,2 18,5 4,4 6,10 6,18l0 46 -8 0zm-23 -7c6,0 11,-2 15,-6 4,-3 5,-8 5,-14l0 -6 -10 0c-8,0 -14,1 -18,4 -3,2 -5,5 -5,10 0,4 1,7 3,9 3,2 6,3 10,3zm83 -62c9,0 16,3 21,9 5,6 7,15 7,26 0,11 -2,20 -7,26 -5,6 -12,9 -21,9 -4,0 -8,-1 -12,-2 -3,-2 -7,-5 -9,-8l-1 0 -2 9 -7 0 0 -96 10 0 0 23c0,5 0,10 -1,14l1 0c5,-7 12,-10 21,-10zm-1 9c-7,0 -12,2 -15,6 -3,4 -5,10 -5,20 0,9 2,16 5,20 3,4 8,6 15,6 6,0 11,-2 14,-6 3,-5 5,-12 5,-20 0,-9 -2,-16 -5,-20 -3,-4 -8,-6 -14,-6zm57 60l-10 0 0 -96 10 0 0 96zm51 1c-10,0 -18,-3 -24,-9 -6,-6 -9,-15 -9,-26 0,-10 3,-19 8,-26 6,-6 13,-9 22,-9 9,0 15,3 20,8 5,6 8,13 8,22l0 7 -47 0c0,8 2,14 6,18 4,4 9,6 16,6 7,0 15,-1 22,-5l0 10c-4,1 -7,2 -11,3 -3,1 -7,1 -11,1zm-3 -62c-5,0 -10,2 -13,6 -3,3 -5,8 -6,14l36 0c0,-6 -2,-11 -5,-14 -3,-4 -7,-6 -12,-6zm-419 169c0,9 -3,16 -9,21 -7,5 -16,7 -27,7l-11 0 0 36 -10 0 0 -90 23 0c23,0 34,8 34,26zm-47 19l10 0c9,0 16,-1 20,-4 4,-3 6,-8 6,-15 0,-6 -2,-10 -6,-13 -4,-3 -10,-4 -18,-4l-12 0 0 36zm95 -24c3,0 6,0 8,1l-1 9c-3,0 -6,-1 -8,-1 -5,0 -10,3 -14,7 -4,4 -6,10 -6,17l0 36 -10 0 0 -68 9 0 1 13 0 0c3,-5 6,-8 9,-10 4,-3 8,-4 12,-4zm77 35c0,11 -3,20 -9,26 -5,6 -13,9 -23,9 -6,0 -11,-1 -16,-4 -4,-3 -8,-7 -11,-12 -2,-6 -3,-12 -3,-19 0,-11 2,-20 8,-26 5,-6 13,-9 23,-9 9,0 17,3 22,9 6,7 9,15 9,26zm-52 0c0,9 2,15 5,20 4,4 9,7 16,7 6,0 11,-3 15,-7 3,-5 5,-11 5,-20 0,-9 -2,-15 -5,-20 -4,-4 -9,-6 -16,-6 -6,0 -11,2 -15,6 -3,5 -5,11 -5,20zm116 25l-1 0c-5,7 -12,10 -21,10 -9,0 -16,-3 -21,-9 -5,-6 -7,-15 -7,-26 0,-11 2,-20 7,-26 5,-6 12,-9 21,-9 9,0 16,3 21,10l1 0 -1 -5 0 -5 0 -27 10 0 0 96 -8 0 -1 -9zm-21 2c7,0 12,-2 15,-6 4,-4 5,-10 5,-19l0 -2c0,-9 -1,-16 -5,-20 -3,-4 -8,-6 -15,-6 -6,0 -11,2 -14,7 -3,4 -5,11 -5,19 0,9 2,16 5,20 3,4 8,7 14,7zm62 -61l0 44c0,6 1,10 4,13 2,2 6,4 11,4 7,0 13,-2 16,-6 3,-4 5,-10 5,-19l0 -36 10 0 0 68 -8 0 -2 -9 -1 0c-2,3 -5,6 -8,8 -4,1 -8,2 -13,2 -8,0 -14,-2 -18,-6 -5,-4 -7,-10 -7,-18l0 -45 11 0zm95 69c-10,0 -18,-3 -23,-9 -5,-6 -8,-14 -8,-25 0,-12 3,-21 8,-27 6,-6 13,-9 23,-9 4,0 7,0 10,1 3,1 6,2 8,3l-3 8c-3,-1 -5,-1 -8,-2 -2,-1 -5,-1 -7,-1 -14,0 -20,9 -20,26 0,9 1,15 5,20 3,4 8,6 14,6 6,0 12,-1 18,-3l0 9c-5,2 -10,3 -17,3zm55 -8c2,0 3,0 5,-1 2,0 3,0 4,-1l0 8c-1,1 -3,1 -5,2 -2,0 -4,0 -6,0 -13,0 -19,-7 -19,-21l0 -40 -10 0 0 -5 10 -4 4 -14 6 0 0 15 19 0 0 8 -19 0 0 40c0,4 1,7 3,9 2,3 4,4 8,4z" class="fil2"/><g><g id="_2275835617280"><g><path d="M309 3863c-4,0 -8,3 -8,8 0,4 4,8 8,8 5,0 8,-4 8,-8 0,-5 -3,-8 -8,-8z" class="fil3"/></g></g><g id="_2275835615776"><g><path d="M546 3718l48 -48c2,-2 3,-5 2,-7 -1,-3 -3,-5 -5,-6l-116 -36c-11,-33 -42,-56 -77,-56 -33,0 -63,20 -75,50l-134 42c-2,1 -4,3 -5,6 -1,2 0,5 2,7l49 49 -31 51c-1,2 -1,5 -1,7 1,2 3,4 5,5l45 15 0 124c0,3 2,6 5,7 27,11 129,49 129,49 2,0 4,0 5,0 0,0 0,0 0,0l146 -49c3,-1 5,-4 5,-7l0 -127 48 -15c2,-1 4,-3 5,-6 1,-3 0,-6 -2,-8l-48 -47zm-67 -73c0,-2 -1,-4 -1,-6l95 29 -40 41 -66 -22c8,-13 12,-27 12,-42zm-142 -21c9,-26 33,-43 61,-43 30,0 55,20 63,49 1,5 1,10 1,15 0,15 -5,29 -14,41 -12,15 -30,24 -50,24 -21,0 -41,-11 -53,-28 -8,-11 -11,-24 -11,-37 0,-7 1,-14 3,-21zm-130 44l111 -34c0,3 -1,7 -1,11 0,13 3,26 9,37l-79 27 -40 -41zm16 102l25 -43 130 44 -26 42c-13,-5 -114,-38 -129,-43zm159 188l-113 -43 0 -113c89,30 84,29 87,29 3,0 5,-2 7,-4l19 -32 0 163zm8 -200l-120 -40 65 -22c16,19 39,30 63,30 22,0 44,-9 59,-26l52 18 -119 40zm137 157l-129 43 0 -169 29 36c2,2 5,3 8,2l92 -28 0 116zm-91 -105l-33 -40 130 -43 40 40 -137 43z" class="fil3"/></g></g><g id="_2275835615520"><g><path d="M361 3881l-18 -7c-5,-2 -9,1 -11,5 -1,4 1,9 5,10l18 7c4,1 9,-1 10,-5 2,-4 0,-9 -4,-10z" class="fil3"/></g></g><g id="_2275835615840"><g><path d="M361 3915l-49 -18c-4,-2 -9,1 -10,5 -2,4 0,9 5,10l48 18c1,1 2,1 3,1 3,0 6,-2 7,-5 2,-5 0,-9 -4,-11z" class="fil3"/></g></g><g id="_2275835614112"><g><path d="M444 3615c-3,-3 -8,-3 -11,0l-43 43 -11 -10c-3,-4 -8,-4 -11,0 -3,3 -3,8 0,11l16 16c3,3 8,3 12,0l48 -48c3,-3 3,-8 0,-12z" class="fil3"/></g></g></g><path d="M2362 4102c-10,0 -18,3 -24,9 -5,7 -8,16 -8,28 0,11 2,21 8,27 6,6 13,10 24,10 6,0 13,-1 21,-4l0 9c-6,3 -14,4 -23,4 -13,0 -23,-4 -31,-12 -7,-8 -11,-20 -11,-34 0,-10 2,-18 6,-25 3,-7 8,-12 15,-16 6,-4 14,-6 23,-6 9,0 18,2 25,5l-5 9c-7,-3 -13,-4 -20,-4zm50 82l-11 0 0 -96 11 0 0 96zm32 0l-11 0 0 -68 11 0 0 68zm-11 -86c0,-3 0,-4 1,-5 1,-1 3,-2 5,-2 1,0 3,1 4,2 1,1 2,2 2,5 0,2 -1,4 -2,5 -1,1 -3,2 -4,2 -2,0 -4,-1 -5,-2 -1,-1 -1,-3 -1,-5zm61 87c-10,0 -18,-3 -24,-9 -6,-6 -8,-15 -8,-26 0,-10 2,-19 8,-26 5,-6 12,-9 21,-9 9,0 15,3 20,8 5,6 8,13 8,22l0 7 -47 0c0,8 2,14 6,18 4,4 9,6 16,6 8,0 15,-1 22,-5l0 10c-4,1 -7,2 -10,3 -4,1 -7,1 -12,1zm-3 -62c-5,0 -10,2 -13,6 -3,3 -5,8 -6,14l36 0c0,-6 -2,-11 -5,-14 -2,-4 -7,-6 -12,-6zm92 61l0 -44c0,-6 -2,-10 -4,-12 -3,-3 -7,-4 -12,-4 -7,0 -12,1 -16,5 -3,4 -4,10 -4,19l0 36 -11 0 0 -68 9 0 1 9 1 0c2,-3 5,-6 9,-7 3,-2 8,-3 12,-3 8,0 15,2 19,6 4,4 6,10 6,19l0 44 -10 0zm53 -7c2,0 3,-1 5,-1 2,0 3,0 4,-1l0 8c-1,1 -3,1 -5,1 -2,1 -4,1 -6,1 -13,0 -19,-7 -19,-21l0 -40 -10 0 0 -5 10 -4 4 -15 6 0 0 16 19 0 0 8 -19 0 0 40c0,4 1,7 3,9 2,2 4,4 8,4zm129 -39c0,15 -4,26 -12,34 -8,8 -20,12 -35,12l-25 0 0 -91 28 0c14,0 24,4 32,12 8,8 12,19 12,33zm-11 0c0,-12 -3,-20 -9,-26 -6,-6 -15,-9 -26,-9l-16 0 0 72 13 0c13,0 22,-3 28,-10 7,-6 10,-15 10,-27zm58 47c-10,0 -18,-3 -24,-9 -5,-6 -8,-15 -8,-26 0,-10 2,-19 8,-26 5,-6 12,-9 21,-9 9,0 16,3 21,8 4,6 7,13 7,22l0 7 -47 0c1,8 3,14 6,18 4,4 10,6 16,6 8,0 15,-1 22,-5l0 10c-4,1 -7,2 -10,3 -3,1 -7,1 -12,1zm-3 -62c-5,0 -9,2 -13,6 -3,3 -5,8 -5,14l35 0c0,-6 -1,-11 -4,-14 -3,-4 -7,-6 -13,-6zm132 61l0 -44c0,-6 -2,-10 -4,-12 -2,-3 -6,-4 -11,-4 -6,0 -11,1 -14,5 -3,4 -4,9 -4,17l0 38 -11 0 0 -44c0,-6 -1,-10 -3,-12 -2,-3 -6,-4 -11,-4 -6,0 -11,1 -14,5 -3,4 -4,11 -4,19l0 36 -11 0 0 -68 9 0 1 9 1 0c2,-3 5,-6 8,-7 4,-2 8,-3 12,-3 10,0 17,4 21,11l0 0c2,-3 5,-6 9,-8 4,-2 8,-3 13,-3 8,0 13,2 17,6 4,4 6,10 6,19l0 44 -10 0zm89 -34c0,11 -2,20 -8,26 -6,6 -13,9 -23,9 -6,0 -11,-1 -16,-4 -5,-3 -8,-7 -11,-12 -3,-6 -4,-12 -4,-19 0,-11 3,-20 9,-26 5,-6 13,-9 22,-9 10,0 17,3 23,9 6,7 8,15 8,26zm-51 0c0,9 2,15 5,20 3,4 9,6 15,6 7,0 12,-2 16,-6 3,-5 5,-11 5,-20 0,-9 -2,-15 -5,-20 -4,-4 -9,-6 -16,-6 -7,0 -12,2 -15,6 -3,5 -5,11 -5,20z" class="fil2"/><g><path d="M308 1893l0 -13c-59,0 -108,-48 -108,-109 0,-60 48,-108 108,-108 27,0 53,9 73,27 -29,32 -38,76 -26,117l13 -4c-11,-36 -3,-75 23,-104 25,29 33,67 22,104l13 4c12,-41 3,-85 -26,-117 44,-40 113,-36 153,9 40,45 35,114 -10,154 -19,17 -45,27 -72,27l0 13c68,0 123,-54 123,-122 0,-68 -55,-122 -123,-122 -30,0 -59,11 -81,31 -50,-45 -128,-40 -173,10 -44,50 -40,127 10,172 22,21 51,31 81,31l0 0zm0 0z" class="fil4"/><path d="M279 1968l-20 88 261 0 -20 -88c-2,-7 -8,-13 -16,-15l-51 -11 13 -24c3,-7 4,-14 4,-21l0 -44c0,-19 -15,-34 -34,-34l-54 0c-19,0 -34,15 -34,34l0 45c0,7 2,14 5,21l12 24 -51 10c-7,2 -13,8 -15,15l0 0zm208 4l16 71 -106 0 0 -18 57 -64 28 5c2,1 4,3 5,6l0 0zm-48 -14l-42 47 0 -27 29 -23 13 3zm-76 -126l54 0c12,0 20,9 20,21l0 18c-27,-21 -67,-21 -95,0l0 -18c0,-12 9,-21 21,-21zm-21 66l0 -9c25,-26 67,-27 93,-2 1,1 2,2 2,2l0 9c0,5 -1,10 -3,14l-16 31 -28 23 -29 -23 -15 -31c-2,-4 -4,-9 -4,-14zm12 57l29 23 0 28 -47 -47 18 -4zm-34 7l63 63 0 18 -107 0 17 -71c0,-3 2,-5 5,-6l22 -4zm0 0z" class="fil4"/><path d="M456 1817l36 -36 36 36 9 -10 -36 -36 36 -36 -9 -9 -36 36 -36 -36 -10 9 36 36 -36 36 10 10zm0 0z" class="fil4"/><path d="M324 1726l-70 70 -16 -16 -9 10 25 25 79 -80 -9 -9zm0 0z" class="fil4"/><path d="M308 2009l34 0 0 13 -34 0 0 -13zm0 0z" class="fil4"/><path d="M437 2009l34 0 0 13 -34 0 0 -13zm0 0z" class="fil4"/></g><g><g><polygon points="8201 4153 7720 4153 7720 4136 8201 4136" class="fil5"/></g><g><g><polygon points="8206 577 8206 4152 8189 4152 8189 577" class="fil5"/></g><g><polygon points="8008 525 7963 551 7918 578 7964 603 8009 629 8008 577" class="fil6"/><g><polygon points="8209 585 7996 585 7996 568 8209 568" class="fil5"/></g></g></g></g><g><g><g><path d="M467 235l-56 -34c-1,-1 -2,-1 -3,-1l-17 -3c-4,-1 -7,1 -7,5 -1,3 1,6 5,7l16 3 56 34c3,2 6,1 8,-2 2,-3 1,-7 -2,-9z" class="fil4"/></g></g><g><g><path d="M596 237c-2,-2 -6,-2 -8,0l-25 23 -114 -112 147 -137c2,-2 3,-6 0,-8 -2,-3 -6,-3 -8,-1l-152 142c-2,2 -2,6 0,9l10 10 -3 2 -67 -5c-1,0 -2,0 -3,0l-53 24c0,0 0,0 0,0l-31 -5 2 -6c2,-4 0,-7 -3,-8l-98 -39c-3,-2 -6,0 -8,3 -1,3 1,7 4,8l92 37 -54 138 -34 -12c-3,-1 -7,1 -8,4 -1,3 1,7 4,8l39 14c3,1 7,-1 8,-4l9 -23 24 13 -3 5c-7,12 -4,28 8,35 7,4 15,5 22,2 1,8 5,15 12,18 6,4 14,5 21,3 1,7 5,14 12,18 6,4 14,5 21,3 1,7 6,14 12,17 9,6 22,5 30,-2 2,-1 4,-4 5,-6l5 -7 3 2c9,6 22,5 30,-2 2,-1 4,-4 5,-6 3,-5 4,-10 4,-15 2,1 4,1 6,1 9,0 17,-5 22,-12 3,-5 4,-10 4,-15 1,0 3,0 5,0 9,0 18,-4 22,-12 3,-4 4,-10 4,-15 2,1 4,1 6,1 9,0 17,-4 22,-12 7,-12 4,-28 -9,-36l-4 -2 14 -15 13 13c3,2 7,2 9,0l29 -27c2,-2 3,-6 0,-9zm-300 100c-4,6 -12,8 -18,5 -7,-4 -8,-13 -5,-19l35 -55c3,-7 12,-9 18,-5 6,4 8,13 4,19l-34 55zm34 21c-4,6 -13,8 -19,4 -6,-4 -8,-12 -4,-18l27 -45c4,-6 12,-8 18,-4 7,4 9,12 5,19l-27 44zm33 20c-2,3 -5,5 -9,6 -3,1 -7,0 -10,-1 -6,-4 -8,-13 -4,-19l20 -33c4,-6 12,-8 19,-5 6,4 8,13 4,19l-20 33zm46 -1l-13 22c-4,6 -12,8 -18,4 -7,-4 -9,-12 -5,-18l14 -23c4,-6 12,-8 18,-4 7,4 8,13 4,19zm112 -109l-31 -18c-2,-2 -6,-1 -8,2 -2,2 -1,6 2,8l45 28c6,4 8,12 5,18 -4,7 -13,9 -19,5l-48 -30c-3,-2 -7,-1 -9,2 -1,3 -1,7 2,8l38 23c6,4 8,12 4,19 -4,6 -12,8 -19,4l-33 -21c-3,-1 -7,0 -9,2 -1,3 -1,7 2,9l23 14c6,4 8,12 4,18 -3,6 -12,8 -18,5 0,0 -20,-13 -20,-13 -3,-1 -6,0 -8,3 -2,2 -1,6 2,8l8 5c7,4 9,12 5,19 -4,6 -12,8 -19,4l-3 -2 3 -5c4,-6 5,-13 3,-20 -2,-7 -6,-12 -12,-16 -4,-2 -9,-3 -14,-3 1,-4 1,-8 0,-12 -2,-7 -6,-13 -12,-16 -5,-3 -10,-4 -15,-4 3,-10 -2,-22 -12,-28 -4,-2 -9,-4 -14,-3 2,-11 -2,-23 -12,-28 -12,-7 -27,-4 -35,8l-25 41 -26 -14 38 -98 21 4c-6,7 -7,18 -3,27 4,9 13,15 23,15 4,0 7,-1 11,-2l35 -17c3,-1 5,-5 3,-8 -1,-3 -5,-4 -8,-3l-35 16c-7,3 -15,0 -18,-6 -3,-7 0,-15 7,-18l57 -26 68 6c0,0 0,0 0,0 2,0 3,-1 4,-2l6 -5 82 81 -16 16z" class="fil4"/></g></g></g><g><polygon points="1221 521 1266 548 1311 574 1265 599 1220 625 1221 573" class="fil6"/><g><polygon points="665 582 665 564 1233 564 1233 582" class="fil5"/></g></g><g><polygon points="2645 521 2690 548 2735 574 2689 599 2644 625 2645 573" class="fil6"/><g><polygon points="2162 582 2162 564 2657 564 2657 582" class="fil5"/></g></g><g><polygon points="3911 521 3955 548 4000 574 3955 599 3910 625 3910 573" class="fil6"/><g><polygon points="3341 582 3341 564 3923 564 3923 582" class="fil5"/></g></g><g><polygon points="5263 521 5308 548 5352 574 5307 599 5262 625 5262 573" class="fil6"/><g><polygon points="4845 582 4845 564 5275 564 5275 582" class="fil5"/></g></g><g><polygon points="6594 521 6638 548 6683 574 6638 599 6592 625 6593 573" class="fil6"/><g><polygon points="6354 582 6354 564 6605 564 6605 582" class="fil5"/></g></g><g><polygon points="2069 4092 2113 4118 2158 4145 2113 4170 2068 4196 2068 4144" class="fil6"/><g><polygon points="832 4153 832 4135 2081 4135 2081 4153" class="fil5"/></g></g><g><polygon points="4994 4092 5039 4118 5084 4145 5038 4170 4993 4196 4994 4144" class="fil6"/><g><polygon points="3190 4153 3190 4135 5006 4135 5006 4153" class="fil5"/></g></g><g><polygon points="6789 4092 6833 4118 6878 4145 6833 4170 6787 4196 6788 4144" class="fil6"/><g><polygon points="5803 4153 5803 4135 6800 4135 6800 4153" class="fil5"/></g></g><g><polygon points="7246 1411 7273 1455 7299 1500 7324 1455 7350 1410 7298 1410" class="fil6"/><g><polygon points="7307 772 7307 1423 7289 1423 7289 772" class="fil5"/></g></g><g><polygon points="1022 2055 977 2081 932 2108 978 2133 1023 2159 1022 2107" class="fil6"/><g><polygon points="2930 2116 1010 2116 1010 2098 2930 2098" class="fil5"/></g></g><g><polygon points="5191 2055 5146 2081 5101 2108 5146 2133 5192 2159 5191 2107" class="fil6"/><g><polygon points="6891 2116 5179 2116 5179 2098 6891 2098" class="fil5"/></g></g><g><polygon points="338 3326 364 3371 391 3416 416 3371 442 3325 390 3326" class="fil6"/><g><polygon points="399 2436 399 3338 381 3338 381 2436" class="fil5"/></g></g><g><g><g><path d="M2835 3895c4,-7 7,-14 7,-22l0 -48c0,-4 -4,-8 -8,-8l-36 0c-16,0 -30,14 -30,30l0 26c0,8 3,15 7,21 -5,1 -10,3 -15,6 -11,-17 -30,-28 -50,-30 0,0 0,0 -1,0 8,-8 12,-19 12,-31l0 -65c0,-5 -3,-8 -8,-8l-48 0c-21,0 -38,16 -38,37l0 36c0,12 5,23 12,31 0,0 0,0 0,0 -21,2 -39,13 -50,30 -5,-3 -10,-5 -15,-5 4,-7 7,-14 7,-22l0 -48c0,-4 -4,-8 -8,-8l-36 0c-16,0 -30,14 -30,30l0 26c0,8 3,15 7,22 -24,4 -43,25 -43,51l0 23c0,5 3,8 8,8l391 0c5,0 8,-3 8,-8l0 -23c0,-26 -19,-47 -43,-51zm-312 -48c0,-8 6,-14 14,-14l28 0 0 10c0,5 -4,9 -9,9l-33 0 0 -5zm0 20l33 0c3,0 6,0 9,-1l0 7c0,12 -10,21 -21,21 -12,0 -21,-9 -21,-21l0 -6zm26 43l-5 5 -5 -5 10 0zm29 27l0 24 -91 0 0 -15c0,-18 13,-33 30,-36l21 22c2,1 4,2 6,2 2,0 4,-1 6,-2l21 -22c4,1 8,2 11,4 -3,7 -4,15 -4,23zm96 -67c-17,0 -31,-14 -31,-31l0 -11 48 0c5,0 10,-1 14,-4l0 15c0,17 -13,31 -31,31zm14 15l-14 14 -13 -14 27 0zm-45 -82l0 0c0,-12 10,-22 22,-22l40 0 0 17c0,8 -6,14 -14,14l-48 0 0 -9zm112 158l-15 0 -131 0 -15 0 0 -16 52 0c4,0 7,-3 7,-8 0,-4 -3,-8 -7,-8l-52 0c4,-22 22,-40 45,-43l30 30c1,2 3,3 5,3 2,0 5,-1 6,-3l30 -30c26,3 45,25 45,51l0 24zm29 -114c0,-8 6,-14 14,-14l28 0 0 10c0,5 -4,9 -9,9l-33 0 0 -5zm0 20l33 0c3,0 6,0 9,-1l0 7c0,12 -10,21 -21,21 -12,0 -21,-9 -21,-21l0 -6zm26 43l-5 5 -5 -5 10 0zm-39 51l0 -24c0,-8 -1,-16 -4,-23 3,-2 7,-3 11,-4l21 22c2,1 4,2 6,2 2,0 4,-1 6,-2l21 -22c17,3 30,18 30,36l0 15 -91 0z" class="fil4"/></g></g><g><g><path d="M2714 3622c-3,-3 -8,-3 -12,0l-39 39 -17 -17c-3,-3 -8,-3 -11,0 -3,3 -3,8 0,11l23 23c1,1 3,2 5,2 2,0 4,-1 6,-2l45 -45c3,-3 3,-8 0,-11z" class="fil4"/></g></g><g><g><path d="M2707 3577c-4,-2 -9,0 -11,4 -1,4 0,8 4,10 24,11 38,34 38,59 0,35 -28,64 -64,64 -35,0 -64,-29 -64,-64 0,-25 15,-48 38,-59 4,-1 6,-6 4,-10 -2,-4 -6,-6 -10,-4 -29,13 -48,41 -48,73 0,44 36,80 80,80 45,0 80,-36 80,-80 0,-32 -18,-60 -47,-73z" class="fil4"/></g></g><g><g><path d="M2675 3570l-1 0c-4,0 -8,3 -8,8 0,4 4,8 8,8l1 0c0,0 0,0 0,0 4,0 8,-4 8,-8 0,-5 -4,-8 -8,-8z" class="fil4"/></g></g><g><g><path d="M2680 3932c-1,-2 -3,-3 -6,-3 -2,0 -4,1 -5,3 -2,1 -3,3 -3,5 0,3 1,5 3,6 1,2 3,2 5,2 3,0 5,0 6,-2 2,-1 2,-3 2,-6 0,-2 0,-4 -2,-5z" class="fil4"/></g></g></g><g><path d="M2728 3611c-12,-16 -31,-27 -53,-27 -21,0 -40,11 -52,27l-18 0c13,-26 40,-43 70,-43 31,0 58,17 71,43l-18 0z" class="fil4"/></g></g></svg>