<?xml version="1.0" encoding="utf-8"?>
<!-- Generator: Adobe Illustrator 23.0.0, SVG Export Plug-In . SVG Version: 6.00 Build 0)  -->
<svg version="1.1" id="Layer_1" xmlns="http://www.w3.org/2000/svg" xmlns:xlink="http://www.w3.org/1999/xlink" x="0px" y="0px"
	 viewBox="0 0 550 550" style="enable-background:new 0 0 550 550;" xml:space="preserve">
<style type="text/css">
	.st0{fill:#EFEFEF;}
	.st1{fill:#5793CE;}
	.st2{fill:#173D7A;}
	.st3{fill:#D4ECFF;}
	.st4{fill:#FFFFFF;}
	.st5{fill:#E9F6FF;}
	.st6{fill:#AEDEED;}
	.st7{opacity:0.4;fill:#FFFFFF;}
	.st8{fill:#B2D3EA;}
	.st9{fill:#396CAA;}
	.st10{fill:#FFC2B0;}
	.st11{fill:#012C4F;}
	.st12{fill:#295C8E;}
	.st13{fill:#EA9C92;}
	.st14{fill:#98D2F9;}
	.st15{fill:#7AC3F4;}
	.st16{fill:#274F89;}
	.st17{fill:#033D77;}
</style>
<path class="st0" d="M472.04,544.1l-144.08-83.55c-5.01-2.9-4.38-7.98,1.4-11.33l0,0c5.78-3.35,14.53-3.72,19.54-0.81l144.08,83.55
	c5.01,2.9,4.38,7.98-1.4,11.33h0C485.8,546.64,477.05,547,472.04,544.1z"/>
<path class="st1" d="M498.13,101.49L342.89,11.45c-5.1-2.96-9.73-3.03-13.24-0.81l-0.01-0.04l-19.48,11.33l13.06,2.45
	c-0.04,0.67-0.08,1.35-0.08,2.06V394.2c0,14.6,8.84,31.56,19.74,37.88l153.06,88.77c-1.39,4.39-4.36,13.63-4.36,13.63l19.05-11.1
	l0,0c4.42-2.29,7.24-8.01,7.24-16.26V139.37C517.87,124.77,509.03,107.81,498.13,101.49z"/>
<path class="st2" d="M323.15,394.2c0,14.6,8.84,31.56,19.74,37.88l153.06,88.77c-1.39,4.39-4.36,13.63-4.36,13.63l19.05-11.1l0,0
	c4.42-2.29,7.24-8.01,7.24-16.26V139.37c0-7.62-2.42-15.86-6.27-22.92L323.15,225.73V394.2z"/>
<path class="st3" d="M478.55,533.51L323.3,443.48c-10.9-6.32-19.74-23.28-19.74-37.88V37.83c0-14.6,8.84-21.31,19.74-14.99
	l155.24,90.04c10.9,6.32,19.74,23.28,19.74,37.88v367.76C498.29,533.13,489.45,539.84,478.55,533.51z"/>
<path class="st4" d="M480.57,111.58L325.33,21.54c-5.62-3.26-10.68-3.03-14.28-0.07c3.37-1.63,7.62-1.32,12.26,1.37l155.24,90.04
	c10.9,6.32,19.74,23.28,19.74,37.88v367.76c0,7.07-2.09,12.27-5.46,15.05c4.55-2.2,7.48-7.97,7.48-16.36V149.46
	C500.31,134.86,491.47,117.9,480.57,111.58z"/>
<path class="st4" d="M475.65,521.34l-149.17-86.52c-8.1-4.7-14.67-17.31-14.67-28.16V44.13c0-10.85,6.57-15.84,14.67-11.14
	l149.17,86.52c8.1,4.7,14.67,17.31,14.67,28.16V510.2C490.33,521.05,483.76,526.04,475.65,521.34z"/>
<path class="st1" d="M476.88,520.83l-149.17-86.52c-8.1-4.7-14.67-17.31-14.67-28.16V43.62c0-6.09,2.07-10.33,5.32-12.05
	c-3.94,1.23-6.55,5.73-6.55,12.56v362.54c0,10.85,6.57,23.46,14.67,28.16l149.17,86.52c3.56,2.06,6.82,2.26,9.36,0.91
	C482.68,522.98,479.89,522.57,476.88,520.83z"/>
<path class="st0" d="M414.63,409.99l-73.22-42.46V188.76l34.5,20.01c23.96,13.89,38.72,39.57,38.72,67.36V409.99z"/>
<g>
	<path class="st3" d="M315.23,171.47l0.01,0.01c-7.39-4.42-17.66-3.88-29,2.7c-22.45,13.02-40.72,44.79-40.72,70.83v18.79v0l0,0l0,0
		l0.77,0.46l73.36,43.34l1.11-22.48l0.92-8.73l3.89-13.56l0.45-2.07l8.34-16.88l6.57-8.24l5.33-6.38l12.98-10.26l1.14-0.85
		l6.38-2.76l8.58-2.24h6.69l7.48,1.32L315.23,171.47z"/>
	<path class="st3" d="M324.58,345.24l2.38-1.38v-85.61c-1.23,1.69-1.81,3.86-2.38,6.06V345.24z"/>
	<polygon class="st3" points="398.71,388.14 324.58,345.24 325.35,264.2 328.18,256.02 336.76,241.2 346.91,229.1 356.06,221.75 
		365.96,215.72 383.91,213.65 393.4,219.05 398.71,227.21 400.38,239.73 399.81,375.19 	"/>
	<path class="st1" d="M315.24,171.48c-6.18-3.7-14.38-3.9-23.54-0.03l75.53,43.8l8.1-2.12h6.69l7.48,1.32l-74.27-42.98
		L315.24,171.48z"/>
	<g>
		<path class="st5" d="M293.48,170.75c-2.35,0.87-4.77,2-7.24,3.43c-1.65,0.96-3.28,2.03-4.88,3.18l75.29,43.66l2.58-2.04l1.14-0.85
			l6.38-2.76l2.55-0.66L293.48,170.75z"/>
		<path class="st4" d="M346.89,228.74l10.24-8.1L281.87,177c-3.41,2.4-6.69,5.22-9.8,8.36L346.89,228.74z"/>
		<path class="st1" d="M401.09,386.76l-2.38,1.38V242.06c0-24.52-17.2-34.49-38.34-22.23s-38.34,42.18-38.34,66.69v19.69l-2.38,1.38
			v-19.69c0-26.04,18.26-57.81,40.72-70.83c22.45-13.02,40.72-2.43,40.72,23.61V386.76z"/>
	</g>
</g>
<polygon class="st6" points="268.01,231.04 263.84,248.18 265.92,275.85 260.63,272.73 253.87,257.68 259.79,238.67 "/>
<g>
	<path class="st7" d="M389.29,340.68c-0.45,0-0.92-0.14-1.39-0.41L334,309.01c-1.59-0.92-2.83-3.27-2.83-5.36v-42.6
		c0-1.25,0.46-2.24,1.26-2.7c0.71-0.41,1.58-0.37,2.44,0.13l53.91,31.26c1.59,0.92,2.83,3.27,2.83,5.36v42.6
		c0,1.25-0.46,2.24-1.26,2.7C390.02,340.59,389.66,340.68,389.29,340.68z M333.48,259.82c-0.07,0-0.13,0.01-0.18,0.04
		c-0.18,0.11-0.4,0.48-0.4,1.19v42.6c0,1.47,0.9,3.23,1.96,3.85l53.91,31.26c0.14,0.08,0.49,0.26,0.7,0.13
		c0.18-0.1,0.4-0.48,0.4-1.19v-42.6c0-1.47-0.9-3.23-1.96-3.85L334,259.99C333.9,259.93,333.68,259.82,333.48,259.82z"/>
	<g>
		<path class="st8" d="M350.74,310.75l-0.38-0.22c-1.41-0.81-2.54-3-2.54-4.88v-20.3c0-1.88,1.14-2.75,2.54-1.93l0.38,0.22
			c1.41,0.81,2.54,3,2.54,4.88v20.3C353.28,310.7,352.14,311.56,350.74,310.75z"/>
		<path class="st8" d="M361.58,317.03l-0.38-0.22c-1.41-0.81-2.54-3-2.54-4.88v-11.88c0-1.88,1.14-2.75,2.54-1.93l0.38,0.22
			c1.41,0.81,2.54,3,2.54,4.88v11.88C364.12,316.98,362.98,317.85,361.58,317.03z"/>
		<path class="st9" d="M372.42,323.32l-0.38-0.22c-1.41-0.81-2.54-3-2.54-4.88v-28.28c0-1.88,1.14-2.75,2.54-1.93l0.38,0.22
			c1.41,0.81,2.54,3,2.54,4.88v28.28C374.96,323.27,373.82,324.14,372.42,323.32z"/>
	</g>
</g>
<ellipse class="st0" cx="188.2" cy="462.7" rx="38.42" ry="22.28"/>
<g>
	<path class="st0" d="M252.81,533.61c18.11,10.5,47.48,10.5,65.59,0c18.11-10.5,18.11-27.53,0-38.03c-18.11-10.5-47.48-10.5-65.59,0
		C234.7,506.08,234.7,523.11,252.81,533.61z"/>
	<g>
		<path class="st2" d="M257.19,500.34c-3.23,1.39-5.26,5-5,8.89c0.13,1.83,0.35,3.54,0.73,4.35c1.03,2.17,4.4,5.14,9.78,3.01
			c5.38-2.13,17.32-13.41,17.77-20.78C281.3,482.1,265.7,496.69,257.19,500.34z"/>
		<path class="st2" d="M288.79,523.01c0,0-1.29,7.9-0.66,9.35c0.63,1.45,4.37,4.54,9.9,3.87c5.53-0.67,21.44-6.18,24.98-16.71
			c5.49-16.33-30.71,1.23-30.71,1.23L288.79,523.01z"/>
		<path class="st3" d="M304.33,396.69l1.23,123.35c-0.13,4.29-2.93,7.91-6.69,8.55c-0.47,0.08-0.96,0.14-1.5,0.19
			c-3.81,0.33-6.03-1.31-7.3-3.03c-1.03-1.4-1.57-3.17-1.64-4.98l-1.57-52.66l-7.83-47.08l-10.83,83.33
			c-0.17,2.25-1.25,4.34-2.98,5.49c-1.19,0.79-2.81,1.41-4.94,1.34c-3.1-0.09-5.25-1.76-6.57-3.25c-1.04-1.18-1.59-2.8-1.57-4.46
			l4.29-50.14l1.6-63.95L304.33,396.69z"/>
		<path class="st10" d="M288.43,286.27l-1.94,11.24c0,0-0.07,3.83,4.19,4.9c4.26,1.06,5.58-1.7,5.58-1.7l1.93-12.66L288.43,286.27z"
			/>
		<path class="st10" d="M311.93,280.12c-3.03,9.63-12.39,15.22-20.92,12.48c-8.53-2.74-12.99-12.76-9.96-22.39
			c3.03-9.63,12.39-15.22,20.92-12.48C310.49,260.46,314.95,270.49,311.93,280.12z"/>
		<path class="st1" d="M288.94,297.72c-0.3-0.12-18.09-11.63-24.67,0.41c-10.72,19.63-2.88,42.15-6.71,91.03
			c-0.64,8.18,10.96,13.16,16.44,16.31c4.88,2.8,10.34,4.51,15.96,4.56c5.56,0.04,16.22-4.92,15.83-12.22
			c-1.78-33.58,1.18-61.88,3.91-89.34C309.71,308.47,306.3,304.78,288.94,297.72z"/>
		<path class="st9" d="M279.05,421.03l-10.83,83.33c-0.17,2.25-1.25,4.34-2.98,5.49c-0.28,0.19-0.59,0.36-0.92,0.52
			c2.25-1.69,8.81-71.64,10.03-79.42C275.56,423.17,279.05,421.03,279.05,421.03z"/>
	</g>
	<polygon class="st10" points="346.63,307.89 361.53,278.19 356.85,275.23 341.41,297.85 	"/>
	<polygon class="st10" points="248.37,276.36 255.62,243.25 261.39,243.31 259.22,270.77 	"/>
	<path class="st1" d="M309.71,308.47c0,0,16.66,6.6,30.98-11.54c1.26-1.6,3.85-1.42,4.6,0.3c1.29,2.97,2.9,7.46,0.94,11.68
		c-8.65,18.65-38.17,18-45.29,28.46C293.83,347.82,309.71,308.47,309.71,308.47z"/>
	<path class="st1" d="M277.65,293.59c0,0-13.76,1.06-15.74-10.9c-1.02-6.16-1.33-9.84-1.38-11.96c-0.04-1.43-1.28-2.52-2.7-2.34
		c-3.29,0.41-8.4,1.4-9.09,3.62c-1.03,3.31-2.98,19.55,10.61,44.47C268.26,332.81,277.65,293.59,277.65,293.59z"/>
	<path class="st10" d="M255.59,243.33l0.13-3.78c0.05-1.33,0.43-2.63,1.12-3.77l3.81-6.29l0.99-1.26c0.92-1.16,2.56-1.44,3.81-0.65
		l0.88,0.55c1.12,0.71,1.76,1.97,1.68,3.29l-1.97,5.37l2.49-0.49c0.48-0.09,0.95,0.23,1.04,0.72l0,0c0.07,0.41-0.15,0.82-0.54,0.98
		l-4.07,1.65l-3.7,5.26L255.59,243.33z"/>
	<path class="st10" d="M361.64,278.38l1.74-3.35c0.62-1.18,0.92-2.5,0.88-3.84l-0.22-7.36l-0.25-1.59
		c-0.23-1.47-1.51-2.52-2.99-2.46l-1.03,0.05c-1.32,0.06-2.5,0.84-3.08,2.03l-0.93,5.65l-1.93-1.66c-0.37-0.32-0.94-0.27-1.26,0.11
		l0,0c-0.27,0.32-0.27,0.79-0.01,1.12l2.73,3.45l0.71,7.2L361.64,278.38z"/>
	<path class="st9" d="M298.84,333.63c-1.45,6.63,7.27,56.66-2.42,74.96c4.85-1.97,9.65-5.84,9.38-10.77
		c-1.27-24.01-0.12-45.32,1.64-65.56c8.29-4.22,21.26-6.74,30.42-13.48C328.03,322.41,300.14,327.71,298.84,333.63z"/>
	<path class="st4" d="M282.54,294.54l2.47-2.55c0,0,4.06,4.17,7.33,4.89c0,0,3.93,1.12,5.85,1.21l1.59,4.4
		C299.78,302.51,286.84,301.58,282.54,294.54z"/>
	<path class="st2" d="M300.32,280.42c0.68-0.01,1.32-0.32,1.7-0.89c0.68-0.98,0.25-5.5,2.33-6.24c3.25-1.17,10.97,2.92,11.8-8.87
		c0.43-6.13-2.54-7.76-2.53-11.11c0,0,0.26,1.68-15.44,0.64c-15.7-1.05-20.8,12.95-21.17,19.62c-0.37,6.67,2.84,17.63,13.57,19.14
		c1.78,0.25,9.25-5.78,9.06-6.58c-0.19-0.79-3.01-0.75-2.61-3.05C297.37,281.16,298.53,280.45,300.32,280.42z"/>
</g>
<g>
	<g>
		<path class="st0" d="M396.56,451.87l-47.43-27.5c-2.11-1.22-3.82-4.5-3.82-7.32v-35.42c0-2.82,1.71-4.12,3.82-2.9l47.43,27.5
			c2.11,1.22,3.82,4.5,3.82,7.32v35.42C400.38,451.8,398.67,453.09,396.56,451.87z"/>
		<path class="st2" d="M391.87,395.68l-47.43-27.5c-0.94-0.54-1.79-0.56-2.45-0.2c0,0,0-0.03,0-0.03l-4.6,2.67
			c0,0,2.04,0.75,3.23,1.19v34.69c0,2.82,1.71,6.1,3.82,7.32l45.33,26.29v4.07l4.65-2.69l-0.03-0.01c0.79-0.48,1.29-1.54,1.29-3.06
			V403C395.69,400.18,393.98,396.9,391.87,395.68z"/>
		<path class="st1" d="M387.19,444.03l-47.43-27.5c-2.11-1.22-3.82-4.5-3.82-7.32v-35.42c0-2.82,1.71-4.12,3.82-2.9l47.43,27.5
			c2.11,1.22,3.82,4.5,3.82,7.32v35.42C391,443.96,389.29,445.26,387.19,444.03z"/>
		<path class="st4" d="M387.19,398.39l-47.43-27.5c-1.2-0.69-2.25-0.55-2.95,0.2c0.51-0.04,1.08,0.08,1.68,0.43l47.43,27.5
			c2.11,1.22,3.82,4.5,3.82,7.32v35.42c0,1.22-0.33,2.13-0.86,2.7c1.26-0.1,2.13-1.32,2.13-3.33v-35.42
			C391,402.89,389.29,399.61,387.19,398.39z"/>
	</g>
	<g>
		<path class="st4" d="M355.71,404.32c0,2.05-1.43,2.88-3.2,1.86c-1.77-1.02-3.2-3.52-3.2-5.57s1.43-2.88,3.2-1.86
			C354.27,399.78,355.71,402.27,355.71,404.32z"/>
		<path class="st4" d="M365.4,409.94c0,2.05-1.43,2.88-3.2,1.86c-1.77-1.02-3.2-3.52-3.2-5.57c0-2.05,1.43-2.88,3.2-1.86
			C363.97,405.4,365.4,407.89,365.4,409.94z"/>
		<path class="st4" d="M375.1,415.57c0,2.05-1.43,2.88-3.2,1.86c-1.77-1.02-3.2-3.52-3.2-5.57c0-2.05,1.43-2.88,3.2-1.86
			C373.66,411.02,375.1,413.52,375.1,415.57z"/>
	</g>
</g>
<g>
	<g>
		<g>
			<path class="st0" d="M475.23,497.49l-47.43-27.5c-2.11-1.22-3.82-4.5-3.82-7.32v-79.72c0-2.82,1.71-4.12,3.82-2.9l47.43,27.5
				c2.11,1.22,3.82,4.5,3.82,7.32v79.72C479.05,497.42,477.34,498.71,475.23,497.49z"/>
			<path class="st2" d="M470.54,397l-47.43-27.5c-0.94-0.54-1.79-0.56-2.45-0.2c0,0,0-0.03,0-0.03l-4.6,2.67
				c0,0,2.04,0.75,3.23,1.19v78.99c0,2.82,1.71,6.1,3.82,7.32l45.33,26.29v4.07l4.65-2.69l-0.03-0.01c0.79-0.48,1.29-1.54,1.29-3.06
				v-79.72C474.35,401.5,472.65,398.22,470.54,397z"/>
			<path class="st1" d="M465.85,489.65l-47.43-27.5c-2.11-1.22-3.82-4.5-3.82-7.32V375.1c0-2.82,1.71-4.12,3.82-2.9l47.43,27.5
				c2.11,1.22,3.82,4.5,3.82,7.32v79.72C469.67,489.58,467.96,490.87,465.85,489.65z"/>
			<path class="st4" d="M465.85,399.71l-47.43-27.5c-1.2-0.69-2.25-0.55-2.95,0.2c0.51-0.04,1.08,0.08,1.68,0.43l47.43,27.5
				c2.11,1.22,3.82,4.5,3.82,7.32v79.72c0,1.22-0.33,2.13-0.86,2.7c1.26-0.11,2.13-1.32,2.13-3.33v-79.72
				C469.67,404.21,467.96,400.93,465.85,399.71z"/>
		</g>
	</g>
	<g>
		<path class="st4" d="M449.06,410.51c0,4.43-3.1,6.23-6.92,4.01c-3.82-2.22-6.92-7.61-6.92-12.04c0-4.43,3.1-6.23,6.92-4.01
			C445.96,400.69,449.06,406.08,449.06,410.51z"/>
		<path class="st4" d="M451.94,423.04c-0.01-0.07-0.02-0.14-0.03-0.21c-0.3-1.87-2.05-3.51-3.22-3.09
			c-1.79,0.64-4.07,0.33-6.56-1.11c-2.49-1.44-4.77-3.77-6.56-6.49c-1.16-1.76-2.92-2.16-3.22-0.64c-0.01,0.06-0.02,0.11-0.03,0.17
			l-3.28,20.93l26.17,15.18L451.94,423.04z"/>
	</g>
	<g>
		<polygon class="st4" points="457.08,463.71 425.3,445.28 425.3,442.98 457.08,461.41 		"/>
		<polygon class="st4" points="447.48,468.2 425.3,455.33 425.3,453.03 447.48,465.9 		"/>
		<polygon class="st4" points="444.49,461.44 425.3,450.31 425.3,448.01 444.49,459.14 		"/>
		<polygon class="st4" points="457.08,468.74 447.48,463.17 447.48,460.87 457.08,466.44 		"/>
	</g>
</g>
<g>
	<g>
		<g>
			<path class="st0" d="M475.23,384.74l-47.43-27.5c-2.11-1.22-3.82-4.5-3.82-7.32v-79.72c0-2.82,1.71-4.12,3.82-2.9l47.43,27.5
				c2.11,1.22,3.82,4.5,3.82,7.32v79.72C479.05,384.66,477.34,385.96,475.23,384.74z"/>
			<path class="st1" d="M470.54,284.24l-47.43-27.5c-0.94-0.54-1.79-0.56-2.45-0.2c0,0,0-0.03,0-0.03l-4.6,2.67
				c0,0,2.04,0.75,3.23,1.19v78.99c0,2.82,1.71,6.1,3.82,7.32l45.33,26.29v4.07l4.65-2.69l-0.03-0.01c0.79-0.48,1.29-1.54,1.29-3.06
				v-79.72C474.35,288.74,472.65,285.47,470.54,284.24z"/>
			<path class="st3" d="M465.85,376.9l-47.43-27.5c-2.11-1.22-3.82-4.5-3.82-7.32v-79.72c0-2.82,1.71-4.12,3.82-2.9l47.43,27.5
				c2.11,1.22,3.82,4.5,3.82,7.32V374C469.67,376.82,467.96,378.12,465.85,376.9z"/>
			<path class="st4" d="M465.85,286.96l-47.43-27.5c-1.2-0.69-2.25-0.55-2.95,0.2c0.51-0.04,1.08,0.08,1.68,0.43l47.43,27.5
				c2.11,1.22,3.82,4.5,3.82,7.32v79.72c0,1.22-0.33,2.13-0.86,2.7c1.26-0.1,2.13-1.32,2.13-3.33v-79.72
				C469.67,291.46,467.96,288.18,465.85,286.96z"/>
		</g>
	</g>
	<g>
		<polygon class="st1" points="457.15,304.96 425.38,286.53 425.38,284.23 457.15,302.66 		"/>
		<polygon class="st1" points="447.56,309.45 425.38,296.58 425.38,294.28 447.56,307.15 		"/>
		<polygon class="st1" points="444.56,302.69 425.38,291.56 425.38,289.26 444.56,300.39 		"/>
		<polygon class="st1" points="457.15,309.98 447.56,304.42 447.56,302.12 457.15,307.68 		"/>
	</g>
	<g>
		<polygon class="st1" points="457.15,324.37 425.38,305.94 425.38,303.64 457.15,322.07 		"/>
		<polygon class="st1" points="447.56,328.86 425.38,315.99 425.38,313.69 447.56,326.56 		"/>
		<polygon class="st1" points="444.56,322.1 425.38,310.97 425.38,308.67 444.56,319.8 		"/>
		<polygon class="st1" points="457.15,329.39 447.56,323.83 447.56,321.53 457.15,327.09 		"/>
	</g>
	<g>
		<polygon class="st1" points="457.15,343.78 425.38,325.35 425.38,323.05 457.15,341.48 		"/>
		<polygon class="st1" points="447.56,348.27 425.38,335.4 425.38,333.1 447.56,345.97 		"/>
		<polygon class="st1" points="444.56,341.51 425.38,330.38 425.38,328.08 444.56,339.21 		"/>
		<polygon class="st1" points="457.15,348.8 447.56,343.24 447.56,340.94 457.15,346.5 		"/>
	</g>
</g>
<g>
	<polygon class="st4" points="357.02,338.5 334.35,325.35 334.35,323.23 357.02,336.37 	"/>
	<polygon class="st4" points="371.07,346.64 361.39,341.03 361.39,338.9 371.07,344.52 	"/>
	<polygon class="st4" points="357.8,343.58 348.12,337.96 348.12,335.84 357.8,341.45 	"/>
	<polygon class="st4" points="378.76,355.73 361.39,345.66 361.39,343.53 378.76,353.61 	"/>
	<polygon class="st4" points="390.66,367.26 364.96,352.35 364.96,350.23 390.66,365.13 	"/>
	<polygon class="st4" points="384.91,354.67 375.23,349.06 375.23,346.93 384.91,352.55 	"/>
	<polygon class="st4" points="344.03,335.59 334.35,329.98 334.35,327.85 344.03,333.47 	"/>
	<polygon class="st4" points="360.81,349.95 334.31,334.58 334.31,332.45 360.81,347.82 	"/>
	<polygon class="st4" points="350.6,348.66 334.62,339.39 334.62,337.26 350.6,346.53 	"/>
</g>
<g>
	<path class="st0" d="M469.12,237.76l-124.03-71.92c-8.03-4.66-14.54-17.15-14.54-27.91l0,0c0-10.76,6.51-15.7,14.54-11.04
		l124.03,71.92c8.03,4.66,14.54,17.15,14.54,27.91v0C483.67,237.47,477.16,242.42,469.12,237.76z"/>
	<path class="st2" d="M480.61,219.65c0-10.76-6.51-23.25-14.54-27.91l-124.03-71.92c-3.74-2.17-7.13-2.23-9.71-0.62l0.01-0.04
		l-6.11,3.58l2.81,0.32c-0.98,2.05-1.54,4.67-1.54,7.8v0c0,10.76,6.51,23.25,14.54,27.91l124.03,71.92c1.57,0.91,3.08,1.44,4.5,1.65
		l-0.75,2.5l6.02-3.53l-0.05,0C478.75,229.46,480.61,225.39,480.61,219.65z"/>
	<path class="st1" d="M460.13,234.16L336.1,162.24c-8.03-4.66-14.54-17.15-14.54-27.91l0,0c0-10.76,6.51-15.7,14.54-11.04
		l124.03,71.92c8.03,4.66,14.54,17.15,14.54,27.91v0C474.68,233.88,468.16,238.82,460.13,234.16z"/>
	<path class="st4" d="M461.37,194.41l-124.03-71.92c-4.09-2.37-7.77-2.24-10.42-0.14c2.5-1.28,5.7-1.07,9.18,0.95l124.03,71.92
		c8.03,4.66,14.54,17.15,14.54,27.91c0,5.28-1.58,9.15-4.13,11.18c3.27-1.68,5.36-5.9,5.36-11.99
		C475.91,211.56,469.4,199.07,461.37,194.41z"/>
</g>
<g>
	<path class="st0" d="M422.55,151.47l-76.85-44.51c-8.03-4.66-14.54-17.15-14.54-27.91l0,0c0-10.76,6.51-15.7,14.54-11.04
		l76.85,44.51c8.03,4.66,14.54,17.15,14.54,27.91l0,0C437.1,151.18,430.59,156.12,422.55,151.47z"/>
	<path class="st1" d="M433.43,133.32c0-10.76-6.51-23.25-14.54-27.91L342.04,60.9c-3.74-2.17-7.13-2.23-9.71-0.62l0.01-0.04
		l-6.11,3.58l2.81,0.32c-0.98,2.05-1.54,4.67-1.54,7.8v0c0,10.76,6.51,23.25,14.54,27.91l76.85,44.51c1.57,0.91,3.08,1.44,4.5,1.65
		l-0.75,2.5l6.02-3.53l-0.05,0C431.56,143.13,433.43,139.06,433.43,133.32z"/>
	<path class="st3" d="M412.95,147.83l-76.85-44.51c-8.03-4.66-14.54-17.15-14.54-27.91l0,0c0-10.76,6.51-15.7,14.54-11.04
		l76.85,44.51c8.03,4.66,14.54,17.15,14.54,27.91l0,0C427.49,147.55,420.98,152.49,412.95,147.83z"/>
	<path class="st4" d="M414.18,108.08l-76.85-44.51c-4.09-2.37-7.77-2.24-10.42-0.14c2.5-1.28,5.7-1.07,9.18,0.95l76.85,44.51
		c8.03,4.66,14.54,17.15,14.54,27.91c0,5.28-1.58,9.15-4.13,11.18c3.27-1.68,5.36-5.9,5.36-11.99
		C428.72,125.23,422.21,112.74,414.18,108.08z"/>
</g>
<g>
	<polygon class="st1" points="378.24,107.02 346.46,88.59 346.46,86.29 378.24,104.72 	"/>
	<polygon class="st1" points="403.49,121.65 381.31,108.78 381.31,106.48 403.49,119.35 	"/>
	<polygon class="st1" points="365.65,104.75 346.46,93.62 346.46,91.32 365.65,102.45 	"/>
	<polygon class="st1" points="378.24,112.05 368.64,106.48 368.64,104.18 378.24,109.75 	"/>
</g>
<g>
	<polygon class="st4" points="452.93,210.05 421.16,191.62 421.16,189.32 452.93,207.75 	"/>
	<polygon class="st4" points="418.2,189.9 396.02,177.04 396.02,174.74 418.2,187.6 	"/>
	<polygon class="st4" points="440.35,207.78 421.16,196.65 421.16,194.35 440.35,205.47 	"/>
	<polygon class="st4" points="452.93,215.07 443.34,209.51 443.34,207.21 452.93,212.77 	"/>
	<polygon class="st4" points="418.2,194.9 408.6,189.33 408.6,187.03 418.2,192.59 	"/>
</g>
<g>
	<polygon class="st1" points="265.07,217.52 260.18,214.69 260.99,213.2 265.88,216.04 	"/>
	<path class="st1" d="M255.87,212.19l0.81-1.48l-1.86-1.08c-0.25,0.51-0.47,1.02-0.72,1.53L255.87,212.19z"/>
	<polygon class="st1" points="274.27,222.86 269.38,220.02 270.19,218.54 275.08,221.37 	"/>
	<polygon class="st1" points="283.47,228.19 278.58,225.36 279.39,223.87 284.28,226.71 	"/>
	<polygon class="st1" points="292.67,233.53 287.78,230.69 288.59,229.21 293.48,232.04 	"/>
	<polygon class="st1" points="301.87,238.86 296.98,236.03 297.79,234.54 302.68,237.38 	"/>
	<polygon class="st1" points="311.07,244.2 306.18,241.36 306.99,239.88 311.88,242.71 	"/>
	<polygon class="st1" points="320.27,249.53 315.38,246.7 316.19,245.21 321.08,248.05 	"/>
	<polygon class="st1" points="329.47,254.87 324.58,252.03 325.39,250.55 330.28,253.38 	"/>
</g>
<g>
	<polygon class="st1" points="353.41,230.14 348.43,227.25 349.45,225.86 353.41,228.15 	"/>
	<polygon class="st1" points="362.76,235.56 357.79,232.68 357.79,230.7 362.76,233.58 	"/>
	<polygon class="st1" points="372.12,240.99 367.15,238.11 367.15,236.12 372.12,239.01 	"/>
	<polygon class="st1" points="381.48,246.42 376.51,243.53 376.51,241.55 381.48,244.43 	"/>
	<polygon class="st1" points="390.84,251.84 385.86,248.96 385.86,246.97 390.84,249.86 	"/>
	<polygon class="st1" points="400.19,257.27 395.22,254.38 395.22,252.4 400.19,255.28 	"/>
</g>
<polygon class="st4" points="393.08,175.35 375.18,164.99 375.18,162.68 393.08,173.05 "/>
<g>
	<g>
		<path class="st11" d="M166.41,228.6c0,0,0.91,17.7,2.34,29.59c1.43,11.89,31.86-9.13,31.86-9.13v-13.54L166.41,228.6z"/>
		<g>
			<path class="st2" d="M182.62,448.78c0.46,1.08,8.34,10.11,16.23,12.37c3.43,0.98,5.73,1.11,7.24,0.94
				c1.52-0.17,2.45-1.64,1.94-2.99c-1.36-3.59-5.25-11.08-15.13-15.69C179.53,437.16,182.62,448.78,182.62,448.78z"/>
			<path class="st2" d="M179.99,452.25c0,0,2.97,6.56,3.89,12.05c0.56,3.35-1.39,7.69-3,10.57c-1,1.79-3.52,2.19-5.11,0.83
				c-2.58-2.2-5.86-6.02-6.4-11.51c-0.91-9.25,0-10.86,0-10.86L179.99,452.25z"/>
			<path class="st3" d="M161,340.45c0,0-1.03,11.67,0,24.57c1.03,12.91,4.71,73.27,5.4,87.79c0,0-0.34,4.4,8.7,3.43
				c9.04-0.97,8.31-5.85,8.31-5.85s12.7-0.16,13.1-7.21c0.4-7.04,13.01-84.13,13.01-111.84L161,340.45z"/>
			<g>
				<path class="st10" d="M214.21,280.12l6.22,9.07l21.39,24.31c0,0-0.74,2.26-3.4,2.85c-2.08,0.46-20.07-15.69-27.83-22.78
					c-2.06-1.88-2.41-4.88-0.82-7.13L214.21,280.12z"/>
				<path class="st12" d="M202.07,242.89c0,0,9.88-0.24,13.32,13.2c3.44,13.44,6.13,30.28,3.14,31.68
					c-8.98,4.2-14.67-0.71-14.67-0.71L202.07,242.89z"/>
				<path class="st9" d="M205.03,243.46c-1.69-0.66-3.58-0.75-5.33-0.28c-8.42,2.28-40.08,11.02-45.3,15.22
					c-6.03,4.85,9.04,32.1,8.82,41.04c-0.22,8.93-1.29,19.47-2.13,29.18s-1.97,15.04,6.47,19.17c8.44,4.13,22.85,4.32,33.64-3.42
					c10.79-7.74,8.83-13.03,8.38-18.65c-0.45-5.62-4.12-29.91-3.8-36.81c0,0,3.8-2.64,6.62-7.16c2.82-4.52-2.16-12.83-4.22-18.23
					c-2.06-5.4,1.17-11.58,0.53-15.99C208.37,245.28,206.83,244.17,205.03,243.46z"/>
				<path class="st4" d="M194.91,252.75c0.67,4.91-4.12,9.53-10.68,10.32c-6.57,0.79-12.44-2.54-13.1-7.45
					c-0.67-4.91,4.12-9.53,10.68-10.32C188.37,244.51,194.24,247.84,194.91,252.75z"/>
				<path class="st10" d="M191.51,253.16c0.48,3.51-2.94,6.81-7.64,7.38s-8.89-1.82-9.37-5.33c-0.48-3.51,2.94-6.81,7.64-7.38
					C186.84,247.27,191.04,249.65,191.51,253.16z"/>
				<path class="st10" d="M186.85,241.64c0,0-5.71-4.42-6.84-2.18s-2.05,11.86-2.05,11.86l11.35,2.87l-1.72-9.74
					C187.59,244.44,189.86,242.63,186.85,241.64z"/>
				<path class="st10" d="M204.58,231.11c-0.55,8.79-8.57,15.5-17.92,14.98c-9.34-0.52-16.47-8.07-15.92-16.86
					c0.55-8.79,8.57-15.5,17.92-14.98C198.01,214.76,205.14,222.31,204.58,231.11z"/>
				<path class="st13" d="M179.22,242.25c-0.1,0.5-0.2,1.04-0.29,1.59c1.14,5.55,9.96,7.98,9.96,7.98l-1.3-7.37
					c0,0,1.07-0.85,0.77-1.71C184.87,241.7,180.47,240.78,179.22,242.25z"/>
				<path class="st10" d="M204.58,231.11c-0.55,8.79-8.57,15.5-17.92,14.98c-9.34-0.52-16.47-8.07-15.92-16.86
					c0.55-8.79,8.57-15.5,17.92-14.98C198.01,214.76,205.14,222.31,204.58,231.11z"/>
				<polygon class="st10" points="145.92,297.68 147.81,340.36 154.44,341 158.76,302.58 				"/>
				<path class="st12" d="M167.7,294.11c-2.19-9.11-6.53-29.25-6.53-29.25l-1.85,20.03c2.14,5.94,3.97,11.39,3.9,14.55
					c-0.13,5.24-0.55,11.04-1.05,16.9l0,0.02C162.17,316.36,169.9,303.23,167.7,294.11z"/>
				<path class="st9" d="M155.66,257.53c0,0-5.3,1.91-8.3,17.23c-3,15.33-5.24,30.68,0.1,32.66c5.35,1.98,9.82,3.47,11.39-0.63
					c1.57-4.1,2.55-23.85,2.74-30.95C161.8,268.73,162.09,258.93,155.66,257.53z"/>
				<path class="st10" d="M240.23,311.72c0,0,2.87,0.99,4.95,3.12c1.7,1.75,2.64,3.23,3.38,4.27c1.65,2.32,3.04,7.33,2.04,7.95
					c-1.01,0.62-6.77-8.39-7.69-6.29c-0.93,2.1,0.01,4.04-1.18,4.07c-1.19,0.03-5.33-9.06-8.58-11.88
					C229.87,310.14,240.23,311.72,240.23,311.72z"/>
			</g>
			<path class="st14" d="M183.4,450.39c0,0,1.57-0.02,3.63-0.35l0,0l2.49-93.83L183.4,450.39z"/>
		</g>
		<g>
			<path class="st9" d="M173.81,399.71l-3.53-4.33l-37.1-20.21c-1.19-0.65-2.15-2.38-2.15-3.88l0.03-28.58l-2.13-2.62l2-1.09l0,0
				c0.38-0.23,0.89-0.23,1.45,0.08l42.04,22.91c1.19,0.65,2.15,2.38,2.15,3.88l-0.04,31.13c0,0.84-0.31,1.42-0.79,1.66l0,0
				L173.81,399.71z"/>
			<path class="st15" d="M148.16,383.32l-2.64-1.44l-14.47-23.65l0.02-15.53l-2.13-2.62l2-1.09l0,0c0.38-0.23,0.89-0.23,1.45,0.08
				l42.04,22.91c0.63,0.34,1.19,0.99,1.58,1.74L148.16,383.32z"/>
			<path class="st1" d="M129.88,341.24l-0.95-1.16l2-1.09l0,0c0.38-0.23,0.89-0.23,1.45,0.08l0.74,0.4L129.88,341.24z"/>
			<path class="st16" d="M174.82,362.23c0.93,0.72,1.66,2.08,1.76,3.33l-4.11,2.23l-1.97-3.22L174.82,362.23z"/>
			<path class="st1" d="M172.43,363.07l-42.04-22.91c-1.19-0.65-2.16,0.04-2.16,1.53l-0.04,31.13c0,1.49,0.96,3.23,2.15,3.88
				l42.04,22.91c1.19,0.65,2.16-0.04,2.16-1.53l0.04-31.13C174.59,365.45,173.62,363.71,172.43,363.07z"/>
		</g>
		<path class="st10" d="M147.87,340c0,0-1.75,9.96-1.49,13.15c0.26,3.19,2.08,8.45,3.46,8.34c1.38-0.11,0.05-12.83,2.46-11.56
			c2.42,1.27,2.67,3.44,3.77,2.67c1.1-0.77-1.91-11.64-1.11-16.35C155.76,331.54,147.87,340,147.87,340z"/>
		<path class="st13" d="M194.18,231.56c8.5,2.84,10.16,1.11,10.24,1.02c0.08-0.48,0.14-0.97,0.17-1.47c0.11-1.77-0.1-3.48-0.57-5.1
			l-22.05-2.8C181.96,223.21,185.45,228.64,194.18,231.56z"/>
		<path class="st17" d="M205.19,215.22c-2-1.62-9.23-9.61-22.18-7.72c-8.09,1.18-14.92,6.38-16.43,18.23
			c-1.02,7.99,2.1,15.85,7.83,21.67c0.31-0.14,0.63-0.26,0.92-0.44c3.24-2.01,3.59-3.11,3.59-3.12l0.72-6.05
			c-0.02-0.86-0.71-1.62-1.62-1.68c-0.7-0.04-1.56-0.36-2.37-1.36c-1.86-2.29-1-5.86,2.72-5.99c1.94-0.07,2.7-1.06,2.97-1.99
			c0.24-0.81,1.15-1.26,1.98-0.97c4.23,1.44,14.66,4.55,21.37,2.76C213.29,226.26,207.2,216.83,205.19,215.22z"/>
		<path class="st4" d="M195.54,238.76l5.18-1.34c0,0-2.47,3.66-6.09,4.6c-3.61,0.93-4.17-1.94-4.17-1.94L195.54,238.76z"/>
		<polygon class="st12" points="156.68,352.3 152.26,349.92 153.92,352.47 156.15,353.24 		"/>
	</g>
</g>
<path class="st3" d="M81.41,223.72c-8.38,0-15.19-7.41-15.19-16.51c0-9.1,6.81-16.51,15.19-16.51s15.19,7.41,15.19,16.51
	C96.6,216.31,89.79,223.72,81.41,223.72z M81.41,194.3c-6.55,0-11.88,5.79-11.88,12.91c0,7.12,5.33,12.91,11.88,12.91
	s11.88-5.79,11.88-12.91C93.29,200.09,87.96,194.3,81.41,194.3z"/>
<path class="st1" d="M492.59,51.46l-7.31-16.16l14.87-7.95l7.31,16.16L492.59,51.46z M489.71,36.94l4.39,9.7l8.93-4.77l-4.39-9.7
	L489.71,36.94z"/>
<g>
	<polygon class="st3" points="235.3,42.07 231.82,38.3 248.33,20.36 251.8,24.14 	"/>
	<polygon class="st3" points="248.33,42.07 231.82,24.14 235.3,20.36 251.8,38.3 	"/>
</g>
<polygon class="st1" points="232.38,137.35 222.87,142.43 218.2,132.1 227.71,127.02 "/>
<g>
	<polygon class="st1" points="65.15,368.28 64.43,365.23 72.6,362.96 73.32,366.01 	"/>
	<polygon class="st1" points="60.99,372.7 60.27,369.64 68.43,367.37 69.15,370.42 	"/>
	<polygon class="st1" points="56.83,377.11 56.11,374.06 64.27,371.78 64.99,374.84 	"/>
	<polygon class="st1" points="52.66,381.52 51.94,378.47 60.11,376.2 60.83,379.25 	"/>
</g>
<path class="st1" d="M381.13,540.88l-7.31-16.16l14.87-7.95l7.31,16.16L381.13,540.88z M378.26,526.36l4.39,9.7l8.93-4.77l-4.39-9.7
	L378.26,526.36z"/>
<g>
	<path class="st1" d="M62.63,64.59l1.68-3.1c0,0,1.41,0.84,2.91,0.33c1.21-0.41,2.25-1.6,3.1-3.52c3.01-6.77,8.56-7.29,11.08-6.61
		l-0.79,3.5l0.4-1.75l-0.38,1.75c-0.48-0.12-4.79-1.01-7.31,4.68c-1.28,2.88-3.02,4.7-5.16,5.41
		C65.29,66.21,62.89,64.76,62.63,64.59z"/>
</g>
<path class="st3" d="M124.8,514.6c0,8.59-6.41,15.56-14.32,15.56c-7.91,0-14.32-6.97-14.32-15.56c0-8.59,6.41-15.56,14.32-15.56
	C118.39,499.04,124.8,506,124.8,514.6z"/>
</svg>
