<svg xmlns="http://www.w3.org/2000/svg" xmlns:xlink="http://www.w3.org/1999/xlink" id="Layer_1" x="0" y="0" version="1.1" viewBox="0 0 550 550" xml:space="preserve" style="enable-background:new 0 0 550 550"><style type="text/css">.st0{fill:#d4ecff}.st1{fill:#5793ce}.st2{fill:#8f8f8f}.st3{fill:#f0f0f0}.st4{fill:#fff}.st5{fill:#173d7a}.st6{fill:#ccc}.st7{fill:#f5f7ff}.st8{fill:#e6e6e6}.st9{fill:#78c2ff}.st10{fill:#eea886}.st11{fill:#db9c7c}.st12{fill:#4da8f2}.st13{fill:#efaa88}.st14{fill:#424773}.st15{fill:#292c47}.st16{fill:#e2d2ca}.st17{fill:#dfe1e8}.st18{fill:#5c544d}.st19{fill:#3c4145}.st20{fill:#314959}.st21{fill:#d6d6d6}.st22{fill:#c98462}.st23{fill:#de9d7d}.st24{fill:#e0e0e0}.st25{fill:#b8b8b8}.st26{fill:#d9d9d9}.st27{fill:#71bff4}.st28{fill:#8fd3f9}</style><g><polygon points="16.21 350.18 13.86 347.63 25 335.53 27.34 338.08" class="st0"/><polygon points="25 350.18 13.86 338.08 16.21 335.53 27.34 347.63" class="st0"/></g><path d="M531.56,215.98c0,4.69-3.5,8.5-7.82,8.5c-4.32,0-7.82-3.8-7.82-8.5c0-4.69,3.5-8.5,7.82-8.5	C528.06,207.48,531.56,211.28,531.56,215.98z" class="st0"/><g><path d="M427.29,538.43l1.68-3.1c0,0,1.41,0.84,2.91,0.33c1.21-0.41,2.25-1.6,3.1-3.52c3.01-6.77,8.56-7.29,11.08-6.61 l-0.79,3.5l0.4-1.75l-0.38,1.75c-0.48-0.12-4.79-1.01-7.31,4.68c-1.28,2.88-3.02,4.7-5.16,5.41 C429.95,540.06,427.55,538.6,427.29,538.43z" class="st1"/></g><g><polygon points="500.92 51.53 500.2 48.48 508.36 46.2 509.08 49.26" class="st1"/><polygon points="496.75 55.94 496.03 52.89 504.2 50.62 504.92 53.67" class="st1"/><polygon points="492.59 60.35 491.87 57.3 500.03 55.03 500.75 58.08" class="st1"/><polygon points="488.43 64.77 487.71 61.71 495.87 59.44 496.59 62.49" class="st1"/></g><path d="M102.29,483.61c-8.38,0-15.19-7.41-15.19-16.51c0-9.1,6.81-16.51,15.19-16.51s15.19,7.41,15.19,16.51	C117.48,476.2,110.67,483.61,102.29,483.61z M102.29,454.19c-6.55,0-11.88,5.79-11.88,12.91c0,7.12,5.33,12.91,11.88,12.91	c6.55,0,11.88-5.79,11.88-12.91C114.17,459.98,108.84,454.19,102.29,454.19z" class="st0"/><polygon points="34.08 41.9 23.86 47.36 18.83 36.26 29.05 30.79" class="st1"/><path d="M302.47,20.88c0,2.73-2.03,4.94-4.54,4.94c-2.51,0-4.54-2.21-4.54-4.94s2.03-4.94,4.54-4.94	C300.44,15.94,302.47,18.15,302.47,20.88z" class="st0"/><g><g><rect width="48.82" height="148.29" x="237.99" y="296.7" class="st2" transform="matrix(-1 -1.224647e-16 1.224647e-16 -1 524.7928 741.6942)"/></g><g><path d="M112.93,368.13h298.93c33.87,0,61.33-27.46,61.33-61.33V132.06c0-33.87-27.46-61.33-61.33-61.33H112.93 c-33.87,0-61.33,27.46-61.33,61.33v174.75C51.61,340.68,79.06,368.13,112.93,368.13z" class="st3"/></g><g><rect width="388.56" height="282.45" x="68.12" y="39.08" class="st4" transform="matrix(-1 -1.224647e-16 1.224647e-16 -1 524.7925 360.6085)"/></g><g><rect width="388.56" height="34.11" x="68.12" y="39.08" class="st5" transform="matrix(-1 -1.224647e-16 1.224647e-16 -1 524.7925 112.2729)"/></g><g><path d="M409.39,342.86c0,7.51,7.16,13.6,15.99,13.6c8.83,0,15.99-6.09,15.99-13.6s-7.16-13.6-15.99-13.6 C416.55,329.26,409.39,335.34,409.39,342.86z" class="st6"/></g><rect width="219.64" height="11.19" x="152.57" y="439.4" class="st6"/><path d="M134.79,62.58H89.33c-2.75,0-4.98-2.23-4.98-4.98v-2.93c0-2.75,2.23-4.98,4.98-4.98h45.46 c2.75,0,4.98,2.23,4.98,4.98v2.93C139.77,60.35,137.54,62.58,134.79,62.58z" class="st7"/><rect width="203.43" height="6.99" x="96.58" y="192.06" class="st8"/><rect width="150.89" height="6.99" x="96.58" y="204.65" class="st8"/><rect width="95.67" height="6.99" x="96.58" y="232.02" class="st8"/><rect width="171.88" height="6.99" x="96.58" y="244.61" class="st8"/><rect width="161.02" height="6.99" x="96.58" y="274.71" class="st8"/><rect width="196.62" height="6.99" x="96.58" y="287.3" class="st8"/><rect width="5.11" height="19.59" x="86.66" y="192.06" class="st5"/><rect width="5.11" height="19.59" x="86.66" y="232.02" class="st5"/><rect width="5.11" height="19.59" x="86.66" y="274.71" class="st5"/><g><g><path d="M362.62,303.11h-6.37c-5.98,0-10.82-4.85-10.82-10.82v-6.37c0-5.98,4.85-10.82,10.82-10.82h6.37 c5.98,0,10.82,4.85,10.82,10.82v6.37C373.45,298.27,368.6,303.11,362.62,303.11z" class="st9"/></g></g><g><g><g><path d="M367.07,260.44H351.8c-3.52,0-6.38-2.86-6.38-6.39v-15.28c0-3.52,2.86-6.39,6.38-6.39h15.28 c3.52,0,6.38,2.87,6.38,6.39v15.28C373.46,257.58,370.59,260.44,367.07,260.44z M351.8,234.17c-2.54,0-4.61,2.07-4.61,4.61 v15.28c0,2.54,2.07,4.61,4.61,4.61h15.28c2.54,0,4.61-2.07,4.61-4.61v-15.28c0-2.54-2.07-4.61-4.61-4.61H351.8z" class="st9"/></g></g></g><g><g><g><path d="M409.26,303.13h-15.28c-3.52,0-6.39-2.86-6.39-6.39v-15.28c0-3.52,2.87-6.39,6.39-6.39h15.28 c3.52,0,6.38,2.86,6.38,6.39v15.28C415.65,300.26,412.78,303.13,409.26,303.13z M393.99,276.86c-2.54,0-4.61,2.07-4.61,4.61 v15.28c0,2.54,2.07,4.61,4.61,4.61h15.28c2.54,0,4.61-2.07,4.61-4.61v-15.28c0-2.54-2.07-4.61-4.61-4.61H393.99z" class="st9"/></g></g></g><g><g><path d="M404.81,260.43h-6.37c-5.98,0-10.82-4.85-10.82-10.82v-6.37c0-5.98,4.85-10.82,10.82-10.82h6.37 c5.98,0,10.82,4.85,10.82,10.82v6.37C415.63,255.58,410.79,260.43,404.81,260.43z" class="st9"/></g></g><g><g><g><path d="M409.26,217.75h-15.28c-3.52,0-6.39-2.86-6.39-6.39v-15.28c0-3.52,2.87-6.39,6.39-6.39h15.28 c3.52,0,6.38,2.86,6.38,6.39v15.28C415.65,214.89,412.78,217.75,409.26,217.75z M393.99,191.48c-2.54,0-4.61,2.07-4.61,4.61 v15.28c0,2.54,2.07,4.61,4.61,4.61h15.28c2.54,0,4.61-2.07,4.61-4.61v-15.28c0-2.54-2.07-4.61-4.61-4.61H393.99z" class="st9"/></g></g></g><g><g><path d="M362.62,217.74h-6.37c-5.98,0-10.82-4.85-10.82-10.82v-6.37c0-5.98,4.85-10.82,10.82-10.82h6.37 c5.98,0,10.82,4.85,10.82,10.82v6.37C373.45,212.89,368.6,217.74,362.62,217.74z" class="st9"/></g></g><g><g><g><g><path d="M231.69,369.17c0,0,1.02,1.67,1.14,3.03c0.1,1.08,1.01,2.68,1.4,3.57c0.39,0.89,1.65,4.91,1.7,5.96 c0.02,0.43-0.94,3.12-0.8,3.99s0.63,2.57-0.15,2.69c-0.77,0.11-1.65-1.29-1.65-1.29s0.07,0.79-0.58,1.1 c-1.27,0.59-1.95,0.07-1.95,0.07s-0.47,0.87-1.06,0.99c-1.3,0.26-1.94-0.26-1.94-0.26s-0.57,0.49-1.47,0.47 c-1.15-0.02-1.63-1.02-1.63-1.02s-1.46,0.29-1.88-0.38c-0.42-0.68-0.35-1.4-0.52-2.02c-0.18-0.62-0.04-6.18,1.85-10.18 c1.89-4-0.48-7.91-0.48-7.91L231.69,369.17z" class="st10"/></g></g></g><g><g><path d="M233.54,386.59c0,0,0.13-4.99-1.18-6.05c-1.31-1.06-1.46,0.74-1.46,0.74s0.18-1.78-1.26-2.02 c-1.43-0.24-1.5,1.87-1.5,1.87s-0.24-1.37-1.74-1.09c-1.51,0.28-1.15,2.03-1.15,2.03s-1.44-1.72-2.37-0.07 c-1.58,2.78-0.06,6.07-0.06,6.07s0.44,0.75,1.88,0.38c0,0,0.96,1.93,3.11,0.54c0,0,2.2,1.21,3-0.73 C230.8,388.28,233.22,389.43,233.54,386.59z" class="st11"/></g></g><path d="M248.62,297.3c0,0-8.54,28.47-11.43,38.97c-0.91,3.29-3.1,34.74-3.48,36.01c-0.39,1.27-11.22,3-11.22,3 s1.31-39.34,1.44-41.49c0.12-2.15,11.95-46.08,15.39-47.65c2.58-1.17,3.94-0.2,7.19,2.21C251.06,291.73,248.62,297.3,248.62,297.3 z" class="st5"/><g><rect width="23.36" height="1.74" x="330.48" y="250.88" class="st12" transform="matrix(0.8367 -0.5476 0.5476 0.8367 -81.9993 228.4797)"/></g><path d="M354.49,251.98c0,0-0.19,1.11-0.5,1.55c0,0-0.64,0.76-1.06,1.33c-0.13,0.18-0.25,0.34-0.31,0.45 c-0.26,0.47-0.68,1.57-1.62,2.51c-0.93,0.94-4.56,3.95-4.56,3.95l-3.11-2.64l-3.23-1.45c0,0,1.81-7.85,2.57-8.83 c0.08-0.1,0.15-0.19,0.23-0.27c0.73-0.77,1.59-1.03,2.02-1.39c0.16-0.13,1.82-1.33,2.41-1.17c0.82,0.21,1.3,0.69,1.49,1.24 c0,0,1.59,0.49,2.21,1.42c0,0,1.48,0.4,1.92,1.78C352.97,250.48,354.43,251.06,354.49,251.98z" class="st13"/><g><g><path d="M241.69,491.65c0,0-0.78,5.4-0.88,6.22c-0.1,0.81-8.66-0.48-8.66-0.48l-0.69-6.43 C231.46,490.96,240.62,490.89,241.69,491.65z" class="st14"/></g></g><g><g><path d="M240.9,497.18c0,0,2.71,3.26,5.34,4.68c2.62,1.42,6.75,1.98,8.3,3.45c1.12,1.06,4.08,5.63-6.82,5.53 c-10.9-0.09-16.15,0.64-17.32-1.11c-1.17-1.75,1.69-12.92,1.69-12.92S234.67,497.75,240.9,497.18z" class="st15"/></g></g><g><g><path d="M303.04,491.65c0,0-0.78,5.4-0.88,6.22c-0.1,0.81-8.66-0.48-8.66-0.48l-0.69-6.43 C292.81,490.96,301.97,490.89,303.04,491.65z" class="st14"/></g></g><g><g><path d="M302.26,497.18c0,0,2.71,3.26,5.34,4.68c2.62,1.42,12.28,2.59,13.83,4.05c1.12,1.06,2.98,5.33-12.35,4.93 c-10.9-0.28-16.15,0.64-17.32-1.11c-1.17-1.75,1.69-12.92,1.69-12.92S295.88,497.81,302.26,497.18z" class="st15"/></g></g><g><g><path d="M248.78,352.8c0,0-8.05,12.78-7.45,24.34c0.6,11.56-2.92,24.17-4.13,36.24 c-1.35,13.46-6.86,45.32-7.06,52.52c-0.2,7.2,0.86,30.19,0.86,30.19l11.04,0.25c0,0,9.27-55.7,11.67-61.38 c2.4-5.68,14.31-46.2,14.71-50.75C268.82,379.66,248.78,352.8,248.78,352.8z" class="st0"/></g></g><g><g><path d="M291.14,354.53c0,0,6.06,31.67,6.86,38.75c0.8,7.07,1.33,34.23,1.73,38.65c0.4,4.42,3.74,57.71,4.8,64.41 h-14.11c0,0-10.83-38.84-10.83-57.21c0-18.38-8.37-39.95-13.77-52.07c-5.4-12.12-17.77-12.41-21.09-34.91 C244.73,352.15,286.64,347.4,291.14,354.53z" class="st0"/></g></g><g><g><path d="M262.21,245.32c0,0,10.8-4.03,15.78,4.19c4.98,8.22,4.5,24.68-0.94,26.7c-5.44,2.02-13.62,0.97-16.41-4.18 c-2.79-5.14-5.3-12.58-5.18-17.55C255.57,249.51,259.37,246.76,262.21,245.32z" class="st10"/></g></g><g><g><path d="M275.87,276.59c0,0-0.45,2.92,0.29,4.35c0.74,1.44-13.99,1.47-13.99,1.47s-1.2-7.81-3.46-14.41 C256.44,261.4,275.87,276.59,275.87,276.59z" class="st10"/></g></g><g><g><path d="M258.71,268c0,0,1.02,1.68,5.17,1.03c4.15-0.65,9.22-6.17,10.95-6.78c1.73-0.61,1.75-1.62,1.75-1.62 l1.09,1.59l1.84,0.12c0,0-1.68-4.94,0.85-6.96c2.53-2.01-2.63-15.99-15.94-11.34c0,0-10.23,2.82-9.85,8.63 C254.93,258.48,256.42,265.1,258.71,268z" class="st5"/></g></g><g><g><path d="M277.04,280.77c0,0-0.05-2.74-1.29-3.01c-1.24-0.26-13.73-1.46-15.26-0.86v3.2 C260.49,280.09,263.43,281.9,277.04,280.77z" class="st16"/></g></g><g><g><path d="M276.3,258.51c-0.23-0.98-2.71-3.76-3.66-0.78c-0.95,2.98,1.43,7,2.77,6.66 C276.73,264.04,276.89,260.98,276.3,258.51z" class="st10"/></g></g><g><g><path d="M297.69,284.92c-8.56-1.13-20.65-4.16-20.65-4.16l-16.55-0.67c0,0-15.19,3.34-21.17,6.04 c-0.57,0.26-0.57,13.55-2.13,17.04l4.96,10.46c0,0,2.87,20.72,3.46,29.94c0.27,4.23-5.91,39.68-5.91,39.68s6.62,1.95,17.92,3.19 c11.29,1.24,39.51-0.45,39.69-1.78c0.18-1.33-5.47-49.67-5.72-52.18c-0.38-3.84,1.32-24.26,1.32-24.26 c2.61-2.02,25.5-12.65,31.75-18.19c1.67-1.48,8.73-8.35,10.73-10.72c7.1-8.4,12.92-15.6,13.63-17.16 c0.8-0.88-7.9-5.58-8.67-5.83c-0.68-0.23-10.09,12.27-13.79,16.28c-1.65,1.78-8.5,6.77-8.5,6.77S303.05,285.23,297.69,284.92z" class="st5"/></g></g><g><g><path d="M259.13,246.29c0,0-13.77,1.08-0.42,21.71L259.13,246.29z" class="st5"/></g></g><polygon points="352.41 246.08 353.54 244.36 351.46 244.63" class="st17"/></g><g><g><path d="M475.96,490.4c0,0,0.78,5.45,0.88,6.27c0.1,0.82,8.66-0.48,8.66-0.48l0.69-6.49 C486.19,489.7,477.03,489.63,475.96,490.4z" class="st18"/></g><g><path d="M476.74,495.98c0,0-2.71,3.29-5.34,4.72c-2.62,1.43-6.75,2-8.3,3.48c-1.12,1.07-4.08,5.68,6.82,5.59 c10.9-0.09,16.15,0.65,17.32-1.12c1.17-1.77-1.69-13.04-1.69-13.04S482.98,496.55,476.74,495.98z" class="st19"/></g><g><path d="M414.61,490.4c0,0,0.78,5.45,0.88,6.27c0.1,0.82,8.66-0.48,8.66-0.48l0.69-6.49 C424.84,489.7,415.68,489.63,414.61,490.4z" class="st18"/></g><g><path d="M415.4,495.98c0,0-2.71,3.29-5.34,4.72c-2.62,1.43-12.28,2.61-13.83,4.09c-1.12,1.07-2.98,5.38,12.35,4.98 c10.89-0.29,16.15,0.65,17.32-1.12c1.17-1.77-1.69-13.04-1.69-13.04S421.78,496.61,415.4,495.98z" class="st19"/></g><g><path d="M472.92,349.58c0,0,4.56,13.54,3.96,25.2c-0.6,11.66,2.36,24.43,3.56,36.61 c1.35,13.58,6.86,45.74,7.06,53.01c0.2,7.27-0.86,30.47-0.86,30.47l-11.04,0.26c0,0-9.27-56.22-11.67-61.96 c-2.4-5.74-14.31-46.63-14.71-51.22C448.83,377.35,472.92,349.58,472.92,349.58z" class="st20"/></g><g><path d="M426.52,351.99c0,0-6.06,31.97-6.86,39.11c-0.8,7.14-1.33,34.55-1.73,39.01c-0.4,4.46-2.67,58.39-4.8,65.02 h14.11c0,0,10.83-39.2,10.83-57.75c0-18.55,8.37-40.32,13.77-52.56c5.4-12.24,17.77-12.53,21.09-35.23 C472.92,349.58,431.02,344.78,426.52,351.99z" class="st20"/></g><g><path d="M455.2,242.72c0,0-11.12-4.15-16.25,4.31c-5.13,8.47-4.63,25.42,0.97,27.5c5.61,2.08,14.03,0.99,16.9-4.3 c2.87-5.3,5.46-12.96,5.34-18.08C462.03,247.04,458.12,244.2,455.2,242.72z" class="st10"/></g><g><path d="M441.78,274.02c0,0,0.45,2.92-0.29,4.35c-0.74,1.44,13.99,1.47,13.99,1.47s1.2-7.81,3.46-14.41 C461.21,258.83,441.78,274.02,441.78,274.02z" class="st10"/></g><g><path d="M458.94,265.43c0,0-1.02,1.68-5.17,1.03c-4.15-0.65-9.21-6.17-10.95-6.78c-1.73-0.61-1.75-1.62-1.75-1.62 l-1.08,1.58l-1.84,0.12c0,0,1.68-4.94-0.85-6.95c-2.53-2.01,2.63-15.99,15.94-11.34c0,0,10.22,2.82,9.85,8.63 C462.72,255.91,461.23,262.53,458.94,265.43z" class="st5"/></g><g><path d="M440.62,278.2c0,0,0.05-2.74,1.29-3.01c1.24-0.26,13.73-1.46,15.26-0.86v3.2 C457.16,277.52,454.22,279.33,440.62,278.2z" class="st16"/></g><g><path d="M441.35,255.94c0.23-0.98,2.71-3.76,3.66-0.78c0.95,2.98-1.43,7-2.76,6.65 C440.92,261.47,440.76,258.41,441.35,255.94z" class="st10"/></g><g><path d="M440.62,278.2c0,0-6.84,2.46-14.77,5.83c0,0-9.12,3.41-10.11,13.48c-0.52,5.35-6.22,33.72-7.28,36.12 c-1.07,2.4-13.69,40.97-14.13,41.77c-0.44,0.8,10.3,5.26,11.01,4.9c0.71-0.36,12.22-35.18,13.38-37.75c0,0,6.63-20.88,6.8-23.99 c0,0,0.19,8.87,0.55,11.36c0.36,2.49-5.89,50.83-5.71,52.17c0.18,1.33,28.39,3.03,39.69,1.78c11.29-1.24,20.41-3.84,20.41-3.84 s-8.89-38.15-8.61-42.38c0.59-9.22,3.67-26.58,3.67-26.58l9.21,17.36l-11.79,30.32l2.7,9.22c0,0,21.9-33.1,22.61-36.12 c0.71-3.02-1.07-6.87-2.23-9.36c-1.16-2.49-8.75-21.44-10.53-24.11c-1.78-2.67-4.78-13.35-12.05-16.32 c-6.07-2.49-16.27-4.52-16.27-4.52L440.62,278.2z" class="st1"/></g><g><rect width="53.27" height="37.16" x="377.74" y="349.67" class="st21" transform="matrix(0.9687 0.2484 -0.2484 0.9687 104.1419 -88.9001)"/></g><g><path d="M389.83,383.26c0,0-1.47,2.38-2.01,3.06c-0.54,0.68,1.32,1.11,2.12,0.42 C390.73,386.05,389.83,383.26,389.83,383.26z" class="st22"/></g><g><path d="M400.57,391.4c0,0,0.87-0.91,1.06-1.49c0,0,0.26-1.09,0.49-1.85c0.07-0.24,0.14-0.45,0.2-0.58 c0.25-0.54,0.95-1.66,1.18-3.13c0.23-1.47,0.87-8.07,0.87-8.07l-4-1.01l-3.21-0.68c0,0-6.94,6.92-7.31,8.27 c-0.04,0.13-0.07,0.26-0.08,0.39c-0.2,1.17,0.14,2.13,0.1,2.75c-0.01,0.23,0.02,2.52,0.56,2.95c0.74,0.6,1.5,0.71,2.12,0.51 c0,0,1.5,1.1,2.76,1.04c0,0,1.35,1.06,2.89,0.54C398.2,391.03,399.69,391.96,400.57,391.4z" class="st23"/></g><g><path d="M416.17,349.65c0,0-9.16,27.73-10.84,30.64c0,0-6.72-1.41-11.01-4.9l10.05-29.93L416.17,349.65z" class="st1"/></g></g><g><g><rect width=".74" height="69.76" x="89.33" y="96.43" class="st24"/></g><g><rect width=".74" height="69.76" x="141.9" y="96.43" class="st24"/></g><g><rect width=".74" height="69.76" x="194.46" y="96.43" class="st24"/></g><g><rect width=".74" height="69.76" x="247.03" y="96.43" class="st24"/></g><g><rect width=".74" height="69.76" x="299.6" y="96.43" class="st24"/></g><rect width="8.36" height="2.42" x="89.7" y="170.32" class="st25"/><rect width="12.59" height="1.82" x="89.7" y="87.83" class="st26"/><rect width="17.86" height="1.82" x="89.7" y="91.19" class="st26"/><rect width="14.78" height="1.82" x="141.7" y="87.83" class="st26"/><rect width="9.45" height="1.82" x="141.7" y="91.19" class="st26"/><rect width="9.16" height="1.82" x="195.2" y="87.83" class="st26"/><rect width="10.68" height="1.82" x="195.2" y="91.19" class="st26"/><rect width="13.34" height="1.82" x="247.77" y="87.83" class="st26"/><rect width="10.68" height="1.82" x="247.77" y="91.19" class="st26"/><rect width="7.97" height="1.82" x="299.97" y="87.83" class="st26"/><rect width="6.38" height="1.82" x="299.97" y="91.19" class="st26"/><rect width="8.36" height="2.42" x="142.27" y="170.32" class="st25"/><rect width="8.36" height="2.42" x="195.2" y="170.32" class="st25"/><rect width="8.36" height="2.42" x="247.77" y="170.32" class="st25"/><rect width="8.36" height="2.42" x="300.33" y="170.32" class="st25"/><g><path d="M281.75,145.46c-16.4,0-30.65-6.37-45.51-13.02c-18.34-8.2-37.31-16.69-62.58-14.36 c-16.14,1.48-26.27,7.39-35.2,12.61c-8.09,4.72-15.74,8.87-26.1,9.23c-16.74,0.57-22.55-5.85-22.65-6.24v-4.12l0,0l0,0 c0.02,0.07,3.68,7.28,22.63,7.2c9.34-0.04,16.23-4.06,24.2-8.72c9.27-5.41,19.78-11.54,36.76-13.1 c26.29-2.42,45.72,6.27,64.51,14.68c19.66,8.79,38.43,17.04,62.15,9.89v3.39C293.2,144.92,287.79,145.46,281.75,145.46z" class="st27"/></g><g><path d="M183.33,144.67c-12.1,0-21.7-7.32-31.1-14.49c-7.13-5.43-14.52-10.99-23.05-13.73 c-26.04-8.36-39.37,6.91-39.48,7.04v-4.65c0.14-0.16,2.52-2.93,9.39-5.58c6.26-2.41,16.76-4.34,31.25,0.19 c9.18,2.87,16.8,8.68,24.17,14.3c14.95,11.4,27.87,21.25,50.29,5.83c16.99-11.68,33-22.82,48.75-26.88 c15.41-3.98,31.48-1.07,46.51,12.46l-0.11,4.22c-31.94-28.86-59.14-10.57-93.02,12.72C197.98,142.28,190.25,144.67,183.33,144.67 z" class="st28"/></g></g></g><g id="XMLID_769_"><polygon id="XMLID_771_" points="415.8 97.82 405.78 100.6 408.66 103.06 387.76 120.53 369.94 116.96 344.9 141.99 347.44 143.74 371.03 119.59 388.68 123.47 410.14 104.34 412.72 106.55" class="st27"/><path id="XMLID_770_" d="M422.22,167.65v-53.03c0-0.73-0.69-1.32-1.54-1.32h-15.02c-0.85,0-1.54,0.6-1.54,1.32v53.03 h-1.95v-38.18c0-0.73-0.69-1.32-1.54-1.32h-15.02c-0.85,0-1.54,0.6-1.54,1.32v38.18h-1.95v-27.62c0-0.73-0.69-1.32-1.54-1.32 h-15.02c-0.85,0-1.54,0.6-1.54,1.32v27.62h-1.95v-15.08c0-0.73-0.69-1.32-1.54-1.32h-15.02c-0.85,0-1.54,0.6-1.54,1.32v15.08h-5.92 v5.1h90.33v-5.1H422.22z" class="st27"/></g></svg>