<svg xmlns="http://www.w3.org/2000/svg" xmlns:xlink="http://www.w3.org/1999/xlink" id="Layer_1" x="0" y="0" version="1.1" viewBox="0 0 550 550" xml:space="preserve" style="enable-background:new 0 0 550 550"><style type="text/css">.st0{fill:#173d7a}.st1{fill:#e9f6ff}.st2{fill:#7879a9}.st3{fill:#e3f2fc}.st4{fill:#d4ecff}.st5{fill:#fffeff}.st6{opacity:.4;fill:#bde1f9}.st7{fill:#555993}.st8{fill:#396caa}.st9{fill:#13315e}.st10{fill:#ffc2b0}.st11{fill:#5793ce}.st12{fill:#fff}.st13{fill:#ea9c92}</style><g><g><path d="M326.43,468.33H115.38c-6.68,0-12.1-5.42-12.1-12.1V150.85c0-6.68,5.42-12.1,12.1-12.1h211.04 c6.68,0,12.1,5.42,12.1,12.1v305.38C338.52,462.91,333.11,468.33,326.43,468.33z" class="st0"/><rect width="208.14" height="290.42" x="116.83" y="152.3" class="st1"/><g><path d="M220.9,461.82c-3.41,0-6.18-2.77-6.18-6.18c0-3.41,2.77-6.18,6.18-6.18c3.41,0,6.18,2.77,6.18,6.18 C227.08,459.05,224.31,461.82,220.9,461.82z M220.9,450.83c-2.65,0-4.81,2.16-4.81,4.81c0,2.65,2.16,4.81,4.81,4.81 c2.65,0,4.81-2.16,4.81-4.81C225.72,452.99,223.56,450.83,220.9,450.83z" class="st2"/></g></g><g><path d="M338.52,168.66H215.66c-2.49,0-4.52,2.02-4.52,4.52v159.84c0,2.49,2.02,4.52,4.52,4.52h122.86V168.66z" class="st3"/><path d="M385.57,333.27H218.71c-1.82,0-3.3-1.48-3.3-3.3V167.7c0-1.82,1.48-3.3,3.3-3.3h166.87 c1.82,0,3.3,1.48,3.3,3.3v162.27C388.87,331.79,387.4,333.27,385.57,333.27z" class="st4"/><rect width="83.08" height="143.36" x="260.6" y="149.31" class="st0" transform="matrix(-1.836970e-16 1 -1 -1.836970e-16 523.1313 -81.1497)"/><rect width="41.91" height="4.2" x="230.46" y="269.35" class="st5"/><rect width="38.91" height="22.74" x="334.91" y="271.45" class="st6"/><rect width="38.91" height="22.74" x="334.91" y="299.35" class="st6"/><rect width="90.13" height="2.81" x="230.46" y="319.2" class="st5"/><g><rect width="11.74" height="6.28" x="237.8" y="312.93" class="st6"/><rect width="11.74" height="21.33" x="259.03" y="297.87" class="st6"/><rect width="11.74" height="16.81" x="280.27" y="302.39" class="st6"/><rect width="11.74" height="36.39" x="301.51" y="282.82" class="st6"/></g><polygon points="290.09 206.3 290.09 235.68 314.2 220.99" class="st5"/></g><g><path d="M214.21,206.17h-84.66c-2.93,0-5.3,2.37-5.3,5.3v46.67c0,2.93,2.37,5.3,5.3,5.3h5.69v7.39l7.39-7.39h71.58 c2.93,0,5.3-2.37,5.3-5.3v-46.67C219.51,208.54,217.14,206.17,214.21,206.17z" class="st4"/><path d="M215.9,203.09h-84.66c-2.93,0-5.3,2.37-5.3,5.3v46.67c0,2.93,2.37,5.3,5.3,5.3h5.69v7.39l7.39-7.39h71.58 c2.93,0,5.3-2.37,5.3-5.3v-46.67C221.2,205.46,218.83,203.09,215.9,203.09z" class="st5"/><g><path d="M209.1,222.59h-71.72c-1.59,0-2.88-1.29-2.88-2.88l0,0c0-1.59,1.29-2.88,2.88-2.88h71.72 c1.59,0,2.88,1.29,2.88,2.88l0,0C211.98,221.31,210.69,222.59,209.1,222.59z" class="st0"/><path d="M177.56,234.73h-40.18c-1.59,0-2.88-1.29-2.88-2.88l0,0c0-1.59,1.29-2.88,2.88-2.88h40.18 c1.59,0,2.88,1.29,2.88,2.88l0,0C180.43,233.44,179.15,234.73,177.56,234.73z" class="st0"/><path d="M209.1,234.73h-18.96c-1.59,0-2.88-1.29-2.88-2.88l0,0c0-1.59,1.29-2.88,2.88-2.88h18.96 c1.59,0,2.88,1.29,2.88,2.88l0,0C211.98,233.44,210.69,234.73,209.1,234.73z" class="st0"/><path d="M152.68,246.86h-15.3c-1.59,0-2.88-1.29-2.88-2.88l0,0c0-1.59,1.29-2.88,2.88-2.88h15.3 c1.59,0,2.88,1.29,2.88,2.88l0,0C155.55,245.57,154.27,246.86,152.68,246.86z" class="st0"/></g></g><g><path d="M338.52,364.58h-49.64c-2.49,0-4.52,2.02-4.52,4.52v39.79c0,2.49,2.02,4.52,4.52,4.52h49.64V364.58z" class="st4"/><path d="M293.11,360.71h72.19c2.49,0,4.52,2.02,4.52,4.52v39.79c0,2.49-2.02,4.52-4.52,4.52h-4.86v6.3l-6.3-6.3 h-61.03c-2.49,0-4.52-2.02-4.52-4.52v-39.79C288.59,362.74,290.62,360.71,293.11,360.71z" class="st0"/><g><path d="M346.43,387.14h11.91c1.09,0,1.97-0.88,1.97-1.97l0,0c0-1.09-0.88-1.97-1.97-1.97h-11.91 c-1.09,0-1.97,0.88-1.97,1.97l0,0C344.46,386.26,345.34,387.14,346.43,387.14z" class="st5"/><path d="M300.06,387.14h38.71c1.09,0,1.97-0.88,1.97-1.97l0,0c0-1.09-0.88-1.97-1.97-1.97h-38.71 c-1.09,0-1.97,0.88-1.97,1.97l0,0C298.09,386.26,298.98,387.14,300.06,387.14z" class="st5"/><path d="M300.06,398.45h16.09c1.09,0,1.97-0.88,1.97-1.97l0,0c0-1.09-0.88-1.97-1.97-1.97h-16.09 c-1.09,0-1.97,0.88-1.97,1.97l0,0C298.09,397.57,298.98,398.45,300.06,398.45z" class="st5"/><path d="M311.98,375.82h-11.91c-1.09,0-1.97-0.88-1.97-1.97l0,0c0-1.09,0.88-1.97,1.97-1.97h11.91 c1.09,0,1.97,0.88,1.97,1.97l0,0C313.95,374.94,313.06,375.82,311.98,375.82z" class="st5"/><path d="M358.35,375.82h-38.71c-1.09,0-1.97-0.88-1.97-1.97l0,0c0-1.09,0.88-1.97,1.97-1.97h38.71 c1.09,0,1.97,0.88,1.97,1.97l0,0C360.31,374.94,359.43,375.82,358.35,375.82z" class="st5"/></g></g><g><path d="M119.85,138.75c-9.15,0-16.56,7.41-16.56,16.56v40.91h50.24c2.49,0,4.52-2.02,4.52-4.52v-52.95H119.85z" class="st4"/><path d="M48.35,192.81h102.98c1.82,0,3.3-1.48,3.3-3.3v-81.18c0-1.82-1.48-3.3-3.3-3.3H48.35 c-1.82,0-3.3,1.48-3.3,3.3v81.18C45.05,191.33,46.53,192.81,48.35,192.81z" class="st0"/><path d="M61.82,111.38L61.82,111.38c-1.05,0-1.89-0.85-1.89-1.89v-8.9c0-1.05,0.85-1.89,1.89-1.89l0,0 c1.05,0,1.89,0.85,1.89,1.89v8.9C63.71,110.53,62.87,111.38,61.82,111.38z" class="st7"/><path d="M70.49,111.38L70.49,111.38c-1.05,0-1.89-0.85-1.89-1.89v-8.9c0-1.05,0.85-1.89,1.89-1.89l0,0 c1.05,0,1.89,0.85,1.89,1.89v8.9C72.39,110.53,71.54,111.38,70.49,111.38z" class="st7"/><path d="M137.86,111.38L137.86,111.38c1.05,0,1.89-0.85,1.89-1.89v-8.9c0-1.05-0.85-1.89-1.89-1.89l0,0 c-1.05,0-1.89,0.85-1.89,1.89v8.9C135.97,110.53,136.82,111.38,137.86,111.38z" class="st7"/><path d="M129.19,111.38L129.19,111.38c1.05,0,1.89-0.85,1.89-1.89v-8.9c0-1.05-0.85-1.89-1.89-1.89l0,0 c-1.05,0-1.89,0.85-1.89,1.89v8.9C127.3,110.53,128.14,111.38,129.19,111.38z" class="st7"/><g><rect width="10.06" height="10.67" x="55.59" y="171.6" class="st4"/><rect width="10.06" height="10.67" x="68.66" y="171.6" class="st4"/><rect width="10.06" height="10.67" x="81.74" y="144.24" class="st4"/><rect width="10.06" height="10.67" x="94.81" y="144.24" class="st4"/><rect width="10.06" height="10.67" x="81.74" y="157.92" class="st4"/><rect width="10.06" height="10.67" x="94.81" y="157.92" class="st4"/><rect width="10.06" height="10.67" x="107.88" y="157.92" class="st4"/><rect width="10.06" height="10.67" x="107.88" y="144.24" class="st4"/><rect width="10.06" height="10.67" x="107.88" y="130.56" class="st4"/><rect width="10.06" height="10.67" x="94.81" y="130.56" class="st4"/><rect width="10.06" height="10.67" x="81.74" y="130.56" class="st4"/><rect width="10.06" height="10.67" x="68.66" y="144.24" class="st4"/><rect width="10.06" height="10.67" x="68.66" y="157.92" class="st4"/><rect width="10.06" height="10.67" x="81.74" y="171.6" class="st4"/><rect width="10.06" height="10.67" x="94.81" y="171.6" class="st4"/><rect width="10.06" height="10.67" x="120.96" y="157.92" class="st4"/><rect width="10.06" height="10.67" x="120.96" y="144.24" class="st4"/><rect width="10.06" height="10.67" x="120.96" y="130.56" class="st4"/><rect width="10.06" height="10.67" x="55.59" y="144.24" class="st4"/><rect width="10.06" height="10.67" x="55.59" y="157.92" class="st4"/><rect width="10.06" height="10.67" x="134.03" y="157.92" class="st4"/><rect width="10.06" height="10.67" x="134.03" y="144.24" class="st4"/><rect width="10.06" height="10.67" x="134.03" y="130.56" class="st4"/></g><rect width="88.5" height="6.4" x="55.59" y="117.53" class="st5"/></g></g><g><ellipse cx="458.23" cy="424.34" class="st8" rx="43.01" ry="24.47"/><g><path d="M478.81,173.86c0,0-0.94,19.02-2.41,31.81c-1.47,12.78-32.71-9.82-32.71-9.82v-14.56L478.81,173.86z" class="st9"/><g><path d="M462.17,410.54c-0.47,1.16-8.56,10.87-16.66,13.3c-3.52,1.06-5.89,1.19-7.44,1.01 c-1.56-0.18-2.52-1.76-1.99-3.22c1.39-3.86,5.39-11.91,15.53-16.87C465.34,398.05,462.17,410.54,462.17,410.54z" class="st0"/><path d="M464.87,414.27c0,0-3.05,7.05-3.99,12.95c-0.57,3.6,1.43,8.27,3.08,11.37c1.02,1.92,3.62,2.35,5.25,0.9 c2.65-2.37,6.01-6.48,6.57-12.38c0.94-9.94,0-11.68,0-11.68L464.87,414.27z" class="st0"/><path d="M484.37,294.09c0,0,1.06,12.54,0,26.42c-1.06,13.87-4.84,78.76-5.54,94.37c0,0,0.35,4.73-8.93,3.69 c-9.28-1.04-8.53-6.29-8.53-6.29s-13.04-0.17-13.45-7.75c-0.41-7.57-13.35-90.43-13.35-120.22L484.37,294.09z" class="st4"/><g><path d="M429.75,229.24l-6.39,9.75l-21.95,26.13c0,0,0.75,2.43,3.49,3.06c2.14,0.5,20.6-16.87,28.57-24.48 c2.12-2.02,2.47-5.25,0.84-7.67L429.75,229.24z" class="st10"/><path d="M442.21,189.22c0,0-10.15-0.26-13.68,14.19c-3.53,14.45-6.29,32.55-3.22,34.05 c9.22,4.51,15.06-0.77,15.06-0.77L442.21,189.22z" class="st11"/><path d="M439.17,189.84c1.73-0.71,3.67-0.81,5.48-0.3c8.64,2.45,41.14,11.85,46.5,16.36 c6.19,5.21-9.28,34.51-9.06,44.11c0.22,9.6,1.32,20.93,2.18,31.37c0.86,10.44,2.03,16.17-6.64,20.6 c-8.67,4.44-23.46,4.64-34.53-3.67c-11.07-8.32-9.07-14.01-8.6-20.04c0.46-6.04,4.23-32.15,3.91-39.56c0,0-3.9-2.83-6.79-7.69 c-2.89-4.86,2.21-13.79,4.33-19.6c2.12-5.81-1.2-12.45-0.54-17.18C435.74,191.79,437.32,190.6,439.17,189.84z" class="st11"/><path d="M464.01,209.57l-3.69,4.17c-0.48,0.54-0.7,1.26-0.59,1.97l3.23,22.23c0.09,0.62-0.07,1.26-0.44,1.77 l-7.9,10.78c-0.35,0.48-1.1,0.37-1.3-0.19l-4.84-13.71c-0.18-0.52-0.18-1.08,0-1.6l7.29-20.46c0.16-0.45,0.18-0.93,0.07-1.39 l-1.3-5.34L464.01,209.57z" class="st12"/><path d="M449.56,199.82c-0.69,5.28,4.23,10.24,10.97,11.09c6.74,0.85,12.77-2.74,13.45-8.01 c0.69-5.28-4.23-10.24-10.97-11.09C456.27,190.96,450.24,194.55,449.56,199.82z" class="st12"/><path d="M453.04,200.26c-0.49,3.77,3.02,7.32,7.84,7.93c4.82,0.61,9.12-1.96,9.61-5.73 c0.49-3.77-3.02-7.32-7.84-7.93C457.84,193.93,453.53,196.49,453.04,200.26z" class="st10"/><path d="M457.83,187.88c0,0,5.87-4.76,7.02-2.35c1.15,2.41,2.1,12.74,2.1,12.74l-11.65,3.08l1.77-10.47 C457.07,190.89,454.74,188.94,457.83,187.88z" class="st10"/><ellipse cx="456.99" cy="175.55" class="st10" rx="17.4" ry="17.14"/><path d="M465.66,188.53c0.1,0.54,0.2,1.12,0.3,1.71c-1.17,5.96-10.23,8.58-10.23,8.58l1.34-7.92 c0,0-1.1-0.92-0.79-1.84C459.86,187.94,464.37,186.96,465.66,188.53z" class="st13"/><ellipse cx="456.99" cy="175.55" class="st10" rx="17.4" ry="17.14"/><polygon points="499.85 248.12 497.9 294 491.1 294.69 486.67 253.39" class="st10"/><path d="M477.48,244.28c0.37-1.6,3.35-2.91,3.8-4.99c2.34-10.69,2.9-26.45,2.9-26.45l1.9,21.53 c-2.19,6.38-4.08,12.25-4,15.64c0.13,5.64,0.57,11.87,1.07,18.16l0,0.02C483.16,268.19,475.23,254.08,477.48,244.28z" class="st8"/><path d="M489.84,204.96c0,0,5.44,2.05,8.52,18.52c3.08,16.47,5.38,32.98-0.11,35.1 c-5.49,2.13-10.08,3.73-11.69-0.68c-1.61-4.41-2.61-25.64-2.82-33.27C483.55,216.99,483.25,206.47,489.84,204.96z" class="st11"/><path d="M403.03,263.21c0,0-2.95,1.07-5.08,3.35c-1.75,1.88-2.71,3.47-3.47,4.59c-1.7,2.49-3.12,7.88-2.09,8.55 c1.03,0.67,6.95-9.02,7.9-6.77c0.95,2.25-0.01,4.34,1.21,4.37c1.22,0.03,5.47-9.74,8.81-12.77 C413.66,261.51,403.03,263.21,403.03,263.21z" class="st10"/></g><path d="M461.37,412.27c0,0-1.62-0.02-3.72-0.38l0,0l-2.55-100.86L461.37,412.27z" class="st8"/></g><g><path d="M471.22,357.79l3.62-4.66l38.08-21.73c1.22-0.7,2.21-2.56,2.21-4.17l-0.03-30.73l2.19-2.82l-2.06-1.17l0,0 c-0.39-0.25-0.92-0.24-1.49,0.08l-43.16,24.63c-1.22,0.7-2.21,2.56-2.21,4.17l0.04,33.46c0,0.9,0.32,1.53,0.81,1.78l0,0 L471.22,357.79z" class="st8"/><path d="M497.55,340.17l2.71-1.54l14.85-25.42l-0.02-16.7l2.19-2.82l-2.06-1.17l0,0c-0.39-0.25-0.92-0.24-1.49,0.08 l-43.16,24.63c-0.65,0.37-1.22,1.06-1.63,1.87L497.55,340.17z" class="st8"/><path d="M516.31,294.94l0.97-1.25l-2.06-1.17l0,0c-0.39-0.25-0.92-0.24-1.49,0.08l-0.76,0.43L516.31,294.94z" class="st8"/><path d="M470.18,317.5c-0.96,0.77-1.7,2.23-1.8,3.58l4.22,2.4l2.02-3.46L470.18,317.5z" class="st8"/><path d="M472.63,318.4l43.16-24.63c1.22-0.7,2.21,0.04,2.21,1.65l0.04,33.46c0,1.61-0.99,3.47-2.21,4.17 l-43.16,24.63c-1.22,0.7-2.21-0.04-2.21-1.65l-0.04-33.46C470.42,320.97,471.41,319.1,472.63,318.4z" class="st4"/><path d="M471.98,318.02l43.16-24.63c0.72-0.41,1.35-0.31,1.76,0.16c-0.33-0.06-0.7,0-1.11,0.23l-43.16,24.63 c-1.22,0.7-2.21,2.56-2.21,4.17l0.04,33.46c0,0.66,0.17,1.16,0.46,1.49c-0.66-0.13-1.11-0.8-1.11-1.87l-0.04-33.46 C469.77,320.58,470.76,318.71,471.98,318.02z" class="st12"/></g><polygon points="481.49 342.4 483.55 341.23 483.55 323.83 481.49 325" class="st12"/><polygon points="486.3 339.67 488.35 338.5 488.35 321.1 486.3 322.27" class="st12"/><polygon points="491.1 336.94 493.15 335.77 493.15 318.37 491.1 319.53" class="st12"/><path d="M497.85,293.61c0,0,1.8,10.71,1.53,14.14c-0.27,3.43-2.13,9.09-3.55,8.97c-1.41-0.12-0.05-13.79-2.53-12.43 c-2.48,1.36-2.74,3.7-3.87,2.87c-1.12-0.83,1.96-12.51,1.14-17.58C489.75,284.51,497.85,293.61,497.85,293.61z" class="st10"/><path d="M450.31,177.04c-8.73,3.05-10.43,1.19-10.51,1.09c-0.08-0.52-0.14-1.04-0.18-1.58 c-0.11-1.9,0.1-3.74,0.58-5.48l22.64-3.01C462.84,168.07,459.27,173.91,450.31,177.04z" class="st13"/><path d="M439,159.48c2.06-1.74,9.48-10.33,22.77-8.3c8.31,1.27,15.31,6.85,16.87,19.6 c1.05,8.59-2.15,17.04-8.04,23.29c-0.32-0.15-0.65-0.28-0.94-0.47c-3.33-2.16-3.69-3.35-3.69-3.36l-0.74-6.5 c0.02-0.92,0.72-1.74,1.66-1.8c0.72-0.04,1.6-0.39,2.44-1.46c1.91-2.46,1.03-6.3-2.79-6.44c-2-0.08-2.77-1.14-3.05-2.14 c-0.25-0.87-1.18-1.35-2.04-1.05c-4.34,1.55-15.05,4.89-21.94,2.97C430.69,171.35,436.94,161.21,439,159.48z" class="st0"/><path d="M448.91,184.79l-5.32-1.44c0,0,2.54,3.94,6.25,4.94c3.71,1,4.29-2.09,4.29-2.09L448.91,184.79z" class="st12"/><polygon points="488.8 306.83 493.33 304.27 491.63 307.01 489.34 307.84" class="st8"/></g><path d="M467.15,180.89c0,0.98,0.81,1.78,1.8,1.78c1,0,1.8-0.8,1.8-1.78c0-0.98-0.81-1.78-1.8-1.78 C467.95,179.12,467.15,179.91,467.15,180.89z" class="st12"/></g><g><polygon points="40.65 300.96 38.31 298.42 49.45 286.32 51.79 288.87" class="st4"/><polygon points="49.45 300.96 38.31 288.87 40.65 286.32 51.79 298.42" class="st4"/></g><path d="M272.73,513.09c0,4.69-3.5,8.5-7.82,8.5c-4.32,0-7.82-3.8-7.82-8.5c0-4.69,3.5-8.5,7.82-8.5	C269.23,504.59,272.73,508.4,272.73,513.09z" class="st4"/><g><path d="M59.21,505.02l1.68-3.1c0,0,1.41,0.84,2.91,0.33c1.21-0.41,2.25-1.6,3.1-3.52c3.01-6.77,8.56-7.29,11.08-6.61 l-0.79,3.5l0.4-1.75l-0.38,1.75c-0.48-0.12-4.79-1.01-7.31,4.68c-1.28,2.88-3.02,4.7-5.16,5.41 C61.87,506.64,59.47,505.18,59.21,505.02z" class="st11"/></g><g><polygon points="504.1 511.34 503.38 508.28 511.54 506.01 512.26 509.07" class="st11"/><polygon points="499.94 515.75 499.22 512.7 507.38 510.43 508.1 513.48" class="st11"/><polygon points="495.78 520.16 495.06 517.11 503.22 514.84 503.94 517.89" class="st11"/><polygon points="491.61 524.58 490.89 521.52 499.05 519.25 499.77 522.3" class="st11"/></g><path d="M326.07,111.38c-8.38,0-15.19-7.41-15.19-16.51c0-9.1,6.81-16.51,15.19-16.51c8.38,0,15.19,7.41,15.19,16.51	C341.27,103.97,334.45,111.38,326.07,111.38z M326.07,81.96c-6.55,0-11.88,5.79-11.88,12.91c0,7.12,5.33,12.91,11.88,12.91	s11.88-5.79,11.88-12.91C337.95,87.75,332.62,81.96,326.07,81.96z" class="st4"/><polygon points="112.19 46.19 95.63 55.03 87.49 37.04 104.05 28.2" class="st11"/><path d="M493.73,46.55c0,2.73-2.03,4.94-4.54,4.94s-4.54-2.21-4.54-4.94s2.03-4.94,4.54-4.94S493.73,43.82,493.73,46.55	z" class="st4"/></svg>